<svg width="22" height="23" viewBox="0 0 22 23" fill="none" xmlns="http://www.w3.org/2000/svg">
<path d="M9.625 15.1875V9.04297C9.625 8.26953 8.98047 7.66797 8.25 7.66797H6.1875C4.64062 7.66797 3.4375 8.91406 3.4375 10.418V13.8125C3.4375 15.3594 4.64062 16.5625 6.1875 16.5625H8.25C8.98047 16.5625 9.625 15.9609 9.625 15.1875ZM7.5625 14.5H6.1875C5.80078 14.5 5.5 14.1992 5.5 13.8125V10.418C5.5 10.0312 5.80078 9.73047 6.1875 9.73047H7.5625V14.5ZM11 0.75C4.85547 0.75 0.171875 5.86328 0 11.75V12.4375C0 12.8242 0.300781 13.125 0.6875 13.125H1.375C1.71875 13.125 2.0625 12.8242 2.0625 12.4375V11.75C2.0625 6.85156 6.05859 2.8125 11 2.8125C15.8984 2.8125 19.9375 6.85156 19.9375 11.75H19.8945C19.8945 11.8789 19.9375 18.8828 19.9375 18.8828C19.9375 19.9141 19.1211 20.6875 18.0898 20.6875H13.75C13.75 19.5703 12.8047 18.625 11.6875 18.625H10.3125C9.15234 18.625 8.25 19.5703 8.25 20.6875C8.25 21.8477 9.15234 22.75 10.3125 22.75H18.0898C20.2383 22.75 22 21.0312 22 18.8828V11.75C21.7852 5.86328 17.1016 0.75 11 0.75ZM15.8125 16.5625C17.3164 16.5625 18.5625 15.3594 18.5625 13.8125V10.418C18.5625 8.91406 17.3164 7.66797 15.8125 7.66797H13.75C12.9766 7.66797 12.375 8.26953 12.375 9.04297V15.1875C12.375 15.9609 12.9766 16.5625 13.75 16.5625H15.8125ZM14.4375 9.73047H15.8125C16.1562 9.73047 16.5 10.0312 16.5 10.418V13.8125C16.5 14.1992 16.1562 14.5 15.8125 14.5H14.4375V9.73047Z" fill="#FCC41A"/>
</svg>
