<svg width="17" height="24" viewBox="0 0 17 24" fill="none" xmlns="http://www.w3.org/2000/svg">
<path d="M8.25 0.75C3.65234 0.75 0 4.48828 0 9C0 12.0938 0.988281 13.0391 6.48828 21.8047C7.30469 23.0938 9.15234 23.0938 9.96875 21.8047C15.4688 13.0391 16.5 12.0938 16.5 9C16.5 4.44531 12.7617 0.75 8.25 0.75ZM8.25 20.6875C2.75 11.9219 2.0625 11.3633 2.0625 9C2.0625 5.60547 4.8125 2.8125 8.25 2.8125C11.6445 2.8125 14.4375 5.60547 14.4375 9C14.4375 11.3633 13.75 11.8359 8.25 20.6875ZM4.8125 9C4.8125 10.9336 6.31641 12.4375 8.25 12.4375C10.1406 12.4375 11.6875 10.9336 11.6875 9C11.6875 7.10938 10.1406 5.5625 8.25 5.5625C6.31641 5.5625 4.8125 7.10938 4.8125 9Z" fill="#FCC41A"/>
</svg>
