<svg width="13" height="13" viewBox="0 0 13 13" fill="none" xmlns="http://www.w3.org/2000/svg">
<path d="M11.9688 7.95312C12.0508 7.57031 12.1055 7.16016 12.1055 6.75C12.1055 3.66016 9.58984 1.14453 6.5 1.14453C6.08984 1.14453 5.67969 1.19922 5.29688 1.28125C4.77734 0.871094 4.12109 0.625 3.4375 0.625C1.74219 0.625 0.375 2.01953 0.375 3.6875C0.375 4.39844 0.59375 5.05469 1.00391 5.57422C0.921875 5.95703 0.867188 6.36719 0.867188 6.75C0.867188 9.86719 3.38281 12.3828 6.47266 12.3828C6.88281 12.3828 7.29297 12.3281 7.67578 12.2461C8.19531 12.6562 8.85156 12.875 9.53516 12.875C11.2305 12.875 12.5977 11.5078 12.5977 9.8125C12.625 9.12891 12.3789 8.47266 11.9688 7.95312ZM6.66406 10.4688C4.85938 10.4688 3.35547 9.67578 3.35547 8.69141C3.35547 8.25391 3.60156 7.84375 4.17578 7.84375C5.02344 7.84375 5.10547 9.07422 6.58203 9.07422C7.26562 9.07422 7.73047 8.77344 7.73047 8.36328C7.73047 7.84375 7.29297 7.76172 6.58203 7.59766C4.88672 7.16016 3.35547 6.99609 3.35547 5.21875C3.35547 3.57812 4.96875 2.97656 6.33594 2.97656C7.83984 2.97656 9.37109 3.57812 9.37109 4.50781C9.37109 4.97266 9.07031 5.38281 8.55078 5.38281C7.78516 5.38281 7.75781 4.45312 6.5 4.45312C5.78906 4.45312 5.35156 4.64453 5.35156 5.08203C5.35156 5.60156 5.92578 5.65625 7.23828 5.98438C8.35938 6.23047 9.72656 6.69531 9.72656 8.08984C9.72656 9.70312 8.16797 10.4688 6.66406 10.4688Z" fill="#2B221F"/>
</svg>
