<svg width="36" height="36" viewBox="0 0 36 36" fill="none" xmlns="http://www.w3.org/2000/svg">
<path d="M18.5 9.01562C13.5 9.01562 9.51562 13.0781 9.51562 18C9.51562 23 13.5 26.9844 18.5 26.9844C23.4219 26.9844 27.4844 23 27.4844 18C27.4844 13.0781 23.4219 9.01562 18.5 9.01562ZM18.5 23.8594C15.2969 23.8594 12.6406 21.2812 12.6406 18C12.6406 14.7969 15.2188 12.2188 18.5 12.2188C21.7031 12.2188 24.2812 14.7969 24.2812 18C24.2812 21.2812 21.7031 23.8594 18.5 23.8594ZM29.9062 8.70312C29.9062 7.53125 28.9688 6.59375 27.7969 6.59375C26.625 6.59375 25.6875 7.53125 25.6875 8.70312C25.6875 9.875 26.625 10.8125 27.7969 10.8125C28.9688 10.8125 29.9062 9.875 29.9062 8.70312ZM35.8438 10.8125C35.6875 8 35.0625 5.5 33.0312 3.46875C31 1.4375 28.5 0.8125 25.6875 0.65625C22.7969 0.5 14.125 0.5 11.2344 0.65625C8.42188 0.8125 6 1.4375 3.89062 3.46875C1.85938 5.5 1.23438 8 1.07812 10.8125C0.921875 13.7031 0.921875 22.375 1.07812 25.2656C1.23438 28.0781 1.85938 30.5 3.89062 32.6094C6 34.6406 8.42188 35.2656 11.2344 35.4219C14.125 35.5781 22.7969 35.5781 25.6875 35.4219C28.5 35.2656 31 34.6406 33.0312 32.6094C35.0625 30.5 35.6875 28.0781 35.8438 25.2656C36 22.375 36 13.7031 35.8438 10.8125ZM32.0938 28.3125C31.5469 29.875 30.2969 31.0469 28.8125 31.6719C26.4688 32.6094 21 32.375 18.5 32.375C15.9219 32.375 10.4531 32.6094 8.1875 31.6719C6.625 31.0469 5.45312 29.875 4.82812 28.3125C3.89062 26.0469 4.125 20.5781 4.125 18C4.125 15.5 3.89062 10.0312 4.82812 7.6875C5.45312 6.20312 6.625 5.03125 8.1875 4.40625C10.4531 3.46875 15.9219 3.70312 18.5 3.70312C21 3.70312 26.4688 3.46875 28.8125 4.40625C30.2969 4.95312 31.4688 6.20312 32.0938 7.6875C33.0312 10.0312 32.7969 15.5 32.7969 18C32.7969 20.5781 33.0312 26.0469 32.0938 28.3125Z" fill="white"/>
</svg>
