<svg width="55" height="55" viewBox="0 0 55 55" fill="none" xmlns="http://www.w3.org/2000/svg">
<circle cx="27.5" cy="27.5" r="27.5" fill="#FCC41A"/>
<g clip-path="url(#clip0_1_5839)">
<path d="M34.0596 23.3595C33.976 22.9409 33.6416 22.6061 33.2236 22.6061H30.7154C30.7154 20.7644 29.2105 19.2576 27.3712 19.2576C25.5319 19.2576 24.027 20.7644 24.027 22.6061H21.5189C21.1008 22.6061 20.7664 22.9409 20.6828 23.3595L19.0107 35.0792C18.9271 35.5814 19.3451 36 19.8468 36H34.8957C35.3973 36 35.8153 35.5814 35.7317 35.0792L34.0596 23.3595ZM27.3712 20.9318C28.2909 20.9318 29.0433 21.6852 29.0433 22.6061H25.6991C25.6991 21.6852 26.4516 20.9318 27.3712 20.9318ZM20.85 34.3257L22.2713 24.2803H24.027V25.1174C24.027 26.2057 25.6991 26.2057 25.6991 25.1174V24.2803H29.0433V25.1174C29.0433 26.2057 30.7154 26.2057 30.7154 25.1174V24.2803H32.4711L33.8924 34.3257H20.85Z" fill="#2B221F"/>
</g>
<defs>
<clipPath id="clip0_1_5839">
<rect width="17" height="17" fill="white" transform="translate(19 19)"/>
</clipPath>
</defs>
</svg>
