<svg width="57" height="57" viewBox="0 0 57 57" fill="none" xmlns="http://www.w3.org/2000/svg">
<g id="007-honey" clip-path="url(#clip0_1_6158)">
<g id="Group">
<g id="Group_2">
<g id="Group_3">
<path id="Vector" d="M54.7568 22.742C53.7731 21.8144 52.6634 21.2003 51.5951 20.8923C51.6374 20.6725 51.6659 20.451 51.6659 20.2257C51.6659 19.003 51.0325 17.9264 50.0699 17.2571L51.4967 15.2401L49.9954 14.1791L48.2873 16.5934C48.1328 16.575 47.9802 16.5483 47.8202 16.5483C47.6603 16.5483 47.5077 16.575 47.3532 16.5934L45.6441 14.1782L44.1428 15.241L45.5697 17.2571C44.6071 17.9264 43.9737 19.003 43.9737 20.2257C43.9737 20.4482 44.0022 20.6679 44.0435 20.8849C42.967 21.1901 41.8481 21.807 40.8552 22.742C40.4672 23.107 40.1271 23.4986 39.8311 23.9032H20.2258C18.7052 23.9032 17.4677 25.1406 17.4677 26.6612V27.5806H6.43548C4.91487 27.5806 3.67742 28.818 3.67742 30.3386V32.1774C3.67742 32.8862 3.95323 33.527 4.39452 34.0161C3.95323 34.5052 3.67742 35.146 3.67742 35.8548V37.6935C3.67742 38.4023 3.95323 39.0431 4.39452 39.5322C3.95323 40.0213 3.67742 40.6621 3.67742 41.3709V43.2096C3.67742 43.5332 3.74361 43.8403 3.84658 44.129H2.75806C1.23745 44.129 0 45.3664 0 46.887C0 48.4076 1.23745 49.6451 2.75806 49.6451H3.06697C5.00129 54.0672 9.42706 56.9999 14.2905 56.9999H31.6773C36.5407 56.9999 40.9655 54.0672 42.9008 49.6451H43.2097C44.7303 49.6451 45.9677 48.4076 45.9677 46.887C45.9677 45.3664 44.7303 44.129 43.2097 44.129H42.1212C42.2241 43.8403 42.2903 43.5332 42.2903 43.2096V42.4925C42.8502 41.9878 43.2097 41.2643 43.2097 40.4515V29.8082C43.7264 29.6482 44.2495 29.4119 44.7643 29.104C45.4768 30.449 46.5855 31.258 47.8202 31.258C49.0605 31.258 50.1609 30.4563 50.8707 29.1177C51.9105 29.7346 52.9907 30.0647 53.9551 30.0647C54.811 30.0647 55.575 29.8109 56.1367 29.2795C56.7021 28.7491 57 28.0118 57 27.1485C57 25.7125 56.1616 24.065 54.7568 22.742ZM47.8202 18.387C48.9271 18.387 49.8272 19.2117 49.8272 20.2257C49.8272 20.3885 49.8024 20.5466 49.7582 20.6992C49.0696 20.7691 48.4482 20.9971 47.9775 21.4411C47.9122 21.5018 47.8635 21.5754 47.8065 21.6415C47.7485 21.5754 47.6998 21.5018 47.6345 21.4411C47.1703 21.0035 46.5598 20.7755 45.8822 20.702C45.8372 20.5484 45.8124 20.3894 45.8124 20.2257C45.8124 19.2117 46.7124 18.387 47.8202 18.387ZM5.51613 30.3386C5.51613 29.8312 5.928 29.4193 6.43548 29.4193H17.4677H18.3871H29.4194C29.9268 29.4193 30.3387 29.8312 30.3387 30.3386V33.0967H6.43548C5.928 33.0967 5.51613 32.6848 5.51613 32.1774V30.3386ZM5.51613 35.8548C5.51613 35.3473 5.928 34.9354 6.43548 34.9354H30.3387C30.3387 36.456 31.5762 37.6935 33.0968 37.6935C34.6174 37.6935 35.8548 36.456 35.8548 34.9354V33.0967C35.8548 32.5892 36.2667 32.1774 36.7742 32.1774C37.2817 32.1774 37.6936 32.5892 37.6936 33.0967V34.9354H39.5323V33.0967C39.5323 31.5761 38.2948 30.3386 36.7742 30.3386C35.2536 30.3386 34.0161 31.5761 34.0161 33.0967V34.9354C34.0161 35.4429 33.6043 35.8548 33.0968 35.8548C32.5893 35.8548 32.1774 35.4429 32.1774 34.9354V30.3386C32.1774 28.818 30.94 27.5806 29.4194 27.5806H19.3065V26.6612C19.3065 26.1537 19.7183 25.7419 20.2258 25.7419H38.8639C38.7048 26.2209 38.6129 26.6952 38.6129 27.1485C38.6129 28.0108 38.9108 28.7482 39.4753 29.2795C39.9726 29.7493 40.6336 29.9902 41.371 30.0426V40.4515C41.371 40.959 40.9591 41.3709 40.4516 41.3709C39.9441 41.3709 39.5323 40.959 39.5323 40.4515V36.7741H37.6936V38.6128H6.43548C5.928 38.6128 5.51613 38.201 5.51613 37.6935V35.8548ZM5.51613 41.3709C5.51613 40.8634 5.928 40.4515 6.43548 40.4515H37.6936C37.6936 41.9722 38.931 43.2096 40.4516 43.2096C40.4516 43.7171 40.0397 44.129 39.5323 44.129H6.43548C5.928 44.129 5.51613 43.7171 5.51613 43.2096V41.3709ZM31.6773 55.1612H14.2905C10.4328 55.1612 6.89976 52.9897 5.10794 49.6451H40.8598C39.068 52.9897 35.5349 55.1612 31.6773 55.1612ZM43.2097 45.9677C43.7172 45.9677 44.129 46.3795 44.129 46.887C44.129 47.3945 43.7172 47.8064 43.2097 47.8064H2.75806C2.25058 47.8064 1.83871 47.3945 1.83871 46.887C1.83871 46.3795 2.25058 45.9677 2.75806 45.9677H6.43548H39.5323H43.2097ZM44.9941 26.641C43.3807 28.1616 41.4151 28.5818 40.7357 27.941C40.5472 27.7635 40.4516 27.4969 40.4516 27.1485C40.4516 26.4231 40.8892 25.2362 42.1156 24.0797C43.2455 23.016 44.5473 22.4901 45.4593 22.4901C45.851 22.4901 46.17 22.5857 46.3741 22.7779C46.5626 22.9562 46.6591 23.2238 46.6591 23.5722C46.6591 24.498 46.0211 25.6729 44.9941 26.641ZM47.8202 29.4193C47.2309 29.4193 46.6407 28.8677 46.2527 27.9823C46.2537 27.9814 46.2546 27.9805 46.2555 27.9805C46.9046 27.3691 47.4268 26.687 47.8074 25.9892C48.188 26.687 48.7093 27.3682 49.3583 27.9805C49.3648 27.986 49.3712 27.9906 49.3767 27.997C48.9897 28.8631 48.4022 29.4193 47.8202 29.4193ZM54.8763 27.9428C54.195 28.5836 52.2322 28.1634 50.6178 26.6428C49.5918 25.6748 48.9529 24.4998 48.9529 23.574C48.9529 23.2256 49.0485 22.9581 49.2379 22.7797C49.442 22.5876 49.761 22.4919 50.1526 22.4919C51.0646 22.4919 52.3665 23.0169 53.4963 24.0815C54.7237 25.2362 55.1613 26.4231 55.1613 27.1485C55.1613 27.4969 55.0648 27.7635 54.8763 27.9428Z" fill="#639533"/>
<path id="Vector_2" d="M12.8713 19.3064C14.392 19.3064 15.6294 18.069 15.6294 16.5484V13.7903H17.4681V19.3064C17.4681 20.8271 18.7056 22.0645 20.2262 22.0645C21.7468 22.0645 22.9842 20.8271 22.9842 19.3064V17.4677H21.1455V19.3064C21.1455 19.8139 20.7337 20.2258 20.2262 20.2258C19.7187 20.2258 19.3068 19.8139 19.3068 19.3064V11.0323C19.3068 9.51164 18.0694 8.27419 16.5488 8.27419C15.0282 8.27419 13.7907 9.51164 13.7907 11.0323V16.5484C13.7907 17.0559 13.3788 17.4677 12.8713 17.4677C12.3639 17.4677 11.952 17.0559 11.952 16.5484V4.59677C11.952 3.07616 13.1894 1.83871 14.7101 1.83871H20.2262C20.7337 1.83871 21.1455 2.25058 21.1455 2.75806V15.629H22.9842V13.7903H23.9036C25.1751 13.7903 26.2369 12.9215 26.555 11.7494C26.8731 11.8771 27.2179 11.9516 27.581 11.9516H28.5004C29.6974 11.9516 30.7087 11.1803 31.0893 10.1129H54.2423C55.7629 10.1129 57.0004 8.87545 57.0004 7.35484C57.0004 5.83423 55.7629 4.59677 54.2423 4.59677H31.0893C30.7087 3.5294 29.6974 2.75806 28.5004 2.75806H27.581C27.2179 2.75806 26.8731 2.83253 26.555 2.96032C26.2369 1.78815 25.1751 0.919355 23.9036 0.919355H22.9842C22.7636 0.919355 22.5485 0.953371 22.337 1.00394C21.8305 0.396242 21.0775 0 20.2262 0H14.7101C12.1754 0 10.1133 2.06211 10.1133 4.59677V16.5484C10.1133 18.069 11.3507 19.3064 12.8713 19.3064ZM15.6294 11.0323C15.6294 10.5248 16.0413 10.1129 16.5488 10.1129C17.0562 10.1129 17.4681 10.5248 17.4681 11.0323V11.9516H15.6294V11.0323ZM31.2584 6.43548H54.2423C54.7498 6.43548 55.1617 6.84735 55.1617 7.35484C55.1617 7.86232 54.7498 8.27419 54.2423 8.27419H31.2584V6.43548ZM26.6617 5.51613C26.6617 5.00864 27.0735 4.59677 27.581 4.59677H28.5004C29.0079 4.59677 29.4197 5.00864 29.4197 5.51613V9.19355C29.4197 9.70103 29.0079 10.1129 28.5004 10.1129H27.581C27.0735 10.1129 26.6617 9.70103 26.6617 9.19355V5.51613ZM22.9842 2.75806H23.9036C24.4111 2.75806 24.823 3.16994 24.823 3.67742V5.51613V9.19355V11.0323C24.823 11.5397 24.4111 11.9516 23.9036 11.9516H22.9842V2.75806Z" fill="#639533"/>
</g>
</g>
</g>
</g>
<defs>
<clipPath id="clip0_1_6158">
<rect width="57" height="57" fill="white"/>
</clipPath>
</defs>
</svg>
