<svg width="57" height="57" viewBox="0 0 57 57" fill="none" xmlns="http://www.w3.org/2000/svg">
<g id="008-beehive" clip-path="url(#clip0_1_6134)">
<g id="Group">
<g id="Group_2">
<g id="Group_3">
<path id="Vector" d="M56.9998 37.5694L51.0887 25.7473H35.2733L29.3623 37.5694L32.8308 51.4395H30.3349V56.945H56.0271V51.4395H53.5313L56.9998 37.5694ZM36.4075 27.5825H49.9546L54.5425 36.7583H31.8196L36.4075 27.5825ZM54.192 53.2747V55.1098H32.1701V53.2747H47.7689V51.4395H34.721L31.5094 38.5934H54.8517L51.6402 51.4395H49.6041V53.2747H54.192Z" fill="#639533"/>
<path id="Vector_2" d="M43.1811 28.5C41.1569 28.5 39.5107 30.1461 39.5107 32.1703C39.5107 34.1945 41.1569 35.8406 43.1811 35.8406C45.2052 35.8406 46.8514 34.1945 46.8514 32.1703C46.8514 30.1461 45.2052 28.5 43.1811 28.5ZM43.1811 34.0055C42.169 34.0055 41.3459 33.1824 41.3459 32.1703C41.3459 31.1582 42.169 30.3352 43.1811 30.3352C44.1922 30.3352 45.0162 31.1582 45.0162 32.1703C45.0162 33.1824 44.1922 34.0055 43.1811 34.0055Z" fill="#639533"/>
<path id="Vector_3" d="M51.4393 42.2639H34.9229V47.7694H51.4393V42.2639ZM49.6041 45.9342H36.758V44.0991H49.6041V45.9342Z" fill="#639533"/>
<path id="Vector_4" d="M21.7264 25.7473H5.91104L0 37.5694L3.46845 51.4395H0.972634V56.945H26.6648V51.4395H24.169L27.6366 37.5694L21.7264 25.7473ZM24.8297 53.2747V55.1098H2.80779V53.2747H24.8297ZM22.2779 51.4395H5.35866L2.14713 38.5934H21.1594V36.7583H2.45728L7.04517 27.5825H20.5923L25.1802 36.7583H22.9945V38.5934H25.4894L22.2779 51.4395Z" fill="#639533"/>
<path id="Vector_5" d="M13.8188 28.5C11.7946 28.5 10.1484 30.1461 10.1484 32.1703C10.1484 34.1945 11.7946 35.8406 13.8188 35.8406C15.8429 35.8406 17.4891 34.1945 17.4891 32.1703C17.4891 30.1461 15.8429 28.5 13.8188 28.5ZM13.8188 34.0055C12.8067 34.0055 11.9836 33.1824 11.9836 32.1703C11.9836 31.1582 12.8067 30.3352 13.8188 30.3352C14.8299 30.3352 15.6539 31.1582 15.6539 32.1703C15.6539 33.1824 14.8299 34.0055 13.8188 34.0055Z" fill="#639533"/>
<path id="Vector_6" d="M5.56055 47.7694H22.077V42.2639H5.56055V47.7694ZM7.39571 44.0991H20.2418V45.9342H7.39571V44.0991Z" fill="#639533"/>
<path id="Vector_7" d="M32.1703 19.473C32.4978 18.4921 33.3126 17.7856 34.2908 17.5672C34.511 18.0471 34.8037 18.5031 35.1992 18.8977C36.0938 19.7923 37.2683 20.2392 38.4437 20.2392C39.3017 20.2392 40.1559 19.9951 40.9047 19.5179C42.4343 20.5493 44.5585 21.1595 46.8066 21.1595C51.4376 21.1595 55.0648 18.7408 55.0648 15.654C55.0648 13.6702 53.5627 11.9672 51.2632 11.0001C55.6961 7.5518 57.5119 4.81099 56.7999 2.64275C56.2604 0.998447 54.3188 0.0551758 51.4715 0.0551758C49.8015 0.0551758 48.4132 0.639674 47.3397 1.78665C45.9605 1.52147 42.7086 1.10305 40.8258 2.57393C39.9366 3.26854 39.4659 4.30173 39.4659 5.56065C39.4659 8.10509 41.2442 9.84758 42.716 10.8578C42.0498 11.1074 41.4442 11.4231 40.9047 11.7892C39.3356 10.7899 37.2977 10.8459 35.7754 11.9387L35.0625 11.7607C33.9008 11.4699 33.0878 10.4302 33.0878 9.23096H31.2527C31.2527 11.2056 32.552 12.9169 34.4293 13.4766C34.0403 14.196 33.8476 14.9888 33.8705 15.7861C32.2831 16.1486 30.9609 17.2983 30.4305 18.8903L30.3828 19.0316L32.1225 19.6161L32.1703 19.473ZM53.2296 15.654C53.2296 16.9506 51.9753 18.1131 50.1401 18.7674C50.353 17.7892 50.4769 16.7441 50.4769 15.654C50.4769 14.5676 50.3539 13.5197 50.141 12.5407C51.9753 13.1949 53.2296 14.3575 53.2296 15.654ZM48.6472 3.07126C49.3739 2.27663 50.2979 1.89033 51.4715 1.89033C53.3856 1.89033 54.7922 2.40968 55.0565 3.21532C55.2263 3.73191 55.2997 5.77536 49.1124 10.3266L49.1427 10.3678C48.4059 10.2275 47.625 10.1485 46.8111 10.1485C46.7809 8.53085 46.9249 4.95413 48.6472 3.07126ZM46.3542 12.0021C46.5056 11.9956 46.6552 11.9837 46.8075 11.9837C47.2571 11.9837 47.6966 12.0131 48.1233 12.0663C48.4582 13.138 48.6426 14.3602 48.6426 15.654C48.6426 16.9331 48.4545 18.1737 48.1233 19.2418C47.6957 19.295 47.2562 19.3243 46.8066 19.3243C46.6533 19.3243 46.5038 19.3124 46.3533 19.306C46.6506 18.1819 46.8075 16.9414 46.8075 15.654C46.8075 14.3667 46.6506 13.1261 46.3542 12.0021ZM41.3011 5.56065C41.3011 4.8587 41.5085 4.36963 41.9544 4.02187C42.9325 3.25661 44.8218 3.29056 46.2083 3.46857C45.0971 5.72673 44.9512 8.53728 44.9714 10.0577C44.007 9.58882 41.3011 8.05188 41.3011 5.56065ZM44.5071 12.2415C44.8044 13.2692 44.9714 14.4492 44.9714 15.654C44.9714 16.8588 44.8044 18.0388 44.5071 19.0665C43.6629 18.8766 42.8949 18.5848 42.2517 18.2058C43.284 16.6661 43.284 14.6383 42.2508 13.0995C42.8949 12.7214 43.6657 12.4324 44.5071 12.2415ZM36.4966 13.7078C37.0334 13.171 37.7381 12.9031 38.4428 12.9031C39.1484 12.9031 39.8531 13.171 40.3899 13.7078C40.9093 14.2272 41.1956 14.9181 41.1956 15.654C41.1956 16.3899 40.9102 17.0809 40.3899 17.6002C39.3173 18.6729 37.5711 18.6747 36.4966 17.6002C35.9773 17.0809 35.691 16.3899 35.691 15.654C35.691 14.9181 35.9773 14.2272 36.4966 13.7078Z" fill="#639533"/>
<path id="Vector_8" d="M6.30311 17.5351C7.40604 17.5351 8.65945 17.4461 10.0624 17.2709C9.12283 19.5786 9.26597 21.8432 10.668 23.2443C11.4838 24.06 12.5904 24.4509 13.8273 24.4509C15.9037 24.4509 18.3482 23.3489 20.3999 21.2972C22.1396 19.5575 23.2554 17.4058 23.4894 15.4541C24.4932 15.3458 25.4704 14.9283 26.2384 14.1603C27.8479 12.5509 27.9956 10.0394 26.7091 8.24832L26.8872 7.53537C27.1789 6.37371 28.2186 5.56074 29.4178 5.56074V3.72558C27.4432 3.72558 25.7319 5.02487 25.1722 6.90224C24.4528 6.51318 23.66 6.32049 22.8627 6.34343C22.5002 4.75602 21.3505 3.43379 19.7585 2.90343L19.6172 2.85571L19.0327 4.59544L19.1758 4.64316C20.1567 4.97073 20.8633 5.78554 21.0816 6.76368C20.6017 6.9839 20.1457 7.27661 19.7511 7.67208C18.9831 8.4401 18.5656 9.41732 18.4574 10.4221C17.6581 10.5221 16.8277 10.7643 16.0056 11.1369C16.3341 9.38062 16.3653 6.88205 14.5613 5.07717C13.6713 4.18712 12.6032 3.78614 11.4883 3.92653C9.11549 4.21832 7.1115 6.81323 6.32421 7.9758C4.78819 7.94736 3.43292 8.51259 2.28044 9.67516C0.279205 11.6957 -0.41632 13.741 0.370046 15.2843C1.13531 16.7891 3.09067 17.5361 6.30311 17.5351ZM11.9646 21.9459C11.0479 21.0293 11.1121 19.3207 11.9471 17.5599C12.4885 18.4032 13.1418 19.2299 13.9117 19.9979C14.6824 20.7696 15.5092 21.422 16.3515 21.9625C14.5907 22.7984 12.8831 22.8635 11.9646 21.9459ZM21.0486 8.96954C21.568 8.45019 22.2589 8.16391 22.9948 8.16391C23.7307 8.16391 24.4216 8.45019 24.941 8.96954C26.0145 10.0431 26.0145 11.7893 24.941 12.8628C23.9014 13.9024 22.0882 13.9024 21.0486 12.8628C19.975 11.7893 19.975 10.0431 21.0486 8.96954ZM18.6225 12.2343C18.8327 12.9381 19.1951 13.6061 19.7502 14.1612C20.3035 14.7127 20.9679 15.0733 21.668 15.2852C21.5533 16.2157 21.1605 17.2204 20.5449 18.194C19.6053 17.6783 18.6702 16.9736 17.8031 16.1074C16.9369 15.2403 16.2322 14.3043 15.7166 13.3657C16.6901 12.749 17.6994 12.3462 18.6225 12.2343ZM16.5066 17.4039C17.4177 18.3151 18.406 19.0813 19.4107 19.6658C19.308 19.7768 19.2116 19.8915 19.1033 19.9998C18.784 20.3182 18.4528 20.6081 18.1133 20.8724C17.1241 20.3521 16.1129 19.607 15.2082 18.7014C14.2925 17.7856 13.5593 16.7901 13.0391 15.7972C13.3033 15.4587 13.5933 15.1265 13.9108 14.809C14.019 14.7007 14.1328 14.6035 14.2448 14.5007C14.8293 15.5045 15.5954 16.4919 16.5066 17.4039ZM11.7132 5.74792C12.271 5.67727 12.7665 5.87914 13.2629 6.37463C15.0091 8.1217 14.197 11.1213 13.8484 12.1444C12.7867 11.0451 10.6983 9.14939 8.32362 8.34926C9.17697 7.24633 10.4864 5.89749 11.7132 5.74792ZM3.58432 10.968C4.4028 10.1413 5.31855 9.76508 6.37652 9.80821C8.89711 9.92015 11.503 12.3481 12.6133 13.5125C12.0453 14.0814 11.5544 14.6806 11.1351 15.2935L11.1314 15.2696C3.63663 16.423 2.25016 14.9356 2.00334 14.4521C1.61704 13.6932 2.23732 12.326 3.58432 10.968Z" fill="#639533"/>
</g>
</g>
</g>
</g>
<defs>
<clipPath id="clip0_1_6134">
<rect width="57" height="57" fill="white"/>
</clipPath>
</defs>
</svg>
