<svg width="226" height="226" viewBox="0 0 226 226" fill="none" xmlns="http://www.w3.org/2000/svg">
<g opacity="0.2" filter="url(#filter0_d_1_6273)">
<circle cx="112.999" cy="70" r="59" fill="white"/>
</g>
<g filter="url(#filter1_d_1_6273)">
<circle cx="112.999" cy="70.0001" r="43.9608" fill="white"/>
</g>
<path d="M112.292 84.5895C112.682 84.98 113.316 84.98 113.706 84.5895L120.07 78.2255C120.461 77.835 120.461 77.2018 120.07 76.8113C119.68 76.4208 119.046 76.4208 118.656 76.8113L112.999 82.4682L107.342 76.8113C106.952 76.4208 106.318 76.4208 105.928 76.8113C105.537 77.2018 105.537 77.835 105.928 78.2255L112.292 84.5895ZM111.999 51.4902V83.8824H113.999V51.4902H111.999Z" fill="#2B221F"/>
<defs>
<filter id="filter0_d_1_6273" x="-0.000976562" y="0" width="226" height="226" filterUnits="userSpaceOnUse" color-interpolation-filters="sRGB">
<feFlood flood-opacity="0" result="BackgroundImageFix"/>
<feColorMatrix in="SourceAlpha" type="matrix" values="0 0 0 0 0 0 0 0 0 0 0 0 0 0 0 0 0 0 127 0" result="hardAlpha"/>
<feOffset dy="43"/>
<feGaussianBlur stdDeviation="27"/>
<feComposite in2="hardAlpha" operator="out"/>
<feColorMatrix type="matrix" values="0 0 0 0 0.364583 0 0 0 0 0.398958 0 0 0 0 0.520833 0 0 0 0.39 0"/>
<feBlend mode="normal" in2="BackgroundImageFix" result="effect1_dropShadow_1_6273"/>
<feBlend mode="normal" in="SourceGraphic" in2="effect1_dropShadow_1_6273" result="shape"/>
</filter>
<filter id="filter1_d_1_6273" x="42.0381" y="14.0393" width="141.922" height="141.922" filterUnits="userSpaceOnUse" color-interpolation-filters="sRGB">
<feFlood flood-opacity="0" result="BackgroundImageFix"/>
<feColorMatrix in="SourceAlpha" type="matrix" values="0 0 0 0 0 0 0 0 0 0 0 0 0 0 0 0 0 0 127 0" result="hardAlpha"/>
<feOffset dy="15"/>
<feGaussianBlur stdDeviation="13.5"/>
<feComposite in2="hardAlpha" operator="out"/>
<feColorMatrix type="matrix" values="0 0 0 0 0 0 0 0 0 0 0 0 0 0 0 0 0 0 0.07 0"/>
<feBlend mode="normal" in2="BackgroundImageFix" result="effect1_dropShadow_1_6273"/>
<feBlend mode="normal" in="SourceGraphic" in2="effect1_dropShadow_1_6273" result="shape"/>
</filter>
</defs>
</svg>
