<svg width="55" height="58" viewBox="0 0 55 58" fill="none" xmlns="http://www.w3.org/2000/svg">
<circle cx="25" cy="33" r="25" fill="#FCC41A"/>
<circle cx="25" cy="31" r="25" fill="white"/>
<g clip-path="url(#clip0_1_6217)">
<path d="M31.9756 27.3597C31.892 26.9411 31.5576 26.6063 31.1396 26.6063H28.6314C28.6314 24.7646 27.1265 23.2578 25.2872 23.2578C23.4479 23.2578 21.943 24.7646 21.943 26.6063H19.4349C19.0168 26.6063 18.6824 26.9411 18.5988 27.3597L16.9267 39.0794C16.8431 39.5817 17.2611 40.0002 17.7628 40.0002H32.8117C33.3133 40.0002 33.7313 39.5817 33.6477 39.0794L31.9756 27.3597ZM25.2872 24.9321C26.2069 24.9321 26.9593 25.6855 26.9593 26.6063H23.6151C23.6151 25.6855 24.3676 24.9321 25.2872 24.9321ZM18.766 38.326L20.1873 28.2805H21.943V29.1177C21.943 30.2059 23.6151 30.2059 23.6151 29.1177V28.2805H26.9593V29.1177C26.9593 30.2059 28.6314 30.2059 28.6314 29.1177V28.2805H30.3871L31.8084 38.326H18.766Z" fill="black"/>
</g>
<circle cx="44" cy="11" r="11" fill="#FCC41A"/>
<path d="M43.1709 10.8496V12.0117C43.1709 12.5684 43.1156 13.0436 43.0049 13.4375C42.8975 13.8281 42.7412 14.1455 42.5361 14.3896C42.3311 14.6338 42.0853 14.8128 41.7988 14.9268C41.5156 15.0407 41.1982 15.0977 40.8467 15.0977C40.5667 15.0977 40.3063 15.0618 40.0654 14.9902C39.8278 14.9186 39.613 14.8063 39.4209 14.6533C39.2288 14.5003 39.0645 14.3034 38.9277 14.0625C38.7943 13.8184 38.6901 13.527 38.6152 13.1885C38.5436 12.8499 38.5078 12.4577 38.5078 12.0117V10.8496C38.5078 10.2897 38.5632 9.81771 38.6738 9.43359C38.7845 9.04622 38.9424 8.7321 39.1475 8.49121C39.3525 8.24707 39.5967 8.06966 39.8799 7.95898C40.1663 7.84831 40.4854 7.79297 40.8369 7.79297C41.1201 7.79297 41.3805 7.82878 41.6182 7.90039C41.859 7.96875 42.0739 8.0778 42.2627 8.22754C42.4548 8.37728 42.6175 8.57259 42.751 8.81348C42.8877 9.05111 42.9919 9.33919 43.0635 9.67773C43.1351 10.013 43.1709 10.4036 43.1709 10.8496ZM41.9941 12.1777V10.6738C41.9941 10.3906 41.9779 10.1416 41.9453 9.92676C41.9128 9.70866 41.8639 9.52474 41.7988 9.375C41.737 9.22201 41.6589 9.09831 41.5645 9.00391C41.4701 8.90625 41.3626 8.83626 41.2422 8.79395C41.1217 8.74837 40.9867 8.72559 40.8369 8.72559C40.6546 8.72559 40.4919 8.76139 40.3486 8.83301C40.2054 8.90137 40.085 9.01204 39.9873 9.16504C39.8896 9.31803 39.8148 9.51986 39.7627 9.77051C39.7139 10.0179 39.6895 10.319 39.6895 10.6738V12.1777C39.6895 12.4642 39.7057 12.7165 39.7383 12.9346C39.7708 13.1527 39.8197 13.3398 39.8848 13.4961C39.9499 13.6491 40.028 13.776 40.1191 13.877C40.2135 13.9746 40.321 14.0462 40.4414 14.0918C40.5651 14.1374 40.7002 14.1602 40.8467 14.1602C41.0322 14.1602 41.1966 14.1243 41.3398 14.0527C41.4831 13.9811 41.6035 13.8672 41.7012 13.7109C41.7988 13.5514 41.8721 13.3447 41.9209 13.0908C41.9697 12.8369 41.9941 12.5326 41.9941 12.1777ZM45.6025 10.9131H46.3057C46.5791 10.9131 46.8053 10.8659 46.9844 10.7715C47.1667 10.6771 47.3018 10.5469 47.3896 10.3809C47.4775 10.2148 47.5215 10.0244 47.5215 9.80957C47.5215 9.58496 47.4808 9.3929 47.3994 9.2334C47.3213 9.07064 47.2008 8.94531 47.0381 8.85742C46.8786 8.76953 46.6751 8.72559 46.4277 8.72559C46.2194 8.72559 46.0306 8.7679 45.8613 8.85254C45.6953 8.93392 45.5635 9.05111 45.4658 9.2041C45.3682 9.35384 45.3193 9.53288 45.3193 9.74121H44.1377C44.1377 9.36361 44.237 9.02832 44.4355 8.73535C44.6341 8.44238 44.9043 8.21289 45.2461 8.04688C45.5911 7.8776 45.9785 7.79297 46.4082 7.79297C46.8672 7.79297 47.2676 7.86947 47.6094 8.02246C47.9544 8.1722 48.223 8.39681 48.415 8.69629C48.6071 8.99577 48.7031 9.36686 48.7031 9.80957C48.7031 10.0114 48.6559 10.2165 48.5615 10.4248C48.4671 10.6331 48.3271 10.8236 48.1416 10.9961C47.9561 11.1654 47.7249 11.3037 47.4482 11.4111C47.1715 11.5153 46.8509 11.5674 46.4863 11.5674H45.6025V10.9131ZM45.6025 11.8311V11.1865H46.4863C46.903 11.1865 47.2578 11.2354 47.5508 11.333C47.847 11.4307 48.0879 11.5658 48.2734 11.7383C48.459 11.9076 48.5941 12.1012 48.6787 12.3193C48.7666 12.5374 48.8105 12.7686 48.8105 13.0127C48.8105 13.3447 48.7503 13.641 48.6299 13.9014C48.5127 14.1585 48.3451 14.3766 48.127 14.5557C47.9089 14.7347 47.6533 14.8698 47.3604 14.9609C47.0706 15.0521 46.7549 15.0977 46.4131 15.0977C46.1071 15.0977 45.8141 15.0553 45.5342 14.9707C45.2542 14.8861 45.0036 14.7607 44.7822 14.5947C44.5609 14.4255 44.3851 14.2155 44.2549 13.9648C44.1279 13.7109 44.0645 13.418 44.0645 13.0859H45.2412C45.2412 13.2975 45.29 13.4847 45.3877 13.6475C45.4886 13.807 45.6286 13.9323 45.8076 14.0234C45.9899 14.1146 46.1982 14.1602 46.4326 14.1602C46.68 14.1602 46.8932 14.1162 47.0723 14.0283C47.2513 13.9404 47.388 13.8102 47.4824 13.6377C47.5801 13.4652 47.6289 13.2568 47.6289 13.0127C47.6289 12.736 47.5752 12.5114 47.4678 12.3389C47.3604 12.1663 47.2074 12.0394 47.0088 11.958C46.8102 11.8734 46.5758 11.8311 46.3057 11.8311H45.6025Z" fill="black"/>
<defs>
<clipPath id="clip0_1_6217">
<rect width="17.0835" height="17" fill="white" transform="translate(16.916 23)"/>
</clipPath>
</defs>
</svg>
