<svg width="70" height="70" viewBox="0 0 70 70" fill="none" xmlns="http://www.w3.org/2000/svg">
<g clip-path="url(#clip0_1_5751)">
<path d="M58.3333 12.3597V5.83333C58.3292 2.61333 55.72 0.00408333 52.5 0H5.83333C2.61333 0.00408333 0.00408333 2.61333 0 5.83333V31.5C0.00904169 34.4794 2.26742 36.9711 5.23133 37.2732L9.61683 48.6573C10.7753 51.6632 14.1511 53.1606 17.1573 52.0036L44.5433 41.454C42.651 46.3969 43.1894 51.9417 45.9964 56.4285L46.6667 57.5003V68.8333C46.6667 69.4779 47.1887 70 47.8333 70H68.8333C69.4779 70 70 69.4779 70 68.8333V30.3231C69.9889 26.2885 68.3827 22.4227 65.5302 19.5694L58.3333 12.3597ZM58.3333 19.3369L61.8742 28.5285C62.568 30.3327 61.6688 32.3572 59.8649 33.0517L57.841 33.8333C58.1642 33.0977 58.3316 32.3027 58.3333 31.5V19.3369ZM2.33333 31.5V5.83333C2.33333 3.90075 3.90075 2.33333 5.83333 2.33333H52.5C54.4326 2.33333 56 3.90075 56 5.83333V13.2487H55.9898L56 13.2752V31.5C55.991 31.7036 55.9644 31.9054 55.9207 32.1043L45.234 21.4165C42.8318 19.0697 39.0022 19.0517 36.5785 21.3739C34.1542 23.6976 34.0086 27.5243 36.2507 30.0239L40.8065 35H5.83333C3.90075 35 2.33333 33.4326 2.33333 31.5ZM17.2795 37.3333L8.98333 40.5274L7.756 37.3333H17.2795ZM16.3182 49.8257C14.5145 50.521 12.4889 49.6218 11.7938 47.8182L9.82567 42.7L23.7522 37.3333V37.3263H42.945L44.4614 38.9795L16.3182 49.8257ZM67.6667 67.6667H49V58.3333H67.6667V67.6667ZM67.6667 56H48.4808L47.9748 55.1915C45.1302 50.6456 45.017 44.9038 47.6793 40.25C47.9313 39.8096 47.8695 39.2566 47.5265 38.8827L37.966 28.4527C36.5403 26.8922 36.6205 24.4799 38.1468 23.0183C39.6737 21.5565 42.0872 21.5804 43.584 23.0714L62.1752 41.6582L63.8248 40.0085L59.5082 35.6918L60.7052 35.2252C63.7087 34.0664 65.2056 30.6935 64.05 27.6882L60.1011 17.4344L63.8805 21.2217C66.2955 23.6361 67.6573 26.908 67.6667 30.3231V56Z" fill="#639533"/>
<path d="M13.3003 16.3333C14.9757 16.3333 16.3337 14.9753 16.3337 13.3V7.7C16.3337 6.02467 14.9757 4.66667 13.3003 4.66667H7.70033C6.02499 4.66667 4.66699 6.02467 4.66699 7.7V13.3C4.66699 14.9753 6.02499 16.3333 7.70033 16.3333H13.3003ZM7.00033 13.3V11.6667H9.33366V9.33333H7.00033V7.7C7.00033 7.31354 7.31387 7 7.70033 7H13.3003C13.6868 7 14.0003 7.31354 14.0003 7.7V9.33333H11.667V11.6667H14.0003V13.3C14.0003 13.6865 13.6868 14 13.3003 14H7.70033C7.31387 14 7.00033 13.6865 7.00033 13.3Z" fill="#639533"/>
<path d="M5.83301 19.8333H10.4997V22.1667H5.83301V19.8333Z" fill="#639533"/>
<path d="M5.83301 26.8333H10.4997V29.1667H5.83301V26.8333Z" fill="#639533"/>
<path d="M26.833 26.8333H31.4997V29.1667H26.833V26.8333Z" fill="#639533"/>
<path d="M12.833 19.8333H17.4997V22.1667H12.833V19.8333Z" fill="#639533"/>
<path d="M19.833 19.8333H24.4997V22.1667H19.833V19.8333Z" fill="#639533"/>
<path d="M26.833 19.8333H31.4997V22.1667H26.833V19.8333Z" fill="#639533"/>
<path d="M49 5.83333H51.3333V9.33333H49V5.83333Z" fill="#639533"/>
<path d="M44.333 5.83333H46.6663V9.33333H44.333V5.83333Z" fill="#639533"/>
<path d="M39.667 5.83333H42.0003V9.33333H39.667V5.83333Z" fill="#639533"/>
<path d="M35 5.83333H37.3333V9.33333H35V5.83333Z" fill="#639533"/>
<path d="M51.333 60.6667H53.6663V63H51.333V60.6667Z" fill="#639533"/>
</g>
<defs>
<clipPath id="clip0_1_5751">
<rect width="70" height="70" fill="white"/>
</clipPath>
</defs>
</svg>
