<svg width="17" height="13" viewBox="0 0 17 13" fill="none" xmlns="http://www.w3.org/2000/svg">
<g id="email" clip-path="url(#clip0_1_5397)">
<path id="Vector" d="M9.92073 8.45313C9.49779 8.74062 9.00651 8.89259 8.5 8.89259C7.99352 8.89259 7.50225 8.74062 7.0793 8.45313L0.113189 3.71785C0.074541 3.69158 0.0368887 3.66419 0 3.63602V11.3953C0 12.2849 0.708057 12.9909 1.56496 12.9909H15.435C16.3075 12.9909 17 12.269 17 11.3953V3.63599C16.963 3.66422 16.9253 3.69168 16.8865 3.71798L9.92073 8.45313Z" fill="#FCC41A"/>
<path id="Vector_2" d="M0.665723 2.87282L7.63184 7.60814C7.89554 7.7874 8.19775 7.87701 8.49997 7.87701C8.80221 7.87701 9.10446 7.78737 9.36816 7.60814L16.3343 2.87282C16.7511 2.58963 17 2.11568 17 1.60414C17 0.724575 16.2982 0.0090332 15.4356 0.0090332H1.56443C0.701814 0.00906706 0 0.724609 0 1.60499C0 2.11568 0.248891 2.58963 0.665723 2.87282Z" fill="#FCC41A"/>
</g>
<defs>
<clipPath id="clip0_1_5397">
<rect width="17" height="13" fill="white"/>
</clipPath>
</defs>
</svg>
