<svg width="89" height="8" viewBox="0 0 89 8" fill="none" xmlns="http://www.w3.org/2000/svg">
<g id="Frame" clip-path="url(#clip0_1_6072)">
<g id="Group">
<path id="Vector" d="M47.9779 3.98169L87.8936 3.98169" stroke="#FCC41A" stroke-width="1.3595" stroke-miterlimit="10" stroke-linecap="round" stroke-linejoin="round"/>
<path id="Vector_2" d="M50.1116 3.98169L54.9727 6.31959" stroke="#FCC41A" stroke-width="1.2214" stroke-miterlimit="10" stroke-linecap="round" stroke-linejoin="round"/>
<path id="Vector_3" d="M57.9764 3.98169L62.7979 6.31959" stroke="#FCC41A" stroke-width="1.2214" stroke-miterlimit="10" stroke-linecap="round" stroke-linejoin="round"/>
<path id="Vector_4" d="M66.9085 3.98169L71.7695 6.31959" stroke="#FCC41A" stroke-width="1.2214" stroke-miterlimit="10" stroke-linecap="round" stroke-linejoin="round"/>
<path id="Vector_5" d="M55.8821 7.92697C55.645 7.92697 55.4079 7.85391 55.1707 7.7078C54.7755 7.45209 54.4199 7.08679 54.2223 6.68496C54.1037 6.46578 54.0247 6.17355 54.1827 5.9909C54.3803 5.77172 54.736 5.77172 55.0127 5.88131C55.3683 5.9909 55.724 6.21008 56.0007 6.46579C56.3168 6.72149 56.554 7.12332 56.4749 7.52515C56.4749 7.59821 56.4354 7.67127 56.3959 7.74433C56.2773 7.92697 56.0007 7.9635 55.8031 7.92697" fill="#FCC41A"/>
<path id="Vector_6" d="M64.2204 7.74432C63.7462 7.92697 63.1534 7.81738 62.7187 7.56167C62.2839 7.26943 62.0073 6.83108 61.8887 6.35619C61.8492 6.17354 61.8492 5.95437 61.9678 5.84478C62.0863 5.73519 62.2839 5.69866 62.442 5.69866C63.2324 5.66213 64.0228 6.10048 64.3785 6.72149C64.4971 6.90414 64.5761 7.12332 64.5366 7.30596C64.4971 7.52514 64.3785 7.70779 64.1414 7.74432" fill="#FCC41A"/>
<path id="Vector_7" d="M72.9154 7.74437C72.6782 7.7809 72.4016 7.70784 72.204 7.59825C71.7693 7.37908 71.4136 7.05031 71.1369 6.64848C70.9789 6.4293 70.8998 6.1736 71.0184 5.95442C71.1765 5.69871 71.5717 5.69871 71.8483 5.77177C72.2435 5.84483 72.5992 6.02748 72.8758 6.24666C73.192 6.50236 73.5082 6.86766 73.4291 7.23296C73.4291 7.30602 73.3896 7.37908 73.3501 7.45214C73.2315 7.63478 72.9944 7.70784 72.7573 7.70784" fill="#FCC41A"/>
<path id="Vector_8" d="M50.6648 3.98185L55.4863 1.60742" stroke="#FCC41A" stroke-width="1.2214" stroke-miterlimit="10" stroke-linecap="round" stroke-linejoin="round"/>
<path id="Vector_9" d="M58.4906 3.98185L63.3516 1.60742" stroke="#FCC41A" stroke-width="1.2214" stroke-miterlimit="10" stroke-linecap="round" stroke-linejoin="round"/>
<path id="Vector_10" d="M67.4617 3.98185L72.2832 1.60742" stroke="#FCC41A" stroke-width="1.2214" stroke-miterlimit="10" stroke-linecap="round" stroke-linejoin="round"/>
<path id="Vector_11" d="M56.3958 3.41371e-05C56.1587 3.41268e-05 55.9215 0.0730935 55.6844 0.219212C55.2892 0.47492 54.9335 0.840217 54.7359 1.24204C54.6174 1.46122 54.5383 1.75346 54.6964 1.93611C54.894 2.15529 55.2497 2.15529 55.5263 2.0457C55.882 1.93611 56.2377 1.71693 56.5143 1.46122C56.8305 1.20551 57.0676 0.803688 56.9886 0.401861C56.9886 0.328801 56.9491 0.255742 56.9095 0.182683C56.791 3.41469e-05 56.5143 -0.0364956 56.3167 3.41337e-05" fill="#FCC41A"/>
<path id="Vector_12" d="M64.7741 0.18274C64.2604 9.10764e-05 63.7071 0.10968 63.2724 0.365388C62.8376 0.657626 62.561 1.09598 62.4424 1.57087C62.4029 1.75352 62.4029 1.97269 62.5215 2.08228C62.64 2.19187 62.8376 2.2284 62.9957 2.2284C63.7861 2.26493 64.5765 1.82658 64.9322 1.20557C65.0508 1.02292 65.1298 0.803745 65.0903 0.621096C65.0508 0.401918 64.9322 0.219269 64.6951 0.18274" fill="#FCC41A"/>
<path id="Vector_13" d="M73.4286 0.182598C73.1914 0.146068 72.9148 0.219128 72.7172 0.328717C72.2825 0.547895 71.9268 0.876662 71.6502 1.27849C71.4921 1.49767 71.413 1.75338 71.5316 1.97255C71.6897 2.19173 72.0849 2.22826 72.401 2.1552C72.7962 2.08214 73.1519 1.89949 73.4286 1.68032C73.7447 1.42461 74.0609 1.05931 73.9819 0.694014C73.9819 0.620955 73.9423 0.547895 73.9028 0.474836C73.7843 0.292187 73.5471 0.219128 73.31 0.219128" fill="#FCC41A"/>
<path id="Vector_14" d="M43.5124 3.98182C43.5124 3.39734 44.0262 2.95898 44.619 2.95898C45.2118 2.95898 45.7256 3.43387 45.7256 3.98182C45.7256 4.52976 45.2118 5.00465 44.619 5.00465C44.0262 5.00465 43.5124 4.56629 43.5124 3.98182Z" fill="#50413C"/>
<path id="Vector_15" d="M75.9183 3.98169L80.7793 6.31959" stroke="#FCC41A" stroke-width="1.2214" stroke-miterlimit="10" stroke-linecap="round" stroke-linejoin="round"/>
<path id="Vector_16" d="M81.9261 7.74437C81.689 7.7809 81.4123 7.70784 81.2147 7.59825C80.78 7.37908 80.4243 7.05031 80.1477 6.64848C79.9896 6.4293 79.9106 6.1736 80.0291 5.95442C80.1872 5.69871 80.5824 5.69871 80.859 5.77177C81.2543 5.84483 81.6099 6.02748 81.8866 6.24666C82.2027 6.50236 82.5189 6.86766 82.4399 7.23296C82.4399 7.30602 82.4003 7.37908 82.3608 7.45214C82.2423 7.63478 82.0051 7.70784 81.768 7.70784" fill="#FCC41A"/>
<path id="Vector_17" d="M76.4725 3.98185L81.2939 1.60742" stroke="#FCC41A" stroke-width="1.2214" stroke-miterlimit="10" stroke-linecap="round" stroke-linejoin="round"/>
<path id="Vector_18" d="M82.4788 0.182598C82.2417 0.146068 81.9651 0.219128 81.7675 0.328717C81.3327 0.547895 80.9771 0.876662 80.7004 1.27849C80.5423 1.49767 80.4633 1.75338 80.5819 1.97255C80.7399 2.19173 81.0956 2.22826 81.4118 2.1552C81.807 2.08214 82.1627 1.89949 82.4393 1.68032C82.7555 1.42461 83.0716 1.05931 82.9926 0.694014C82.9926 0.620955 82.9531 0.547895 82.9136 0.474836C82.795 0.292187 82.5579 0.219128 82.3208 0.219128" fill="#FCC41A"/>
<path id="Vector_19" d="M86.7869 3.98182C86.7869 3.39734 87.3006 2.95898 87.8934 2.95898C88.4862 2.95898 89 3.43387 89 3.98182C89 4.56629 88.4862 5.00465 87.8934 5.00465C87.3006 5.00465 86.7869 4.56629 86.7869 3.98182Z" fill="#FCC41A"/>
<path id="Vector_20" d="M41.0225 4.05493L1.10684 4.05493" stroke="#FCC41A" stroke-width="1.3595" stroke-miterlimit="10" stroke-linecap="round" stroke-linejoin="round"/>
<path id="Vector_21" d="M38.8877 4.01831L34.0267 6.39274" stroke="#FCC41A" stroke-width="1.2214" stroke-miterlimit="10" stroke-linecap="round" stroke-linejoin="round"/>
<path id="Vector_22" d="M31.0234 4.01831L26.1624 6.39274" stroke="#FCC41A" stroke-width="1.2214" stroke-miterlimit="10" stroke-linecap="round" stroke-linejoin="round"/>
<path id="Vector_23" d="M22.0918 4.01831L17.2308 6.39274" stroke="#FCC41A" stroke-width="1.2214" stroke-miterlimit="10" stroke-linecap="round" stroke-linejoin="round"/>
<path id="Vector_24" d="M33.1183 7.99997C33.3555 7.99997 33.5926 7.92691 33.8297 7.78079C34.2249 7.52509 34.5806 7.15979 34.7782 6.75796C34.8968 6.53878 34.9758 6.24655 34.8177 6.0639C34.6201 5.84472 34.2644 5.84472 33.9878 5.95431C33.6321 6.0639 33.2764 6.28308 32.9998 6.53878C32.6836 6.79449 32.4465 7.19632 32.5255 7.59814C32.5255 7.6712 32.5651 7.74426 32.6046 7.81732C32.7231 7.99997 32.9998 8.0365 33.1974 7.99997" fill="#FCC41A"/>
<path id="Vector_25" d="M24.7794 7.81732C25.2537 7.99997 25.8465 7.89038 26.2812 7.63467C26.7159 7.37896 26.9926 6.90408 27.1111 6.42919C27.1506 6.24654 27.1507 6.02736 27.0321 5.91777C26.9135 5.80819 26.7159 5.77166 26.5578 5.77166C25.7674 5.73513 24.977 6.17348 24.6213 6.79449C24.5028 6.97714 24.4237 7.19631 24.4633 7.37896C24.5028 7.59814 24.6213 7.78079 24.8585 7.81732" fill="#FCC41A"/>
<path id="Vector_26" d="M16.085 7.81737C16.3221 7.8539 16.5988 7.78084 16.7964 7.67125C17.2311 7.45207 17.5868 7.12331 17.8634 6.72148C18.0215 6.5023 18.1005 6.24659 17.982 6.02742C17.8239 5.77171 17.4287 5.77171 17.152 5.84477C16.7568 5.91783 16.4012 6.10048 16.1245 6.31965C15.8084 6.57536 15.4922 6.94066 15.5712 7.30596C15.5712 7.37901 15.6107 7.45207 15.6503 7.52513C15.7688 7.70778 16.006 7.78084 16.2431 7.78084" fill="#FCC41A"/>
<path id="Vector_27" d="M38.335 4.01832L33.5135 1.68042" stroke="#FCC41A" stroke-width="1.2214" stroke-miterlimit="10" stroke-linecap="round" stroke-linejoin="round"/>
<path id="Vector_28" d="M30.5098 4.01832L25.6488 1.68042" stroke="#FCC41A" stroke-width="1.2214" stroke-miterlimit="10" stroke-linecap="round" stroke-linejoin="round"/>
<path id="Vector_29" d="M21.5391 4.01832L16.7176 1.68042" stroke="#FCC41A" stroke-width="1.2214" stroke-miterlimit="10" stroke-linecap="round" stroke-linejoin="round"/>
<path id="Vector_30" d="M32.5646 0.0730321C32.8018 0.0730321 33.0389 0.146092 33.276 0.29221C33.6712 0.547918 34.0269 0.913215 34.2245 1.31504C34.3431 1.53422 34.4221 1.82646 34.264 2.00911C34.0664 2.22828 33.7107 2.22828 33.4341 2.1187C33.0784 2.00911 32.7227 1.78993 32.4461 1.53422C32.1299 1.27851 31.8928 0.876686 31.9718 0.474859C31.9718 0.401799 32.0113 0.32874 32.0509 0.255681C32.1694 0.0730321 32.4461 0.0365024 32.6437 0.0730321" fill="#FCC41A"/>
<path id="Vector_31" d="M24.2257 0.255738C24.7 0.0730891 25.2928 0.182678 25.7275 0.438386C26.1622 0.694094 26.4389 1.16898 26.5574 1.64387C26.5969 1.82651 26.5969 2.04569 26.4784 2.15528C26.3598 2.26487 26.1622 2.3014 26.0041 2.3014C25.2137 2.33793 24.4233 1.89957 24.0676 1.27857C23.9491 1.09592 23.87 0.876742 23.9096 0.694094C23.9491 0.474916 24.0676 0.292267 24.3048 0.255738" fill="#FCC41A"/>
<path id="Vector_32" d="M15.5313 0.25584C15.7684 0.219311 16.0451 0.29237 16.2427 0.401959C16.6774 0.621137 17.0331 0.949905 17.3097 1.35173C17.4678 1.57091 17.5468 1.82662 17.4283 2.0458C17.2702 2.3015 16.875 2.3015 16.5983 2.22844C16.2031 2.15538 15.8474 1.97274 15.5708 1.75356C15.2546 1.49785 14.9385 1.13255 15.0175 0.767256C15.0175 0.694197 15.057 0.621137 15.0966 0.548078C15.2151 0.365429 15.4522 0.29237 15.6894 0.29237" fill="#FCC41A"/>
<path id="Vector_33" d="M13.042 4.01831L8.2205 6.39274" stroke="#FCC41A" stroke-width="1.2214" stroke-miterlimit="10" stroke-linecap="round" stroke-linejoin="round"/>
<path id="Vector_34" d="M7.03422 7.81737C7.27134 7.8539 7.54798 7.78084 7.74558 7.67125C8.18031 7.45207 8.536 7.12331 8.81264 6.72148C8.97072 6.5023 9.04976 6.24659 8.93119 6.02742C8.77311 5.77171 8.37791 5.77171 8.10127 5.84477C7.70607 5.91783 7.35038 6.10048 7.07374 6.31965C6.75757 6.57536 6.44141 6.94066 6.52045 7.30596C6.52045 7.37901 6.55997 7.45207 6.59949 7.52513C6.71805 7.70778 6.95518 7.78084 7.1923 7.78084" fill="#FCC41A"/>
<path id="Vector_35" d="M12.5283 4.01832L7.66731 1.68042" stroke="#FCC41A" stroke-width="1.2214" stroke-miterlimit="10" stroke-linecap="round" stroke-linejoin="round"/>
<path id="Vector_36" d="M6.52054 0.25584C6.75767 0.219311 7.03431 0.29237 7.23191 0.401959C7.66664 0.621137 8.02232 0.949905 8.29896 1.35173C8.45704 1.57091 8.53609 1.82662 8.41752 2.0458C8.25944 2.3015 7.86424 2.3015 7.58759 2.22844C7.19239 2.15538 6.8367 1.97274 6.56006 1.75356C6.2439 1.49785 5.92774 1.13255 6.00678 0.767256C6.00678 0.694197 6.0463 0.621137 6.08582 0.548078C6.20438 0.365429 6.4415 0.29237 6.67862 0.29237" fill="#FCC41A"/>
<path id="Vector_37" d="M2.21289 4.05481C2.21289 3.47034 1.69913 3.03198 1.10632 3.03198C0.473997 3.03198 -0.000249645 3.50687 -0.000249669 4.05481C-0.000249695 4.63929 0.513517 5.07765 1.10632 5.07765C1.69913 5.07765 2.21289 4.63929 2.21289 4.05481Z" fill="#FCC41A"/>
</g>
</g>
<defs>
<clipPath id="clip0_1_6072">
<rect width="8" height="89" fill="white" transform="translate(89) rotate(90)"/>
</clipPath>
</defs>
</svg>
