<svg width="56" height="58" viewBox="0 0 56 58" fill="none" xmlns="http://www.w3.org/2000/svg">
<circle cx="25" cy="33" r="25" fill="#FCC41A"/>
<circle cx="25" cy="31" r="25" fill="#2B221F"/>
<path fill-rule="evenodd" clip-rule="evenodd" d="M16.4136 32.0413C15.4127 31.0315 14.8506 29.6667 14.8506 28.2437C14.8506 26.8129 15.4186 25.4402 16.4303 24.4284C17.4421 23.4166 18.8148 22.8486 20.2457 22.8486C21.6765 22.8486 23.0492 23.4166 24.061 24.4284L24.4298 24.7972L24.7986 24.4284C25.8104 23.4166 27.1821 22.8486 28.6129 22.8486C30.0448 22.8486 31.4165 23.4166 32.4283 24.4284C33.44 25.4402 34.009 26.8129 34.009 28.2437C34.009 29.6667 33.4469 31.0315 32.445 32.0413L25.126 39.7913C24.9455 39.9826 24.6931 40.091 24.4298 40.091C24.1665 40.091 23.9141 39.9826 23.7336 39.7913L16.4136 32.0413ZM24.4298 37.7381L31.0546 30.7238L31.0743 30.7041C31.7261 30.0513 32.093 29.1667 32.093 28.2437C32.093 27.3207 31.7261 26.4362 31.0743 25.7833C30.4215 25.1305 29.536 24.7637 28.6129 24.7637C27.6909 24.7637 26.8054 25.1305 26.1526 25.7833L25.1073 26.8296C24.7325 27.2034 24.1261 27.2034 23.7523 26.8296L22.706 25.7833C22.0542 25.1305 21.1687 24.7637 20.2457 24.7637C19.3227 24.7637 18.4381 25.1305 17.7853 25.7833C17.1325 26.4362 16.7666 27.3207 16.7666 28.2437C16.7666 29.1667 17.1325 30.0513 17.7853 30.7041C17.7922 30.711 17.7981 30.7169 17.804 30.7238L24.4298 37.7381Z" fill="white"/>
<circle cx="45" cy="11" r="11" fill="#FCC41A"/>
<path d="M44.1709 10.8496V12.0117C44.1709 12.5684 44.1156 13.0436 44.0049 13.4375C43.8975 13.8281 43.7412 14.1455 43.5361 14.3896C43.3311 14.6338 43.0853 14.8128 42.7988 14.9268C42.5156 15.0407 42.1982 15.0977 41.8467 15.0977C41.5667 15.0977 41.3063 15.0618 41.0654 14.9902C40.8278 14.9186 40.613 14.8063 40.4209 14.6533C40.2288 14.5003 40.0645 14.3034 39.9277 14.0625C39.7943 13.8184 39.6901 13.527 39.6152 13.1885C39.5436 12.8499 39.5078 12.4577 39.5078 12.0117V10.8496C39.5078 10.2897 39.5632 9.81771 39.6738 9.43359C39.7845 9.04622 39.9424 8.7321 40.1475 8.49121C40.3525 8.24707 40.5967 8.06966 40.8799 7.95898C41.1663 7.84831 41.4854 7.79297 41.8369 7.79297C42.1201 7.79297 42.3805 7.82878 42.6182 7.90039C42.859 7.96875 43.0739 8.0778 43.2627 8.22754C43.4548 8.37728 43.6175 8.57259 43.751 8.81348C43.8877 9.05111 43.9919 9.33919 44.0635 9.67773C44.1351 10.013 44.1709 10.4036 44.1709 10.8496ZM42.9941 12.1777V10.6738C42.9941 10.3906 42.9779 10.1416 42.9453 9.92676C42.9128 9.70866 42.8639 9.52474 42.7988 9.375C42.737 9.22201 42.6589 9.09831 42.5645 9.00391C42.4701 8.90625 42.3626 8.83626 42.2422 8.79395C42.1217 8.74837 41.9867 8.72559 41.8369 8.72559C41.6546 8.72559 41.4919 8.76139 41.3486 8.83301C41.2054 8.90137 41.085 9.01204 40.9873 9.16504C40.8896 9.31803 40.8148 9.51986 40.7627 9.77051C40.7139 10.0179 40.6895 10.319 40.6895 10.6738V12.1777C40.6895 12.4642 40.7057 12.7165 40.7383 12.9346C40.7708 13.1527 40.8197 13.3398 40.8848 13.4961C40.9499 13.6491 41.028 13.776 41.1191 13.877C41.2135 13.9746 41.321 14.0462 41.4414 14.0918C41.5651 14.1374 41.7002 14.1602 41.8467 14.1602C42.0322 14.1602 42.1966 14.1243 42.3398 14.0527C42.4831 13.9811 42.6035 13.8672 42.7012 13.7109C42.7988 13.5514 42.8721 13.3447 42.9209 13.0908C42.9697 12.8369 42.9941 12.5326 42.9941 12.1777ZM48.4336 7.86621V15H47.2568V9.2627L45.5137 9.85352V8.88184L48.292 7.86621H48.4336Z" fill="black"/>
</svg>
