<svg width="57" height="57" viewBox="0 0 57 57" fill="none" xmlns="http://www.w3.org/2000/svg">
<g id="honeycomb 6" clip-path="url(#clip0_1_6117)">
<g id="Group">
<g id="Group_2">
<g id="Group_3">
<path id="Vector" d="M13.6626 14.7254V12.8916H8.12729L4.56055 18.8377L6.13211 19.7821L9.16613 14.7254H13.6626Z" fill="#FCC41A"/>
<path id="Vector_2" d="M30.847 28.9511L32.4195 28.0066L28.8527 22.0605H23.3174V23.8943H27.8139L30.847 28.9511Z" fill="#FCC41A"/>
<path id="Vector_3" d="M36.4303 27.5619L30.9289 18.3929H21.7599L16.2585 9.22388H6.05154L0 19.3098L5.5014 28.4788L0 37.6478L6.05154 47.7337H15.2205L20.7219 56.9027H30.9298L36.4312 47.7337H45.6002L51.6517 37.6478L45.6002 27.5619H36.4303ZM21.7608 20.2267H29.8909L34.8422 28.4788L32.3666 32.6048L29.8909 36.7309H21.7608L19.2852 32.6048L16.8095 28.4788L19.2852 24.3527L21.7608 20.2267ZM2.13821 19.3098L7.08947 11.0577H15.2196L20.1709 19.3098L17.6953 23.4358L15.2196 27.5619H7.08947L2.13821 19.3098ZM15.2196 45.8999H7.08947L2.13821 37.6478L7.08947 29.3957H15.2196L17.6953 33.5217L20.1709 37.6478L17.6953 41.7738L15.2196 45.8999ZM29.8909 55.0689H21.7608L16.8095 46.8168L19.2852 42.6907L21.7608 38.5647H29.8909L32.3666 42.6907L34.8422 46.8168L29.8909 55.0689ZM44.5613 45.8999H36.4312L33.9556 41.7738L31.4799 37.6478L33.9556 33.5217L36.4312 29.3957H44.5613L49.5126 37.6478L44.5613 45.8999Z" fill="#FCC41A"/>
<path id="Vector_4" d="M35.7564 37.6479L38.7739 32.6187L37.2014 31.6743L33.6182 37.6479L37.4682 44.0662H43.2465V42.2324H38.5071L35.7564 37.6479Z" fill="#FCC41A"/>
<path id="Vector_5" d="M6.13211 37.1758L4.56055 38.1202L8.12729 44.0663H13.6626V42.2325H9.16613L6.13211 37.1758Z" fill="#FCC41A"/>
<path id="Vector_6" d="M28.576 40.3987H26.7422V42.2325H28.576V40.3987Z" fill="#FCC41A"/>
<path id="Vector_7" d="M18.9473 46.817L22.5305 52.7906L24.103 51.8462L21.0855 46.817L23.8362 42.2325H24.908V40.3987H22.7973L18.9473 46.817Z" fill="#FCC41A"/>
<path id="Vector_8" d="M53.9527 11.7418C52.1033 9.9786 49.9495 8.97918 48.124 8.87465C48.3339 8.41987 48.4559 7.91924 48.4559 7.38927C48.4559 6.60349 48.1936 5.87914 47.7563 5.28224L47.9525 4.90723C48.7172 3.45027 50.0348 2.36283 51.6632 1.84478L51.1085 0.097168C49.017 0.762837 47.3189 2.16844 46.3287 4.05542L46.3048 4.10035C45.8042 3.86654 45.2486 3.72259 44.6544 3.72259C44.0603 3.72259 43.5046 3.86654 43.004 4.10127L42.9802 4.05634C41.9908 2.16844 40.2936 0.762837 38.2013 0.0980849L37.6465 1.8457C39.275 2.36374 40.5925 3.45119 41.3563 4.90814L41.5535 5.28315C41.1152 5.88006 40.8539 6.60532 40.8539 7.39019C40.8539 7.9605 41.0006 8.49322 41.2417 8.97459C39.606 9.27992 37.7951 10.228 36.207 11.7418C34.2989 13.56 33.1602 15.7725 33.1602 17.6567C33.1602 18.6928 33.5086 19.5721 34.1678 20.2002C34.8326 20.8329 35.7403 21.1364 36.7718 21.1364C37.5521 21.1364 38.4039 20.953 39.2722 20.6174C40.0708 24.219 42.1825 26.6451 44.6544 26.6451C47.2061 26.6451 49.3737 24.0356 50.1091 20.2745C51.2423 20.8347 52.3747 21.1364 53.3879 21.1364C54.4194 21.1364 55.3271 20.8338 55.9919 20.2002C56.6511 19.5721 56.9996 18.6928 56.9996 17.6567C56.9996 15.7725 55.8608 13.56 53.9527 11.7418ZM44.6553 5.55639C45.74 5.55639 46.623 6.37977 46.623 7.39019C46.623 8.40061 45.74 9.22399 44.6553 9.22399C43.5706 9.22399 42.6877 8.40061 42.6877 7.39019C42.6877 6.37977 43.5706 5.55639 44.6553 5.55639ZM45.817 16.6151C45.3357 16.5821 44.8534 16.5711 44.3674 16.5794C44.6361 16.2062 44.8763 15.8284 45.0799 15.447C45.2898 15.8403 45.5383 16.2309 45.817 16.6151ZM35.4332 18.8734C35.1416 18.5956 34.994 18.1858 34.994 17.6567C34.994 16.2841 35.9439 14.5264 37.4733 13.0686C39.9058 10.7497 42.7005 10.1831 43.6871 11.1238C43.9777 11.4016 44.1263 11.8106 44.1263 12.3396C44.1263 13.7113 43.1764 15.4699 41.647 16.9287C39.2135 19.2494 36.4197 19.816 35.4332 18.8734ZM44.6544 24.8113C43.5651 24.8113 42.519 23.8559 41.7873 22.3494C43.5908 21.9845 45.7125 21.9817 47.517 22.3476C46.7871 23.8485 45.7474 24.8113 44.6544 24.8113ZM48.1533 20.6137C45.961 20.1223 43.3478 20.1195 41.1555 20.6082C41.0831 20.3341 41.0171 20.0535 40.9648 19.7619C41.5186 19.4172 42.0623 19.0101 42.5877 18.5424C44.2922 18.3013 46.2021 18.3747 47.8021 18.7451C48.0075 18.9193 48.2157 19.0825 48.4265 19.2384C48.3596 19.7152 48.2688 20.1764 48.1533 20.6137ZM54.7256 18.8734C53.7427 19.8151 50.9462 19.2485 48.5127 16.9287C46.9833 15.4699 46.0334 13.7113 46.0334 12.3396C46.0334 11.8106 46.1811 11.4016 46.4726 11.1238C46.7725 10.8377 47.241 10.6901 47.8159 10.6901C49.128 10.6901 50.9948 11.4557 52.6865 13.0686C54.2158 14.5264 55.1658 16.2841 55.1658 17.6567C55.1658 18.1858 55.0181 18.5956 54.7256 18.8734Z" fill="#FCC41A"/>
</g>
</g>
</g>
</g>
<defs>
<clipPath id="clip0_1_6117">
<rect width="57" height="57" fill="white"/>
</clipPath>
</defs>
</svg>
