<svg width="345" height="100" viewBox="0 0 345 100" fill="none" xmlns="http://www.w3.org/2000/svg">
<circle cx="40" cy="45" r="40" fill="#2B221F"/>
<circle cx="40" cy="40" r="40" fill="#FCC41A"/>
<path d="M58.5812 38.3231C58.54 38.2794 58.4881 38.2519 58.4375 38.2219V35.625C58.4375 34.2463 57.3162 33.125 55.9375 33.125H54.6875C53.6537 33.125 52.8125 33.9663 52.8125 35V36.25C52.8125 37.065 53.335 37.76 54.0625 38.0181V38.2206C53.8981 38.3175 53.7763 38.48 53.7537 38.6813L53.1781 43.8619L48.0569 45H43.125V44.6738C44.6313 43.6631 45.625 41.9456 45.625 40V39.3119C47.0494 39.0213 48.125 37.7594 48.125 36.25C48.125 35.57 47.7575 34.9794 47.215 34.6506C47.3975 34.1625 47.5 33.6475 47.5 33.125C47.5 30.3681 45.2569 28.125 42.5 28.125H37.5C34.7431 28.125 32.5 30.3681 32.5 33.125C32.5 33.6475 32.6025 34.1625 32.785 34.6506C32.2425 34.9794 31.875 35.57 31.875 36.25C31.875 37.7588 32.9506 39.0213 34.375 39.3119V40C34.375 41.9456 35.3687 43.6638 36.875 44.6738V45.625C36.875 47.3481 38.2769 48.75 40 48.75C41.5087 48.75 42.7712 47.6744 43.0619 46.25H48.125C48.1706 46.25 48.2162 46.245 48.2606 46.235L53.8856 44.985C54.1469 44.9269 54.3412 44.71 54.3713 44.4438L54.935 39.375H57.4575L57.045 45.5719C56.9619 46.8413 56.1256 47.9225 54.9144 48.3263L53.4206 48.8263C53.0938 48.9356 52.9163 49.29 53.0262 49.6175C53.1137 49.8788 53.3575 50.0444 53.6188 50.0444C53.6844 50.0444 53.7512 50.0338 53.8169 50.0119L55.31 49.5125C57.005 48.9475 58.1756 47.4331 58.2919 45.655L58.7481 38.7925C58.7606 38.6188 58.6994 38.4494 58.5812 38.3231ZM45.625 38.0181V35.625H46.25C46.595 35.625 46.875 35.9056 46.875 36.25C46.875 37.065 46.3525 37.76 45.625 38.0181ZM33.125 36.25C33.125 35.9056 33.405 35.625 33.75 35.625H34.375V38.0181C33.6475 37.76 33.125 37.065 33.125 36.25ZM35.625 40V35.5775C36.6519 35.4213 37.5837 34.8831 38.2337 34.0631C39.4806 35.075 41.0238 35.625 42.6513 35.625C42.9969 35.625 43.2763 35.345 43.2763 35C43.2763 34.655 42.9969 34.375 42.6513 34.375C41.1081 34.375 39.6581 33.7744 38.5669 32.6831C38.435 32.5512 38.2544 32.485 38.0631 32.5031C37.8769 32.5212 37.7087 32.6225 37.605 32.7781L37.395 33.0931C36.86 33.8956 35.9644 34.375 35 34.375H34.0169C33.8438 33.9806 33.75 33.555 33.75 33.125C33.75 31.0569 35.4319 29.375 37.5 29.375H42.5C44.5681 29.375 46.25 31.0569 46.25 33.125C46.25 33.555 46.1563 33.9806 45.9831 34.375H45C44.6544 34.375 44.375 34.655 44.375 35V40C44.375 42.4125 42.4119 44.375 40 44.375C37.5881 44.375 35.625 42.4125 35.625 40ZM40 47.5C38.9662 47.5 38.125 46.6588 38.125 45.625V45.2969C38.7125 45.5056 39.3419 45.625 40 45.625C40.6581 45.625 41.2875 45.5056 41.875 45.2969V45.625C41.875 46.6588 41.0337 47.5 40 47.5ZM55.3125 38.125V37.5C55.3125 37.155 55.0331 36.875 54.6875 36.875C54.3425 36.875 54.0625 36.5944 54.0625 36.25V35C54.0625 34.6556 54.3425 34.375 54.6875 34.375H55.9375C56.6269 34.375 57.1875 34.9356 57.1875 35.625V38.125H55.3125Z" fill="#2B221F"/>
<path d="M51.0525 49.6131L47.9275 50.6569C47.6719 50.7425 47.5 50.9812 47.5 51.25V58.125C47.5 58.47 47.7794 58.75 48.125 58.75C48.4706 58.75 48.75 58.47 48.75 58.125V51.7L51.4475 50.7994C51.775 50.69 51.9519 50.3356 51.8425 50.0081C51.7338 49.6812 51.3787 49.5044 51.0525 49.6131Z" fill="#2B221F"/>
<path d="M34.9144 45H32.1544L26.8213 43.8581L26.2463 38.6812C26.2238 38.4794 26.1013 38.3175 25.9376 38.2206V38.0181C26.6651 37.76 27.1876 37.065 27.1876 36.25V35C27.1876 33.9662 26.3463 33.125 25.3126 33.125H24.0626C22.6838 33.125 21.5626 34.2462 21.5626 35.625V38.2219C21.5119 38.2519 21.4594 38.2794 21.4188 38.3231C21.3013 38.4494 21.2401 38.6194 21.2513 38.7919L21.7088 45.655C21.8276 47.4356 22.9976 48.95 24.6907 49.5144L31.2501 51.7006V58.125C31.2501 58.47 31.5294 58.75 31.8751 58.75C32.2207 58.75 32.5001 58.47 32.5001 58.125V51.25C32.5001 50.9806 32.3282 50.7425 32.0726 50.6569L25.0863 48.3281C23.8769 47.925 23.0419 46.8431 22.9569 45.5713L22.5432 39.375H25.0651L25.6282 44.4438C25.6582 44.7113 25.8557 44.9294 26.1188 44.9862L31.9576 46.2362C32.0007 46.2456 32.0444 46.25 32.0888 46.25H34.9144C35.2601 46.25 35.5394 45.97 35.5394 45.625C35.5394 45.28 35.2601 45 34.9144 45ZM22.8126 38.125V35.625C22.8126 34.9356 23.3732 34.375 24.0626 34.375H25.3126C25.6576 34.375 25.9376 34.6556 25.9376 35V36.25C25.9376 36.5944 25.6576 36.875 25.3126 36.875C24.9669 36.875 24.6876 37.155 24.6876 37.5V38.125H22.8126Z" fill="#2B221F"/>
<path d="M38.125 39.375C38.4702 39.375 38.75 39.0952 38.75 38.75C38.75 38.4048 38.4702 38.125 38.125 38.125C37.7798 38.125 37.5 38.4048 37.5 38.75C37.5 39.0952 37.7798 39.375 38.125 39.375Z" fill="#2B221F"/>
<path d="M41.875 39.375C42.2202 39.375 42.5 39.0952 42.5 38.75C42.5 38.4048 42.2202 38.125 41.875 38.125C41.5298 38.125 41.25 38.4048 41.25 38.75C41.25 39.0952 41.5298 39.375 41.875 39.375Z" fill="#2B221F"/>
<path d="M37.5341 37.395C37.8929 37.1556 38.3566 37.1556 38.716 37.395C38.8222 37.4662 38.9429 37.5 39.0616 37.5C39.2635 37.5 39.4622 37.4025 39.5822 37.2218C39.7741 36.935 39.6966 36.5462 39.4091 36.355C38.6291 35.835 37.621 35.835 36.841 36.355C36.5535 36.5462 36.476 36.9343 36.6679 37.2218C36.8585 37.5087 37.2454 37.5868 37.5341 37.395Z" fill="#2B221F"/>
<path d="M41.2841 37.395C41.6429 37.1556 42.1066 37.1556 42.466 37.395C42.5722 37.4662 42.6929 37.5 42.8116 37.5C43.0135 37.5 43.2122 37.4025 43.3322 37.2218C43.5241 36.935 43.4466 36.5462 43.1591 36.355C42.3791 35.835 41.371 35.835 40.591 36.355C40.3035 36.5462 40.226 36.9343 40.4179 37.2218C40.6085 37.5087 40.996 37.5868 41.2841 37.395Z" fill="#2B221F"/>
<path d="M37.6833 40.808C37.4389 41.0524 37.4389 41.448 37.6833 41.6918C38.322 42.3305 39.1608 42.6499 40.0002 42.6499C40.8395 42.6499 41.6783 42.3305 42.317 41.6918C42.5614 41.448 42.5614 41.0524 42.317 40.808C42.0727 40.5637 41.6777 40.5637 41.4333 40.808C40.6433 41.598 39.357 41.598 38.567 40.808C38.3227 40.5637 37.9277 40.5637 37.6833 40.808Z" fill="#2B221F"/>
<path d="M47.5004 25.6249H48.7504V30.6249C48.7504 30.9699 49.0297 31.2499 49.3754 31.2499H53.1254C53.471 31.2499 53.7504 30.9699 53.7504 30.6249V25.6249H55.0004C55.2635 25.6249 55.4985 25.4599 55.5879 25.2124C55.6772 24.9649 55.6022 24.6881 55.4004 24.5199L51.6504 21.3949C51.4185 21.2012 51.0816 21.2012 50.8497 21.3949L47.0997 24.5199C46.8979 24.6887 46.8229 24.9649 46.9122 25.2124C47.0016 25.4599 47.2372 25.6249 47.5004 25.6249ZM51.2504 22.6887L53.2741 24.3749H53.1254C52.7797 24.3749 52.5004 24.6549 52.5004 24.9999V29.9999H50.0004V24.9999C50.0004 24.6549 49.721 24.3749 49.3754 24.3749H49.2266L51.2504 22.6887Z" fill="#2B221F"/>
<path d="M25.0004 25.6249H26.2504V28.1249C26.2504 28.4699 26.5297 28.7499 26.8754 28.7499C27.221 28.7499 27.5004 28.4699 27.5004 28.1249V24.9999C27.5004 24.6549 27.221 24.3749 26.8754 24.3749H26.7266L28.7504 22.6887L30.7741 24.3749H30.6254C30.2797 24.3749 30.0004 24.6549 30.0004 24.9999V29.9999H26.8754C26.5297 29.9999 26.2504 30.2799 26.2504 30.6249C26.2504 30.9699 26.5297 31.2499 26.8754 31.2499H30.6254C30.971 31.2499 31.2504 30.9699 31.2504 30.6249V25.6249H32.5004C32.7635 25.6249 32.9985 25.4599 33.0879 25.2124C33.1772 24.9649 33.1022 24.6881 32.9004 24.5199L29.1504 21.3949C28.9185 21.2012 28.5816 21.2012 28.3497 21.3949L24.5997 24.5199C24.3979 24.6887 24.3229 24.9649 24.4122 25.2124C24.5016 25.4599 24.7372 25.6249 25.0004 25.6249Z" fill="#2B221F"/>
<path d="M118.75 55.5156V56.7422H112.594V55.5156H118.75ZM112.828 50.625V62H111.32V50.625H112.828ZM120.062 50.625V62H118.562V50.625H120.062ZM122.141 57.8672V57.6875C122.141 57.0781 122.229 56.513 122.406 55.9922C122.583 55.4661 122.839 55.0104 123.172 54.625C123.505 54.2344 123.909 53.9323 124.383 53.7188C124.857 53.5 125.388 53.3906 125.977 53.3906C126.57 53.3906 127.104 53.5 127.578 53.7188C128.057 53.9323 128.464 54.2344 128.797 54.625C129.135 55.0104 129.393 55.4661 129.57 55.9922C129.747 56.513 129.836 57.0781 129.836 57.6875V57.8672C129.836 58.4766 129.747 59.0417 129.57 59.5625C129.393 60.0833 129.135 60.5391 128.797 60.9297C128.464 61.3151 128.06 61.6172 127.586 61.8359C127.117 62.0495 126.586 62.1562 125.992 62.1562C125.398 62.1562 124.865 62.0495 124.391 61.8359C123.917 61.6172 123.51 61.3151 123.172 60.9297C122.839 60.5391 122.583 60.0833 122.406 59.5625C122.229 59.0417 122.141 58.4766 122.141 57.8672ZM123.586 57.6875V57.8672C123.586 58.2891 123.635 58.6875 123.734 59.0625C123.833 59.4323 123.982 59.7604 124.18 60.0469C124.383 60.3333 124.635 60.5599 124.938 60.7266C125.24 60.888 125.591 60.9688 125.992 60.9688C126.388 60.9688 126.734 60.888 127.031 60.7266C127.333 60.5599 127.583 60.3333 127.781 60.0469C127.979 59.7604 128.128 59.4323 128.227 59.0625C128.331 58.6875 128.383 58.2891 128.383 57.8672V57.6875C128.383 57.2708 128.331 56.8776 128.227 56.5078C128.128 56.1328 127.977 55.8021 127.773 55.5156C127.576 55.224 127.326 54.9948 127.023 54.8281C126.727 54.6615 126.378 54.5781 125.977 54.5781C125.581 54.5781 125.232 54.6615 124.93 54.8281C124.633 54.9948 124.383 55.224 124.18 55.5156C123.982 55.8021 123.833 56.1328 123.734 56.5078C123.635 56.8776 123.586 57.2708 123.586 57.6875ZM133.094 55.3516V62H131.648V53.5469H133.016L133.094 55.3516ZM132.75 57.4531L132.148 57.4297C132.154 56.8516 132.24 56.3177 132.406 55.8281C132.573 55.3333 132.807 54.9036 133.109 54.5391C133.411 54.1745 133.771 53.8932 134.188 53.6953C134.609 53.4922 135.076 53.3906 135.586 53.3906C136.003 53.3906 136.378 53.4479 136.711 53.5625C137.044 53.6719 137.328 53.849 137.562 54.0938C137.802 54.3385 137.984 54.6562 138.109 55.0469C138.234 55.4323 138.297 55.9036 138.297 56.4609V62H136.844V56.4453C136.844 56.0026 136.779 55.6484 136.648 55.3828C136.518 55.112 136.328 54.9167 136.078 54.7969C135.828 54.6719 135.521 54.6094 135.156 54.6094C134.797 54.6094 134.469 54.6849 134.172 54.8359C133.88 54.987 133.628 55.1953 133.414 55.4609C133.206 55.7266 133.042 56.0312 132.922 56.375C132.807 56.7135 132.75 57.0729 132.75 57.4531ZM144 62.1562C143.411 62.1562 142.878 62.0573 142.398 61.8594C141.924 61.6562 141.516 61.3724 141.172 61.0078C140.833 60.6432 140.573 60.2109 140.391 59.7109C140.208 59.2109 140.117 58.6641 140.117 58.0703V57.7422C140.117 57.0547 140.219 56.4427 140.422 55.9062C140.625 55.3646 140.901 54.9062 141.25 54.5312C141.599 54.1562 141.995 53.8724 142.438 53.6797C142.88 53.487 143.339 53.3906 143.812 53.3906C144.417 53.3906 144.938 53.4948 145.375 53.7031C145.818 53.9115 146.18 54.2031 146.461 54.5781C146.742 54.9479 146.951 55.3854 147.086 55.8906C147.221 56.3906 147.289 56.9375 147.289 57.5312V58.1797H140.977V57H145.844V56.8906C145.823 56.5156 145.745 56.151 145.609 55.7969C145.479 55.4427 145.271 55.151 144.984 54.9219C144.698 54.6927 144.307 54.5781 143.812 54.5781C143.484 54.5781 143.182 54.6484 142.906 54.7891C142.63 54.9245 142.393 55.1276 142.195 55.3984C141.997 55.6693 141.844 56 141.734 56.3906C141.625 56.7812 141.57 57.2318 141.57 57.7422V58.0703C141.57 58.4714 141.625 58.849 141.734 59.2031C141.849 59.5521 142.013 59.8594 142.227 60.125C142.445 60.3906 142.708 60.599 143.016 60.75C143.328 60.901 143.682 60.9766 144.078 60.9766C144.589 60.9766 145.021 60.8724 145.375 60.6641C145.729 60.4557 146.039 60.1771 146.305 59.8281L147.18 60.5234C146.997 60.7995 146.766 61.0625 146.484 61.3125C146.203 61.5625 145.857 61.7656 145.445 61.9219C145.039 62.0781 144.557 62.1562 144 62.1562ZM151.242 61.125L153.594 53.5469H155.141L151.75 63.3047C151.672 63.513 151.568 63.737 151.438 63.9766C151.312 64.2214 151.151 64.4531 150.953 64.6719C150.755 64.8906 150.516 65.0677 150.234 65.2031C149.958 65.3438 149.628 65.4141 149.242 65.4141C149.128 65.4141 148.982 65.3984 148.805 65.3672C148.628 65.3359 148.503 65.3099 148.43 65.2891L148.422 64.1172C148.464 64.1224 148.529 64.1276 148.617 64.1328C148.711 64.1432 148.776 64.1484 148.812 64.1484C149.141 64.1484 149.419 64.1042 149.648 64.0156C149.878 63.9323 150.07 63.7891 150.227 63.5859C150.388 63.388 150.526 63.1146 150.641 62.7656L151.242 61.125ZM149.516 53.5469L151.711 60.1094L152.086 61.6328L151.047 62.1641L147.938 53.5469H149.516ZM165.336 59.7578C165.336 59.5495 165.289 59.3568 165.195 59.1797C165.107 58.9974 164.922 58.8333 164.641 58.6875C164.365 58.5365 163.948 58.4062 163.391 58.2969C162.922 58.1979 162.497 58.0807 162.117 57.9453C161.742 57.8099 161.422 57.6458 161.156 57.4531C160.896 57.2604 160.695 57.0339 160.555 56.7734C160.414 56.513 160.344 56.2083 160.344 55.8594C160.344 55.526 160.417 55.2109 160.562 54.9141C160.714 54.6172 160.924 54.3542 161.195 54.125C161.471 53.8958 161.802 53.7161 162.188 53.5859C162.573 53.4557 163.003 53.3906 163.477 53.3906C164.154 53.3906 164.732 53.5104 165.211 53.75C165.69 53.9896 166.057 54.3099 166.312 54.7109C166.568 55.1068 166.695 55.5469 166.695 56.0312H165.25C165.25 55.7969 165.18 55.5703 165.039 55.3516C164.904 55.1276 164.703 54.9427 164.438 54.7969C164.177 54.651 163.857 54.5781 163.477 54.5781C163.076 54.5781 162.75 54.6406 162.5 54.7656C162.255 54.8854 162.076 55.0391 161.961 55.2266C161.852 55.4141 161.797 55.612 161.797 55.8203C161.797 55.9766 161.823 56.1172 161.875 56.2422C161.932 56.362 162.031 56.474 162.172 56.5781C162.312 56.6771 162.51 56.7708 162.766 56.8594C163.021 56.9479 163.346 57.0365 163.742 57.125C164.435 57.2812 165.005 57.4688 165.453 57.6875C165.901 57.9062 166.234 58.1745 166.453 58.4922C166.672 58.8099 166.781 59.1953 166.781 59.6484C166.781 60.0182 166.703 60.3568 166.547 60.6641C166.396 60.9714 166.174 61.237 165.883 61.4609C165.596 61.6797 165.253 61.8516 164.852 61.9766C164.456 62.0964 164.01 62.1562 163.516 62.1562C162.771 62.1562 162.141 62.0234 161.625 61.7578C161.109 61.4922 160.719 61.1484 160.453 60.7266C160.188 60.3047 160.055 59.8594 160.055 59.3906H161.508C161.529 59.7865 161.643 60.1016 161.852 60.3359C162.06 60.5651 162.315 60.7292 162.617 60.8281C162.919 60.9219 163.219 60.9688 163.516 60.9688C163.911 60.9688 164.242 60.9167 164.508 60.8125C164.779 60.7083 164.984 60.5651 165.125 60.3828C165.266 60.2005 165.336 59.9922 165.336 59.7578ZM172.219 53.5469V54.6562H167.648V53.5469H172.219ZM169.195 51.4922H170.641V59.9062C170.641 60.1927 170.685 60.4089 170.773 60.5547C170.862 60.7005 170.977 60.7969 171.117 60.8438C171.258 60.8906 171.409 60.9141 171.57 60.9141C171.69 60.9141 171.815 60.9036 171.945 60.8828C172.081 60.8568 172.182 60.8359 172.25 60.8203L172.258 62C172.143 62.0365 171.992 62.0703 171.805 62.1016C171.622 62.138 171.401 62.1562 171.141 62.1562C170.786 62.1562 170.461 62.0859 170.164 61.9453C169.867 61.8047 169.63 61.5703 169.453 61.2422C169.281 60.9089 169.195 60.4609 169.195 59.8984V51.4922ZM178.898 60.5547V56.2031C178.898 55.8698 178.831 55.5807 178.695 55.3359C178.565 55.0859 178.367 54.8932 178.102 54.7578C177.836 54.6224 177.508 54.5547 177.117 54.5547C176.753 54.5547 176.432 54.6172 176.156 54.7422C175.885 54.8672 175.672 55.0312 175.516 55.2344C175.365 55.4375 175.289 55.6562 175.289 55.8906H173.844C173.844 55.5885 173.922 55.2891 174.078 54.9922C174.234 54.6953 174.458 54.4271 174.75 54.1875C175.047 53.9427 175.401 53.75 175.812 53.6094C176.229 53.4635 176.693 53.3906 177.203 53.3906C177.818 53.3906 178.359 53.4948 178.828 53.7031C179.302 53.9115 179.672 54.2266 179.938 54.6484C180.208 55.0651 180.344 55.5885 180.344 56.2188V60.1562C180.344 60.4375 180.367 60.737 180.414 61.0547C180.466 61.3724 180.542 61.6458 180.641 61.875V62H179.133C179.06 61.8333 179.003 61.612 178.961 61.3359C178.919 61.0547 178.898 60.7943 178.898 60.5547ZM179.148 56.875L179.164 57.8906H177.703C177.292 57.8906 176.924 57.9245 176.602 57.9922C176.279 58.0547 176.008 58.151 175.789 58.2812C175.57 58.4115 175.404 58.5755 175.289 58.7734C175.174 58.9661 175.117 59.1927 175.117 59.4531C175.117 59.7188 175.177 59.9609 175.297 60.1797C175.417 60.3984 175.596 60.5729 175.836 60.7031C176.081 60.8281 176.38 60.8906 176.734 60.8906C177.177 60.8906 177.568 60.7969 177.906 60.6094C178.245 60.4219 178.513 60.1927 178.711 59.9219C178.914 59.651 179.023 59.388 179.039 59.1328L179.656 59.8281C179.62 60.0469 179.521 60.2891 179.359 60.5547C179.198 60.8203 178.982 61.0755 178.711 61.3203C178.445 61.5599 178.128 61.7604 177.758 61.9219C177.393 62.0781 176.982 62.1562 176.523 62.1562C175.951 62.1562 175.448 62.0443 175.016 61.8203C174.589 61.5964 174.255 61.2969 174.016 60.9219C173.781 60.5417 173.664 60.1172 173.664 59.6484C173.664 59.1953 173.753 58.7969 173.93 58.4531C174.107 58.1042 174.362 57.8151 174.695 57.5859C175.029 57.3516 175.43 57.1745 175.898 57.0547C176.367 56.9349 176.891 56.875 177.469 56.875H179.148ZM184.062 54.875V62H182.617V53.5469H184.023L184.062 54.875ZM186.703 53.5L186.695 54.8438C186.576 54.8177 186.461 54.8021 186.352 54.7969C186.247 54.7865 186.128 54.7812 185.992 54.7812C185.659 54.7812 185.365 54.8333 185.109 54.9375C184.854 55.0417 184.638 55.1875 184.461 55.375C184.284 55.5625 184.143 55.7865 184.039 56.0469C183.94 56.3021 183.875 56.5833 183.844 56.8906L183.438 57.125C183.438 56.6146 183.487 56.1354 183.586 55.6875C183.69 55.2396 183.849 54.8438 184.062 54.5C184.276 54.151 184.547 53.8802 184.875 53.6875C185.208 53.4896 185.604 53.3906 186.062 53.3906C186.167 53.3906 186.286 53.4036 186.422 53.4297C186.557 53.4505 186.651 53.474 186.703 53.5ZM191.969 53.5469V54.6562H187.398V53.5469H191.969ZM188.945 51.4922H190.391V59.9062C190.391 60.1927 190.435 60.4089 190.523 60.5547C190.612 60.7005 190.727 60.7969 190.867 60.8438C191.008 60.8906 191.159 60.9141 191.32 60.9141C191.44 60.9141 191.565 60.9036 191.695 60.8828C191.831 60.8568 191.932 60.8359 192 60.8203L192.008 62C191.893 62.0365 191.742 62.0703 191.555 62.1016C191.372 62.138 191.151 62.1562 190.891 62.1562C190.536 62.1562 190.211 62.0859 189.914 61.9453C189.617 61.8047 189.38 61.5703 189.203 61.2422C189.031 60.9089 188.945 60.4609 188.945 59.8984V51.4922ZM198.586 59.7578C198.586 59.5495 198.539 59.3568 198.445 59.1797C198.357 58.9974 198.172 58.8333 197.891 58.6875C197.615 58.5365 197.198 58.4062 196.641 58.2969C196.172 58.1979 195.747 58.0807 195.367 57.9453C194.992 57.8099 194.672 57.6458 194.406 57.4531C194.146 57.2604 193.945 57.0339 193.805 56.7734C193.664 56.513 193.594 56.2083 193.594 55.8594C193.594 55.526 193.667 55.2109 193.812 54.9141C193.964 54.6172 194.174 54.3542 194.445 54.125C194.721 53.8958 195.052 53.7161 195.438 53.5859C195.823 53.4557 196.253 53.3906 196.727 53.3906C197.404 53.3906 197.982 53.5104 198.461 53.75C198.94 53.9896 199.307 54.3099 199.562 54.7109C199.818 55.1068 199.945 55.5469 199.945 56.0312H198.5C198.5 55.7969 198.43 55.5703 198.289 55.3516C198.154 55.1276 197.953 54.9427 197.688 54.7969C197.427 54.651 197.107 54.5781 196.727 54.5781C196.326 54.5781 196 54.6406 195.75 54.7656C195.505 54.8854 195.326 55.0391 195.211 55.2266C195.102 55.4141 195.047 55.612 195.047 55.8203C195.047 55.9766 195.073 56.1172 195.125 56.2422C195.182 56.362 195.281 56.474 195.422 56.5781C195.562 56.6771 195.76 56.7708 196.016 56.8594C196.271 56.9479 196.596 57.0365 196.992 57.125C197.685 57.2812 198.255 57.4688 198.703 57.6875C199.151 57.9062 199.484 58.1745 199.703 58.4922C199.922 58.8099 200.031 59.1953 200.031 59.6484C200.031 60.0182 199.953 60.3568 199.797 60.6641C199.646 60.9714 199.424 61.237 199.133 61.4609C198.846 61.6797 198.503 61.8516 198.102 61.9766C197.706 62.0964 197.26 62.1562 196.766 62.1562C196.021 62.1562 195.391 62.0234 194.875 61.7578C194.359 61.4922 193.969 61.1484 193.703 60.7266C193.438 60.3047 193.305 59.8594 193.305 59.3906H194.758C194.779 59.7865 194.893 60.1016 195.102 60.3359C195.31 60.5651 195.565 60.7292 195.867 60.8281C196.169 60.9219 196.469 60.9688 196.766 60.9688C197.161 60.9688 197.492 60.9167 197.758 60.8125C198.029 60.7083 198.234 60.5651 198.375 60.3828C198.516 60.2005 198.586 59.9922 198.586 59.7578ZM210.883 60.5547V56.2031C210.883 55.8698 210.815 55.5807 210.68 55.3359C210.549 55.0859 210.352 54.8932 210.086 54.7578C209.82 54.6224 209.492 54.5547 209.102 54.5547C208.737 54.5547 208.417 54.6172 208.141 54.7422C207.87 54.8672 207.656 55.0312 207.5 55.2344C207.349 55.4375 207.273 55.6562 207.273 55.8906H205.828C205.828 55.5885 205.906 55.2891 206.062 54.9922C206.219 54.6953 206.443 54.4271 206.734 54.1875C207.031 53.9427 207.385 53.75 207.797 53.6094C208.214 53.4635 208.677 53.3906 209.188 53.3906C209.802 53.3906 210.344 53.4948 210.812 53.7031C211.286 53.9115 211.656 54.2266 211.922 54.6484C212.193 55.0651 212.328 55.5885 212.328 56.2188V60.1562C212.328 60.4375 212.352 60.737 212.398 61.0547C212.451 61.3724 212.526 61.6458 212.625 61.875V62H211.117C211.044 61.8333 210.987 61.612 210.945 61.3359C210.904 61.0547 210.883 60.7943 210.883 60.5547ZM211.133 56.875L211.148 57.8906H209.688C209.276 57.8906 208.909 57.9245 208.586 57.9922C208.263 58.0547 207.992 58.151 207.773 58.2812C207.555 58.4115 207.388 58.5755 207.273 58.7734C207.159 58.9661 207.102 59.1927 207.102 59.4531C207.102 59.7188 207.161 59.9609 207.281 60.1797C207.401 60.3984 207.581 60.5729 207.82 60.7031C208.065 60.8281 208.365 60.8906 208.719 60.8906C209.161 60.8906 209.552 60.7969 209.891 60.6094C210.229 60.4219 210.497 60.1927 210.695 59.9219C210.898 59.651 211.008 59.388 211.023 59.1328L211.641 59.8281C211.604 60.0469 211.505 60.2891 211.344 60.5547C211.182 60.8203 210.966 61.0755 210.695 61.3203C210.43 61.5599 210.112 61.7604 209.742 61.9219C209.378 62.0781 208.966 62.1562 208.508 62.1562C207.935 62.1562 207.432 62.0443 207 61.8203C206.573 61.5964 206.24 61.2969 206 60.9219C205.766 60.5417 205.648 60.1172 205.648 59.6484C205.648 59.1953 205.737 58.7969 205.914 58.4531C206.091 58.1042 206.346 57.8151 206.68 57.5859C207.013 57.3516 207.414 57.1745 207.883 57.0547C208.352 56.9349 208.875 56.875 209.453 56.875H211.133ZM219.523 59.7578C219.523 59.5495 219.477 59.3568 219.383 59.1797C219.294 58.9974 219.109 58.8333 218.828 58.6875C218.552 58.5365 218.135 58.4062 217.578 58.2969C217.109 58.1979 216.685 58.0807 216.305 57.9453C215.93 57.8099 215.609 57.6458 215.344 57.4531C215.083 57.2604 214.883 57.0339 214.742 56.7734C214.602 56.513 214.531 56.2083 214.531 55.8594C214.531 55.526 214.604 55.2109 214.75 54.9141C214.901 54.6172 215.112 54.3542 215.383 54.125C215.659 53.8958 215.99 53.7161 216.375 53.5859C216.76 53.4557 217.19 53.3906 217.664 53.3906C218.341 53.3906 218.919 53.5104 219.398 53.75C219.878 53.9896 220.245 54.3099 220.5 54.7109C220.755 55.1068 220.883 55.5469 220.883 56.0312H219.438C219.438 55.7969 219.367 55.5703 219.227 55.3516C219.091 55.1276 218.891 54.9427 218.625 54.7969C218.365 54.651 218.044 54.5781 217.664 54.5781C217.263 54.5781 216.938 54.6406 216.688 54.7656C216.443 54.8854 216.263 55.0391 216.148 55.2266C216.039 55.4141 215.984 55.612 215.984 55.8203C215.984 55.9766 216.01 56.1172 216.062 56.2422C216.12 56.362 216.219 56.474 216.359 56.5781C216.5 56.6771 216.698 56.7708 216.953 56.8594C217.208 56.9479 217.534 57.0365 217.93 57.125C218.622 57.2812 219.193 57.4688 219.641 57.6875C220.089 57.9062 220.422 58.1745 220.641 58.4922C220.859 58.8099 220.969 59.1953 220.969 59.6484C220.969 60.0182 220.891 60.3568 220.734 60.6641C220.583 60.9714 220.362 61.237 220.07 61.4609C219.784 61.6797 219.44 61.8516 219.039 61.9766C218.643 62.0964 218.198 62.1562 217.703 62.1562C216.958 62.1562 216.328 62.0234 215.812 61.7578C215.297 61.4922 214.906 61.1484 214.641 60.7266C214.375 60.3047 214.242 59.8594 214.242 59.3906H215.695C215.716 59.7865 215.831 60.1016 216.039 60.3359C216.247 60.5651 216.503 60.7292 216.805 60.8281C217.107 60.9219 217.406 60.9688 217.703 60.9688C218.099 60.9688 218.43 60.9167 218.695 60.8125C218.966 60.7083 219.172 60.5651 219.312 60.3828C219.453 60.2005 219.523 59.9922 219.523 59.7578ZM228.992 62H227.547V52.6562C227.547 52.0469 227.659 51.5339 227.883 51.1172C228.112 50.6953 228.44 50.3776 228.867 50.1641C229.299 49.9453 229.823 49.8359 230.438 49.8359C230.667 49.8359 230.953 49.8594 231.297 49.9062C231.646 49.9531 232.016 50.013 232.406 50.0859C232.802 50.1589 233.188 50.2344 233.562 50.3125L232.891 51.3594C232.396 51.2656 231.951 51.1953 231.555 51.1484C231.159 51.0964 230.823 51.0703 230.547 51.0703C230.208 51.0703 229.922 51.1328 229.688 51.2578C229.458 51.3776 229.284 51.5547 229.164 51.7891C229.049 52.0234 228.992 52.3125 228.992 52.6562V62ZM232.117 62V50.3125H233.562V62H232.117ZM230.789 53.5469V54.6562H226.211V53.5469H230.789ZM235.547 57.8672V57.6875C235.547 57.0781 235.635 56.513 235.812 55.9922C235.99 55.4661 236.245 55.0104 236.578 54.625C236.911 54.2344 237.315 53.9323 237.789 53.7188C238.263 53.5 238.794 53.3906 239.383 53.3906C239.977 53.3906 240.51 53.5 240.984 53.7188C241.464 53.9323 241.87 54.2344 242.203 54.625C242.542 55.0104 242.799 55.4661 242.977 55.9922C243.154 56.513 243.242 57.0781 243.242 57.6875V57.8672C243.242 58.4766 243.154 59.0417 242.977 59.5625C242.799 60.0833 242.542 60.5391 242.203 60.9297C241.87 61.3151 241.466 61.6172 240.992 61.8359C240.523 62.0495 239.992 62.1562 239.398 62.1562C238.805 62.1562 238.271 62.0495 237.797 61.8359C237.323 61.6172 236.917 61.3151 236.578 60.9297C236.245 60.5391 235.99 60.0833 235.812 59.5625C235.635 59.0417 235.547 58.4766 235.547 57.8672ZM236.992 57.6875V57.8672C236.992 58.2891 237.042 58.6875 237.141 59.0625C237.24 59.4323 237.388 59.7604 237.586 60.0469C237.789 60.3333 238.042 60.5599 238.344 60.7266C238.646 60.888 238.997 60.9688 239.398 60.9688C239.794 60.9688 240.141 60.888 240.438 60.7266C240.74 60.5599 240.99 60.3333 241.188 60.0469C241.385 59.7604 241.534 59.4323 241.633 59.0625C241.737 58.6875 241.789 58.2891 241.789 57.8672V57.6875C241.789 57.2708 241.737 56.8776 241.633 56.5078C241.534 56.1328 241.383 55.8021 241.18 55.5156C240.982 55.224 240.732 54.9948 240.43 54.8281C240.133 54.6615 239.784 54.5781 239.383 54.5781C238.987 54.5781 238.638 54.6615 238.336 54.8281C238.039 54.9948 237.789 55.224 237.586 55.5156C237.388 55.8021 237.24 56.1328 237.141 56.5078C237.042 56.8776 236.992 57.2708 236.992 57.6875ZM247.195 60.5L249.367 53.5469H250.32L250.133 54.9297L247.922 62H246.992L247.195 60.5ZM245.734 53.5469L247.586 60.5781L247.719 62H246.742L244.289 53.5469H245.734ZM252.398 60.5234L254.164 53.5469H255.602L253.148 62H252.18L252.398 60.5234ZM250.531 53.5469L252.656 60.3828L252.898 62H251.977L249.703 54.9141L249.516 53.5469H250.531ZM260.594 62.1562C260.005 62.1562 259.471 62.0573 258.992 61.8594C258.518 61.6562 258.109 61.3724 257.766 61.0078C257.427 60.6432 257.167 60.2109 256.984 59.7109C256.802 59.2109 256.711 58.6641 256.711 58.0703V57.7422C256.711 57.0547 256.812 56.4427 257.016 55.9062C257.219 55.3646 257.495 54.9062 257.844 54.5312C258.193 54.1562 258.589 53.8724 259.031 53.6797C259.474 53.487 259.932 53.3906 260.406 53.3906C261.01 53.3906 261.531 53.4948 261.969 53.7031C262.411 53.9115 262.773 54.2031 263.055 54.5781C263.336 54.9479 263.544 55.3854 263.68 55.8906C263.815 56.3906 263.883 56.9375 263.883 57.5312V58.1797H257.57V57H262.438V56.8906C262.417 56.5156 262.339 56.151 262.203 55.7969C262.073 55.4427 261.865 55.151 261.578 54.9219C261.292 54.6927 260.901 54.5781 260.406 54.5781C260.078 54.5781 259.776 54.6484 259.5 54.7891C259.224 54.9245 258.987 55.1276 258.789 55.3984C258.591 55.6693 258.438 56 258.328 56.3906C258.219 56.7812 258.164 57.2318 258.164 57.7422V58.0703C258.164 58.4714 258.219 58.849 258.328 59.2031C258.443 59.5521 258.607 59.8594 258.82 60.125C259.039 60.3906 259.302 60.599 259.609 60.75C259.922 60.901 260.276 60.9766 260.672 60.9766C261.182 60.9766 261.615 60.8724 261.969 60.6641C262.323 60.4557 262.633 60.1771 262.898 59.8281L263.773 60.5234C263.591 60.7995 263.359 61.0625 263.078 61.3125C262.797 61.5625 262.451 61.7656 262.039 61.9219C261.633 62.0781 261.151 62.1562 260.594 62.1562ZM267.016 54.875V62H265.57V53.5469H266.977L267.016 54.875ZM269.656 53.5L269.648 54.8438C269.529 54.8177 269.414 54.8021 269.305 54.7969C269.201 54.7865 269.081 54.7812 268.945 54.7812C268.612 54.7812 268.318 54.8333 268.062 54.9375C267.807 55.0417 267.591 55.1875 267.414 55.375C267.237 55.5625 267.096 55.7865 266.992 56.0469C266.893 56.3021 266.828 56.5833 266.797 56.8906L266.391 57.125C266.391 56.6146 266.44 56.1354 266.539 55.6875C266.643 55.2396 266.802 54.8438 267.016 54.5C267.229 54.151 267.5 53.8802 267.828 53.6875C268.161 53.4896 268.557 53.3906 269.016 53.3906C269.12 53.3906 269.24 53.4036 269.375 53.4297C269.51 53.4505 269.604 53.474 269.656 53.5ZM276.406 55.3516V62H274.961V53.5469H276.328L276.406 55.3516ZM276.062 57.4531L275.461 57.4297C275.466 56.8516 275.552 56.3177 275.719 55.8281C275.885 55.3333 276.12 54.9036 276.422 54.5391C276.724 54.1745 277.083 53.8932 277.5 53.6953C277.922 53.4922 278.388 53.3906 278.898 53.3906C279.315 53.3906 279.69 53.4479 280.023 53.5625C280.357 53.6719 280.641 53.849 280.875 54.0938C281.115 54.3385 281.297 54.6562 281.422 55.0469C281.547 55.4323 281.609 55.9036 281.609 56.4609V62H280.156V56.4453C280.156 56.0026 280.091 55.6484 279.961 55.3828C279.831 55.112 279.641 54.9167 279.391 54.7969C279.141 54.6719 278.833 54.6094 278.469 54.6094C278.109 54.6094 277.781 54.6849 277.484 54.8359C277.193 54.987 276.94 55.1953 276.727 55.4609C276.518 55.7266 276.354 56.0312 276.234 56.375C276.12 56.7135 276.062 57.0729 276.062 57.4531ZM287.312 62.1562C286.724 62.1562 286.19 62.0573 285.711 61.8594C285.237 61.6562 284.828 61.3724 284.484 61.0078C284.146 60.6432 283.885 60.2109 283.703 59.7109C283.521 59.2109 283.43 58.6641 283.43 58.0703V57.7422C283.43 57.0547 283.531 56.4427 283.734 55.9062C283.938 55.3646 284.214 54.9062 284.562 54.5312C284.911 54.1562 285.307 53.8724 285.75 53.6797C286.193 53.487 286.651 53.3906 287.125 53.3906C287.729 53.3906 288.25 53.4948 288.688 53.7031C289.13 53.9115 289.492 54.2031 289.773 54.5781C290.055 54.9479 290.263 55.3854 290.398 55.8906C290.534 56.3906 290.602 56.9375 290.602 57.5312V58.1797H284.289V57H289.156V56.8906C289.135 56.5156 289.057 56.151 288.922 55.7969C288.792 55.4427 288.583 55.151 288.297 54.9219C288.01 54.6927 287.62 54.5781 287.125 54.5781C286.797 54.5781 286.495 54.6484 286.219 54.7891C285.943 54.9245 285.706 55.1276 285.508 55.3984C285.31 55.6693 285.156 56 285.047 56.3906C284.938 56.7812 284.883 57.2318 284.883 57.7422V58.0703C284.883 58.4714 284.938 58.849 285.047 59.2031C285.161 59.5521 285.326 59.8594 285.539 60.125C285.758 60.3906 286.021 60.599 286.328 60.75C286.641 60.901 286.995 60.9766 287.391 60.9766C287.901 60.9766 288.333 60.8724 288.688 60.6641C289.042 60.4557 289.352 60.1771 289.617 59.8281L290.492 60.5234C290.31 60.7995 290.078 61.0625 289.797 61.3125C289.516 61.5625 289.169 61.7656 288.758 61.9219C288.352 62.0781 287.87 62.1562 287.312 62.1562ZM295.672 60.9688C296.016 60.9688 296.333 60.8984 296.625 60.7578C296.917 60.6172 297.156 60.4245 297.344 60.1797C297.531 59.9297 297.638 59.6458 297.664 59.3281H299.039C299.013 59.8281 298.844 60.2943 298.531 60.7266C298.224 61.1536 297.82 61.5 297.32 61.7656C296.82 62.026 296.271 62.1562 295.672 62.1562C295.036 62.1562 294.482 62.0443 294.008 61.8203C293.539 61.5964 293.148 61.2891 292.836 60.8984C292.529 60.5078 292.297 60.0599 292.141 59.5547C291.99 59.0443 291.914 58.5052 291.914 57.9375V57.6094C291.914 57.0417 291.99 56.5052 292.141 56C292.297 55.4896 292.529 55.0391 292.836 54.6484C293.148 54.2578 293.539 53.9505 294.008 53.7266C294.482 53.5026 295.036 53.3906 295.672 53.3906C296.333 53.3906 296.911 53.526 297.406 53.7969C297.901 54.0625 298.289 54.4271 298.57 54.8906C298.857 55.349 299.013 55.8698 299.039 56.4531H297.664C297.638 56.1042 297.539 55.7891 297.367 55.5078C297.201 55.2266 296.971 55.0026 296.68 54.8359C296.393 54.6641 296.057 54.5781 295.672 54.5781C295.229 54.5781 294.857 54.6667 294.555 54.8438C294.258 55.0156 294.021 55.25 293.844 55.5469C293.672 55.8385 293.547 56.1641 293.469 56.5234C293.396 56.8776 293.359 57.2396 293.359 57.6094V57.9375C293.359 58.3073 293.396 58.6719 293.469 59.0312C293.542 59.3906 293.664 59.7161 293.836 60.0078C294.013 60.2995 294.25 60.5339 294.547 60.7109C294.849 60.8828 295.224 60.9688 295.672 60.9688ZM304.203 53.5469V54.6562H299.633V53.5469H304.203ZM301.18 51.4922H302.625V59.9062C302.625 60.1927 302.669 60.4089 302.758 60.5547C302.846 60.7005 302.961 60.7969 303.102 60.8438C303.242 60.8906 303.393 60.9141 303.555 60.9141C303.674 60.9141 303.799 60.9036 303.93 60.8828C304.065 60.8568 304.167 60.8359 304.234 60.8203L304.242 62C304.128 62.0365 303.977 62.0703 303.789 62.1016C303.607 62.138 303.385 62.1562 303.125 62.1562C302.771 62.1562 302.445 62.0859 302.148 61.9453C301.852 61.8047 301.615 61.5703 301.438 61.2422C301.266 60.9089 301.18 60.4609 301.18 59.8984V51.4922ZM310.883 60.5547V56.2031C310.883 55.8698 310.815 55.5807 310.68 55.3359C310.549 55.0859 310.352 54.8932 310.086 54.7578C309.82 54.6224 309.492 54.5547 309.102 54.5547C308.737 54.5547 308.417 54.6172 308.141 54.7422C307.87 54.8672 307.656 55.0312 307.5 55.2344C307.349 55.4375 307.273 55.6562 307.273 55.8906H305.828C305.828 55.5885 305.906 55.2891 306.062 54.9922C306.219 54.6953 306.443 54.4271 306.734 54.1875C307.031 53.9427 307.385 53.75 307.797 53.6094C308.214 53.4635 308.677 53.3906 309.188 53.3906C309.802 53.3906 310.344 53.4948 310.812 53.7031C311.286 53.9115 311.656 54.2266 311.922 54.6484C312.193 55.0651 312.328 55.5885 312.328 56.2188V60.1562C312.328 60.4375 312.352 60.737 312.398 61.0547C312.451 61.3724 312.526 61.6458 312.625 61.875V62H311.117C311.044 61.8333 310.987 61.612 310.945 61.3359C310.904 61.0547 310.883 60.7943 310.883 60.5547ZM311.133 56.875L311.148 57.8906H309.688C309.276 57.8906 308.909 57.9245 308.586 57.9922C308.263 58.0547 307.992 58.151 307.773 58.2812C307.555 58.4115 307.388 58.5755 307.273 58.7734C307.159 58.9661 307.102 59.1927 307.102 59.4531C307.102 59.7188 307.161 59.9609 307.281 60.1797C307.401 60.3984 307.581 60.5729 307.82 60.7031C308.065 60.8281 308.365 60.8906 308.719 60.8906C309.161 60.8906 309.552 60.7969 309.891 60.6094C310.229 60.4219 310.497 60.1927 310.695 59.9219C310.898 59.651 311.008 59.388 311.023 59.1328L311.641 59.8281C311.604 60.0469 311.505 60.2891 311.344 60.5547C311.182 60.8203 310.966 61.0755 310.695 61.3203C310.43 61.5599 310.112 61.7604 309.742 61.9219C309.378 62.0781 308.966 62.1562 308.508 62.1562C307.935 62.1562 307.432 62.0443 307 61.8203C306.573 61.5964 306.24 61.2969 306 60.9219C305.766 60.5417 305.648 60.1172 305.648 59.6484C305.648 59.1953 305.737 58.7969 305.914 58.4531C306.091 58.1042 306.346 57.8151 306.68 57.5859C307.013 57.3516 307.414 57.1745 307.883 57.0547C308.352 56.9349 308.875 56.875 309.453 56.875H311.133ZM316.047 54.875V62H314.602V53.5469H316.008L316.047 54.875ZM318.688 53.5L318.68 54.8438C318.56 54.8177 318.445 54.8021 318.336 54.7969C318.232 54.7865 318.112 54.7812 317.977 54.7812C317.643 54.7812 317.349 54.8333 317.094 54.9375C316.839 55.0417 316.622 55.1875 316.445 55.375C316.268 55.5625 316.128 55.7865 316.023 56.0469C315.924 56.3021 315.859 56.5833 315.828 56.8906L315.422 57.125C315.422 56.6146 315.471 56.1354 315.57 55.6875C315.674 55.2396 315.833 54.8438 316.047 54.5C316.26 54.151 316.531 53.8802 316.859 53.6875C317.193 53.4896 317.589 53.3906 318.047 53.3906C318.151 53.3906 318.271 53.4036 318.406 53.4297C318.542 53.4505 318.635 53.474 318.688 53.5ZM114.484 89.9688C114.828 89.9688 115.146 89.8984 115.438 89.7578C115.729 89.6172 115.969 89.4245 116.156 89.1797C116.344 88.9297 116.451 88.6458 116.477 88.3281H117.852C117.826 88.8281 117.656 89.2943 117.344 89.7266C117.036 90.1536 116.633 90.5 116.133 90.7656C115.633 91.026 115.083 91.1562 114.484 91.1562C113.849 91.1562 113.294 91.0443 112.82 90.8203C112.352 90.5964 111.961 90.2891 111.648 89.8984C111.341 89.5078 111.109 89.0599 110.953 88.5547C110.802 88.0443 110.727 87.5052 110.727 86.9375V86.6094C110.727 86.0417 110.802 85.5052 110.953 85C111.109 84.4896 111.341 84.0391 111.648 83.6484C111.961 83.2578 112.352 82.9505 112.82 82.7266C113.294 82.5026 113.849 82.3906 114.484 82.3906C115.146 82.3906 115.724 82.526 116.219 82.7969C116.714 83.0625 117.102 83.4271 117.383 83.8906C117.669 84.349 117.826 84.8698 117.852 85.4531H116.477C116.451 85.1042 116.352 84.7891 116.18 84.5078C116.013 84.2266 115.784 84.0026 115.492 83.8359C115.206 83.6641 114.87 83.5781 114.484 83.5781C114.042 83.5781 113.669 83.6667 113.367 83.8438C113.07 84.0156 112.833 84.25 112.656 84.5469C112.484 84.8385 112.359 85.1641 112.281 85.5234C112.208 85.8776 112.172 86.2396 112.172 86.6094V86.9375C112.172 87.3073 112.208 87.6719 112.281 88.0312C112.354 88.3906 112.477 88.7161 112.648 89.0078C112.826 89.2995 113.062 89.5339 113.359 89.7109C113.661 89.8828 114.036 89.9688 114.484 89.9688ZM119.094 86.8672V86.6875C119.094 86.0781 119.182 85.513 119.359 84.9922C119.536 84.4661 119.792 84.0104 120.125 83.625C120.458 83.2344 120.862 82.9323 121.336 82.7188C121.81 82.5 122.341 82.3906 122.93 82.3906C123.523 82.3906 124.057 82.5 124.531 82.7188C125.01 82.9323 125.417 83.2344 125.75 83.625C126.089 84.0104 126.346 84.4661 126.523 84.9922C126.701 85.513 126.789 86.0781 126.789 86.6875V86.8672C126.789 87.4766 126.701 88.0417 126.523 88.5625C126.346 89.0833 126.089 89.5391 125.75 89.9297C125.417 90.3151 125.013 90.6172 124.539 90.8359C124.07 91.0495 123.539 91.1562 122.945 91.1562C122.352 91.1562 121.818 91.0495 121.344 90.8359C120.87 90.6172 120.464 90.3151 120.125 89.9297C119.792 89.5391 119.536 89.0833 119.359 88.5625C119.182 88.0417 119.094 87.4766 119.094 86.8672ZM120.539 86.6875V86.8672C120.539 87.2891 120.589 87.6875 120.688 88.0625C120.786 88.4323 120.935 88.7604 121.133 89.0469C121.336 89.3333 121.589 89.5599 121.891 89.7266C122.193 89.888 122.544 89.9688 122.945 89.9688C123.341 89.9688 123.688 89.888 123.984 89.7266C124.286 89.5599 124.536 89.3333 124.734 89.0469C124.932 88.7604 125.081 88.4323 125.18 88.0625C125.284 87.6875 125.336 87.2891 125.336 86.8672V86.6875C125.336 86.2708 125.284 85.8776 125.18 85.5078C125.081 85.1328 124.93 84.8021 124.727 84.5156C124.529 84.224 124.279 83.9948 123.977 83.8281C123.68 83.6615 123.331 83.5781 122.93 83.5781C122.534 83.5781 122.185 83.6615 121.883 83.8281C121.586 83.9948 121.336 84.224 121.133 84.5156C120.935 84.8021 120.786 85.1328 120.688 85.5078C120.589 85.8776 120.539 86.2708 120.539 86.6875ZM130.172 79V91H128.719V79H130.172ZM134.062 79V91H132.609V79H134.062ZM139.891 91.1562C139.302 91.1562 138.768 91.0573 138.289 90.8594C137.815 90.6562 137.406 90.3724 137.062 90.0078C136.724 89.6432 136.464 89.2109 136.281 88.7109C136.099 88.2109 136.008 87.6641 136.008 87.0703V86.7422C136.008 86.0547 136.109 85.4427 136.312 84.9062C136.516 84.3646 136.792 83.9062 137.141 83.5312C137.49 83.1562 137.885 82.8724 138.328 82.6797C138.771 82.487 139.229 82.3906 139.703 82.3906C140.307 82.3906 140.828 82.4948 141.266 82.7031C141.708 82.9115 142.07 83.2031 142.352 83.5781C142.633 83.9479 142.841 84.3854 142.977 84.8906C143.112 85.3906 143.18 85.9375 143.18 86.5312V87.1797H136.867V86H141.734V85.8906C141.714 85.5156 141.635 85.151 141.5 84.7969C141.37 84.4427 141.161 84.151 140.875 83.9219C140.589 83.6927 140.198 83.5781 139.703 83.5781C139.375 83.5781 139.073 83.6484 138.797 83.7891C138.521 83.9245 138.284 84.1276 138.086 84.3984C137.888 84.6693 137.734 85 137.625 85.3906C137.516 85.7812 137.461 86.2318 137.461 86.7422V87.0703C137.461 87.4714 137.516 87.849 137.625 88.2031C137.74 88.5521 137.904 88.8594 138.117 89.125C138.336 89.3906 138.599 89.599 138.906 89.75C139.219 89.901 139.573 89.9766 139.969 89.9766C140.479 89.9766 140.911 89.8724 141.266 89.6641C141.62 89.4557 141.93 89.1771 142.195 88.8281L143.07 89.5234C142.888 89.7995 142.656 90.0625 142.375 90.3125C142.094 90.5625 141.747 90.7656 141.336 90.9219C140.93 91.0781 140.448 91.1562 139.891 91.1562ZM148.25 89.9688C148.594 89.9688 148.911 89.8984 149.203 89.7578C149.495 89.6172 149.734 89.4245 149.922 89.1797C150.109 88.9297 150.216 88.6458 150.242 88.3281H151.617C151.591 88.8281 151.422 89.2943 151.109 89.7266C150.802 90.1536 150.398 90.5 149.898 90.7656C149.398 91.026 148.849 91.1562 148.25 91.1562C147.615 91.1562 147.06 91.0443 146.586 90.8203C146.117 90.5964 145.727 90.2891 145.414 89.8984C145.107 89.5078 144.875 89.0599 144.719 88.5547C144.568 88.0443 144.492 87.5052 144.492 86.9375V86.6094C144.492 86.0417 144.568 85.5052 144.719 85C144.875 84.4896 145.107 84.0391 145.414 83.6484C145.727 83.2578 146.117 82.9505 146.586 82.7266C147.06 82.5026 147.615 82.3906 148.25 82.3906C148.911 82.3906 149.49 82.526 149.984 82.7969C150.479 83.0625 150.867 83.4271 151.148 83.8906C151.435 84.349 151.591 84.8698 151.617 85.4531H150.242C150.216 85.1042 150.117 84.7891 149.945 84.5078C149.779 84.2266 149.549 84.0026 149.258 83.8359C148.971 83.6641 148.635 83.5781 148.25 83.5781C147.807 83.5781 147.435 83.6667 147.133 83.8438C146.836 84.0156 146.599 84.25 146.422 84.5469C146.25 84.8385 146.125 85.1641 146.047 85.5234C145.974 85.8776 145.938 86.2396 145.938 86.6094V86.9375C145.938 87.3073 145.974 87.6719 146.047 88.0312C146.12 88.3906 146.242 88.7161 146.414 89.0078C146.591 89.2995 146.828 89.5339 147.125 89.7109C147.427 89.8828 147.802 89.9688 148.25 89.9688ZM156.781 82.5469V83.6562H152.211V82.5469H156.781ZM153.758 80.4922H155.203V88.9062C155.203 89.1927 155.247 89.4089 155.336 89.5547C155.424 89.7005 155.539 89.7969 155.68 89.8438C155.82 89.8906 155.971 89.9141 156.133 89.9141C156.253 89.9141 156.378 89.9036 156.508 89.8828C156.643 89.8568 156.745 89.8359 156.812 89.8203L156.82 91C156.706 91.0365 156.555 91.0703 156.367 91.1016C156.185 91.138 155.964 91.1562 155.703 91.1562C155.349 91.1562 155.023 91.0859 154.727 90.9453C154.43 90.8047 154.193 90.5703 154.016 90.2422C153.844 89.9089 153.758 89.4609 153.758 88.8984V80.4922ZM161.984 91.1562C161.396 91.1562 160.862 91.0573 160.383 90.8594C159.909 90.6562 159.5 90.3724 159.156 90.0078C158.818 89.6432 158.557 89.2109 158.375 88.7109C158.193 88.2109 158.102 87.6641 158.102 87.0703V86.7422C158.102 86.0547 158.203 85.4427 158.406 84.9062C158.609 84.3646 158.885 83.9062 159.234 83.5312C159.583 83.1562 159.979 82.8724 160.422 82.6797C160.865 82.487 161.323 82.3906 161.797 82.3906C162.401 82.3906 162.922 82.4948 163.359 82.7031C163.802 82.9115 164.164 83.2031 164.445 83.5781C164.727 83.9479 164.935 84.3854 165.07 84.8906C165.206 85.3906 165.273 85.9375 165.273 86.5312V87.1797H158.961V86H163.828V85.8906C163.807 85.5156 163.729 85.151 163.594 84.7969C163.464 84.4427 163.255 84.151 162.969 83.9219C162.682 83.6927 162.292 83.5781 161.797 83.5781C161.469 83.5781 161.167 83.6484 160.891 83.7891C160.615 83.9245 160.378 84.1276 160.18 84.3984C159.982 84.6693 159.828 85 159.719 85.3906C159.609 85.7812 159.555 86.2318 159.555 86.7422V87.0703C159.555 87.4714 159.609 87.849 159.719 88.2031C159.833 88.5521 159.997 88.8594 160.211 89.125C160.43 89.3906 160.693 89.599 161 89.75C161.312 89.901 161.667 89.9766 162.062 89.9766C162.573 89.9766 163.005 89.8724 163.359 89.6641C163.714 89.4557 164.023 89.1771 164.289 88.8281L165.164 89.5234C164.982 89.7995 164.75 90.0625 164.469 90.3125C164.188 90.5625 163.841 90.7656 163.43 90.9219C163.023 91.0781 162.542 91.1562 161.984 91.1562ZM172.289 89.3594V79H173.742V91H172.414L172.289 89.3594ZM166.602 86.8672V86.7031C166.602 86.0573 166.68 85.4714 166.836 84.9453C166.997 84.4141 167.224 83.9583 167.516 83.5781C167.812 83.1979 168.164 82.9062 168.57 82.7031C168.982 82.4948 169.44 82.3906 169.945 82.3906C170.477 82.3906 170.94 82.4844 171.336 82.6719C171.737 82.8542 172.076 83.1224 172.352 83.4766C172.633 83.8255 172.854 84.2474 173.016 84.7422C173.177 85.237 173.289 85.7969 173.352 86.4219V87.1406C173.294 87.7604 173.182 88.3177 173.016 88.8125C172.854 89.3073 172.633 89.7292 172.352 90.0781C172.076 90.4271 171.737 90.6953 171.336 90.8828C170.935 91.0651 170.466 91.1562 169.93 91.1562C169.435 91.1562 168.982 91.0495 168.57 90.8359C168.164 90.6224 167.812 90.3229 167.516 89.9375C167.224 89.5521 166.997 89.099 166.836 88.5781C166.68 88.0521 166.602 87.4818 166.602 86.8672ZM168.055 86.7031V86.8672C168.055 87.2891 168.096 87.6849 168.18 88.0547C168.268 88.4245 168.404 88.75 168.586 89.0312C168.768 89.3125 169 89.5339 169.281 89.6953C169.562 89.8516 169.898 89.9297 170.289 89.9297C170.768 89.9297 171.161 89.8281 171.469 89.625C171.781 89.4219 172.031 89.1536 172.219 88.8203C172.406 88.487 172.552 88.125 172.656 87.7344V85.8516C172.594 85.5651 172.503 85.2891 172.383 85.0234C172.268 84.7526 172.117 84.513 171.93 84.3047C171.747 84.0911 171.521 83.9219 171.25 83.7969C170.984 83.6719 170.669 83.6094 170.305 83.6094C169.909 83.6094 169.568 83.6927 169.281 83.8594C169 84.0208 168.768 84.2448 168.586 84.5312C168.404 84.8125 168.268 85.1406 168.18 85.5156C168.096 85.8854 168.055 86.2812 168.055 86.7031ZM179.953 79H181.406V89.3594L181.281 91H179.953V79ZM187.117 86.7031V86.8672C187.117 87.4818 187.044 88.0521 186.898 88.5781C186.753 89.099 186.539 89.5521 186.258 89.9375C185.977 90.3229 185.633 90.6224 185.227 90.8359C184.82 91.0495 184.354 91.1562 183.828 91.1562C183.292 91.1562 182.82 91.0651 182.414 90.8828C182.013 90.6953 181.674 90.4271 181.398 90.0781C181.122 89.7292 180.901 89.3073 180.734 88.8125C180.573 88.3177 180.461 87.7604 180.398 87.1406V86.4219C180.461 85.7969 180.573 85.237 180.734 84.7422C180.901 84.2474 181.122 83.8255 181.398 83.4766C181.674 83.1224 182.013 82.8542 182.414 82.6719C182.815 82.4844 183.281 82.3906 183.812 82.3906C184.344 82.3906 184.815 82.4948 185.227 82.7031C185.638 82.9062 185.982 83.1979 186.258 83.5781C186.539 83.9583 186.753 84.4141 186.898 84.9453C187.044 85.4714 187.117 86.0573 187.117 86.7031ZM185.664 86.8672V86.7031C185.664 86.2812 185.625 85.8854 185.547 85.5156C185.469 85.1406 185.344 84.8125 185.172 84.5312C185 84.2448 184.773 84.0208 184.492 83.8594C184.211 83.6927 183.865 83.6094 183.453 83.6094C183.089 83.6094 182.771 83.6719 182.5 83.7969C182.234 83.9219 182.008 84.0911 181.82 84.3047C181.633 84.513 181.479 84.7526 181.359 85.0234C181.245 85.2891 181.159 85.5651 181.102 85.8516V87.7344C181.185 88.099 181.32 88.4505 181.508 88.7891C181.701 89.1224 181.956 89.3958 182.273 89.6094C182.596 89.8229 182.995 89.9297 183.469 89.9297C183.859 89.9297 184.193 89.8516 184.469 89.6953C184.75 89.5339 184.977 89.3125 185.148 89.0312C185.326 88.75 185.456 88.4245 185.539 88.0547C185.622 87.6849 185.664 87.2891 185.664 86.8672ZM191.227 90.125L193.578 82.5469H195.125L191.734 92.3047C191.656 92.513 191.552 92.737 191.422 92.9766C191.297 93.2214 191.135 93.4531 190.938 93.6719C190.74 93.8906 190.5 94.0677 190.219 94.2031C189.943 94.3438 189.612 94.4141 189.227 94.4141C189.112 94.4141 188.966 94.3984 188.789 94.3672C188.612 94.3359 188.487 94.3099 188.414 94.2891L188.406 93.1172C188.448 93.1224 188.513 93.1276 188.602 93.1328C188.695 93.1432 188.76 93.1484 188.797 93.1484C189.125 93.1484 189.404 93.1042 189.633 93.0156C189.862 92.9323 190.055 92.7891 190.211 92.5859C190.372 92.388 190.51 92.1146 190.625 91.7656L191.227 90.125ZM189.5 82.5469L191.695 89.1094L192.07 90.6328L191.031 91.1641L187.922 82.5469H189.5ZM200.391 79H201.844V89.3594L201.719 91H200.391V79ZM207.555 86.7031V86.8672C207.555 87.4818 207.482 88.0521 207.336 88.5781C207.19 89.099 206.977 89.5521 206.695 89.9375C206.414 90.3229 206.07 90.6224 205.664 90.8359C205.258 91.0495 204.792 91.1562 204.266 91.1562C203.729 91.1562 203.258 91.0651 202.852 90.8828C202.451 90.6953 202.112 90.4271 201.836 90.0781C201.56 89.7292 201.339 89.3073 201.172 88.8125C201.01 88.3177 200.898 87.7604 200.836 87.1406V86.4219C200.898 85.7969 201.01 85.237 201.172 84.7422C201.339 84.2474 201.56 83.8255 201.836 83.4766C202.112 83.1224 202.451 82.8542 202.852 82.6719C203.253 82.4844 203.719 82.3906 204.25 82.3906C204.781 82.3906 205.253 82.4948 205.664 82.7031C206.076 82.9062 206.419 83.1979 206.695 83.5781C206.977 83.9583 207.19 84.4141 207.336 84.9453C207.482 85.4714 207.555 86.0573 207.555 86.7031ZM206.102 86.8672V86.7031C206.102 86.2812 206.062 85.8854 205.984 85.5156C205.906 85.1406 205.781 84.8125 205.609 84.5312C205.438 84.2448 205.211 84.0208 204.93 83.8594C204.648 83.6927 204.302 83.6094 203.891 83.6094C203.526 83.6094 203.208 83.6719 202.938 83.7969C202.672 83.9219 202.445 84.0911 202.258 84.3047C202.07 84.513 201.917 84.7526 201.797 85.0234C201.682 85.2891 201.596 85.5651 201.539 85.8516V87.7344C201.622 88.099 201.758 88.4505 201.945 88.7891C202.138 89.1224 202.393 89.3958 202.711 89.6094C203.034 89.8229 203.432 89.9297 203.906 89.9297C204.297 89.9297 204.63 89.8516 204.906 89.6953C205.188 89.5339 205.414 89.3125 205.586 89.0312C205.763 88.75 205.893 88.4245 205.977 88.0547C206.06 87.6849 206.102 87.2891 206.102 86.8672ZM212.891 91.1562C212.302 91.1562 211.768 91.0573 211.289 90.8594C210.815 90.6562 210.406 90.3724 210.062 90.0078C209.724 89.6432 209.464 89.2109 209.281 88.7109C209.099 88.2109 209.008 87.6641 209.008 87.0703V86.7422C209.008 86.0547 209.109 85.4427 209.312 84.9062C209.516 84.3646 209.792 83.9062 210.141 83.5312C210.49 83.1562 210.885 82.8724 211.328 82.6797C211.771 82.487 212.229 82.3906 212.703 82.3906C213.307 82.3906 213.828 82.4948 214.266 82.7031C214.708 82.9115 215.07 83.2031 215.352 83.5781C215.633 83.9479 215.841 84.3854 215.977 84.8906C216.112 85.3906 216.18 85.9375 216.18 86.5312V87.1797H209.867V86H214.734V85.8906C214.714 85.5156 214.635 85.151 214.5 84.7969C214.37 84.4427 214.161 84.151 213.875 83.9219C213.589 83.6927 213.198 83.5781 212.703 83.5781C212.375 83.5781 212.073 83.6484 211.797 83.7891C211.521 83.9245 211.284 84.1276 211.086 84.3984C210.888 84.6693 210.734 85 210.625 85.3906C210.516 85.7812 210.461 86.2318 210.461 86.7422V87.0703C210.461 87.4714 210.516 87.849 210.625 88.2031C210.74 88.5521 210.904 88.8594 211.117 89.125C211.336 89.3906 211.599 89.599 211.906 89.75C212.219 89.901 212.573 89.9766 212.969 89.9766C213.479 89.9766 213.911 89.8724 214.266 89.6641C214.62 89.4557 214.93 89.1771 215.195 88.8281L216.07 89.5234C215.888 89.7995 215.656 90.0625 215.375 90.3125C215.094 90.5625 214.747 90.7656 214.336 90.9219C213.93 91.0781 213.448 91.1562 212.891 91.1562ZM221.375 91.1562C220.786 91.1562 220.253 91.0573 219.773 90.8594C219.299 90.6562 218.891 90.3724 218.547 90.0078C218.208 89.6432 217.948 89.2109 217.766 88.7109C217.583 88.2109 217.492 87.6641 217.492 87.0703V86.7422C217.492 86.0547 217.594 85.4427 217.797 84.9062C218 84.3646 218.276 83.9062 218.625 83.5312C218.974 83.1562 219.37 82.8724 219.812 82.6797C220.255 82.487 220.714 82.3906 221.188 82.3906C221.792 82.3906 222.312 82.4948 222.75 82.7031C223.193 82.9115 223.555 83.2031 223.836 83.5781C224.117 83.9479 224.326 84.3854 224.461 84.8906C224.596 85.3906 224.664 85.9375 224.664 86.5312V87.1797H218.352V86H223.219V85.8906C223.198 85.5156 223.12 85.151 222.984 84.7969C222.854 84.4427 222.646 84.151 222.359 83.9219C222.073 83.6927 221.682 83.5781 221.188 83.5781C220.859 83.5781 220.557 83.6484 220.281 83.7891C220.005 83.9245 219.768 84.1276 219.57 84.3984C219.372 84.6693 219.219 85 219.109 85.3906C219 85.7812 218.945 86.2318 218.945 86.7422V87.0703C218.945 87.4714 219 87.849 219.109 88.2031C219.224 88.5521 219.388 88.8594 219.602 89.125C219.82 89.3906 220.083 89.599 220.391 89.75C220.703 89.901 221.057 89.9766 221.453 89.9766C221.964 89.9766 222.396 89.8724 222.75 89.6641C223.104 89.4557 223.414 89.1771 223.68 88.8281L224.555 89.5234C224.372 89.7995 224.141 90.0625 223.859 90.3125C223.578 90.5625 223.232 90.7656 222.82 90.9219C222.414 91.0781 221.932 91.1562 221.375 91.1562ZM231.273 88.7578C231.273 88.5495 231.227 88.3568 231.133 88.1797C231.044 87.9974 230.859 87.8333 230.578 87.6875C230.302 87.5365 229.885 87.4062 229.328 87.2969C228.859 87.1979 228.435 87.0807 228.055 86.9453C227.68 86.8099 227.359 86.6458 227.094 86.4531C226.833 86.2604 226.633 86.0339 226.492 85.7734C226.352 85.513 226.281 85.2083 226.281 84.8594C226.281 84.526 226.354 84.2109 226.5 83.9141C226.651 83.6172 226.862 83.3542 227.133 83.125C227.409 82.8958 227.74 82.7161 228.125 82.5859C228.51 82.4557 228.94 82.3906 229.414 82.3906C230.091 82.3906 230.669 82.5104 231.148 82.75C231.628 82.9896 231.995 83.3099 232.25 83.7109C232.505 84.1068 232.633 84.5469 232.633 85.0312H231.188C231.188 84.7969 231.117 84.5703 230.977 84.3516C230.841 84.1276 230.641 83.9427 230.375 83.7969C230.115 83.651 229.794 83.5781 229.414 83.5781C229.013 83.5781 228.688 83.6406 228.438 83.7656C228.193 83.8854 228.013 84.0391 227.898 84.2266C227.789 84.4141 227.734 84.612 227.734 84.8203C227.734 84.9766 227.76 85.1172 227.812 85.2422C227.87 85.362 227.969 85.474 228.109 85.5781C228.25 85.6771 228.448 85.7708 228.703 85.8594C228.958 85.9479 229.284 86.0365 229.68 86.125C230.372 86.2812 230.943 86.4688 231.391 86.6875C231.839 86.9062 232.172 87.1745 232.391 87.4922C232.609 87.8099 232.719 88.1953 232.719 88.6484C232.719 89.0182 232.641 89.3568 232.484 89.6641C232.333 89.9714 232.112 90.237 231.82 90.4609C231.534 90.6797 231.19 90.8516 230.789 90.9766C230.393 91.0964 229.948 91.1562 229.453 91.1562C228.708 91.1562 228.078 91.0234 227.562 90.7578C227.047 90.4922 226.656 90.1484 226.391 89.7266C226.125 89.3047 225.992 88.8594 225.992 88.3906H227.445C227.466 88.7865 227.581 89.1016 227.789 89.3359C227.997 89.5651 228.253 89.7292 228.555 89.8281C228.857 89.9219 229.156 89.9688 229.453 89.9688C229.849 89.9688 230.18 89.9167 230.445 89.8125C230.716 89.7083 230.922 89.5651 231.062 89.3828C231.203 89.2005 231.273 88.9922 231.273 88.7578ZM235.93 89.2812V90.4453C235.93 90.9193 235.81 91.4193 235.57 91.9453C235.331 92.4766 234.995 92.9193 234.562 93.2734L233.742 92.7031C233.909 92.474 234.049 92.2396 234.164 92C234.279 91.7656 234.365 91.5208 234.422 91.2656C234.484 91.0156 234.516 90.75 234.516 90.4688V89.2812H235.93ZM243.883 89.5L246.055 82.5469H247.008L246.82 83.9297L244.609 91H243.68L243.883 89.5ZM242.422 82.5469L244.273 89.5781L244.406 91H243.43L240.977 82.5469H242.422ZM249.086 89.5234L250.852 82.5469H252.289L249.836 91H248.867L249.086 89.5234ZM247.219 82.5469L249.344 89.3828L249.586 91H248.664L246.391 83.9141L246.203 82.5469H247.219ZM255.219 79V91H253.773V79H255.219ZM254.875 86.4531L254.273 86.4297C254.279 85.8516 254.365 85.3177 254.531 84.8281C254.698 84.3333 254.932 83.9036 255.234 83.5391C255.536 83.1745 255.896 82.8932 256.312 82.6953C256.734 82.4922 257.201 82.3906 257.711 82.3906C258.128 82.3906 258.503 82.4479 258.836 82.5625C259.169 82.6719 259.453 82.849 259.688 83.0938C259.927 83.3385 260.109 83.6562 260.234 84.0469C260.359 84.4323 260.422 84.9036 260.422 85.4609V91H258.969V85.4453C258.969 85.0026 258.904 84.6484 258.773 84.3828C258.643 84.112 258.453 83.9167 258.203 83.7969C257.953 83.6719 257.646 83.6094 257.281 83.6094C256.922 83.6094 256.594 83.6849 256.297 83.8359C256.005 83.987 255.753 84.1953 255.539 84.4609C255.331 84.7266 255.167 85.0312 255.047 85.375C254.932 85.7135 254.875 86.0729 254.875 86.4531ZM264.156 82.5469V91H262.703V82.5469H264.156ZM262.594 80.3047C262.594 80.0703 262.664 79.8724 262.805 79.7109C262.951 79.5495 263.164 79.4688 263.445 79.4688C263.721 79.4688 263.932 79.5495 264.078 79.7109C264.229 79.8724 264.305 80.0703 264.305 80.3047C264.305 80.5286 264.229 80.7214 264.078 80.8828C263.932 81.0391 263.721 81.1172 263.445 81.1172C263.164 81.1172 262.951 81.0391 262.805 80.8828C262.664 80.7214 262.594 80.5286 262.594 80.3047ZM269.859 89.9688C270.203 89.9688 270.521 89.8984 270.812 89.7578C271.104 89.6172 271.344 89.4245 271.531 89.1797C271.719 88.9297 271.826 88.6458 271.852 88.3281H273.227C273.201 88.8281 273.031 89.2943 272.719 89.7266C272.411 90.1536 272.008 90.5 271.508 90.7656C271.008 91.026 270.458 91.1562 269.859 91.1562C269.224 91.1562 268.669 91.0443 268.195 90.8203C267.727 90.5964 267.336 90.2891 267.023 89.8984C266.716 89.5078 266.484 89.0599 266.328 88.5547C266.177 88.0443 266.102 87.5052 266.102 86.9375V86.6094C266.102 86.0417 266.177 85.5052 266.328 85C266.484 84.4896 266.716 84.0391 267.023 83.6484C267.336 83.2578 267.727 82.9505 268.195 82.7266C268.669 82.5026 269.224 82.3906 269.859 82.3906C270.521 82.3906 271.099 82.526 271.594 82.7969C272.089 83.0625 272.477 83.4271 272.758 83.8906C273.044 84.349 273.201 84.8698 273.227 85.4531H271.852C271.826 85.1042 271.727 84.7891 271.555 84.5078C271.388 84.2266 271.159 84.0026 270.867 83.8359C270.581 83.6641 270.245 83.5781 269.859 83.5781C269.417 83.5781 269.044 83.6667 268.742 83.8438C268.445 84.0156 268.208 84.25 268.031 84.5469C267.859 84.8385 267.734 85.1641 267.656 85.5234C267.583 85.8776 267.547 86.2396 267.547 86.6094V86.9375C267.547 87.3073 267.583 87.6719 267.656 88.0312C267.729 88.3906 267.852 88.7161 268.023 89.0078C268.201 89.2995 268.438 89.5339 268.734 89.7109C269.036 89.8828 269.411 89.9688 269.859 89.9688ZM276.297 79V91H274.852V79H276.297ZM275.953 86.4531L275.352 86.4297C275.357 85.8516 275.443 85.3177 275.609 84.8281C275.776 84.3333 276.01 83.9036 276.312 83.5391C276.615 83.1745 276.974 82.8932 277.391 82.6953C277.812 82.4922 278.279 82.3906 278.789 82.3906C279.206 82.3906 279.581 82.4479 279.914 82.5625C280.247 82.6719 280.531 82.849 280.766 83.0938C281.005 83.3385 281.188 83.6562 281.312 84.0469C281.438 84.4323 281.5 84.9036 281.5 85.4609V91H280.047V85.4453C280.047 85.0026 279.982 84.6484 279.852 84.3828C279.721 84.112 279.531 83.9167 279.281 83.7969C279.031 83.6719 278.724 83.6094 278.359 83.6094C278 83.6094 277.672 83.6849 277.375 83.8359C277.083 83.987 276.831 84.1953 276.617 84.4609C276.409 84.7266 276.245 85.0312 276.125 85.375C276.01 85.7135 275.953 86.0729 275.953 86.4531ZM287.625 79H289.078V89.3594L288.953 91H287.625V79ZM294.789 86.7031V86.8672C294.789 87.4818 294.716 88.0521 294.57 88.5781C294.424 89.099 294.211 89.5521 293.93 89.9375C293.648 90.3229 293.305 90.6224 292.898 90.8359C292.492 91.0495 292.026 91.1562 291.5 91.1562C290.964 91.1562 290.492 91.0651 290.086 90.8828C289.685 90.6953 289.346 90.4271 289.07 90.0781C288.794 89.7292 288.573 89.3073 288.406 88.8125C288.245 88.3177 288.133 87.7604 288.07 87.1406V86.4219C288.133 85.7969 288.245 85.237 288.406 84.7422C288.573 84.2474 288.794 83.8255 289.07 83.4766C289.346 83.1224 289.685 82.8542 290.086 82.6719C290.487 82.4844 290.953 82.3906 291.484 82.3906C292.016 82.3906 292.487 82.4948 292.898 82.7031C293.31 82.9062 293.654 83.1979 293.93 83.5781C294.211 83.9583 294.424 84.4141 294.57 84.9453C294.716 85.4714 294.789 86.0573 294.789 86.7031ZM293.336 86.8672V86.7031C293.336 86.2812 293.297 85.8854 293.219 85.5156C293.141 85.1406 293.016 84.8125 292.844 84.5312C292.672 84.2448 292.445 84.0208 292.164 83.8594C291.883 83.6927 291.536 83.6094 291.125 83.6094C290.76 83.6094 290.443 83.6719 290.172 83.7969C289.906 83.9219 289.68 84.0911 289.492 84.3047C289.305 84.513 289.151 84.7526 289.031 85.0234C288.917 85.2891 288.831 85.5651 288.773 85.8516V87.7344C288.857 88.099 288.992 88.4505 289.18 88.7891C289.372 89.1224 289.628 89.3958 289.945 89.6094C290.268 89.8229 290.667 89.9297 291.141 89.9297C291.531 89.9297 291.865 89.8516 292.141 89.6953C292.422 89.5339 292.648 89.3125 292.82 89.0312C292.997 88.75 293.128 88.4245 293.211 88.0547C293.294 87.6849 293.336 87.2891 293.336 86.8672ZM298.062 83.875V91H296.617V82.5469H298.023L298.062 83.875ZM300.703 82.5L300.695 83.8438C300.576 83.8177 300.461 83.8021 300.352 83.7969C300.247 83.7865 300.128 83.7812 299.992 83.7812C299.659 83.7812 299.365 83.8333 299.109 83.9375C298.854 84.0417 298.638 84.1875 298.461 84.375C298.284 84.5625 298.143 84.7865 298.039 85.0469C297.94 85.3021 297.875 85.5833 297.844 85.8906L297.438 86.125C297.438 85.6146 297.487 85.1354 297.586 84.6875C297.69 84.2396 297.849 83.8438 298.062 83.5C298.276 83.151 298.547 82.8802 298.875 82.6875C299.208 82.4896 299.604 82.3906 300.062 82.3906C300.167 82.3906 300.286 82.4036 300.422 82.4297C300.557 82.4505 300.651 82.474 300.703 82.5ZM301.5 86.8672V86.6875C301.5 86.0781 301.589 85.513 301.766 84.9922C301.943 84.4661 302.198 84.0104 302.531 83.625C302.865 83.2344 303.268 82.9323 303.742 82.7188C304.216 82.5 304.747 82.3906 305.336 82.3906C305.93 82.3906 306.464 82.5 306.938 82.7188C307.417 82.9323 307.823 83.2344 308.156 83.625C308.495 84.0104 308.753 84.4661 308.93 84.9922C309.107 85.513 309.195 86.0781 309.195 86.6875V86.8672C309.195 87.4766 309.107 88.0417 308.93 88.5625C308.753 89.0833 308.495 89.5391 308.156 89.9297C307.823 90.3151 307.419 90.6172 306.945 90.8359C306.477 91.0495 305.945 91.1562 305.352 91.1562C304.758 91.1562 304.224 91.0495 303.75 90.8359C303.276 90.6172 302.87 90.3151 302.531 89.9297C302.198 89.5391 301.943 89.0833 301.766 88.5625C301.589 88.0417 301.5 87.4766 301.5 86.8672ZM302.945 86.6875V86.8672C302.945 87.2891 302.995 87.6875 303.094 88.0625C303.193 88.4323 303.341 88.7604 303.539 89.0469C303.742 89.3333 303.995 89.5599 304.297 89.7266C304.599 89.888 304.951 89.9688 305.352 89.9688C305.747 89.9688 306.094 89.888 306.391 89.7266C306.693 89.5599 306.943 89.3333 307.141 89.0469C307.339 88.7604 307.487 88.4323 307.586 88.0625C307.69 87.6875 307.742 87.2891 307.742 86.8672V86.6875C307.742 86.2708 307.69 85.8776 307.586 85.5078C307.487 85.1328 307.336 84.8021 307.133 84.5156C306.935 84.224 306.685 83.9948 306.383 83.8281C306.086 83.6615 305.737 83.5781 305.336 83.5781C304.94 83.5781 304.591 83.6615 304.289 83.8281C303.992 83.9948 303.742 84.224 303.539 84.5156C303.341 84.8021 303.193 85.1328 303.094 85.5078C302.995 85.8776 302.945 86.2708 302.945 86.6875ZM312.461 79V91H311.008V79H312.461ZM317.625 82.5469L313.938 86.4922L311.875 88.6328L311.758 87.0938L313.234 85.3281L315.859 82.5469H317.625ZM316.305 91L313.289 86.9688L314.039 85.6797L318.008 91H316.305ZM322.469 91.1562C321.88 91.1562 321.346 91.0573 320.867 90.8594C320.393 90.6562 319.984 90.3724 319.641 90.0078C319.302 89.6432 319.042 89.2109 318.859 88.7109C318.677 88.2109 318.586 87.6641 318.586 87.0703V86.7422C318.586 86.0547 318.688 85.4427 318.891 84.9062C319.094 84.3646 319.37 83.9062 319.719 83.5312C320.068 83.1562 320.464 82.8724 320.906 82.6797C321.349 82.487 321.807 82.3906 322.281 82.3906C322.885 82.3906 323.406 82.4948 323.844 82.7031C324.286 82.9115 324.648 83.2031 324.93 83.5781C325.211 83.9479 325.419 84.3854 325.555 84.8906C325.69 85.3906 325.758 85.9375 325.758 86.5312V87.1797H319.445V86H324.312V85.8906C324.292 85.5156 324.214 85.151 324.078 84.7969C323.948 84.4427 323.74 84.151 323.453 83.9219C323.167 83.6927 322.776 83.5781 322.281 83.5781C321.953 83.5781 321.651 83.6484 321.375 83.7891C321.099 83.9245 320.862 84.1276 320.664 84.3984C320.466 84.6693 320.312 85 320.203 85.3906C320.094 85.7812 320.039 86.2318 320.039 86.7422V87.0703C320.039 87.4714 320.094 87.849 320.203 88.2031C320.318 88.5521 320.482 88.8594 320.695 89.125C320.914 89.3906 321.177 89.599 321.484 89.75C321.797 89.901 322.151 89.9766 322.547 89.9766C323.057 89.9766 323.49 89.8724 323.844 89.6641C324.198 89.4557 324.508 89.1771 324.773 88.8281L325.648 89.5234C325.466 89.7995 325.234 90.0625 324.953 90.3125C324.672 90.5625 324.326 90.7656 323.914 90.9219C323.508 91.0781 323.026 91.1562 322.469 91.1562ZM328.891 84.3516V91H327.445V82.5469H328.812L328.891 84.3516ZM328.547 86.4531L327.945 86.4297C327.951 85.8516 328.036 85.3177 328.203 84.8281C328.37 84.3333 328.604 83.9036 328.906 83.5391C329.208 83.1745 329.568 82.8932 329.984 82.6953C330.406 82.4922 330.872 82.3906 331.383 82.3906C331.799 82.3906 332.174 82.4479 332.508 82.5625C332.841 82.6719 333.125 82.849 333.359 83.0938C333.599 83.3385 333.781 83.6562 333.906 84.0469C334.031 84.4323 334.094 84.9036 334.094 85.4609V91H332.641V85.4453C332.641 85.0026 332.576 84.6484 332.445 84.3828C332.315 84.112 332.125 83.9167 331.875 83.7969C331.625 83.6719 331.318 83.6094 330.953 83.6094C330.594 83.6094 330.266 83.6849 329.969 83.8359C329.677 83.987 329.424 84.1953 329.211 84.4609C329.003 84.7266 328.839 85.0312 328.719 85.375C328.604 85.7135 328.547 86.0729 328.547 86.4531ZM340.281 90.2344C340.281 89.9896 340.357 89.7839 340.508 89.6172C340.664 89.4453 340.888 89.3594 341.18 89.3594C341.471 89.3594 341.693 89.4453 341.844 89.6172C342 89.7839 342.078 89.9896 342.078 90.2344C342.078 90.474 342 90.6771 341.844 90.8438C341.693 91.0104 341.471 91.0938 341.18 91.0938C340.888 91.0938 340.664 91.0104 340.508 90.8438C340.357 90.6771 340.281 90.474 340.281 90.2344Z" fill="#50413C"/>
<path d="M113.366 23.286C112.955 23.286 112.618 23.176 112.354 22.956C112.105 22.7213 111.98 22.406 111.98 22.01L111.958 10.592C111.958 9.47733 111.841 8.60467 111.606 7.974C111.753 7.842 111.943 7.72467 112.178 7.622C112.427 7.50467 112.706 7.446 113.014 7.446C113.425 7.446 113.762 7.56333 114.026 7.798C114.29 8.018 114.422 8.326 114.422 8.722V20.118C114.422 21.262 114.539 22.1347 114.774 22.736C114.363 23.1027 113.894 23.286 113.366 23.286ZM127.645 20.118C127.674 21.3207 127.806 22.1933 128.041 22.736C127.645 23.1027 127.183 23.286 126.655 23.286C126.244 23.286 125.907 23.176 125.643 22.956C125.379 22.7213 125.247 22.406 125.247 22.01V16.268C125.232 15.0507 125.086 14.156 124.807 13.584C124.543 12.9973 124.052 12.704 123.333 12.704C122.849 12.704 122.402 12.8873 121.991 13.254C121.595 13.6207 121.272 14.1853 121.023 14.948C120.774 15.696 120.649 16.6347 120.649 17.764C120.649 19.4947 120.671 20.6387 120.715 21.196C120.759 21.7533 120.876 22.274 121.067 22.758C120.92 22.89 120.722 23.0073 120.473 23.11C120.238 23.2273 119.982 23.286 119.703 23.286C119.278 23.286 118.933 23.1613 118.669 22.912C118.405 22.6627 118.273 22.3253 118.273 21.9V14.398C118.258 13.9873 118.207 13.694 118.119 13.518C118.031 13.342 117.884 13.254 117.679 13.254C117.4 13.254 117.21 13.3567 117.107 13.562C116.916 13.2833 116.821 13.0047 116.821 12.726C116.821 12.3447 116.96 12.0367 117.239 11.802C117.518 11.5527 117.906 11.428 118.405 11.428C119.036 11.428 119.52 11.648 119.857 12.088C120.209 12.5133 120.385 13.1513 120.385 14.002V14.112C120.678 13.2467 121.14 12.5867 121.771 12.132C122.416 11.6627 123.194 11.428 124.103 11.428C125.306 11.428 126.193 11.802 126.765 12.55C127.352 13.298 127.645 14.42 127.645 15.916V20.118ZM135.368 23.286C133.667 23.286 132.347 22.78 131.408 21.768C130.484 20.7413 130.022 19.2747 130.022 17.368C130.022 15.52 130.499 14.068 131.452 13.012C132.405 11.956 133.747 11.428 135.478 11.428C136.725 11.428 137.685 11.692 138.36 12.22C139.049 12.7333 139.394 13.4007 139.394 14.222C139.394 14.7793 139.225 15.2267 138.888 15.564C138.565 15.9013 138.14 16.07 137.612 16.07C137.363 16.07 137.113 16.0333 136.864 15.96C136.629 15.872 136.446 15.7473 136.314 15.586C136.754 15.2927 136.974 14.772 136.974 14.024C136.974 13.4373 136.82 13.012 136.512 12.748C136.204 12.4693 135.793 12.33 135.28 12.33C134.459 12.33 133.806 12.7407 133.322 13.562C132.838 14.3687 132.596 15.5127 132.596 16.994C132.596 18.6367 132.904 19.8393 133.52 20.602C134.136 21.3647 134.987 21.746 136.072 21.746C136.849 21.746 137.517 21.5553 138.074 21.174C138.631 20.7927 138.991 20.272 139.152 19.612C139.387 19.7 139.504 19.9127 139.504 20.25C139.504 20.4407 139.475 20.646 139.416 20.866C139.181 21.6433 138.705 22.2447 137.986 22.67C137.282 23.0807 136.409 23.286 135.368 23.286ZM147.265 11.428C148.072 11.428 148.725 11.6407 149.223 12.066C149.722 12.4913 149.971 13.078 149.971 13.826C149.971 14.3833 149.81 14.8307 149.487 15.168C149.165 15.5053 148.761 15.674 148.277 15.674C147.823 15.674 147.493 15.5567 147.287 15.322C147.449 15.058 147.559 14.8233 147.617 14.618C147.676 14.398 147.705 14.1487 147.705 13.87C147.705 13.034 147.339 12.616 146.605 12.616C146.019 12.616 145.542 13.0487 145.175 13.914C144.823 14.7647 144.647 16.048 144.647 17.764V18.6C144.647 19.9053 144.669 20.8073 144.713 21.306C144.757 21.79 144.867 22.252 145.043 22.692C144.897 22.824 144.706 22.9413 144.471 23.044C144.237 23.1467 143.965 23.2053 143.657 23.22C143.261 23.22 142.924 23.0953 142.645 22.846C142.381 22.5967 142.249 22.2593 142.249 21.834V14.398C142.249 14.002 142.198 13.716 142.095 13.54C142.007 13.3493 141.861 13.254 141.655 13.254C141.377 13.254 141.186 13.3567 141.083 13.562C140.893 13.2833 140.797 13.0047 140.797 12.726C140.797 12.3447 140.937 12.0367 141.215 11.802C141.494 11.5527 141.883 11.428 142.381 11.428C142.983 11.428 143.459 11.6333 143.811 12.044C144.163 12.4547 144.347 13.0633 144.361 13.87C144.875 12.242 145.843 11.428 147.265 11.428ZM160.51 19.964C160.745 20.0667 160.862 20.25 160.862 20.514C160.862 20.69 160.811 20.9027 160.708 21.152C160.429 21.8413 159.931 22.3693 159.212 22.736C158.508 23.1027 157.657 23.286 156.66 23.286C154.988 23.286 153.668 22.7727 152.7 21.746C151.747 20.7193 151.27 19.26 151.27 17.368C151.27 15.5053 151.739 14.0533 152.678 13.012C153.617 11.956 154.959 11.428 156.704 11.428C157.98 11.428 159.014 11.714 159.806 12.286C160.598 12.8433 160.994 13.6427 160.994 14.684C160.994 15.7693 160.554 16.6053 159.674 17.192C158.809 17.764 157.628 18.05 156.132 18.05C155.281 18.05 154.526 18.0133 153.866 17.94C153.969 19.304 154.313 20.2793 154.9 20.866C155.487 21.4527 156.286 21.746 157.298 21.746C158.09 21.746 158.765 21.5847 159.322 21.262C159.894 20.9393 160.29 20.5067 160.51 19.964ZM156.616 12.33C155.751 12.33 155.069 12.7407 154.57 13.562C154.086 14.3687 153.844 15.52 153.844 17.016C154.225 17.06 154.614 17.082 155.01 17.082C156.007 17.082 156.821 16.884 157.452 16.488C158.083 16.092 158.398 15.366 158.398 14.31C158.398 13.5913 158.229 13.0853 157.892 12.792C157.555 12.484 157.129 12.33 156.616 12.33ZM173.678 21.042C173.854 21.2767 173.942 21.548 173.942 21.856C173.942 22.2373 173.774 22.56 173.436 22.824C173.099 23.088 172.666 23.22 172.138 23.22C171.42 23.22 170.877 22.978 170.51 22.494C170.144 21.9953 169.953 21.196 169.938 20.096C169.498 21.0493 168.897 21.812 168.134 22.384C167.372 22.956 166.499 23.242 165.516 23.242C164.666 23.242 163.976 23.0147 163.448 22.56C162.935 22.0907 162.678 21.46 162.678 20.668C162.678 19.744 163.03 18.9813 163.734 18.38C164.438 17.7787 165.34 17.324 166.44 17.016C167.54 16.708 168.662 16.5687 169.806 16.598V16.048C169.806 14.772 169.63 13.8333 169.278 13.232C168.926 12.6307 168.34 12.33 167.518 12.33C166.961 12.33 166.506 12.462 166.154 12.726C165.817 12.99 165.648 13.4227 165.648 14.024C165.648 14.3613 165.714 14.6767 165.846 14.97C165.978 15.2633 166.198 15.4833 166.506 15.63C166.36 15.7913 166.162 15.916 165.912 16.004C165.678 16.0773 165.428 16.114 165.164 16.114C164.578 16.114 164.101 15.9233 163.734 15.542C163.382 15.146 163.206 14.6693 163.206 14.112C163.206 13.2467 163.602 12.5867 164.394 12.132C165.186 11.6627 166.279 11.428 167.672 11.428C169.256 11.428 170.415 11.8093 171.148 12.572C171.896 13.32 172.27 14.5227 172.27 16.18V20.228C172.27 21.0053 172.52 21.394 173.018 21.394C173.136 21.394 173.253 21.3647 173.37 21.306C173.502 21.2473 173.605 21.1593 173.678 21.042ZM166.616 21.636C167.1 21.636 167.592 21.4453 168.09 21.064C168.604 20.668 169.029 20.1473 169.366 19.502C169.704 18.8567 169.872 18.1673 169.872 17.434C169.359 17.4047 168.838 17.434 168.31 17.522C167.782 17.5953 167.328 17.72 166.946 17.896C166.433 18.116 166.03 18.4167 165.736 18.798C165.458 19.1647 165.318 19.5973 165.318 20.096C165.318 20.536 165.421 20.9027 165.626 21.196C165.846 21.4893 166.176 21.636 166.616 21.636ZM179.015 23.286C177.637 23.286 176.595 23.0513 175.891 22.582C175.187 22.1127 174.835 21.482 174.835 20.69C174.835 20.294 174.945 19.9567 175.165 19.678C175.4 19.3993 175.759 19.26 176.243 19.26C176.331 19.26 176.478 19.2747 176.683 19.304C176.639 19.48 176.617 19.6413 176.617 19.788C176.617 19.964 176.639 20.1547 176.683 20.36C176.757 20.9467 177.013 21.4233 177.453 21.79C177.908 22.1567 178.524 22.34 179.301 22.34C179.991 22.34 180.548 22.2153 180.973 21.966C181.399 21.702 181.611 21.3207 181.611 20.822C181.611 20.4847 181.509 20.1913 181.303 19.942C181.113 19.678 180.871 19.458 180.577 19.282C180.284 19.106 179.866 18.886 179.323 18.622C179.206 18.578 179.03 18.4973 178.795 18.38C178.003 18.0133 177.373 17.6907 176.903 17.412C176.449 17.1187 176.053 16.73 175.715 16.246C175.393 15.762 175.231 15.168 175.231 14.464C175.231 13.4373 175.627 12.6747 176.419 12.176C177.211 11.6627 178.216 11.406 179.433 11.406C180.651 11.406 181.611 11.5967 182.315 11.978C183.019 12.3447 183.371 12.88 183.371 13.584C183.371 13.9067 183.276 14.1853 183.085 14.42C182.909 14.64 182.623 14.7573 182.227 14.772C182.154 14.7867 182.059 14.794 181.941 14.794C181.868 14.794 181.729 14.7793 181.523 14.75C181.538 14.662 181.545 14.53 181.545 14.354C181.545 14.0313 181.501 13.7893 181.413 13.628C181.325 13.2173 181.098 12.902 180.731 12.682C180.379 12.4473 179.917 12.33 179.345 12.33C178.803 12.33 178.341 12.44 177.959 12.66C177.593 12.88 177.409 13.2173 177.409 13.672C177.409 14.0827 177.527 14.4347 177.761 14.728C178.011 15.0213 178.311 15.2707 178.663 15.476C179.015 15.6813 179.514 15.938 180.159 16.246C181.054 16.6713 181.721 17.016 182.161 17.28C182.601 17.5293 182.997 17.874 183.349 18.314C183.701 18.754 183.877 19.2893 183.877 19.92C183.877 20.8587 183.481 21.658 182.689 22.318C181.912 22.9633 180.687 23.286 179.015 23.286ZM194.606 19.964C194.84 20.0667 194.958 20.25 194.958 20.514C194.958 20.69 194.906 20.9027 194.804 21.152C194.525 21.8413 194.026 22.3693 193.308 22.736C192.604 23.1027 191.753 23.286 190.756 23.286C189.084 23.286 187.764 22.7727 186.796 21.746C185.842 20.7193 185.366 19.26 185.366 17.368C185.366 15.5053 185.835 14.0533 186.774 13.012C187.712 11.956 189.054 11.428 190.8 11.428C192.076 11.428 193.11 11.714 193.902 12.286C194.694 12.8433 195.09 13.6427 195.09 14.684C195.09 15.7693 194.65 16.6053 193.77 17.192C192.904 17.764 191.724 18.05 190.228 18.05C189.377 18.05 188.622 18.0133 187.962 17.94C188.064 19.304 188.409 20.2793 188.996 20.866C189.582 21.4527 190.382 21.746 191.394 21.746C192.186 21.746 192.86 21.5847 193.418 21.262C193.99 20.9393 194.386 20.5067 194.606 19.964ZM190.712 12.33C189.846 12.33 189.164 12.7407 188.666 13.562C188.182 14.3687 187.94 15.52 187.94 17.016C188.321 17.06 188.71 17.082 189.106 17.082C190.103 17.082 190.917 16.884 191.548 16.488C192.178 16.092 192.494 15.366 192.494 14.31C192.494 13.5913 192.325 13.0853 191.988 12.792C191.65 12.484 191.225 12.33 190.712 12.33ZM204.03 23.286C203.619 23.286 203.282 23.176 203.018 22.956C202.769 22.7213 202.644 22.406 202.644 22.01L202.622 10.592C202.622 9.47733 202.505 8.60467 202.27 7.974C202.417 7.842 202.607 7.72467 202.842 7.622C203.091 7.50467 203.37 7.446 203.678 7.446C204.089 7.446 204.426 7.56333 204.69 7.798C204.954 8.018 205.086 8.326 205.086 8.722V20.118C205.086 21.262 205.203 22.1347 205.438 22.736C205.027 23.1027 204.558 23.286 204.03 23.286ZM224.711 20.118C224.711 21.218 224.828 22.0907 225.063 22.736C224.667 23.1027 224.205 23.286 223.677 23.286C223.266 23.286 222.929 23.1687 222.665 22.934C222.416 22.6993 222.291 22.3913 222.291 22.01V16.268C222.291 15.0653 222.174 14.156 221.939 13.54C221.719 12.924 221.279 12.616 220.619 12.616C220.194 12.616 219.783 12.7993 219.387 13.166C219.006 13.518 218.69 14.068 218.441 14.816C218.192 15.564 218.06 16.488 218.045 17.588V20.118C218.045 21.218 218.17 22.0907 218.419 22.736C218.214 22.912 218.008 23.044 217.803 23.132C217.598 23.2347 217.348 23.286 217.055 23.286C216.659 23.286 216.336 23.176 216.087 22.956C215.838 22.7213 215.713 22.406 215.713 22.01V16.268C215.713 15.0213 215.581 14.1047 215.317 13.518C215.068 12.9167 214.598 12.616 213.909 12.616C213.469 12.616 213.066 12.8067 212.699 13.188C212.332 13.5547 212.032 14.134 211.797 14.926C211.577 15.7033 211.467 16.6787 211.467 17.852C211.467 19.5387 211.489 20.6607 211.533 21.218C211.577 21.7607 211.694 22.274 211.885 22.758C211.489 23.11 211.02 23.286 210.477 23.286C210.081 23.286 209.751 23.1613 209.487 22.912C209.238 22.6627 209.113 22.3253 209.113 21.9L209.091 14.42C209.091 13.6427 208.856 13.254 208.387 13.254C208.27 13.254 208.145 13.2907 208.013 13.364C207.896 13.4373 207.808 13.5327 207.749 13.65C207.573 13.3567 207.485 13.078 207.485 12.814C207.485 12.418 207.632 12.088 207.925 11.824C208.233 11.56 208.622 11.428 209.091 11.428C209.736 11.428 210.242 11.6627 210.609 12.132C210.976 12.5867 211.166 13.2613 211.181 14.156C211.46 13.2907 211.892 12.6233 212.479 12.154C213.08 11.67 213.821 11.428 214.701 11.428C215.596 11.428 216.3 11.6553 216.813 12.11C217.326 12.55 217.678 13.2173 217.869 14.112C218.133 13.276 218.566 12.6233 219.167 12.154C219.768 11.67 220.502 11.428 221.367 11.428C223.596 11.428 224.711 12.924 224.711 15.916V20.118ZM243.896 20.118C243.896 21.218 244.014 22.0907 244.248 22.736C243.852 23.1027 243.39 23.286 242.862 23.286C242.452 23.286 242.114 23.1687 241.85 22.934C241.601 22.6993 241.476 22.3913 241.476 22.01V16.268C241.476 15.0653 241.359 14.156 241.124 13.54C240.904 12.924 240.464 12.616 239.804 12.616C239.379 12.616 238.968 12.7993 238.572 13.166C238.191 13.518 237.876 14.068 237.626 14.816C237.377 15.564 237.245 16.488 237.23 17.588V20.118C237.23 21.218 237.355 22.0907 237.604 22.736C237.399 22.912 237.194 23.044 236.988 23.132C236.783 23.2347 236.534 23.286 236.24 23.286C235.844 23.286 235.522 23.176 235.272 22.956C235.023 22.7213 234.898 22.406 234.898 22.01V16.268C234.898 15.0213 234.766 14.1047 234.502 13.518C234.253 12.9167 233.784 12.616 233.094 12.616C232.654 12.616 232.251 12.8067 231.884 13.188C231.518 13.5547 231.217 14.134 230.982 14.926C230.762 15.7033 230.652 16.6787 230.652 17.852C230.652 19.5387 230.674 20.6607 230.718 21.218C230.762 21.7607 230.88 22.274 231.07 22.758C230.674 23.11 230.205 23.286 229.662 23.286C229.266 23.286 228.936 23.1613 228.672 22.912C228.423 22.6627 228.298 22.3253 228.298 21.9L228.276 14.42C228.276 13.6427 228.042 13.254 227.572 13.254C227.455 13.254 227.33 13.2907 227.198 13.364C227.081 13.4373 226.993 13.5327 226.934 13.65C226.758 13.3567 226.67 13.078 226.67 12.814C226.67 12.418 226.817 12.088 227.11 11.824C227.418 11.56 227.807 11.428 228.276 11.428C228.922 11.428 229.428 11.6627 229.794 12.132C230.161 12.5867 230.352 13.2613 230.366 14.156C230.645 13.2907 231.078 12.6233 231.664 12.154C232.266 11.67 233.006 11.428 233.886 11.428C234.781 11.428 235.485 11.6553 235.998 12.11C236.512 12.55 236.864 13.2173 237.054 14.112C237.318 13.276 237.751 12.6233 238.352 12.154C238.954 11.67 239.687 11.428 240.552 11.428C242.782 11.428 243.896 12.924 243.896 15.916V20.118ZM257.384 21.152C257.56 21.4013 257.648 21.6727 257.648 21.966C257.648 22.362 257.509 22.6773 257.23 22.912C256.966 23.1467 256.585 23.264 256.086 23.264C255.441 23.264 254.942 23.0513 254.59 22.626C254.253 22.2007 254.084 21.5627 254.084 20.712V20.668C253.776 21.5187 253.314 22.1713 252.698 22.626C252.097 23.0807 251.349 23.308 250.454 23.308C249.251 23.308 248.371 22.9633 247.814 22.274C247.271 21.5847 247 20.426 247 18.798L246.978 14.596C246.978 13.4667 246.861 12.5867 246.626 11.956C247.037 11.604 247.499 11.428 248.012 11.428C248.423 11.428 248.753 11.5453 249.002 11.78C249.266 12 249.398 12.308 249.398 12.704V18.446C249.398 19.766 249.53 20.712 249.794 21.284C250.058 21.8413 250.535 22.12 251.224 22.12C251.693 22.12 252.126 21.9367 252.522 21.57C252.918 21.1887 253.233 20.6093 253.468 19.832C253.717 19.0547 253.842 18.094 253.842 16.95C253.842 15.2193 253.82 14.0753 253.776 13.518C253.732 12.946 253.615 12.418 253.424 11.934C253.849 11.5967 254.311 11.428 254.81 11.428C255.206 11.428 255.536 11.5527 255.8 11.802C256.064 12.0513 256.196 12.3887 256.196 12.814L256.218 20.316C256.218 20.7267 256.262 21.02 256.35 21.196C256.453 21.3573 256.607 21.438 256.812 21.438C257.076 21.438 257.267 21.3427 257.384 21.152ZM269.334 20.118C269.364 21.3207 269.496 22.1933 269.73 22.736C269.334 23.1027 268.872 23.286 268.344 23.286C267.934 23.286 267.596 23.176 267.332 22.956C267.068 22.7213 266.936 22.406 266.936 22.01V16.268C266.922 15.0507 266.775 14.156 266.496 13.584C266.232 12.9973 265.741 12.704 265.022 12.704C264.538 12.704 264.091 12.8873 263.68 13.254C263.284 13.6207 262.962 14.1853 262.712 14.948C262.463 15.696 262.338 16.6347 262.338 17.764C262.338 19.4947 262.36 20.6387 262.404 21.196C262.448 21.7533 262.566 22.274 262.756 22.758C262.61 22.89 262.412 23.0073 262.162 23.11C261.928 23.2273 261.671 23.286 261.392 23.286C260.967 23.286 260.622 23.1613 260.358 22.912C260.094 22.6627 259.962 22.3253 259.962 21.9V14.398C259.948 13.9873 259.896 13.694 259.808 13.518C259.72 13.342 259.574 13.254 259.368 13.254C259.09 13.254 258.899 13.3567 258.796 13.562C258.606 13.2833 258.51 13.0047 258.51 12.726C258.51 12.3447 258.65 12.0367 258.928 11.802C259.207 11.5527 259.596 11.428 260.094 11.428C260.725 11.428 261.209 11.648 261.546 12.088C261.898 12.5133 262.074 13.1513 262.074 14.002V14.112C262.368 13.2467 262.83 12.5867 263.46 12.132C264.106 11.6627 264.883 11.428 265.792 11.428C266.995 11.428 267.882 11.802 268.454 12.55C269.041 13.298 269.334 14.42 269.334 15.916V20.118ZM273.758 10.064C273.347 10.064 272.995 9.92467 272.702 9.646C272.423 9.36733 272.284 9.03 272.284 8.634C272.284 8.22333 272.423 7.87867 272.702 7.6C272.995 7.30667 273.347 7.16 273.758 7.16C274.154 7.16 274.491 7.30667 274.77 7.6C275.063 7.87867 275.21 8.22333 275.21 8.634C275.21 9.03 275.063 9.36733 274.77 9.646C274.491 9.92467 274.154 10.064 273.758 10.064ZM275.056 20.118C275.056 21.262 275.173 22.1347 275.408 22.736C274.997 23.1027 274.535 23.286 274.022 23.286C273.626 23.286 273.303 23.176 273.054 22.956C272.804 22.7213 272.68 22.406 272.68 22.01L272.658 14.574C272.658 13.5033 272.54 12.6233 272.306 11.934C272.746 11.582 273.193 11.406 273.648 11.406C274.044 11.406 274.366 11.5233 274.616 11.758C274.88 11.978 275.012 12.286 275.012 12.682L275.056 20.118ZM281.449 11.736C281.727 11.736 282.109 11.7287 282.593 11.714C283.077 11.6993 283.458 11.6847 283.737 11.67L283.715 12.264C283.7 12.4547 283.634 12.6087 283.517 12.726C283.414 12.8287 283.275 12.88 283.099 12.88H281.031V13.606L281.009 20.228C281.009 21.02 281.353 21.416 282.043 21.416C282.248 21.416 282.439 21.3867 282.615 21.328C282.805 21.2547 282.93 21.1593 282.989 21.042C283.179 21.3207 283.275 21.592 283.275 21.856C283.275 22.2667 283.069 22.604 282.659 22.868C282.263 23.1173 281.749 23.242 281.119 23.242C280.327 23.242 279.711 22.9927 279.271 22.494C278.831 21.9953 278.611 21.306 278.611 20.426V12.88H278.303C278.112 12.88 277.892 12.8873 277.643 12.902C277.393 12.9167 277.173 12.9387 276.983 12.968L277.005 12.33C277.019 12.1393 277.085 11.9927 277.203 11.89C277.32 11.7873 277.467 11.736 277.643 11.736H278.611V10.064C278.611 9.68267 278.743 9.382 279.007 9.162C279.271 8.92733 279.608 8.81 280.019 8.81C280.532 8.81 280.987 8.986 281.383 9.338C281.207 9.98333 281.097 10.7827 281.053 11.736H281.449ZM295.148 21.878C295.148 25.97 293.322 28.016 289.67 28.016C288.511 28.016 287.558 27.8327 286.81 27.466C286.062 27.114 285.688 26.52 285.688 25.684C285.688 25.2293 285.842 24.8553 286.15 24.562C286.472 24.2833 286.883 24.144 287.382 24.144C287.91 24.144 288.284 24.2833 288.504 24.562C288.298 24.694 288.144 24.8553 288.042 25.046C287.954 25.2513 287.91 25.4493 287.91 25.64C287.91 26.124 288.078 26.5053 288.416 26.784C288.753 27.0627 289.186 27.202 289.714 27.202C290.77 27.202 291.562 26.762 292.09 25.882C292.618 25.002 292.882 23.748 292.882 22.12C292.882 21.8413 292.926 21.2767 293.014 20.426C292.72 21.3207 292.266 22.0027 291.65 22.472C291.034 22.9413 290.256 23.176 289.318 23.176C288.159 23.176 287.301 22.8313 286.744 22.142C286.201 21.438 285.93 20.2793 285.93 18.666L285.908 14.596C285.908 13.4667 285.79 12.5867 285.556 11.956C285.966 11.604 286.428 11.428 286.942 11.428C287.352 11.428 287.682 11.5453 287.932 11.78C288.196 12 288.328 12.308 288.328 12.704V18.314C288.328 19.59 288.452 20.5213 288.702 21.108C288.966 21.68 289.42 21.966 290.066 21.966C290.858 21.966 291.503 21.5407 292.002 20.69C292.515 19.8247 292.772 18.5487 292.772 16.862C292.772 15.1753 292.75 14.0533 292.706 13.496C292.662 12.9387 292.544 12.418 292.354 11.934C292.779 11.5967 293.241 11.428 293.74 11.428C294.136 11.428 294.466 11.5527 294.73 11.802C294.994 12.0513 295.126 12.3887 295.126 12.814L295.148 21.878Z" fill="#2B221F"/>
</svg>
