<svg width="25" height="37" viewBox="0 0 25 37" fill="none" xmlns="http://www.w3.org/2000/svg">
<g id="Frame" clip-path="url(#clip0_1_6230)">
<path id="Vector" d="M15.3623 7.27275C15.5015 6.95031 15.6494 6.62787 15.8146 6.32334C16.6584 4.77384 17.8936 3.51095 19.3637 2.82129C19.3898 1.80918 19.9291 0.841862 20.8599 0.331332C22.2343 -0.421028 23.9392 0.125329 24.6612 1.54048C25.3919 2.95564 24.8613 4.71114 23.4869 5.45455C22.2517 6.1263 20.7381 5.75907 19.9204 4.63949C18.894 5.17689 18.0241 6.10838 17.3978 7.24588C17.2238 7.55936 17.0759 7.8818 16.9455 8.22216L15.3623 7.27275Z" fill="#2B221F"/>
<path id="Vector_2" d="M9.63796 7.29103C9.49878 6.95964 9.3509 6.6372 9.17693 6.33267C8.33315 4.78317 7.09794 3.52028 5.62787 2.83061C5.60177 1.80955 5.06245 0.842231 4.13169 0.340658C2.7573 -0.411702 1.05236 0.125698 0.330371 1.54085C-0.400318 2.96496 0.121603 4.71151 1.49599 5.46387C2.73121 6.13562 4.24478 5.7684 5.06245 4.64882C6.0889 5.18622 6.95876 6.11771 7.58507 7.25521C7.75904 7.56869 7.90692 7.90009 8.0374 8.24044L9.63796 7.29103Z" fill="#2B221F"/>
<path id="Vector_3" fill-rule="evenodd" clip-rule="evenodd" d="M12.3697 14.904V13.5068H11.0127V14.904H12.3697ZM11.0127 12.9246H12.3697V11.5273H11.0127V12.9246ZM12.9351 11.5273V12.9246H14.2921V11.5273H12.9351ZM14.2921 13.5157H12.9351V14.913H14.2921V13.5157Z" fill="#2B221F"/>
<path id="Vector_4" fill-rule="evenodd" clip-rule="evenodd" d="M22.512 11.1152L12.7695 5.32019L12.6477 5.24854L12.5346 5.32019L2.7834 11.1152L2.42676 11.3212L2.7834 11.5361L5.21903 12.9871L5.34082 13.0588L5.4626 12.9871L12.6477 8.71477L19.8415 12.9871L19.9546 13.0588L20.0764 12.9871L22.512 11.5361L22.8687 11.3212L22.512 11.1152Z" fill="#2B221F"/>
<path id="Vector_5" fill-rule="evenodd" clip-rule="evenodd" d="M12.6483 19.0688L1.42696 12.3961L1.07031 12.1812V12.6021V17.2327V20.6273V20.7706L1.19209 20.8423C5.01081 23.1172 8.82953 25.3833 12.6483 27.6583L18.4416 24.2189L21.3208 22.5082V24.1741L12.657 29.3242L1.43566 22.6515L1.07901 22.4365V22.8575V25.7595V25.9028L1.20079 25.9744L10.2126 31.3305L12.6309 37.0001L15.1187 31.3305L24.1131 25.9744L24.2349 25.9028V25.7595V20.7975V17.7343V17.3133L23.8782 17.5283L21.3034 19.0599L12.657 24.201L4.00177 19.0509L3.98437 19.042V17.376L12.6483 22.5261L24.1131 15.7101L24.2349 15.6384V15.4951V12.5932V12.1812L23.8782 12.3961L12.6483 19.0688Z" fill="#FCC41A"/>
</g>
<defs>
<clipPath id="clip0_1_6230">
<rect width="25" height="37" fill="white"/>
</clipPath>
</defs>
</svg>
