<svg width="120" height="15" viewBox="0 0 120 15" fill="none" xmlns="http://www.w3.org/2000/svg">
<path d="M3.0625 10.8125H5.6875C5.90625 10.8125 6.125 10.6211 6.125 10.375V7.75C6.125 7.53125 5.90625 7.3125 5.6875 7.3125H3.0625C2.81641 7.3125 2.625 7.53125 2.625 7.75V10.375C2.625 10.6211 2.81641 10.8125 3.0625 10.8125ZM10.9375 2.5H9.625V1.1875C9.625 0.96875 9.40625 0.75 9.1875 0.75H8.3125C8.06641 0.75 7.875 0.96875 7.875 1.1875V2.5H4.375V1.1875C4.375 0.96875 4.15625 0.75 3.9375 0.75H3.0625C2.81641 0.75 2.625 0.96875 2.625 1.1875V2.5H1.3125C0.574219 2.5 0 3.10156 0 3.8125V13.4375C0 14.1758 0.574219 14.75 1.3125 14.75H10.9375C11.6484 14.75 12.25 14.1758 12.25 13.4375V3.8125C12.25 3.10156 11.6484 2.5 10.9375 2.5ZM10.9375 13.2734C10.9375 13.3828 10.8555 13.4375 10.7734 13.4375H1.47656C1.36719 13.4375 1.3125 13.3828 1.3125 13.2734V5.125H10.9375V13.2734Z" fill="#639533"/>
<path d="M23.106 13.182C21.8367 13.182 20.8753 12.762 20.222 11.922C19.5687 11.0727 19.242 9.808 19.242 8.128C19.242 6.448 19.5687 5.188 20.222 4.348C20.8753 3.49867 21.8367 3.074 23.106 3.074C24.3753 3.074 25.3367 3.49867 25.99 4.348C26.6527 5.188 26.984 6.448 26.984 8.128C26.984 9.808 26.6527 11.0727 25.99 11.922C25.3367 12.762 24.3753 13.182 23.106 13.182ZM23.106 12.594C23.8433 12.594 24.3893 12.2393 24.744 11.53C25.0987 10.8113 25.276 9.67733 25.276 8.128C25.276 6.588 25.0987 5.45867 24.744 4.74C24.3893 4.02133 23.8433 3.662 23.106 3.662C22.378 3.662 21.8367 4.02133 21.482 4.74C21.1273 5.45867 20.95 6.588 20.95 8.128C20.95 9.668 21.1273 10.7973 21.482 11.516C21.8367 12.2347 22.378 12.594 23.106 12.594ZM31.6765 13.182C30.5938 13.182 29.7538 12.86 29.1565 12.216C28.5685 11.5627 28.2745 10.6293 28.2745 9.416C28.2745 8.24 28.5778 7.316 29.1845 6.644C29.7912 5.972 30.6452 5.636 31.7465 5.636C32.5398 5.636 33.1512 5.804 33.5805 6.14C34.0192 6.46667 34.2385 6.89133 34.2385 7.414C34.2385 7.76867 34.1312 8.05333 33.9165 8.268C33.7112 8.48267 33.4405 8.59 33.1045 8.59C32.9458 8.59 32.7872 8.56667 32.6285 8.52C32.4792 8.464 32.3625 8.38467 32.2785 8.282C32.5585 8.09533 32.6985 7.764 32.6985 7.288C32.6985 6.91467 32.6005 6.644 32.4045 6.476C32.2085 6.29867 31.9472 6.21 31.6205 6.21C31.0978 6.21 30.6825 6.47133 30.3745 6.994C30.0665 7.50733 29.9125 8.23533 29.9125 9.178C29.9125 10.2233 30.1085 10.9887 30.5005 11.474C30.8925 11.9593 31.4338 12.202 32.1245 12.202C32.6192 12.202 33.0438 12.0807 33.3985 11.838C33.7532 11.5953 33.9818 11.264 34.0845 10.844C34.2338 10.9 34.3085 11.0353 34.3085 11.25C34.3085 11.3713 34.2898 11.502 34.2525 11.642C34.1032 12.1367 33.7998 12.5193 33.3425 12.79C32.8945 13.0513 32.3392 13.182 31.6765 13.182ZM37.8616 5.832C38.0389 5.832 38.2816 5.82733 38.5896 5.818C38.8976 5.80867 39.1402 5.79933 39.3176 5.79L39.3036 6.168C39.2942 6.28933 39.2522 6.38733 39.1776 6.462C39.1122 6.52733 39.0236 6.56 38.9116 6.56H37.5956V7.022L37.5816 11.236C37.5816 11.74 37.8009 11.992 38.2396 11.992C38.3702 11.992 38.4916 11.9733 38.6036 11.936C38.7249 11.8893 38.8042 11.8287 38.8416 11.754C38.9629 11.9313 39.0236 12.104 39.0236 12.272C39.0236 12.5333 38.8929 12.748 38.6316 12.916C38.3796 13.0747 38.0529 13.154 37.6516 13.154C37.1476 13.154 36.7556 12.9953 36.4756 12.678C36.1956 12.3607 36.0556 11.922 36.0556 11.362V6.56H35.8596C35.7382 6.56 35.5982 6.56467 35.4396 6.574C35.2809 6.58333 35.1409 6.59733 35.0196 6.616L35.0336 6.21C35.0429 6.08867 35.0849 5.99533 35.1596 5.93C35.2342 5.86467 35.3276 5.832 35.4396 5.832H36.0556V4.768C36.0556 4.52533 36.1396 4.334 36.3076 4.194C36.4756 4.04467 36.6902 3.97 36.9516 3.97C37.2782 3.97 37.5676 4.082 37.8196 4.306C37.7076 4.71667 37.6376 5.22533 37.6096 5.832H37.8616ZM43.5831 13.182C42.5284 13.182 41.7071 12.8507 41.1191 12.188C40.5404 11.5253 40.2511 10.6013 40.2511 9.416C40.2511 8.22133 40.5451 7.29267 41.1331 6.63C41.7211 5.96733 42.5377 5.636 43.5831 5.636C44.6377 5.636 45.4591 5.96733 46.0471 6.63C46.6351 7.29267 46.9291 8.22133 46.9291 9.416C46.9291 10.6013 46.6351 11.5253 46.0471 12.188C45.4591 12.8507 44.6377 13.182 43.5831 13.182ZM43.5831 12.608C44.1431 12.608 44.5631 12.3373 44.8431 11.796C45.1324 11.2547 45.2771 10.4613 45.2771 9.416C45.2771 8.36133 45.1324 7.56333 44.8431 7.022C44.5631 6.48067 44.1431 6.21 43.5831 6.21C43.0231 6.21 42.5984 6.48067 42.3091 7.022C42.0291 7.56333 41.8891 8.36133 41.8891 9.416C41.8891 10.4613 42.0291 11.2547 42.3091 11.796C42.5984 12.3373 43.0231 12.608 43.5831 12.608ZM51.3067 13.182C50.728 13.182 50.1774 13.1027 49.6547 12.944C49.132 12.7853 48.712 12.5567 48.3947 12.258V3.564C48.3947 3.312 48.4694 3.116 48.6187 2.976C48.7774 2.82667 48.978 2.752 49.2207 2.752C49.4167 2.752 49.5987 2.78933 49.7667 2.864C49.9347 2.93867 50.0654 3.018 50.1587 3.102C50 3.73667 49.9207 4.59067 49.9207 5.664L49.9067 7.204C50.0747 6.728 50.3547 6.35 50.7467 6.07C51.1387 5.78067 51.6054 5.636 52.1467 5.636C52.9307 5.636 53.5374 5.92067 53.9667 6.49C54.396 7.05 54.6107 7.932 54.6107 9.136C54.6107 10.396 54.34 11.3853 53.7987 12.104C53.2667 12.8227 52.436 13.182 51.3067 13.182ZM51.1667 12.524C51.876 12.524 52.352 12.2207 52.5947 11.614C52.8467 10.998 52.9727 10.1673 52.9727 9.122C52.9727 8.20733 52.8747 7.54 52.6787 7.12C52.492 6.69067 52.2027 6.476 51.8107 6.476C51.1854 6.476 50.714 6.78867 50.3967 7.414C50.0794 8.03 49.9207 8.76733 49.9207 9.626V12.118C50.042 12.23 50.2194 12.328 50.4527 12.412C50.686 12.4867 50.924 12.524 51.1667 12.524ZM61.5803 11.068C61.7296 11.1333 61.8043 11.25 61.8043 11.418C61.8043 11.53 61.7716 11.6653 61.7063 11.824C61.529 12.2627 61.2116 12.5987 60.7543 12.832C60.3063 13.0653 59.765 13.182 59.1303 13.182C58.0663 13.182 57.2263 12.8553 56.6103 12.202C56.0036 11.5487 55.7003 10.62 55.7003 9.416C55.7003 8.23067 55.999 7.30667 56.5963 6.644C57.1936 5.972 58.0476 5.636 59.1583 5.636C59.9703 5.636 60.6283 5.818 61.1323 6.182C61.6363 6.53667 61.8883 7.04533 61.8883 7.708C61.8883 8.39867 61.6083 8.93067 61.0483 9.304C60.4976 9.668 59.7463 9.85 58.7943 9.85C58.253 9.85 57.7723 9.82667 57.3523 9.78C57.4176 10.648 57.637 11.2687 58.0103 11.642C58.3836 12.0153 58.8923 12.202 59.5363 12.202C60.0403 12.202 60.4696 12.0993 60.8243 11.894C61.1883 11.6887 61.4403 11.4133 61.5803 11.068ZM59.1023 6.21C58.5516 6.21 58.1176 6.47133 57.8003 6.994C57.4923 7.50733 57.3383 8.24 57.3383 9.192C57.581 9.22 57.8283 9.234 58.0803 9.234C58.715 9.234 59.233 9.108 59.6343 8.856C60.0356 8.604 60.2363 8.142 60.2363 7.47C60.2363 7.01267 60.129 6.69067 59.9143 6.504C59.6996 6.308 59.429 6.21 59.1023 6.21ZM66.8101 5.636C67.3234 5.636 67.7387 5.77133 68.0561 6.042C68.3734 6.31267 68.5321 6.686 68.5321 7.162C68.5321 7.51667 68.4294 7.80133 68.2241 8.016C68.0187 8.23067 67.7621 8.338 67.4541 8.338C67.1647 8.338 66.9547 8.26333 66.8241 8.114C66.9267 7.946 66.9967 7.79667 67.0341 7.666C67.0714 7.526 67.0901 7.36733 67.0901 7.19C67.0901 6.658 66.8567 6.392 66.3901 6.392C66.0167 6.392 65.7134 6.66733 65.4801 7.218C65.2561 7.75933 65.1441 8.576 65.1441 9.668V10.2C65.1441 11.0307 65.1581 11.6047 65.1861 11.922C65.2141 12.23 65.2841 12.524 65.3961 12.804C65.3027 12.888 65.1814 12.9627 65.0321 13.028C64.8827 13.0933 64.7101 13.1307 64.5141 13.14C64.2621 13.14 64.0474 13.0607 63.8701 12.902C63.7021 12.7433 63.6181 12.5287 63.6181 12.258V7.526C63.6181 7.274 63.5854 7.092 63.5201 6.98C63.4641 6.85867 63.3707 6.798 63.2401 6.798C63.0627 6.798 62.9414 6.86333 62.8761 6.994C62.7547 6.81667 62.6941 6.63933 62.6941 6.462C62.6941 6.21933 62.7827 6.02333 62.9601 5.874C63.1374 5.71533 63.3847 5.636 63.7021 5.636C64.0847 5.636 64.3881 5.76667 64.6121 6.028C64.8361 6.28933 64.9527 6.67667 64.9621 7.19C65.2887 6.154 65.9047 5.636 66.8101 5.636ZM73.4185 11.166C73.4185 11.866 73.4932 12.4213 73.6425 12.832C73.5585 12.916 73.4418 12.9953 73.2925 13.07C73.1432 13.1447 72.9705 13.182 72.7745 13.182C72.5225 13.182 72.3172 13.112 72.1585 12.972C71.9998 12.8227 71.9205 12.622 71.9205 12.37L71.9065 5.174C71.9065 4.98733 71.8972 4.76333 71.8785 4.502C71.5425 4.88467 71.1738 5.24867 70.7725 5.594C70.3805 5.93933 70.0912 6.112 69.9045 6.112C69.6805 6.112 69.5172 6.04667 69.4145 5.916C69.3212 5.78533 69.2698 5.66867 69.2605 5.566C69.2512 5.46333 69.2465 5.31867 69.2465 5.132C69.3118 5.11333 70.2078 4.51133 71.9345 3.326C72.1118 3.214 72.3125 3.158 72.5365 3.158C72.7978 3.158 73.0078 3.23267 73.1665 3.382C73.3345 3.522 73.4185 3.718 73.4185 3.97V11.166ZM79.4572 13.182C78.2812 13.182 77.3852 12.762 76.7692 11.922C76.1625 11.0727 75.8592 9.808 75.8592 8.128C75.8592 6.448 76.1625 5.188 76.7692 4.348C77.3852 3.49867 78.2812 3.074 79.4572 3.074C80.6332 3.074 81.5245 3.49867 82.1312 4.348C82.7379 5.188 83.0412 6.448 83.0412 8.128C83.0412 9.808 82.7379 11.0727 82.1312 11.922C81.5245 12.762 80.6332 13.182 79.4572 13.182ZM79.4572 12.594C80.0919 12.594 80.5632 12.2393 80.8712 11.53C81.1792 10.8113 81.3332 9.67733 81.3332 8.128C81.3332 6.588 81.1792 5.45867 80.8712 4.74C80.5632 4.02133 80.0919 3.662 79.4572 3.662C78.8225 3.662 78.3512 4.02133 78.0432 4.74C77.7352 5.45867 77.5812 6.588 77.5812 8.128C77.5812 9.67733 77.7352 10.8113 78.0432 11.53C78.3512 12.2393 78.8225 12.594 79.4572 12.594ZM85.8389 14.47C85.6616 14.442 85.4889 14.3393 85.3209 14.162C85.6382 13.798 85.7969 13.4573 85.7969 13.14C85.7969 12.86 85.7222 12.664 85.5729 12.552C85.4236 12.4307 85.2322 12.3373 84.9989 12.272C84.9989 12.02 85.0876 11.8007 85.2649 11.614C85.4422 11.4273 85.6709 11.334 85.9509 11.334C86.2122 11.334 86.4362 11.4273 86.6229 11.614C86.8096 11.8007 86.9029 12.0947 86.9029 12.496C86.9029 13.1773 86.5482 13.8353 85.8389 14.47ZM88.8335 13C88.7588 12.944 88.6982 12.8647 88.6515 12.762C88.6048 12.65 88.5815 12.5333 88.5815 12.412C88.5815 12.3187 88.5955 12.23 88.6235 12.146C88.7262 12.0433 89.0155 11.7867 89.4915 11.376C90.2382 10.732 90.8682 10.1533 91.3815 9.64C91.9042 9.12667 92.3615 8.52933 92.7535 7.848C93.1455 7.16667 93.3415 6.462 93.3415 5.734C93.3415 5.146 93.2015 4.65133 92.9215 4.25C92.6508 3.83933 92.2448 3.634 91.7035 3.634C91.0968 3.634 90.6675 3.87667 90.4155 4.362C90.1635 4.838 90.0328 5.37933 90.0235 5.986C89.5568 5.986 89.2302 5.888 89.0435 5.692C88.8568 5.496 88.7635 5.258 88.7635 4.978C88.7635 4.66067 88.8895 4.35733 89.1415 4.068C89.3935 3.76933 89.7482 3.53133 90.2055 3.354C90.6722 3.16733 91.2088 3.074 91.8155 3.074C92.7395 3.074 93.4955 3.30733 94.0835 3.774C94.6808 4.23133 94.9795 4.91267 94.9795 5.818C94.9795 6.798 94.6715 7.708 94.0555 8.548C93.4395 9.388 92.7768 10.074 92.0675 10.606C91.3582 11.138 90.5695 11.67 89.7015 12.202C90.4575 12.1833 91.4095 12.09 92.5575 11.922C93.7148 11.754 94.5688 11.5767 95.1195 11.39C95.2128 11.4553 95.2828 11.572 95.3295 11.74C95.3855 11.8987 95.4135 12.0667 95.4135 12.244C95.4135 12.4493 95.3808 12.6267 95.3155 12.776C95.2502 12.916 95.1568 12.9907 95.0355 13H88.8335ZM100.211 13.182C99.0351 13.182 98.1391 12.762 97.5231 11.922C96.9164 11.0727 96.6131 9.808 96.6131 8.128C96.6131 6.448 96.9164 5.188 97.5231 4.348C98.1391 3.49867 99.0351 3.074 100.211 3.074C101.387 3.074 102.278 3.49867 102.885 4.348C103.492 5.188 103.795 6.448 103.795 8.128C103.795 9.808 103.492 11.0727 102.885 11.922C102.278 12.762 101.387 13.182 100.211 13.182ZM100.211 12.594C100.846 12.594 101.317 12.2393 101.625 11.53C101.933 10.8113 102.087 9.67733 102.087 8.128C102.087 6.588 101.933 5.45867 101.625 4.74C101.317 4.02133 100.846 3.662 100.211 3.662C99.5764 3.662 99.1051 4.02133 98.7971 4.74C98.4891 5.45867 98.3351 6.588 98.3351 8.128C98.3351 9.67733 98.4891 10.8113 98.7971 11.53C99.1051 12.2393 99.5764 12.594 100.211 12.594ZM105.445 13C105.37 12.944 105.309 12.8647 105.263 12.762C105.216 12.65 105.193 12.5333 105.193 12.412C105.193 12.3187 105.207 12.23 105.235 12.146C105.337 12.0433 105.627 11.7867 106.103 11.376C106.849 10.732 107.479 10.1533 107.993 9.64C108.515 9.12667 108.973 8.52933 109.365 7.848C109.757 7.16667 109.953 6.462 109.953 5.734C109.953 5.146 109.813 4.65133 109.533 4.25C109.262 3.83933 108.856 3.634 108.315 3.634C107.708 3.634 107.279 3.87667 107.027 4.362C106.775 4.838 106.644 5.37933 106.635 5.986C106.168 5.986 105.841 5.888 105.655 5.692C105.468 5.496 105.375 5.258 105.375 4.978C105.375 4.66067 105.501 4.35733 105.753 4.068C106.005 3.76933 106.359 3.53133 106.817 3.354C107.283 3.16733 107.82 3.074 108.427 3.074C109.351 3.074 110.107 3.30733 110.695 3.774C111.292 4.23133 111.591 4.91267 111.591 5.818C111.591 6.798 111.283 7.708 110.667 8.548C110.051 9.388 109.388 10.074 108.679 10.606C107.969 11.138 107.181 11.67 106.313 12.202C107.069 12.1833 108.021 12.09 109.169 11.922C110.326 11.754 111.18 11.5767 111.731 11.39C111.824 11.4553 111.894 11.572 111.941 11.74C111.997 11.8987 112.025 12.0667 112.025 12.244C112.025 12.4493 111.992 12.6267 111.927 12.776C111.861 12.916 111.768 12.9907 111.647 13H105.445ZM113.21 13C113.136 12.944 113.075 12.8647 113.028 12.762C112.982 12.65 112.958 12.5333 112.958 12.412C112.958 12.3187 112.972 12.23 113 12.146C113.103 12.0433 113.392 11.7867 113.868 11.376C114.615 10.732 115.245 10.1533 115.758 9.64C116.281 9.12667 116.738 8.52933 117.13 7.848C117.522 7.16667 117.718 6.462 117.718 5.734C117.718 5.146 117.578 4.65133 117.298 4.25C117.028 3.83933 116.622 3.634 116.08 3.634C115.474 3.634 115.044 3.87667 114.792 4.362C114.54 4.838 114.41 5.37933 114.4 5.986C113.934 5.986 113.607 5.888 113.42 5.692C113.234 5.496 113.14 5.258 113.14 4.978C113.14 4.66067 113.266 4.35733 113.518 4.068C113.77 3.76933 114.125 3.53133 114.582 3.354C115.049 3.16733 115.586 3.074 116.192 3.074C117.116 3.074 117.872 3.30733 118.46 3.774C119.058 4.23133 119.356 4.91267 119.356 5.818C119.356 6.798 119.048 7.708 118.432 8.548C117.816 9.388 117.154 10.074 116.444 10.606C115.735 11.138 114.946 11.67 114.078 12.202C114.834 12.1833 115.786 12.09 116.934 11.922C118.092 11.754 118.946 11.5767 119.496 11.39C119.59 11.4553 119.66 11.572 119.706 11.74C119.762 11.8987 119.79 12.0667 119.79 12.244C119.79 12.4493 119.758 12.6267 119.692 12.776C119.627 12.916 119.534 12.9907 119.412 13H113.21Z" fill="#50413C"/>
</svg>
