<svg width="61" height="70" viewBox="0 0 61 70" fill="none" xmlns="http://www.w3.org/2000/svg">
<path d="M25.4333 34.7826H23.3511V32.6811H25.4333V34.7826ZM21.269 34.7826H19.1868V32.6811H21.269V34.7826ZM17.1046 34.7826H15.0225V32.6811H17.1046V34.7826Z" fill="#639533"/>
<path d="M52.2972 54.6126C52.2972 52.2951 50.4291 50.4096 48.1329 50.4096C47.2753 50.4096 46.4774 50.6726 45.8143 51.1229C45.2424 49.49 43.6976 48.3168 41.8864 48.3168C41.0309 48.3168 40.2349 48.5785 39.5727 49.0267C39.0049 47.3864 37.4563 46.2065 35.6399 46.2065C34.882 46.2065 34.1706 46.412 33.5577 46.7705V39.9108C33.5577 37.5933 31.6896 35.7079 29.3934 35.7079C27.0972 35.7079 25.2291 37.5933 25.2291 39.9108V52.5094L23.1534 52.5503C20.8622 52.5562 18.9999 54.4394 18.9999 56.7512L18.9916 60.9344H4.1298C3.17298 60.9344 2.39466 60.1489 2.39466 59.1832V11.5494H0.3125V59.1832C0.3125 61.3077 2.02487 63.0359 4.1298 63.0359H18.9874L18.982 65.7895L21.2425 70L23.0732 68.9989L21.0653 65.2588L21.0821 56.7536C21.0821 55.5948 22.0161 54.6521 23.1642 54.6521L25.2291 54.6115V64.0695H27.3112V54.5706V39.9108C27.3112 38.7521 28.2453 37.8093 29.3934 37.8093C30.5415 37.8093 31.4755 38.7521 31.4755 39.9108V50.4096V57.7737H33.5577V50.4096C33.5577 49.2508 34.4918 48.3081 35.6399 48.3081C36.788 48.3081 37.722 49.2508 37.722 50.4096V57.7737H39.8042V52.5199C39.8042 51.3612 40.7383 50.4184 41.8864 50.4184C43.0345 50.4184 43.9685 51.3612 43.9685 52.5199V54.6127V57.7738H46.0507V54.6127C46.0507 53.454 46.9847 52.5112 48.1329 52.5112C49.281 52.5112 50.215 53.454 50.215 54.6153L50.2497 69.5021L52.3319 69.4972L52.2972 54.6126Z" fill="#639533"/>
<path d="M2.39466 3.85274C2.39466 2.88703 3.17298 2.10149 4.1298 2.10149H10.4457V4.27303C10.4457 6.3975 12.1581 8.12577 14.263 8.12577H25.6542C27.759 8.12577 29.4715 6.3975 29.4715 4.27303V2.10149H36.0564C37.0133 2.10149 37.7916 2.88703 37.7916 3.85274V45.1734H39.8737V3.85274C39.8737 1.72827 38.1612 0 36.0564 0H29.4714H10.4457H4.1298C2.02487 0 0.3125 1.72827 0.3125 3.85274V9.45671H2.39466V3.85274ZM27.3892 2.10149V4.27303C27.3892 5.23874 26.6109 6.02428 25.6541 6.02428H14.2629C13.306 6.02428 12.5277 5.23874 12.5277 4.27303V2.10149H27.3892Z" fill="#639533"/>
<path d="M33.2111 28.2452V26.1437H31.7744C31.2757 20.4294 26.7538 15.8656 21.092 15.3622V14.1174H19.0098V15.3622C13.3481 15.8656 8.82623 20.4294 8.32748 26.1437H6.92383V28.2452H8.27876H31.823H33.2111ZM10.4164 26.1437C10.9373 21.2431 15.0594 17.4145 20.0509 17.4145C25.0424 17.4145 29.1645 21.2431 29.6853 26.1437H10.4164Z" fill="#639533"/>
<path d="M7.61719 39.9197H18.0107V42.0212H7.61719V39.9197Z" fill="#639533"/>
<path d="M7.61719 44.1226H18.0107V46.2241H7.61719V44.1226Z" fill="#639533"/>
<path d="M7.61719 48.3256H18.0107V50.4271H7.61719V48.3256Z" fill="#639533"/>
</svg>
