<svg width="18" height="16" viewBox="0 0 18 16" fill="none" xmlns="http://www.w3.org/2000/svg">
<g id="phone-call" clip-path="url(#clip0_1_5393)">
<path id="Vector" d="M16.8947 11.52C16.8486 11.4853 13.5 9.1968 12.5809 9.36107C12.1421 9.43467 11.8913 9.7184 11.3878 10.2864C11.3068 10.3781 11.1122 10.5979 10.9609 10.7541C10.6427 10.6557 10.3324 10.536 10.0322 10.3957C8.48279 9.68054 7.23093 8.49359 6.47662 7.02453C6.32861 6.73996 6.20229 6.44569 6.09863 6.144C6.264 6 6.49575 5.81547 6.59475 5.73653C7.191 5.26187 7.49081 5.024 7.56844 4.60693C7.72762 3.74293 5.31562 0.546133 5.29031 0.517333C5.18088 0.369104 5.03806 0.245793 4.87219 0.156322C4.70632 0.06685 4.52155 0.013455 4.33125 0C3.35362 0 0.5625 3.43307 0.5625 4.0112C0.5625 4.0448 0.613688 7.46027 5.05575 11.7445C9.56981 15.9515 13.1715 16 13.2069 16C13.8173 16 17.4375 13.3536 17.4375 12.4267C17.4235 12.2469 17.3675 12.0723 17.2736 11.9155C17.1797 11.7587 17.0503 11.6236 16.8947 11.52Z" fill="#FCC41A"/>
</g>
<defs>
<clipPath id="clip0_1_5393">
<rect width="18" height="16" fill="white"/>
</clipPath>
</defs>
</svg>
