<svg width="50" height="52" viewBox="0 0 50 52" fill="none" xmlns="http://www.w3.org/2000/svg">
<circle cx="25" cy="27" r="25" fill="#FCC41A"/>
<circle cx="25" cy="25" r="25" fill="#2B221F"/>
<path d="M33.8037 33.4475L28.6842 28.328C29.8813 26.7853 30.4455 24.8442 30.2618 22.9001C30.0782 20.956 29.1605 19.155 27.6956 17.8637C26.2308 16.5724 24.3288 15.8879 22.377 15.9496C20.4252 16.0113 18.5703 16.8146 17.19 18.1959C15.8096 19.5771 15.0075 21.4325 14.947 23.3844C14.8866 25.3362 15.5723 27.2377 16.8645 28.7017C18.1567 30.1658 19.9583 31.0823 21.9026 31.2647C23.8468 31.4472 25.7874 30.8817 27.3294 29.6836L32.4486 34.8026C32.6293 34.9772 32.8714 35.0738 33.1227 35.0716C33.3739 35.0694 33.6143 34.9686 33.792 34.791C33.9697 34.6133 34.0705 34.3729 34.0726 34.1216C34.0748 33.8704 33.9782 33.6283 33.8037 33.4475ZM18.5667 27.6975C17.626 26.757 17.0405 25.5193 16.91 24.1954C16.7795 22.8715 17.1121 21.5433 17.8511 20.4371C18.5901 19.331 19.6898 18.5153 20.9628 18.129C22.2358 17.7428 23.6033 17.8099 24.8324 18.3189C26.0615 18.8279 27.076 19.7474 27.7032 20.9206C28.3303 22.0938 28.5313 23.4481 28.2718 24.7529C28.0123 26.0577 27.3085 27.2321 26.2801 28.076C25.2518 28.92 23.9627 29.3813 22.6324 29.3813C21.1077 29.3805 19.6455 28.775 18.5667 27.6975Z" fill="white"/>
</svg>
