<svg width="98" height="61" viewBox="0 0 98 61" fill="none" xmlns="http://www.w3.org/2000/svg">
<g clip-path="url(#clip0_1_5771)">
<path d="M91.1396 25.8037L88.6018 15.6939C89.2956 15.5471 89.8162 14.934 89.8162 14.1996V12.5695C89.8162 9.03038 86.925 6.15118 83.3716 6.15118H71.8122V2.78894C71.8122 1.04739 70.3896 -0.369336 68.641 -0.369336H9.71808C7.96939 -0.369336 6.54686 1.04739 6.54686 2.78894V30.5001C6.54686 31.344 7.23382 32.0283 8.08136 32.0283C8.92872 32.0283 9.61587 31.3442 9.61587 30.5001V2.78894C9.61587 2.7327 9.66161 2.68715 9.71808 2.68715H68.6408C68.6972 2.68715 68.743 2.7327 68.743 2.78894V30.5005C68.743 31.3444 69.4299 32.0287 70.2775 32.0287C71.1248 32.0287 71.812 31.3446 71.812 30.5005V28.7681H89.9131C89.9146 28.7681 89.9158 28.7685 89.9171 28.7685C89.9186 28.7685 89.92 28.7683 89.9213 28.7683C92.1487 28.7698 94.04 30.2258 94.6896 32.2321H89.9183C89.0709 32.2321 88.3838 32.9163 88.3838 33.7604V37.0204C88.3838 39.6608 90.5405 41.8087 93.1917 41.8087H94.9308V48.5326H90.9185C89.6005 44.7424 85.9827 42.0123 81.7345 42.0123C77.4862 42.0123 73.8683 44.7424 72.5504 48.5326H71.8116V37.0202C71.8116 36.1763 71.1246 35.492 70.2771 35.492C69.4297 35.492 68.7426 36.1761 68.7426 37.0202V48.5323H36.9064C35.5884 44.7421 31.9706 42.0119 27.7223 42.0119C23.4741 42.0119 19.8561 44.7421 18.5383 48.5323H9.71808C9.66161 48.5323 9.61587 48.4867 9.61587 48.4305V45.0684H16.2651C17.1125 45.0684 17.7996 44.3843 17.7996 43.5402C17.7996 42.6961 17.1127 42.0119 16.2651 42.0119H1.5345C0.687148 42.0119 0 42.6961 0 43.5402C0 44.3843 0.686957 45.0684 1.5345 45.0684H6.54705V48.4305C6.54705 50.172 7.96958 51.5888 9.71827 51.5888H18.0069C18.0065 51.6227 18.0042 51.6564 18.0042 51.6905C18.0042 57.0273 22.3639 61.3689 27.7223 61.3689C33.0807 61.3689 37.4404 57.0273 37.4404 51.6905C37.4404 51.6562 37.4381 51.6227 37.4377 51.5888H72.0191C72.0187 51.6227 72.0164 51.6564 72.0164 51.6905C72.0164 57.0273 76.3761 61.3689 81.7345 61.3689C87.0929 61.3689 91.4526 57.0273 91.4526 51.6905C91.4526 51.6562 91.4503 51.6227 91.4499 51.5888H96.4653C97.3127 51.5888 97.9998 50.9046 97.9998 50.0605V33.76C98 29.7355 95.0185 26.3917 91.1396 25.8037ZM71.8122 9.20747H83.3716C85.233 9.20747 86.7474 10.7157 86.7474 12.5695V12.6713H71.8122V9.20747ZM71.8122 25.7118V15.7276H85.447L87.9533 25.7118H71.8122ZM27.7223 58.313C24.0559 58.313 21.0731 55.3425 21.0731 51.6909C21.0731 48.0393 24.0559 45.0688 27.7223 45.0688C31.3887 45.0688 34.3716 48.0393 34.3716 51.6909C34.3716 55.3425 31.3887 58.313 27.7223 58.313ZM81.7349 58.313C78.0685 58.313 75.0856 55.3425 75.0856 51.6909C75.0856 48.0393 78.0685 45.0688 81.7349 45.0688C85.4013 45.0688 88.3841 48.0393 88.3841 51.6909C88.3841 55.3425 85.4013 58.313 81.7349 58.313ZM94.9312 38.7523H93.1921C92.2331 38.7523 91.4529 37.9753 91.4529 37.0202V35.2882H94.931V38.7523H94.9312Z" fill="#639533"/>
<path d="M27.722 48.5325C25.9733 48.5325 24.5508 49.9493 24.5508 51.6908C24.5508 53.4324 25.9733 54.8491 27.722 54.8491C29.4707 54.8491 30.8932 53.4324 30.8932 51.6908C30.8932 49.9493 29.4707 48.5325 27.722 48.5325Z" fill="#639533"/>
<path d="M81.7347 48.5325C79.986 48.5325 78.5635 49.9493 78.5635 51.6908C78.5635 53.4324 79.986 54.8491 81.7347 54.8491C83.4834 54.8491 84.9059 53.4324 84.9059 51.6908C84.9059 49.9493 83.4834 48.5325 81.7347 48.5325Z" fill="#639533"/>
<path d="M63.7311 42.0126H40.8167C39.9694 42.0126 39.2822 42.6967 39.2822 43.5408C39.2822 44.3849 39.9692 45.069 40.8167 45.069H63.7311C64.5785 45.069 65.2656 44.3849 65.2656 43.5408C65.2656 42.6967 64.5787 42.0126 63.7311 42.0126Z" fill="#639533"/>
<path d="M24.4489 35.492H4.80794C3.96059 35.492 3.27344 36.1761 3.27344 37.0202C3.27344 37.8643 3.96039 38.5485 4.80794 38.5485H24.4489C25.2963 38.5485 25.9834 37.8643 25.9834 37.0202C25.9834 36.1761 25.2963 35.492 24.4489 35.492Z" fill="#639533"/>
<path d="M53.358 14.7485C52.7589 14.1519 51.7872 14.1519 51.1881 14.7487L37.5423 28.3386L30.4437 21.2688C29.8444 20.672 28.8728 20.672 28.2737 21.2688C27.6744 21.8657 27.6744 22.8331 28.2737 23.43L36.4575 31.5803C36.757 31.8788 37.1498 32.0279 37.5423 32.0279C37.9349 32.0279 38.3279 31.8788 38.6272 31.5803L53.3579 16.9098C53.9571 16.3128 53.9571 15.3454 53.358 14.7485Z" fill="#639533"/>
</g>
<defs>
<clipPath id="clip0_1_5771">
<rect width="98" height="61" fill="white"/>
</clipPath>
</defs>
</svg>
