<svg width="251" height="229" viewBox="0 0 251 229" fill="none" xmlns="http://www.w3.org/2000/svg">
<path d="M15.8482 166.71C16.1122 166.71 16.2442 166.93 16.2442 167.37C16.2442 167.663 16.1782 167.964 16.0462 168.272C15.9289 168.565 15.7749 168.756 15.5842 168.844C13.7216 168.272 11.8516 167.964 9.97422 167.92V173.42H14.9682C15.0269 173.596 15.0562 173.809 15.0562 174.058C15.0562 174.249 15.0269 174.491 14.9682 174.784H9.99622V179.118C9.99622 180.262 10.1136 181.135 10.3482 181.736C9.93755 182.103 9.46822 182.286 8.94022 182.286C8.52955 182.286 8.19222 182.176 7.92822 181.956C7.67889 181.721 7.55422 181.406 7.55422 181.01L7.53222 169.878C7.53222 168.793 7.41489 167.942 7.18022 167.326C7.45889 167.077 7.74489 166.915 8.03822 166.842C8.34622 166.754 8.77889 166.71 9.33622 166.71H15.8482ZM21.1583 182.22C20.381 182.22 19.7796 181.978 19.3543 181.494C18.9436 180.995 18.7383 180.306 18.7383 179.426V167.172C18.7383 166.776 18.863 166.468 19.1123 166.248C19.3763 166.013 19.7136 165.896 20.1243 165.896C20.667 165.896 21.1216 166.079 21.4883 166.446C21.3416 166.974 21.2463 167.546 21.2023 168.162C21.1583 168.763 21.1363 169.621 21.1363 170.736V179.228C21.1363 180.005 21.4003 180.394 21.9283 180.394C22.075 180.394 22.2143 180.365 22.3463 180.306C22.493 180.247 22.5956 180.159 22.6543 180.042C22.845 180.277 22.9403 180.548 22.9403 180.856C22.9403 181.252 22.7643 181.582 22.4123 181.846C22.0603 182.095 21.6423 182.22 21.1583 182.22ZM29.4573 182.286C27.7999 182.286 26.5093 181.765 25.5853 180.724C24.6759 179.683 24.2213 178.231 24.2213 176.368C24.2213 174.491 24.6833 173.031 25.6073 171.99C26.5313 170.949 27.8146 170.428 29.4573 170.428C31.1146 170.428 32.4053 170.949 33.3293 171.99C34.2533 173.031 34.7153 174.491 34.7153 176.368C34.7153 178.231 34.2533 179.683 33.3293 180.724C32.4053 181.765 31.1146 182.286 29.4573 182.286ZM29.4573 181.384C30.3373 181.384 30.9973 180.959 31.4373 180.108C31.8919 179.257 32.1193 178.011 32.1193 176.368C32.1193 174.711 31.8919 173.457 31.4373 172.606C30.9973 171.755 30.3373 171.33 29.4573 171.33C28.5773 171.33 27.9099 171.755 27.4553 172.606C27.0153 173.457 26.7953 174.711 26.7953 176.368C26.7953 178.011 27.0153 179.257 27.4553 180.108C27.9099 180.959 28.5773 181.384 29.4573 181.384ZM40.6044 182.286C39.9297 182.286 39.4897 182.007 39.2844 181.45L36.4904 172.298C36.2704 171.682 36.0651 171.271 35.8744 171.066C36.2117 170.699 36.6737 170.516 37.2604 170.516C37.6271 170.516 37.9351 170.597 38.1844 170.758C38.4484 170.919 38.6171 171.154 38.6904 171.462L41.0004 180.614L42.9804 172.254C43.0391 171.902 43.0684 171.609 43.0684 171.374C43.0684 171.11 43.0171 170.905 42.9144 170.758C43.2811 170.611 43.8091 170.523 44.4984 170.494C45.4077 170.494 45.9431 170.78 46.1044 171.352L48.3484 180.614L50.3944 172.254C50.4824 171.873 50.5264 171.579 50.5264 171.374C50.5264 171.139 50.4751 170.934 50.3724 170.758C50.7684 170.597 51.1791 170.516 51.6044 170.516C52.0591 170.516 52.3891 170.597 52.5944 170.758C52.8144 170.905 52.9244 171.154 52.9244 171.506C52.9244 171.961 52.8437 172.408 52.6824 172.848L49.6024 181.912C49.0157 182.161 48.4731 182.286 47.9744 182.286C47.6517 182.286 47.3657 182.22 47.1164 182.088C46.8671 181.956 46.7131 181.743 46.6544 181.45L44.4984 172.936L42.3424 181.912C41.7557 182.161 41.1764 182.286 40.6044 182.286ZM63.4535 178.964C63.6881 179.067 63.8055 179.25 63.8055 179.514C63.8055 179.69 63.7541 179.903 63.6515 180.152C63.3728 180.841 62.8741 181.369 62.1555 181.736C61.4515 182.103 60.6008 182.286 59.6035 182.286C57.9315 182.286 56.6115 181.773 55.6435 180.746C54.6901 179.719 54.2135 178.26 54.2135 176.368C54.2135 174.505 54.6828 173.053 55.6215 172.012C56.5601 170.956 57.9021 170.428 59.6475 170.428C60.9235 170.428 61.9575 170.714 62.7495 171.286C63.5415 171.843 63.9375 172.643 63.9375 173.684C63.9375 174.769 63.4975 175.605 62.6175 176.192C61.7521 176.764 60.5715 177.05 59.0755 177.05C58.2248 177.05 57.4695 177.013 56.8095 176.94C56.9121 178.304 57.2568 179.279 57.8435 179.866C58.4301 180.453 59.2295 180.746 60.2415 180.746C61.0335 180.746 61.7081 180.585 62.2655 180.262C62.8375 179.939 63.2335 179.507 63.4535 178.964ZM59.5595 171.33C58.6941 171.33 58.0121 171.741 57.5135 172.562C57.0295 173.369 56.7875 174.52 56.7875 176.016C57.1688 176.06 57.5575 176.082 57.9535 176.082C58.9508 176.082 59.7648 175.884 60.3955 175.488C61.0261 175.092 61.3415 174.366 61.3415 173.31C61.3415 172.591 61.1728 172.085 60.8355 171.792C60.4981 171.484 60.0728 171.33 59.5595 171.33ZM71.6717 170.428C72.4783 170.428 73.131 170.641 73.6297 171.066C74.1283 171.491 74.3777 172.078 74.3777 172.826C74.3777 173.383 74.2163 173.831 73.8937 174.168C73.571 174.505 73.1677 174.674 72.6837 174.674C72.229 174.674 71.899 174.557 71.6937 174.322C71.855 174.058 71.965 173.823 72.0237 173.618C72.0823 173.398 72.1117 173.149 72.1117 172.87C72.1117 172.034 71.745 171.616 71.0117 171.616C70.425 171.616 69.9483 172.049 69.5817 172.914C69.2297 173.765 69.0537 175.048 69.0537 176.764V177.6C69.0537 178.905 69.0757 179.807 69.1197 180.306C69.1637 180.79 69.2737 181.252 69.4497 181.692C69.303 181.824 69.1123 181.941 68.8777 182.044C68.643 182.147 68.3717 182.205 68.0637 182.22C67.6677 182.22 67.3303 182.095 67.0517 181.846C66.7877 181.597 66.6557 181.259 66.6557 180.834V173.398C66.6557 173.002 66.6043 172.716 66.5017 172.54C66.4137 172.349 66.267 172.254 66.0617 172.254C65.783 172.254 65.5923 172.357 65.4897 172.562C65.299 172.283 65.2037 172.005 65.2037 171.726C65.2037 171.345 65.343 171.037 65.6217 170.802C65.9003 170.553 66.289 170.428 66.7877 170.428C67.389 170.428 67.8657 170.633 68.2177 171.044C68.5697 171.455 68.753 172.063 68.7677 172.87C69.281 171.242 70.249 170.428 71.6717 170.428ZM79.7244 182.286C78.3457 182.286 77.3044 182.051 76.6004 181.582C75.8964 181.113 75.5444 180.482 75.5444 179.69C75.5444 179.294 75.6544 178.957 75.8744 178.678C76.109 178.399 76.4684 178.26 76.9524 178.26C77.0404 178.26 77.187 178.275 77.3924 178.304C77.3484 178.48 77.3264 178.641 77.3264 178.788C77.3264 178.964 77.3484 179.155 77.3924 179.36C77.4657 179.947 77.7224 180.423 78.1624 180.79C78.617 181.157 79.233 181.34 80.0104 181.34C80.6997 181.34 81.257 181.215 81.6824 180.966C82.1077 180.702 82.3204 180.321 82.3204 179.822C82.3204 179.485 82.2177 179.191 82.0124 178.942C81.8217 178.678 81.5797 178.458 81.2864 178.282C80.993 178.106 80.575 177.886 80.0324 177.622C79.915 177.578 79.739 177.497 79.5044 177.38C78.7124 177.013 78.0817 176.691 77.6124 176.412C77.1577 176.119 76.7617 175.73 76.4244 175.246C76.1017 174.762 75.9404 174.168 75.9404 173.464C75.9404 172.437 76.3364 171.675 77.1284 171.176C77.9204 170.663 78.925 170.406 80.1424 170.406C81.3597 170.406 82.3204 170.597 83.0244 170.978C83.7284 171.345 84.0804 171.88 84.0804 172.584C84.0804 172.907 83.985 173.185 83.7944 173.42C83.6184 173.64 83.3324 173.757 82.9364 173.772C82.863 173.787 82.7677 173.794 82.6504 173.794C82.577 173.794 82.4377 173.779 82.2324 173.75C82.247 173.662 82.2544 173.53 82.2544 173.354C82.2544 173.031 82.2104 172.789 82.1224 172.628C82.0344 172.217 81.807 171.902 81.4404 171.682C81.0884 171.447 80.6264 171.33 80.0544 171.33C79.5117 171.33 79.0497 171.44 78.6684 171.66C78.3017 171.88 78.1184 172.217 78.1184 172.672C78.1184 173.083 78.2357 173.435 78.4704 173.728C78.7197 174.021 79.0204 174.271 79.3724 174.476C79.7244 174.681 80.223 174.938 80.8684 175.246C81.763 175.671 82.4304 176.016 82.8704 176.28C83.3104 176.529 83.7064 176.874 84.0584 177.314C84.4104 177.754 84.5864 178.289 84.5864 178.92C84.5864 179.859 84.1904 180.658 83.3984 181.318C82.621 181.963 81.3964 182.286 79.7244 182.286ZM95.1788 166.402C97.3642 166.402 98.9922 166.769 100.063 167.502C101.148 168.221 101.691 169.365 101.691 170.934C101.691 172.577 101.112 173.831 99.9528 174.696C98.7942 175.561 97.1222 175.994 94.9368 175.994H94.3868V179.25C94.3868 180.321 94.5042 181.149 94.7388 181.736C94.3282 182.103 93.8662 182.286 93.3528 182.286C92.9275 182.286 92.5828 182.176 92.3188 181.956C92.0695 181.721 91.9448 181.406 91.9448 181.01V169.592C91.9448 169.196 91.9155 168.756 91.8568 168.272C91.7982 167.773 91.7028 167.341 91.5708 166.974C92.3775 166.593 93.5802 166.402 95.1788 166.402ZM94.8928 175.092C97.6502 175.092 99.0288 173.757 99.0288 171.088C99.0288 169.871 98.7208 168.939 98.1048 168.294C97.5035 167.649 96.5282 167.326 95.1788 167.326C94.8855 167.326 94.6215 167.341 94.3868 167.37V175.092H94.8928ZM109.484 170.428C110.291 170.428 110.944 170.641 111.442 171.066C111.941 171.491 112.19 172.078 112.19 172.826C112.19 173.383 112.029 173.831 111.706 174.168C111.384 174.505 110.98 174.674 110.496 174.674C110.042 174.674 109.712 174.557 109.506 174.322C109.668 174.058 109.778 173.823 109.836 173.618C109.895 173.398 109.924 173.149 109.924 172.87C109.924 172.034 109.558 171.616 108.824 171.616C108.238 171.616 107.761 172.049 107.394 172.914C107.042 173.765 106.866 175.048 106.866 176.764V177.6C106.866 178.905 106.888 179.807 106.932 180.306C106.976 180.79 107.086 181.252 107.262 181.692C107.116 181.824 106.925 181.941 106.69 182.044C106.456 182.147 106.184 182.205 105.876 182.22C105.48 182.22 105.143 182.095 104.864 181.846C104.6 181.597 104.468 181.259 104.468 180.834V173.398C104.468 173.002 104.417 172.716 104.314 172.54C104.226 172.349 104.08 172.254 103.874 172.254C103.596 172.254 103.405 172.357 103.302 172.562C103.112 172.283 103.016 172.005 103.016 171.726C103.016 171.345 103.156 171.037 103.434 170.802C103.713 170.553 104.102 170.428 104.6 170.428C105.202 170.428 105.678 170.633 106.03 171.044C106.382 171.455 106.566 172.063 106.58 172.87C107.094 171.242 108.062 170.428 109.484 170.428ZM118.725 182.286C117.068 182.286 115.777 181.765 114.853 180.724C113.944 179.683 113.489 178.231 113.489 176.368C113.489 174.491 113.951 173.031 114.875 171.99C115.799 170.949 117.082 170.428 118.725 170.428C120.382 170.428 121.673 170.949 122.597 171.99C123.521 173.031 123.983 174.491 123.983 176.368C123.983 178.231 123.521 179.683 122.597 180.724C121.673 181.765 120.382 182.286 118.725 182.286ZM118.725 181.384C119.605 181.384 120.265 180.959 120.705 180.108C121.16 179.257 121.387 178.011 121.387 176.368C121.387 174.711 121.16 173.457 120.705 172.606C120.265 171.755 119.605 171.33 118.725 171.33C117.845 171.33 117.178 171.755 116.723 172.606C116.283 173.457 116.063 174.711 116.063 176.368C116.063 178.011 116.283 179.257 116.723 180.108C117.178 180.959 117.845 181.384 118.725 181.384ZM136.846 180.086C137.022 180.35 137.11 180.629 137.11 180.922C137.11 181.289 136.949 181.589 136.626 181.824C136.318 182.059 135.922 182.176 135.438 182.176C134.147 182.176 133.443 181.23 133.326 179.338C132.622 181.303 131.361 182.286 129.542 182.286C128.178 182.286 127.195 181.78 126.594 180.768C125.993 179.741 125.692 178.429 125.692 176.83C125.692 174.791 126.095 173.215 126.902 172.1C127.709 170.985 128.86 170.428 130.356 170.428C131.06 170.428 131.654 170.56 132.138 170.824C132.622 171.088 132.974 171.462 133.194 171.946V170.054C133.194 168.573 133.055 167.37 132.776 166.446C133.187 166.079 133.649 165.896 134.162 165.896C134.573 165.896 134.91 166.013 135.174 166.248C135.438 166.483 135.57 166.791 135.57 167.172L135.548 179.228C135.548 179.991 135.79 180.372 136.274 180.372C136.553 180.372 136.743 180.277 136.846 180.086ZM130.224 180.944C131.148 180.944 131.867 180.372 132.38 179.228C132.893 178.084 133.15 176.705 133.15 175.092C133.15 174.08 132.989 173.266 132.666 172.65C132.343 172.019 131.749 171.704 130.884 171.704C129.139 171.704 128.266 173.391 128.266 176.764C128.266 178.113 128.405 179.147 128.684 179.866C128.963 180.585 129.476 180.944 130.224 180.944ZM149.542 180.152C149.718 180.401 149.806 180.673 149.806 180.966C149.806 181.362 149.667 181.677 149.388 181.912C149.124 182.147 148.743 182.264 148.244 182.264C147.599 182.264 147.1 182.051 146.748 181.626C146.411 181.201 146.242 180.563 146.242 179.712V179.668C145.934 180.519 145.472 181.171 144.856 181.626C144.255 182.081 143.507 182.308 142.612 182.308C141.41 182.308 140.53 181.963 139.972 181.274C139.43 180.585 139.158 179.426 139.158 177.798L139.136 173.596C139.136 172.467 139.019 171.587 138.784 170.956C139.195 170.604 139.657 170.428 140.17 170.428C140.581 170.428 140.911 170.545 141.16 170.78C141.424 171 141.556 171.308 141.556 171.704V177.446C141.556 178.766 141.688 179.712 141.952 180.284C142.216 180.841 142.693 181.12 143.382 181.12C143.852 181.12 144.284 180.937 144.68 180.57C145.076 180.189 145.392 179.609 145.626 178.832C145.876 178.055 146 177.094 146 175.95C146 174.219 145.978 173.075 145.934 172.518C145.89 171.946 145.773 171.418 145.582 170.934C146.008 170.597 146.47 170.428 146.968 170.428C147.364 170.428 147.694 170.553 147.958 170.802C148.222 171.051 148.354 171.389 148.354 171.814L148.376 179.316C148.376 179.727 148.42 180.02 148.508 180.196C148.611 180.357 148.765 180.438 148.97 180.438C149.234 180.438 149.425 180.343 149.542 180.152ZM156.433 182.286C154.731 182.286 153.411 181.78 152.473 180.768C151.549 179.741 151.087 178.275 151.087 176.368C151.087 174.52 151.563 173.068 152.517 172.012C153.47 170.956 154.812 170.428 156.543 170.428C157.789 170.428 158.75 170.692 159.425 171.22C160.114 171.733 160.459 172.401 160.459 173.222C160.459 173.779 160.29 174.227 159.953 174.564C159.63 174.901 159.205 175.07 158.677 175.07C158.427 175.07 158.178 175.033 157.929 174.96C157.694 174.872 157.511 174.747 157.379 174.586C157.819 174.293 158.039 173.772 158.039 173.024C158.039 172.437 157.885 172.012 157.577 171.748C157.269 171.469 156.858 171.33 156.345 171.33C155.523 171.33 154.871 171.741 154.387 172.562C153.903 173.369 153.661 174.513 153.661 175.994C153.661 177.637 153.969 178.839 154.585 179.602C155.201 180.365 156.051 180.746 157.137 180.746C157.914 180.746 158.581 180.555 159.139 180.174C159.696 179.793 160.055 179.272 160.217 178.612C160.451 178.7 160.569 178.913 160.569 179.25C160.569 179.441 160.539 179.646 160.481 179.866C160.246 180.643 159.769 181.245 159.051 181.67C158.347 182.081 157.474 182.286 156.433 182.286ZM171.52 178.964C171.755 179.067 171.872 179.25 171.872 179.514C171.872 179.69 171.821 179.903 171.718 180.152C171.439 180.841 170.941 181.369 170.222 181.736C169.518 182.103 168.667 182.286 167.67 182.286C165.998 182.286 164.678 181.773 163.71 180.746C162.757 179.719 162.28 178.26 162.28 176.368C162.28 174.505 162.749 173.053 163.688 172.012C164.627 170.956 165.969 170.428 167.714 170.428C168.99 170.428 170.024 170.714 170.816 171.286C171.608 171.843 172.004 172.643 172.004 173.684C172.004 174.769 171.564 175.605 170.684 176.192C169.819 176.764 168.638 177.05 167.142 177.05C166.291 177.05 165.536 177.013 164.876 176.94C164.979 178.304 165.323 179.279 165.91 179.866C166.497 180.453 167.296 180.746 168.308 180.746C169.1 180.746 169.775 180.585 170.332 180.262C170.904 179.939 171.3 179.507 171.52 178.964ZM167.626 171.33C166.761 171.33 166.079 171.741 165.58 172.562C165.096 173.369 164.854 174.52 164.854 176.016C165.235 176.06 165.624 176.082 166.02 176.082C167.017 176.082 167.831 175.884 168.462 175.488C169.093 175.092 169.408 174.366 169.408 173.31C169.408 172.591 169.239 172.085 168.902 171.792C168.565 171.484 168.139 171.33 167.626 171.33ZM180.218 182.286C179.851 182.286 179.507 182.176 179.184 181.956C179.433 181.281 179.558 180.335 179.558 179.118L179.536 169.636C179.536 168.477 179.492 167.524 179.404 166.776C179.492 166.688 179.639 166.615 179.844 166.556C180.064 166.497 180.284 166.468 180.504 166.468C180.841 166.468 181.054 166.512 181.142 166.6C181.978 167.773 182.851 168.983 183.76 170.23C185.432 172.547 186.708 174.344 187.588 175.62C188.483 176.896 189.143 177.952 189.568 178.788L188.974 168.492C188.945 167.949 189.018 167.502 189.194 167.15C189.37 166.783 189.641 166.571 190.008 166.512C190.375 166.468 190.719 166.534 191.042 166.71C190.969 167.003 190.925 167.37 190.91 167.81C190.895 168.235 190.888 168.617 190.888 168.954V179.184C190.888 179.741 190.895 180.255 190.91 180.724C190.925 181.193 190.954 181.604 190.998 181.956C190.925 182.044 190.778 182.117 190.558 182.176C190.353 182.235 190.14 182.264 189.92 182.264C189.685 182.264 189.495 182.227 189.348 182.154C187.412 179.881 185.74 177.717 184.332 175.664C182.924 173.611 181.795 171.821 180.944 170.296L181.45 180.856C181.479 181.267 181.362 181.611 181.098 181.89C180.849 182.154 180.555 182.286 180.218 182.286ZM202.952 178.964C203.186 179.067 203.304 179.25 203.304 179.514C203.304 179.69 203.252 179.903 203.15 180.152C202.871 180.841 202.372 181.369 201.654 181.736C200.95 182.103 200.099 182.286 199.102 182.286C197.43 182.286 196.11 181.773 195.142 180.746C194.188 179.719 193.712 178.26 193.712 176.368C193.712 174.505 194.181 173.053 195.12 172.012C196.058 170.956 197.4 170.428 199.146 170.428C200.422 170.428 201.456 170.714 202.248 171.286C203.04 171.843 203.436 172.643 203.436 173.684C203.436 174.769 202.996 175.605 202.116 176.192C201.25 176.764 200.07 177.05 198.574 177.05C197.723 177.05 196.968 177.013 196.308 176.94C196.41 178.304 196.755 179.279 197.342 179.866C197.928 180.453 198.728 180.746 199.74 180.746C200.532 180.746 201.206 180.585 201.764 180.262C202.336 179.939 202.732 179.507 202.952 178.964ZM199.058 171.33C198.192 171.33 197.51 171.741 197.012 172.562C196.528 173.369 196.286 174.52 196.286 176.016C196.667 176.06 197.056 176.082 197.452 176.082C198.449 176.082 199.263 175.884 199.894 175.488C200.524 175.092 200.84 174.366 200.84 173.31C200.84 172.591 200.671 172.085 200.334 171.792C199.996 171.484 199.571 171.33 199.058 171.33ZM210.466 182.286C208.764 182.286 207.444 181.78 206.506 180.768C205.582 179.741 205.12 178.275 205.12 176.368C205.12 174.52 205.596 173.068 206.55 172.012C207.503 170.956 208.845 170.428 210.576 170.428C211.822 170.428 212.783 170.692 213.458 171.22C214.147 171.733 214.492 172.401 214.492 173.222C214.492 173.779 214.323 174.227 213.986 174.564C213.663 174.901 213.238 175.07 212.71 175.07C212.46 175.07 212.211 175.033 211.962 174.96C211.727 174.872 211.544 174.747 211.412 174.586C211.852 174.293 212.072 173.772 212.072 173.024C212.072 172.437 211.918 172.012 211.61 171.748C211.302 171.469 210.891 171.33 210.378 171.33C209.556 171.33 208.904 171.741 208.42 172.562C207.936 173.369 207.694 174.513 207.694 175.994C207.694 177.637 208.002 178.839 208.618 179.602C209.234 180.365 210.084 180.746 211.17 180.746C211.947 180.746 212.614 180.555 213.172 180.174C213.729 179.793 214.088 179.272 214.25 178.612C214.484 178.7 214.602 178.913 214.602 179.25C214.602 179.441 214.572 179.646 214.514 179.866C214.279 180.643 213.802 181.245 213.084 181.67C212.38 182.081 211.507 182.286 210.466 182.286ZM220.185 170.736C220.464 170.736 220.845 170.729 221.329 170.714C221.813 170.699 222.194 170.685 222.473 170.67L222.451 171.264C222.436 171.455 222.37 171.609 222.253 171.726C222.15 171.829 222.011 171.88 221.835 171.88H219.767V172.606L219.745 179.228C219.745 180.02 220.09 180.416 220.779 180.416C220.984 180.416 221.175 180.387 221.351 180.328C221.542 180.255 221.666 180.159 221.725 180.042C221.916 180.321 222.011 180.592 222.011 180.856C222.011 181.267 221.806 181.604 221.395 181.868C220.999 182.117 220.486 182.242 219.855 182.242C219.063 182.242 218.447 181.993 218.007 181.494C217.567 180.995 217.347 180.306 217.347 179.426V171.88H217.039C216.848 171.88 216.628 171.887 216.379 171.902C216.13 171.917 215.91 171.939 215.719 171.968L215.741 171.33C215.756 171.139 215.822 170.993 215.939 170.89C216.056 170.787 216.203 170.736 216.379 170.736H217.347V169.064C217.347 168.683 217.479 168.382 217.743 168.162C218.007 167.927 218.344 167.81 218.755 167.81C219.268 167.81 219.723 167.986 220.119 168.338C219.943 168.983 219.833 169.783 219.789 170.736H220.185ZM234.94 180.042C235.116 180.277 235.204 180.548 235.204 180.856C235.204 181.237 235.035 181.56 234.698 181.824C234.361 182.088 233.928 182.22 233.4 182.22C232.681 182.22 232.139 181.978 231.772 181.494C231.405 180.995 231.215 180.196 231.2 179.096C230.76 180.049 230.159 180.812 229.396 181.384C228.633 181.956 227.761 182.242 226.778 182.242C225.927 182.242 225.238 182.015 224.71 181.56C224.197 181.091 223.94 180.46 223.94 179.668C223.94 178.744 224.292 177.981 224.996 177.38C225.7 176.779 226.602 176.324 227.702 176.016C228.802 175.708 229.924 175.569 231.068 175.598V175.048C231.068 173.772 230.892 172.833 230.54 172.232C230.188 171.631 229.601 171.33 228.78 171.33C228.223 171.33 227.768 171.462 227.416 171.726C227.079 171.99 226.91 172.423 226.91 173.024C226.91 173.361 226.976 173.677 227.108 173.97C227.24 174.263 227.46 174.483 227.768 174.63C227.621 174.791 227.423 174.916 227.174 175.004C226.939 175.077 226.69 175.114 226.426 175.114C225.839 175.114 225.363 174.923 224.996 174.542C224.644 174.146 224.468 173.669 224.468 173.112C224.468 172.247 224.864 171.587 225.656 171.132C226.448 170.663 227.541 170.428 228.934 170.428C230.518 170.428 231.677 170.809 232.41 171.572C233.158 172.32 233.532 173.523 233.532 175.18V179.228C233.532 180.005 233.781 180.394 234.28 180.394C234.397 180.394 234.515 180.365 234.632 180.306C234.764 180.247 234.867 180.159 234.94 180.042ZM227.878 180.636C228.362 180.636 228.853 180.445 229.352 180.064C229.865 179.668 230.291 179.147 230.628 178.502C230.965 177.857 231.134 177.167 231.134 176.434C230.621 176.405 230.1 176.434 229.572 176.522C229.044 176.595 228.589 176.72 228.208 176.896C227.695 177.116 227.291 177.417 226.998 177.798C226.719 178.165 226.58 178.597 226.58 179.096C226.58 179.536 226.683 179.903 226.888 180.196C227.108 180.489 227.438 180.636 227.878 180.636ZM242.279 170.428C243.086 170.428 243.738 170.641 244.237 171.066C244.736 171.491 244.985 172.078 244.985 172.826C244.985 173.383 244.824 173.831 244.501 174.168C244.178 174.505 243.775 174.674 243.291 174.674C242.836 174.674 242.506 174.557 242.301 174.322C242.462 174.058 242.572 173.823 242.631 173.618C242.69 173.398 242.719 173.149 242.719 172.87C242.719 172.034 242.352 171.616 241.619 171.616C241.032 171.616 240.556 172.049 240.189 172.914C239.837 173.765 239.661 175.048 239.661 176.764V177.6C239.661 178.905 239.683 179.807 239.727 180.306C239.771 180.79 239.881 181.252 240.057 181.692C239.91 181.824 239.72 181.941 239.485 182.044C239.25 182.147 238.979 182.205 238.671 182.22C238.275 182.22 237.938 182.095 237.659 181.846C237.395 181.597 237.263 181.259 237.263 180.834V173.398C237.263 173.002 237.212 172.716 237.109 172.54C237.021 172.349 236.874 172.254 236.669 172.254C236.39 172.254 236.2 172.357 236.097 172.562C235.906 172.283 235.811 172.005 235.811 171.726C235.811 171.345 235.95 171.037 236.229 170.802C236.508 170.553 236.896 170.428 237.395 170.428C237.996 170.428 238.473 170.633 238.825 171.044C239.177 171.455 239.36 172.063 239.375 172.87C239.888 171.242 240.856 170.428 242.279 170.428ZM34.6842 215.042C34.8602 215.277 34.9482 215.548 34.9482 215.856C34.9482 216.237 34.7795 216.56 34.4422 216.824C34.1048 217.088 33.6722 217.22 33.1442 217.22C32.4255 217.22 31.8828 216.978 31.5162 216.494C31.1495 215.995 30.9588 215.196 30.9442 214.096C30.5042 215.049 29.9028 215.812 29.1402 216.384C28.3775 216.956 27.5048 217.242 26.5222 217.242C25.6715 217.242 24.9822 217.015 24.4542 216.56C23.9408 216.091 23.6842 215.46 23.6842 214.668C23.6842 213.744 24.0362 212.981 24.7402 212.38C25.4442 211.779 26.3462 211.324 27.4462 211.016C28.5462 210.708 29.6682 210.569 30.8122 210.598V210.048C30.8122 208.772 30.6362 207.833 30.2842 207.232C29.9322 206.631 29.3455 206.33 28.5242 206.33C27.9668 206.33 27.5122 206.462 27.1602 206.726C26.8228 206.99 26.6542 207.423 26.6542 208.024C26.6542 208.361 26.7202 208.677 26.8522 208.97C26.9842 209.263 27.2042 209.483 27.5122 209.63C27.3655 209.791 27.1675 209.916 26.9182 210.004C26.6835 210.077 26.4342 210.114 26.1702 210.114C25.5835 210.114 25.1068 209.923 24.7402 209.542C24.3882 209.146 24.2122 208.669 24.2122 208.112C24.2122 207.247 24.6082 206.587 25.4002 206.132C26.1922 205.663 27.2848 205.428 28.6782 205.428C30.2622 205.428 31.4208 205.809 32.1542 206.572C32.9022 207.32 33.2762 208.523 33.2762 210.18V214.228C33.2762 215.005 33.5255 215.394 34.0242 215.394C34.1415 215.394 34.2588 215.365 34.3762 215.306C34.5082 215.247 34.6108 215.159 34.6842 215.042ZM27.6222 215.636C28.1062 215.636 28.5975 215.445 29.0962 215.064C29.6095 214.668 30.0348 214.147 30.3722 213.502C30.7095 212.857 30.8782 212.167 30.8782 211.434C30.3648 211.405 29.8442 211.434 29.3162 211.522C28.7882 211.595 28.3335 211.72 27.9522 211.896C27.4388 212.116 27.0355 212.417 26.7422 212.798C26.4635 213.165 26.3242 213.597 26.3242 214.096C26.3242 214.536 26.4268 214.903 26.6322 215.196C26.8522 215.489 27.1822 215.636 27.6222 215.636ZM46.3792 214.118C46.4086 215.321 46.5406 216.193 46.7752 216.736C46.3792 217.103 45.9172 217.286 45.3892 217.286C44.9786 217.286 44.6412 217.176 44.3772 216.956C44.1132 216.721 43.9812 216.406 43.9812 216.01V210.268C43.9666 209.051 43.8199 208.156 43.5412 207.584C43.2772 206.997 42.7859 206.704 42.0672 206.704C41.5832 206.704 41.1359 206.887 40.7252 207.254C40.3292 207.621 40.0066 208.185 39.7572 208.948C39.5079 209.696 39.3832 210.635 39.3832 211.764C39.3832 213.495 39.4052 214.639 39.4492 215.196C39.4932 215.753 39.6106 216.274 39.8012 216.758C39.6546 216.89 39.4566 217.007 39.2072 217.11C38.9726 217.227 38.7159 217.286 38.4372 217.286C38.0119 217.286 37.6672 217.161 37.4032 216.912C37.1392 216.663 37.0072 216.325 37.0072 215.9V208.398C36.9926 207.987 36.9412 207.694 36.8532 207.518C36.7652 207.342 36.6186 207.254 36.4132 207.254C36.1346 207.254 35.9439 207.357 35.8412 207.562C35.6506 207.283 35.5552 207.005 35.5552 206.726C35.5552 206.345 35.6946 206.037 35.9732 205.802C36.2519 205.553 36.6406 205.428 37.1392 205.428C37.7699 205.428 38.2539 205.648 38.5912 206.088C38.9432 206.513 39.1192 207.151 39.1192 208.002V208.112C39.4126 207.247 39.8746 206.587 40.5052 206.132C41.1506 205.663 41.9279 205.428 42.8372 205.428C44.0399 205.428 44.9272 205.802 45.4992 206.55C46.0859 207.298 46.3792 208.42 46.3792 209.916V214.118ZM59.9104 215.086C60.0864 215.35 60.1744 215.629 60.1744 215.922C60.1744 216.289 60.0131 216.589 59.6904 216.824C59.3824 217.059 58.9864 217.176 58.5024 217.176C57.2118 217.176 56.5078 216.23 56.3904 214.338C55.6864 216.303 54.4251 217.286 52.6064 217.286C51.2424 217.286 50.2598 216.78 49.6584 215.768C49.0571 214.741 48.7564 213.429 48.7564 211.83C48.7564 209.791 49.1598 208.215 49.9664 207.1C50.7731 205.985 51.9244 205.428 53.4204 205.428C54.1244 205.428 54.7184 205.56 55.2024 205.824C55.6864 206.088 56.0384 206.462 56.2584 206.946V205.054C56.2584 203.573 56.1191 202.37 55.8404 201.446C56.2511 201.079 56.7131 200.896 57.2264 200.896C57.6371 200.896 57.9744 201.013 58.2384 201.248C58.5024 201.483 58.6344 201.791 58.6344 202.172L58.6124 214.228C58.6124 214.991 58.8544 215.372 59.3384 215.372C59.6171 215.372 59.8078 215.277 59.9104 215.086ZM53.2884 215.944C54.2124 215.944 54.9311 215.372 55.4444 214.228C55.9578 213.084 56.2144 211.705 56.2144 210.092C56.2144 209.08 56.0531 208.266 55.7304 207.65C55.4078 207.019 54.8138 206.704 53.9484 206.704C52.2031 206.704 51.3304 208.391 51.3304 211.764C51.3304 213.113 51.4698 214.147 51.7484 214.866C52.0271 215.585 52.5404 215.944 53.2884 215.944ZM78.0587 215.482C78.2347 216.025 78.4474 216.435 78.6967 216.714C78.3594 217.081 77.8827 217.264 77.2667 217.264C76.8707 217.264 76.5407 217.183 76.2767 217.022C76.0127 216.861 75.8441 216.626 75.7707 216.318L74.6487 212.358H69.3467L68.4667 215.526C68.3787 215.907 68.3347 216.201 68.3347 216.406C68.3347 216.67 68.3934 216.875 68.5107 217.022C68.0854 217.183 67.6454 217.264 67.1907 217.264C66.7214 217.264 66.3767 217.183 66.1567 217.022C65.9367 216.875 65.8267 216.626 65.8267 216.274C65.8267 215.907 65.9147 215.46 66.0907 214.932L70.5347 201.754C71.1947 201.505 71.8767 201.38 72.5807 201.38C73.3434 201.38 73.7981 201.659 73.9447 202.216L78.0587 215.482ZM74.2527 210.994L71.9427 202.898L69.7207 210.994H74.2527ZM83.5659 205.736C83.8446 205.736 84.2259 205.729 84.7099 205.714C85.1939 205.699 85.5753 205.685 85.8539 205.67L85.8319 206.264C85.8173 206.455 85.7513 206.609 85.6339 206.726C85.5313 206.829 85.3919 206.88 85.2159 206.88H83.1479V207.606L83.1259 214.228C83.1259 215.02 83.4706 215.416 84.1599 215.416C84.3653 215.416 84.5559 215.387 84.7319 215.328C84.9226 215.255 85.0473 215.159 85.1059 215.042C85.2966 215.321 85.3919 215.592 85.3919 215.856C85.3919 216.267 85.1866 216.604 84.7759 216.868C84.3799 217.117 83.8666 217.242 83.2359 217.242C82.4439 217.242 81.8279 216.993 81.3879 216.494C80.9479 215.995 80.7279 215.306 80.7279 214.426V206.88H80.4199C80.2293 206.88 80.0093 206.887 79.7599 206.902C79.5106 206.917 79.2906 206.939 79.0999 206.968L79.1219 206.33C79.1366 206.139 79.2026 205.993 79.3199 205.89C79.4373 205.787 79.5839 205.736 79.7599 205.736H80.7279V204.064C80.7279 203.683 80.8599 203.382 81.1239 203.162C81.3879 202.927 81.7253 202.81 82.1359 202.81C82.6493 202.81 83.1039 202.986 83.4999 203.338C83.3239 203.983 83.2139 204.783 83.1699 205.736H83.5659ZM91.1929 205.736C91.4716 205.736 91.8529 205.729 92.3369 205.714C92.8209 205.699 93.2022 205.685 93.4809 205.67L93.4589 206.264C93.4442 206.455 93.3782 206.609 93.2609 206.726C93.1582 206.829 93.0189 206.88 92.8429 206.88H90.7749V207.606L90.7529 214.228C90.7529 215.02 91.0976 215.416 91.7869 215.416C91.9922 215.416 92.1829 215.387 92.3589 215.328C92.5496 215.255 92.6742 215.159 92.7329 215.042C92.9236 215.321 93.0189 215.592 93.0189 215.856C93.0189 216.267 92.8136 216.604 92.4029 216.868C92.0069 217.117 91.4936 217.242 90.8629 217.242C90.0709 217.242 89.4549 216.993 89.0149 216.494C88.5749 215.995 88.3549 215.306 88.3549 214.426V206.88H88.0469C87.8562 206.88 87.6362 206.887 87.3869 206.902C87.1376 206.917 86.9176 206.939 86.7269 206.968L86.7489 206.33C86.7636 206.139 86.8296 205.993 86.9469 205.89C87.0642 205.787 87.2109 205.736 87.3869 205.736H88.3549V204.064C88.3549 203.683 88.4869 203.382 88.7509 203.162C89.0149 202.927 89.3522 202.81 89.7629 202.81C90.2762 202.81 90.7309 202.986 91.1269 203.338C90.9509 203.983 90.8409 204.783 90.7969 205.736H91.1929ZM100.998 205.428C101.805 205.428 102.457 205.641 102.956 206.066C103.455 206.491 103.704 207.078 103.704 207.826C103.704 208.383 103.543 208.831 103.22 209.168C102.897 209.505 102.494 209.674 102.01 209.674C101.555 209.674 101.225 209.557 101.02 209.322C101.181 209.058 101.291 208.823 101.35 208.618C101.409 208.398 101.438 208.149 101.438 207.87C101.438 207.034 101.071 206.616 100.338 206.616C99.7512 206.616 99.2745 207.049 98.9078 207.914C98.5558 208.765 98.3798 210.048 98.3798 211.764V212.6C98.3798 213.905 98.4018 214.807 98.4458 215.306C98.4898 215.79 98.5998 216.252 98.7758 216.692C98.6292 216.824 98.4385 216.941 98.2038 217.044C97.9692 217.147 97.6978 217.205 97.3898 217.22C96.9938 217.22 96.6565 217.095 96.3778 216.846C96.1138 216.597 95.9818 216.259 95.9818 215.834V208.398C95.9818 208.002 95.9305 207.716 95.8278 207.54C95.7398 207.349 95.5932 207.254 95.3878 207.254C95.1092 207.254 94.9185 207.357 94.8158 207.562C94.6252 207.283 94.5298 207.005 94.5298 206.726C94.5298 206.345 94.6692 206.037 94.9478 205.802C95.2265 205.553 95.6152 205.428 96.1138 205.428C96.7152 205.428 97.1918 205.633 97.5438 206.044C97.8958 206.455 98.0792 207.063 98.0938 207.87C98.6072 206.242 99.5752 205.428 100.998 205.428ZM116.003 215.042C116.179 215.277 116.267 215.548 116.267 215.856C116.267 216.237 116.098 216.56 115.761 216.824C115.423 217.088 114.991 217.22 114.463 217.22C113.744 217.22 113.201 216.978 112.835 216.494C112.468 215.995 112.277 215.196 112.263 214.096C111.823 215.049 111.221 215.812 110.459 216.384C109.696 216.956 108.823 217.242 107.841 217.242C106.99 217.242 106.301 217.015 105.773 216.56C105.259 216.091 105.003 215.46 105.003 214.668C105.003 213.744 105.355 212.981 106.059 212.38C106.763 211.779 107.665 211.324 108.765 211.016C109.865 210.708 110.987 210.569 112.131 210.598V210.048C112.131 208.772 111.955 207.833 111.603 207.232C111.251 206.631 110.664 206.33 109.843 206.33C109.285 206.33 108.831 206.462 108.479 206.726C108.141 206.99 107.973 207.423 107.973 208.024C107.973 208.361 108.039 208.677 108.171 208.97C108.303 209.263 108.523 209.483 108.831 209.63C108.684 209.791 108.486 209.916 108.237 210.004C108.002 210.077 107.753 210.114 107.489 210.114C106.902 210.114 106.425 209.923 106.059 209.542C105.707 209.146 105.531 208.669 105.531 208.112C105.531 207.247 105.927 206.587 106.719 206.132C107.511 205.663 108.603 205.428 109.997 205.428C111.581 205.428 112.739 205.809 113.473 206.572C114.221 207.32 114.595 208.523 114.595 210.18V214.228C114.595 215.005 114.844 215.394 115.343 215.394C115.46 215.394 115.577 215.365 115.695 215.306C115.827 215.247 115.929 215.159 116.003 215.042ZM108.941 215.636C109.425 215.636 109.916 215.445 110.415 215.064C110.928 214.668 111.353 214.147 111.691 213.502C112.028 212.857 112.197 212.167 112.197 211.434C111.683 211.405 111.163 211.434 110.635 211.522C110.107 211.595 109.652 211.72 109.271 211.896C108.757 212.116 108.354 212.417 108.061 212.798C107.782 213.165 107.643 213.597 107.643 214.096C107.643 214.536 107.745 214.903 107.951 215.196C108.171 215.489 108.501 215.636 108.941 215.636ZM122.638 217.286C120.936 217.286 119.616 216.78 118.678 215.768C117.754 214.741 117.292 213.275 117.292 211.368C117.292 209.52 117.768 208.068 118.722 207.012C119.675 205.956 121.017 205.428 122.748 205.428C123.994 205.428 124.955 205.692 125.63 206.22C126.319 206.733 126.664 207.401 126.664 208.222C126.664 208.779 126.495 209.227 126.158 209.564C125.835 209.901 125.41 210.07 124.882 210.07C124.632 210.07 124.383 210.033 124.134 209.96C123.899 209.872 123.716 209.747 123.584 209.586C124.024 209.293 124.244 208.772 124.244 208.024C124.244 207.437 124.09 207.012 123.782 206.748C123.474 206.469 123.063 206.33 122.55 206.33C121.728 206.33 121.076 206.741 120.592 207.562C120.108 208.369 119.866 209.513 119.866 210.994C119.866 212.637 120.174 213.839 120.79 214.602C121.406 215.365 122.256 215.746 123.342 215.746C124.119 215.746 124.786 215.555 125.344 215.174C125.901 214.793 126.26 214.272 126.422 213.612C126.656 213.7 126.774 213.913 126.774 214.25C126.774 214.441 126.744 214.646 126.686 214.866C126.451 215.643 125.974 216.245 125.256 216.67C124.552 217.081 123.679 217.286 122.638 217.286ZM132.357 205.736C132.636 205.736 133.017 205.729 133.501 205.714C133.985 205.699 134.366 205.685 134.645 205.67L134.623 206.264C134.608 206.455 134.542 206.609 134.425 206.726C134.322 206.829 134.183 206.88 134.007 206.88H131.939V207.606L131.917 214.228C131.917 215.02 132.262 215.416 132.951 215.416C133.156 215.416 133.347 215.387 133.523 215.328C133.714 215.255 133.838 215.159 133.897 215.042C134.088 215.321 134.183 215.592 134.183 215.856C134.183 216.267 133.978 216.604 133.567 216.868C133.171 217.117 132.658 217.242 132.027 217.242C131.235 217.242 130.619 216.993 130.179 216.494C129.739 215.995 129.519 215.306 129.519 214.426V206.88H129.211C129.02 206.88 128.8 206.887 128.551 206.902C128.302 206.917 128.082 206.939 127.891 206.968L127.913 206.33C127.928 206.139 127.994 205.993 128.111 205.89C128.228 205.787 128.375 205.736 128.551 205.736H129.519V204.064C129.519 203.683 129.651 203.382 129.915 203.162C130.179 202.927 130.516 202.81 130.927 202.81C131.44 202.81 131.895 202.986 132.291 203.338C132.115 203.983 132.005 204.783 131.961 205.736H132.357ZM147.24 217.286C145.245 217.286 143.735 216.626 142.708 215.306C141.681 213.971 141.168 211.984 141.168 209.344C141.168 206.704 141.681 204.724 142.708 203.404C143.735 202.069 145.245 201.402 147.24 201.402C149.235 201.402 150.745 202.069 151.772 203.404C152.813 204.724 153.334 206.704 153.334 209.344C153.334 211.984 152.813 213.971 151.772 215.306C150.745 216.626 149.235 217.286 147.24 217.286ZM147.24 216.362C148.399 216.362 149.257 215.805 149.814 214.69C150.371 213.561 150.65 211.779 150.65 209.344C150.65 206.924 150.371 205.149 149.814 204.02C149.257 202.891 148.399 202.326 147.24 202.326C146.096 202.326 145.245 202.891 144.688 204.02C144.131 205.149 143.852 206.924 143.852 209.344C143.852 211.764 144.131 213.539 144.688 214.668C145.245 215.797 146.096 216.362 147.24 216.362ZM166.472 215.152C166.648 215.401 166.736 215.673 166.736 215.966C166.736 216.362 166.597 216.677 166.318 216.912C166.054 217.147 165.673 217.264 165.174 217.264C164.529 217.264 164.03 217.051 163.678 216.626C163.341 216.201 163.172 215.563 163.172 214.712V214.668C162.864 215.519 162.402 216.171 161.786 216.626C161.185 217.081 160.437 217.308 159.542 217.308C158.339 217.308 157.459 216.963 156.902 216.274C156.359 215.585 156.088 214.426 156.088 212.798L156.066 208.596C156.066 207.467 155.949 206.587 155.714 205.956C156.125 205.604 156.587 205.428 157.1 205.428C157.511 205.428 157.841 205.545 158.09 205.78C158.354 206 158.486 206.308 158.486 206.704V212.446C158.486 213.766 158.618 214.712 158.882 215.284C159.146 215.841 159.623 216.12 160.312 216.12C160.781 216.12 161.214 215.937 161.61 215.57C162.006 215.189 162.321 214.609 162.556 213.832C162.805 213.055 162.93 212.094 162.93 210.95C162.93 209.219 162.908 208.075 162.864 207.518C162.82 206.946 162.703 206.418 162.512 205.934C162.937 205.597 163.399 205.428 163.898 205.428C164.294 205.428 164.624 205.553 164.888 205.802C165.152 206.051 165.284 206.389 165.284 206.814L165.306 214.316C165.306 214.727 165.35 215.02 165.438 215.196C165.541 215.357 165.695 215.438 165.9 215.438C166.164 215.438 166.355 215.343 166.472 215.152ZM174.066 205.428C174.873 205.428 175.526 205.641 176.024 206.066C176.523 206.491 176.772 207.078 176.772 207.826C176.772 208.383 176.611 208.831 176.288 209.168C175.966 209.505 175.562 209.674 175.078 209.674C174.624 209.674 174.294 209.557 174.088 209.322C174.25 209.058 174.36 208.823 174.418 208.618C174.477 208.398 174.506 208.149 174.506 207.87C174.506 207.034 174.14 206.616 173.406 206.616C172.82 206.616 172.343 207.049 171.976 207.914C171.624 208.765 171.448 210.048 171.448 211.764V212.6C171.448 213.905 171.47 214.807 171.514 215.306C171.558 215.79 171.668 216.252 171.844 216.692C171.698 216.824 171.507 216.941 171.272 217.044C171.038 217.147 170.766 217.205 170.458 217.22C170.062 217.22 169.725 217.095 169.446 216.846C169.182 216.597 169.05 216.259 169.05 215.834V208.398C169.05 208.002 168.999 207.716 168.896 207.54C168.808 207.349 168.662 207.254 168.456 207.254C168.178 207.254 167.987 207.357 167.884 207.562C167.694 207.283 167.598 207.005 167.598 206.726C167.598 206.345 167.738 206.037 168.016 205.802C168.295 205.553 168.684 205.428 169.182 205.428C169.784 205.428 170.26 205.633 170.612 206.044C170.964 206.455 171.148 207.063 171.162 207.87C171.676 206.242 172.644 205.428 174.066 205.428ZM190.343 208.816C191.443 208.977 192.308 209.395 192.939 210.07C193.57 210.73 193.885 211.617 193.885 212.732C193.885 214.199 193.35 215.277 192.279 215.966C191.223 216.655 189.676 217 187.637 217H185.349C184.924 217 184.579 216.89 184.315 216.67C184.066 216.435 183.941 216.12 183.941 215.724V204.592C183.941 204.196 183.912 203.756 183.853 203.272C183.794 202.773 183.699 202.341 183.567 201.974C184.374 201.593 185.591 201.402 187.219 201.402C189.155 201.402 190.622 201.703 191.619 202.304C192.616 202.891 193.115 203.829 193.115 205.12C193.115 206.029 192.873 206.814 192.389 207.474C191.905 208.119 191.223 208.567 190.343 208.816ZM187.197 202.326C186.786 202.326 186.515 202.333 186.383 202.348V208.464H187.791C188.671 208.479 189.346 208.207 189.815 207.65C190.299 207.078 190.541 206.293 190.541 205.296C190.541 204.313 190.277 203.573 189.749 203.074C189.236 202.575 188.385 202.326 187.197 202.326ZM187.615 216.054C190.02 216.054 191.223 214.961 191.223 212.776C191.223 211.5 190.915 210.62 190.299 210.136C189.683 209.637 188.796 209.388 187.637 209.388H186.383V216.054H187.615ZM205.057 213.964C205.292 214.067 205.409 214.25 205.409 214.514C205.409 214.69 205.358 214.903 205.255 215.152C204.976 215.841 204.478 216.369 203.759 216.736C203.055 217.103 202.204 217.286 201.207 217.286C199.535 217.286 198.215 216.773 197.247 215.746C196.294 214.719 195.817 213.26 195.817 211.368C195.817 209.505 196.286 208.053 197.225 207.012C198.164 205.956 199.506 205.428 201.251 205.428C202.527 205.428 203.561 205.714 204.353 206.286C205.145 206.843 205.541 207.643 205.541 208.684C205.541 209.769 205.101 210.605 204.221 211.192C203.356 211.764 202.175 212.05 200.679 212.05C199.828 212.05 199.073 212.013 198.413 211.94C198.516 213.304 198.86 214.279 199.447 214.866C200.034 215.453 200.833 215.746 201.845 215.746C202.637 215.746 203.312 215.585 203.869 215.262C204.441 214.939 204.837 214.507 205.057 213.964ZM201.163 206.33C200.298 206.33 199.616 206.741 199.117 207.562C198.633 208.369 198.391 209.52 198.391 211.016C198.772 211.06 199.161 211.082 199.557 211.082C200.554 211.082 201.368 210.884 201.999 210.488C202.63 210.092 202.945 209.366 202.945 208.31C202.945 207.591 202.776 207.085 202.439 206.792C202.102 206.484 201.676 206.33 201.163 206.33ZM216.465 213.964C216.7 214.067 216.817 214.25 216.817 214.514C216.817 214.69 216.766 214.903 216.663 215.152C216.385 215.841 215.886 216.369 215.167 216.736C214.463 217.103 213.613 217.286 212.615 217.286C210.943 217.286 209.623 216.773 208.655 215.746C207.702 214.719 207.225 213.26 207.225 211.368C207.225 209.505 207.695 208.053 208.633 207.012C209.572 205.956 210.914 205.428 212.659 205.428C213.935 205.428 214.969 205.714 215.761 206.286C216.553 206.843 216.949 207.643 216.949 208.684C216.949 209.769 216.509 210.605 215.629 211.192C214.764 211.764 213.583 212.05 212.087 212.05C211.237 212.05 210.481 212.013 209.821 211.94C209.924 213.304 210.269 214.279 210.855 214.866C211.442 215.453 212.241 215.746 213.253 215.746C214.045 215.746 214.72 215.585 215.277 215.262C215.849 214.939 216.245 214.507 216.465 213.964ZM212.571 206.33C211.706 206.33 211.024 206.741 210.525 207.562C210.041 208.369 209.799 209.52 209.799 211.016C210.181 211.06 210.569 211.082 210.965 211.082C211.963 211.082 212.777 210.884 213.407 210.488C214.038 210.092 214.353 209.366 214.353 208.31C214.353 207.591 214.185 207.085 213.847 206.792C213.51 206.484 213.085 206.33 212.571 206.33ZM222.681 217.286C221.303 217.286 220.261 217.051 219.557 216.582C218.853 216.113 218.501 215.482 218.501 214.69C218.501 214.294 218.611 213.957 218.831 213.678C219.066 213.399 219.425 213.26 219.909 213.26C219.997 213.26 220.144 213.275 220.349 213.304C220.305 213.48 220.283 213.641 220.283 213.788C220.283 213.964 220.305 214.155 220.349 214.36C220.423 214.947 220.679 215.423 221.119 215.79C221.574 216.157 222.19 216.34 222.967 216.34C223.657 216.34 224.214 216.215 224.639 215.966C225.065 215.702 225.277 215.321 225.277 214.822C225.277 214.485 225.175 214.191 224.969 213.942C224.779 213.678 224.537 213.458 224.243 213.282C223.95 213.106 223.532 212.886 222.989 212.622C222.872 212.578 222.696 212.497 222.461 212.38C221.669 212.013 221.039 211.691 220.569 211.412C220.115 211.119 219.719 210.73 219.381 210.246C219.059 209.762 218.897 209.168 218.897 208.464C218.897 207.437 219.293 206.675 220.085 206.176C220.877 205.663 221.882 205.406 223.099 205.406C224.317 205.406 225.277 205.597 225.981 205.978C226.685 206.345 227.037 206.88 227.037 207.584C227.037 207.907 226.942 208.185 226.751 208.42C226.575 208.64 226.289 208.757 225.893 208.772C225.82 208.787 225.725 208.794 225.607 208.794C225.534 208.794 225.395 208.779 225.189 208.75C225.204 208.662 225.211 208.53 225.211 208.354C225.211 208.031 225.167 207.789 225.079 207.628C224.991 207.217 224.764 206.902 224.397 206.682C224.045 206.447 223.583 206.33 223.011 206.33C222.469 206.33 222.007 206.44 221.625 206.66C221.259 206.88 221.075 207.217 221.075 207.672C221.075 208.083 221.193 208.435 221.427 208.728C221.677 209.021 221.977 209.271 222.329 209.476C222.681 209.681 223.18 209.938 223.825 210.246C224.72 210.671 225.387 211.016 225.827 211.28C226.267 211.529 226.663 211.874 227.015 212.314C227.367 212.754 227.543 213.289 227.543 213.92C227.543 214.859 227.147 215.658 226.355 216.318C225.578 216.963 224.353 217.286 222.681 217.286Z" fill="white"/>
<rect x="70.5" y="16.5" width="109" height="109" rx="9.5" fill="#201A18" stroke="#FCC41A"/>
<g clip-path="url(#clip0_1_4252)">
<path d="M151.035 70.2273L145.337 66.9056L149.317 61.6388C149.412 61.5143 149.473 61.3664 149.493 61.2104C149.513 61.0543 149.491 60.8957 149.431 60.7507C149.371 60.6085 149.276 60.4846 149.155 60.3911C149.033 60.2976 148.89 60.2379 148.739 60.2178L142.304 59.374L143.987 53.0148C144.028 52.8635 144.029 52.7037 143.99 52.5519C143.95 52.4001 143.872 52.2616 143.762 52.1505C143.652 52.0395 143.516 51.9599 143.366 51.9198C143.216 51.8797 143.058 51.8806 142.909 51.9224L136.571 53.6454L135.694 47.0642C135.674 46.9098 135.614 46.7637 135.52 46.6404C135.426 46.517 135.302 46.4208 135.16 46.3615C135.018 46.3021 134.863 46.2816 134.71 46.302C134.558 46.3225 134.414 46.3832 134.292 46.478L129.181 50.4925L125.938 44.7994C125.861 44.6627 125.75 44.549 125.616 44.4699C125.482 44.3908 125.33 44.3491 125.175 44.3491C125.02 44.3491 124.868 44.3908 124.734 44.4699C124.6 44.549 124.489 44.6627 124.412 44.7994L121.134 50.5724L115.935 46.5224C115.812 46.4262 115.666 46.3648 115.512 46.3445C115.358 46.3242 115.202 46.3458 115.059 46.4069C114.918 46.4674 114.796 46.564 114.704 46.687C114.612 46.8101 114.553 46.9554 114.533 47.1086L113.7 53.6277L107.423 51.9224C107.274 51.8806 107.116 51.8797 106.966 51.9198C106.816 51.9599 106.68 52.0395 106.57 52.1505C106.461 52.2616 106.382 52.4001 106.342 52.5519C106.303 52.7037 106.304 52.8635 106.345 53.0148L108.046 59.454L101.55 60.3421C101.398 60.3629 101.253 60.4238 101.132 60.5189C101.01 60.6139 100.915 60.7397 100.856 60.8837C100.798 61.0276 100.777 61.1847 100.798 61.339C100.818 61.4934 100.878 61.6397 100.971 61.7632L104.934 66.9678L99.3145 70.2273C99.1796 70.3048 99.0674 70.4171 98.9893 70.5529C98.9113 70.6886 98.8701 70.8429 98.8701 71C98.8701 71.1571 98.9113 71.3114 98.9893 71.4472C99.0674 71.5829 99.1796 71.6953 99.3145 71.7727L105.013 75.0944L101.015 80.3612C100.92 80.4858 100.86 80.6336 100.84 80.7897C100.82 80.9457 100.841 81.1044 100.901 81.2494C100.961 81.3916 101.056 81.5155 101.178 81.609C101.299 81.7024 101.443 81.7622 101.594 81.7823L108.028 82.6704L106.345 88.9852C106.3 89.1403 106.297 89.3049 106.337 89.4614C106.377 89.618 106.459 89.7604 106.573 89.8734C106.655 89.9557 106.752 90.0208 106.859 90.065C106.966 90.1092 107.08 90.1316 107.195 90.131C107.271 90.1397 107.348 90.1397 107.423 90.131L113.779 88.3546L114.655 94.9803C114.675 95.136 114.734 95.2838 114.828 95.4087C114.922 95.5335 115.047 95.6308 115.19 95.6908C115.334 95.7508 115.491 95.7708 115.645 95.749C115.799 95.7271 115.945 95.6641 116.067 95.5665L121.204 91.552L124.447 97.2451C124.524 97.3818 124.635 97.4955 124.769 97.5746C124.903 97.6537 125.055 97.6954 125.21 97.6954C125.365 97.6954 125.517 97.6537 125.651 97.5746C125.785 97.4955 125.896 97.3818 125.973 97.2451L129.216 91.4277L134.415 95.4599C134.568 95.5802 134.756 95.6458 134.949 95.6464C135.067 95.6442 135.182 95.6201 135.291 95.5754C135.431 95.5149 135.554 95.4183 135.646 95.2953C135.738 95.1722 135.797 95.0269 135.817 94.8737L136.694 88.3546L142.97 90.0599C143.046 90.0686 143.123 90.0686 143.198 90.0599C143.314 90.0606 143.428 90.0382 143.535 89.994C143.642 89.9498 143.739 89.8847 143.821 89.8023C143.935 89.6893 144.016 89.5469 144.057 89.3904C144.097 89.2339 144.094 89.0692 144.049 88.9142L142.304 82.5461L148.844 81.6579C148.996 81.6372 149.14 81.5762 149.262 81.4812C149.384 81.3861 149.479 81.2603 149.537 81.1164C149.596 80.9724 149.616 80.8154 149.596 80.661C149.576 80.5067 149.516 80.3604 149.422 80.2369L145.46 75.0323L151.079 71.7461C151.214 71.6686 151.326 71.5563 151.404 71.4205C151.482 71.2848 151.524 71.1305 151.524 70.9734C151.524 70.8163 151.482 70.662 151.404 70.5262C151.326 70.3905 151.214 70.2782 151.079 70.2007L151.035 70.2273ZM143.873 65.9464C143.812 66.0263 143.751 66.0796 143.698 66.1596C142.551 65.7511 141.331 65.5984 140.121 65.7118C138.91 65.8253 137.738 66.2022 136.685 66.8168C136.545 66.4349 136.396 66.053 136.22 65.6888C137.4 65.3665 138.496 64.7891 139.435 63.9964C140.373 63.2038 141.13 62.2147 141.655 61.0971H141.848L146.985 61.7721L143.873 65.9464ZM125.175 81.6579C123.094 81.6579 121.061 81.0329 119.331 79.8617C117.601 78.6906 116.252 77.0261 115.456 75.0786C114.66 73.1312 114.452 70.9882 114.858 68.9208C115.263 66.8534 116.265 64.9543 117.737 63.4638C119.208 61.9732 121.082 60.9582 123.123 60.5469C125.163 60.1357 127.278 60.3468 129.201 61.1534C131.123 61.9601 132.766 63.3261 133.922 65.0788C135.077 66.8315 135.694 68.8921 135.694 71C135.694 73.8267 134.586 76.5376 132.613 78.5363C130.641 80.535 127.965 81.6579 125.175 81.6579ZM141.91 54.0451L140.577 59.0987C140.507 59.3474 140.428 59.5961 140.332 59.8448C139.948 60.8529 139.332 61.754 138.537 62.4737C137.741 63.1933 136.788 63.7109 135.756 63.9836L135.37 64.0902C134.475 62.7392 133.328 61.5778 131.995 60.6708L132.091 60.28C132.365 59.2409 132.875 58.2815 133.582 57.4793C134.288 56.677 135.171 56.0543 136.159 55.6615C136.402 55.5517 136.654 55.4655 136.913 55.404L141.91 54.0451ZM134.187 48.7961L134.87 53.9829C134.87 54.0806 134.87 54.1783 134.87 54.276C133.787 54.8185 132.83 55.5898 132.065 56.5381C131.3 57.4864 130.744 58.5897 130.435 59.7737C130.075 59.5961 129.698 59.4451 129.321 59.303C129.925 58.2345 130.294 57.0465 130.403 55.8202C130.512 54.5939 130.358 53.3583 129.953 52.1977L130.102 52.0645L134.187 48.7961ZM125.175 47.0198L127.805 51.5671C127.932 51.7868 128.043 52.0154 128.138 52.251C128.576 53.239 128.775 54.319 128.717 55.4006C128.659 56.4822 128.346 57.534 127.805 58.4681L127.612 58.8145C126.032 58.4948 124.405 58.4948 122.826 58.8145L122.633 58.4681C122.099 57.5415 121.788 56.5001 121.728 55.4288C121.667 54.3576 121.857 53.2869 122.282 52.3043C122.378 52.0516 122.495 51.8079 122.633 51.576L125.175 47.0198ZM116.076 48.8671L120.187 52.0556C120.266 52.1178 120.318 52.18 120.397 52.2333C119.994 53.3951 119.843 54.6314 119.955 55.8577C120.067 57.084 120.439 58.2713 121.046 59.3385C120.669 59.4806 120.292 59.6316 119.933 59.8092C119.615 58.6143 119.045 57.5033 118.262 56.5527C117.48 55.6022 116.504 54.8345 115.401 54.3027C115.396 54.2376 115.396 54.1723 115.401 54.1073L116.076 48.8671ZM113.446 55.3951C113.691 55.4661 113.937 55.5461 114.182 55.6438C115.177 56.0329 116.067 56.6563 116.777 57.4624C117.487 58.2685 117.998 59.2343 118.267 60.28L118.372 60.6708C117.039 61.5778 115.893 62.7392 114.997 64.0902L114.612 63.9925C113.586 63.7158 112.639 63.1986 111.847 62.4827C111.055 61.7669 110.441 60.8723 110.053 59.8714C109.945 59.6255 109.86 59.3698 109.799 59.1076L108.458 54.0451L113.446 55.3951ZM108.423 61.177H108.712C109.243 62.2704 109.997 63.2367 110.925 64.0116C111.853 64.7864 112.934 65.3522 114.094 65.6711C113.919 66.0352 113.77 66.4171 113.63 66.799C112.575 66.1873 111.403 65.8135 110.192 65.7031C108.982 65.5928 107.762 65.7485 106.617 66.1596L106.485 66.0086L103.259 61.8698L108.423 61.177ZM105.994 68.38C106.211 68.2514 106.437 68.1387 106.669 68.0425C107.645 67.5984 108.71 67.3973 109.778 67.456C110.846 67.5148 111.884 67.8316 112.806 68.38L113.148 68.5754C112.832 70.176 112.832 71.8241 113.148 73.4247L112.806 73.6201C111.891 74.1612 110.863 74.4755 109.806 74.5372C108.749 74.5989 107.692 74.4064 106.722 73.9754C106.473 73.8786 106.232 73.7597 106.003 73.6201L101.506 71L105.994 68.38ZM106.477 76.0536C106.53 75.9815 106.589 75.9133 106.652 75.8494C107.798 76.2612 109.02 76.415 110.231 76.2999C111.442 76.1849 112.614 75.8038 113.665 75.1833C113.805 75.5652 113.954 75.9471 114.129 76.3112C112.95 76.6336 111.853 77.211 110.915 78.0036C109.977 78.7963 109.219 79.7854 108.694 80.903H108.502L103.365 80.228L106.477 76.0536ZM108.44 87.955L109.773 82.9014C109.843 82.6527 109.922 82.404 110.018 82.1553C110.402 81.1472 111.017 80.246 111.813 79.5264C112.609 78.8067 113.562 78.2892 114.594 78.0165L114.98 77.9099C115.875 79.2609 117.021 80.4223 118.355 81.3293L118.258 81.7201C117.985 82.7591 117.475 83.7185 116.768 84.5208C116.062 85.3231 115.179 85.9457 114.191 86.3385C113.948 86.4484 113.696 86.5346 113.437 86.5961L108.44 87.955ZM116.163 93.204L115.479 88.0171C115.479 87.9194 115.479 87.8217 115.479 87.724C116.563 87.1816 117.52 86.4102 118.285 85.4619C119.05 84.5137 119.606 83.4104 119.915 82.2263C120.275 82.404 120.652 82.555 121.028 82.6971C120.425 83.7656 120.056 84.9536 119.947 86.1798C119.838 87.4061 119.992 88.6418 120.397 89.8023L120.248 89.9356L116.163 93.204ZM125.175 94.9803L122.589 90.4329C122.462 90.2132 122.351 89.9847 122.256 89.749C121.817 88.7611 121.619 87.6811 121.677 86.5995C121.735 85.5179 122.048 84.4661 122.589 83.5319L122.782 83.1856C124.362 83.5052 125.988 83.5052 127.568 83.1856L127.761 83.5319C128.295 84.4585 128.605 85.5 128.666 86.5712C128.727 87.6425 128.537 88.7131 128.112 89.6958C128.016 89.9485 127.899 90.1922 127.761 90.424L125.175 94.9803ZM134.94 87.9283L134.274 93.1329L130.163 89.9444C130.084 89.8823 130.031 89.8201 129.953 89.7668C130.356 88.605 130.506 87.3687 130.394 86.1424C130.282 84.9161 129.91 83.7287 129.304 82.6615C129.681 82.5194 130.058 82.3685 130.417 82.1908C130.735 83.3858 131.305 84.4968 132.088 85.4473C132.87 86.3979 133.846 87.1655 134.949 87.6974C134.952 87.7745 134.95 87.8517 134.94 87.9283ZM136.922 86.605C136.676 86.5339 136.431 86.454 136.185 86.3563C135.19 85.9672 134.301 85.3438 133.591 84.5377C132.88 83.7315 132.369 82.7658 132.1 81.7201L131.995 81.3293C133.328 80.4223 134.475 79.2609 135.37 77.9099L135.756 78.0076C136.781 78.2843 137.728 78.8014 138.52 79.5173C139.312 80.2332 139.927 81.1277 140.314 82.1287C140.423 82.3745 140.508 82.6303 140.568 82.8925L141.91 87.955L136.922 86.605ZM141.945 80.8231H141.655C141.123 79.7278 140.366 78.7603 139.434 77.9853C138.503 77.2103 137.419 76.6456 136.255 76.329C136.431 75.9648 136.58 75.5829 136.72 75.201C138.01 75.9446 139.47 76.3334 140.954 76.329C141.917 76.3282 142.872 76.1569 143.777 75.8227L143.908 75.9737L147.09 80.1303L141.945 80.8231ZM144.355 73.6645C144.139 73.793 143.913 73.9058 143.68 74.002C142.705 74.4461 141.639 74.6471 140.572 74.5884C139.504 74.5297 138.466 74.2129 137.544 73.6645L137.202 73.4691C137.518 71.8685 137.518 70.2204 137.202 68.6198L137.544 68.4244C138.459 67.8833 139.487 67.569 140.544 67.5073C141.601 67.4455 142.658 67.6381 143.628 68.0691C143.877 68.1659 144.118 68.2848 144.347 68.4244L148.844 71L144.355 73.6645Z" fill="#FCC41A"/>
<path d="M125.175 62.1184C123.442 62.1184 121.747 62.6393 120.305 63.6152C118.864 64.5911 117.74 65.9783 117.076 67.6012C116.413 69.2241 116.239 71.0098 116.578 72.7327C116.916 74.4556 117.751 76.0381 118.977 77.2802C120.203 78.5223 121.765 79.3682 123.465 79.7109C125.166 80.0536 126.928 79.8777 128.53 79.2055C130.132 78.5333 131.501 77.3949 132.464 75.9343C133.428 74.4738 133.942 72.7566 133.942 71C133.942 69.8336 133.715 68.6787 133.274 67.6012C132.834 66.5236 132.188 65.5445 131.374 64.7198C130.56 63.895 129.594 63.2408 128.53 62.7945C127.467 62.3481 126.327 62.1184 125.175 62.1184ZM125.175 78.1053C123.788 78.1053 122.432 77.6885 121.279 76.9078C120.126 76.1271 119.227 75.0174 118.696 73.7191C118.165 72.4207 118.027 70.9921 118.297 69.6138C118.568 68.2355 119.236 66.9695 120.216 65.9758C121.197 64.9821 122.447 64.3054 123.807 64.0312C125.168 63.7571 126.578 63.8978 127.859 64.4356C129.141 64.9734 130.236 65.8841 131.007 67.0525C131.777 68.221 132.188 69.5947 132.188 71C132.188 72.8844 131.45 74.6917 130.134 76.0242C128.819 77.3567 127.035 78.1053 125.175 78.1053Z" fill="#FCC41A"/>
<path d="M125.176 65.6711C124.135 65.6711 123.119 65.9837 122.254 66.5692C121.389 67.1548 120.714 67.9871 120.316 68.9608C119.918 69.9345 119.814 71.006 120.017 72.0397C120.22 73.0734 120.721 74.023 121.457 74.7682C122.192 75.5135 123.129 76.021 124.15 76.2266C125.17 76.4323 126.227 76.3267 127.189 75.9234C128.15 75.5201 128.971 74.837 129.549 73.9607C130.127 73.0844 130.435 72.0541 130.435 71.0001C130.435 69.5868 129.881 68.2313 128.895 67.232C127.909 66.2326 126.571 65.6711 125.176 65.6711ZM125.176 74.5527C124.482 74.5527 123.804 74.3444 123.228 73.954C122.651 73.5636 122.202 73.0088 121.936 72.3596C121.671 71.7105 121.601 70.9961 121.737 70.307C121.872 69.6179 122.206 68.9848 122.696 68.488C123.187 67.9912 123.811 67.6528 124.492 67.5157C125.172 67.3786 125.877 67.449 126.518 67.7179C127.158 67.9868 127.706 68.4421 128.091 69.0264C128.477 69.6106 128.682 70.2974 128.682 71.0001C128.682 71.9423 128.313 72.8459 127.655 73.5122C126.998 74.1784 126.106 74.5527 125.176 74.5527Z" fill="#FCC41A"/>
</g>
<circle cx="178" cy="20" r="19.5" fill="#29211E" stroke="#FCC41A"/>
<path d="M174.002 25.234C172.49 25.234 171.338 24.694 170.546 23.614C169.766 22.522 169.376 20.896 169.376 18.736C169.376 16.576 169.766 14.956 170.546 13.876C171.338 12.784 172.49 12.238 174.002 12.238C175.514 12.238 176.66 12.784 177.44 13.876C178.22 14.956 178.61 16.576 178.61 18.736C178.61 20.896 178.22 22.522 177.44 23.614C176.66 24.694 175.514 25.234 174.002 25.234ZM174.002 24.478C174.818 24.478 175.424 24.022 175.82 23.11C176.216 22.186 176.414 20.728 176.414 18.736C176.414 16.756 176.216 15.304 175.82 14.38C175.424 13.456 174.818 12.994 174.002 12.994C173.186 12.994 172.58 13.456 172.184 14.38C171.788 15.304 171.59 16.756 171.59 18.736C171.59 20.728 171.788 22.186 172.184 23.11C172.58 24.022 173.186 24.478 174.002 24.478ZM185.61 22.642C185.61 23.542 185.706 24.256 185.898 24.784C185.79 24.892 185.64 24.994 185.448 25.09C185.256 25.186 185.034 25.234 184.782 25.234C184.458 25.234 184.194 25.144 183.99 24.964C183.786 24.772 183.684 24.514 183.684 24.19L183.666 14.938C183.666 14.698 183.654 14.41 183.63 14.074C183.198 14.566 182.724 15.034 182.208 15.478C181.704 15.922 181.332 16.144 181.092 16.144C180.804 16.144 180.594 16.06 180.462 15.892C180.342 15.724 180.276 15.574 180.264 15.442C180.252 15.31 180.246 15.124 180.246 14.884C180.33 14.86 181.482 14.086 183.702 12.562C183.93 12.418 184.188 12.346 184.476 12.346C184.812 12.346 185.082 12.442 185.286 12.634C185.502 12.814 185.61 13.066 185.61 13.39V22.642Z" fill="white"/>
<defs>
<clipPath id="clip0_1_4252">
<rect width="54" height="54" fill="white" transform="translate(98 44)"/>
</clipPath>
</defs>
</svg>
