<svg width="239" height="229" viewBox="0 0 239 229" fill="none" xmlns="http://www.w3.org/2000/svg">
<path d="M13.8537 173.816C14.9537 173.977 15.819 174.395 16.4497 175.07C17.0803 175.73 17.3957 176.617 17.3957 177.732C17.3957 179.199 16.8603 180.277 15.7897 180.966C14.7337 181.655 13.1863 182 11.1477 182H8.85968C8.43435 182 8.08968 181.89 7.82568 181.67C7.57635 181.435 7.45168 181.12 7.45168 180.724V169.592C7.45168 169.196 7.42235 168.756 7.36368 168.272C7.30501 167.773 7.20968 167.341 7.07768 166.974C7.88435 166.593 9.10168 166.402 10.7297 166.402C12.6657 166.402 14.1323 166.703 15.1297 167.304C16.127 167.891 16.6257 168.829 16.6257 170.12C16.6257 171.029 16.3837 171.814 15.8997 172.474C15.4157 173.119 14.7337 173.567 13.8537 173.816ZM10.7077 167.326C10.297 167.326 10.0257 167.333 9.89368 167.348V173.464H11.3017C12.1817 173.479 12.8563 173.207 13.3257 172.65C13.8097 172.078 14.0517 171.293 14.0517 170.296C14.0517 169.313 13.7877 168.573 13.2597 168.074C12.7463 167.575 11.8957 167.326 10.7077 167.326ZM11.1257 181.054C13.531 181.054 14.7337 179.961 14.7337 177.776C14.7337 176.5 14.4257 175.62 13.8097 175.136C13.1937 174.637 12.3063 174.388 11.1477 174.388H9.89368V181.054H11.1257ZM28.5677 178.964C28.8024 179.067 28.9197 179.25 28.9197 179.514C28.9197 179.69 28.8684 179.903 28.7657 180.152C28.4871 180.841 27.9884 181.369 27.2697 181.736C26.5657 182.103 25.7151 182.286 24.7177 182.286C23.0457 182.286 21.7257 181.773 20.7577 180.746C19.8044 179.719 19.3277 178.26 19.3277 176.368C19.3277 174.505 19.7971 173.053 20.7357 172.012C21.6744 170.956 23.0164 170.428 24.7617 170.428C26.0377 170.428 27.0717 170.714 27.8637 171.286C28.6557 171.843 29.0517 172.643 29.0517 173.684C29.0517 174.769 28.6117 175.605 27.7317 176.192C26.8664 176.764 25.6857 177.05 24.1897 177.05C23.3391 177.05 22.5837 177.013 21.9237 176.94C22.0264 178.304 22.3711 179.279 22.9577 179.866C23.5444 180.453 24.3437 180.746 25.3557 180.746C26.1477 180.746 26.8224 180.585 27.3797 180.262C27.9517 179.939 28.3477 179.507 28.5677 178.964ZM24.6737 171.33C23.8084 171.33 23.1264 171.741 22.6277 172.562C22.1437 173.369 21.9017 174.52 21.9017 176.016C22.2831 176.06 22.6717 176.082 23.0677 176.082C24.0651 176.082 24.8791 175.884 25.5097 175.488C26.1404 175.092 26.4557 174.366 26.4557 173.31C26.4557 172.591 26.2871 172.085 25.9497 171.792C25.6124 171.484 25.1871 171.33 24.6737 171.33ZM39.9759 178.964C40.2106 179.067 40.3279 179.25 40.3279 179.514C40.3279 179.69 40.2766 179.903 40.1739 180.152C39.8953 180.841 39.3966 181.369 38.6779 181.736C37.9739 182.103 37.1233 182.286 36.1259 182.286C34.4539 182.286 33.1339 181.773 32.1659 180.746C31.2126 179.719 30.7359 178.26 30.7359 176.368C30.7359 174.505 31.2053 173.053 32.1439 172.012C33.0826 170.956 34.4246 170.428 36.1699 170.428C37.4459 170.428 38.4799 170.714 39.2719 171.286C40.0639 171.843 40.4599 172.643 40.4599 173.684C40.4599 174.769 40.0199 175.605 39.1399 176.192C38.2746 176.764 37.0939 177.05 35.5979 177.05C34.7473 177.05 33.9919 177.013 33.3319 176.94C33.4346 178.304 33.7793 179.279 34.3659 179.866C34.9526 180.453 35.7519 180.746 36.7639 180.746C37.5559 180.746 38.2306 180.585 38.7879 180.262C39.3599 179.939 39.7559 179.507 39.9759 178.964ZM36.0819 171.33C35.2166 171.33 34.5346 171.741 34.0359 172.562C33.5519 173.369 33.3099 174.52 33.3099 176.016C33.6913 176.06 34.0799 176.082 34.4759 176.082C35.4733 176.082 36.2873 175.884 36.9179 175.488C37.5486 175.092 37.8639 174.366 37.8639 173.31C37.8639 172.591 37.6953 172.085 37.3579 171.792C37.0206 171.484 36.5953 171.33 36.0819 171.33ZM46.1921 182.286C44.8135 182.286 43.7721 182.051 43.0681 181.582C42.3641 181.113 42.0121 180.482 42.0121 179.69C42.0121 179.294 42.1221 178.957 42.3421 178.678C42.5768 178.399 42.9361 178.26 43.4201 178.26C43.5081 178.26 43.6548 178.275 43.8601 178.304C43.8161 178.48 43.7941 178.641 43.7941 178.788C43.7941 178.964 43.8161 179.155 43.8601 179.36C43.9335 179.947 44.1901 180.423 44.6301 180.79C45.0848 181.157 45.7008 181.34 46.4781 181.34C47.1675 181.34 47.7248 181.215 48.1501 180.966C48.5755 180.702 48.7881 180.321 48.7881 179.822C48.7881 179.485 48.6855 179.191 48.4801 178.942C48.2895 178.678 48.0475 178.458 47.7541 178.282C47.4608 178.106 47.0428 177.886 46.5001 177.622C46.3828 177.578 46.2068 177.497 45.9721 177.38C45.1801 177.013 44.5495 176.691 44.0801 176.412C43.6255 176.119 43.2295 175.73 42.8921 175.246C42.5695 174.762 42.4081 174.168 42.4081 173.464C42.4081 172.437 42.8041 171.675 43.5961 171.176C44.3881 170.663 45.3928 170.406 46.6101 170.406C47.8275 170.406 48.7881 170.597 49.4921 170.978C50.1961 171.345 50.5481 171.88 50.5481 172.584C50.5481 172.907 50.4528 173.185 50.2621 173.42C50.0861 173.64 49.8001 173.757 49.4041 173.772C49.3308 173.787 49.2355 173.794 49.1181 173.794C49.0448 173.794 48.9055 173.779 48.7001 173.75C48.7148 173.662 48.7221 173.53 48.7221 173.354C48.7221 173.031 48.6781 172.789 48.5901 172.628C48.5021 172.217 48.2748 171.902 47.9081 171.682C47.5561 171.447 47.0941 171.33 46.5221 171.33C45.9795 171.33 45.5175 171.44 45.1361 171.66C44.7695 171.88 44.5861 172.217 44.5861 172.672C44.5861 173.083 44.7035 173.435 44.9381 173.728C45.1875 174.021 45.4881 174.271 45.8401 174.476C46.1921 174.681 46.6908 174.938 47.3361 175.246C48.2308 175.671 48.8981 176.016 49.3381 176.28C49.7781 176.529 50.1741 176.874 50.5261 177.314C50.8781 177.754 51.0541 178.289 51.0541 178.92C51.0541 179.859 50.6581 180.658 49.8661 181.318C49.0888 181.963 47.8641 182.286 46.1921 182.286ZM63.6266 182.286C61.72 182.286 60.2386 181.597 59.1826 180.218C58.1266 178.839 57.5986 176.881 57.5986 174.344C57.5986 171.821 58.1413 169.871 59.2266 168.492C60.3266 167.099 61.852 166.402 63.8026 166.402C64.5946 166.402 65.35 166.505 66.0686 166.71C66.7873 166.915 67.3666 167.201 67.8066 167.568C68.2613 167.935 68.4886 168.36 68.4886 168.844C68.4886 169.24 68.3126 169.577 67.9606 169.856C67.6086 170.12 67.132 170.245 66.5306 170.23C66.296 168.294 65.394 167.326 63.8246 167.326C61.4633 167.326 60.2826 169.665 60.2826 174.344C60.2826 179.023 61.4413 181.362 63.7586 181.362C64.5653 181.362 65.24 181.091 65.7826 180.548C66.3253 179.991 66.6846 179.177 66.8606 178.106C66.934 178.091 67.0586 178.084 67.2346 178.084C67.6893 178.084 68.078 178.194 68.4006 178.414C68.7233 178.619 68.8846 178.927 68.8846 179.338C68.8846 179.91 68.6353 180.423 68.1366 180.878C67.638 181.333 66.9853 181.685 66.1786 181.934C65.372 182.169 64.5213 182.286 63.6266 182.286ZM75.9114 182.286C74.254 182.286 72.9634 181.765 72.0394 180.724C71.13 179.683 70.6754 178.231 70.6754 176.368C70.6754 174.491 71.1374 173.031 72.0614 171.99C72.9854 170.949 74.2687 170.428 75.9114 170.428C77.5687 170.428 78.8594 170.949 79.7834 171.99C80.7074 173.031 81.1694 174.491 81.1694 176.368C81.1694 178.231 80.7074 179.683 79.7834 180.724C78.8594 181.765 77.5687 182.286 75.9114 182.286ZM75.9114 181.384C76.7914 181.384 77.4514 180.959 77.8914 180.108C78.3461 179.257 78.5734 178.011 78.5734 176.368C78.5734 174.711 78.3461 173.457 77.8914 172.606C77.4514 171.755 76.7914 171.33 75.9114 171.33C75.0314 171.33 74.364 171.755 73.9094 172.606C73.4694 173.457 73.2494 174.711 73.2494 176.368C73.2494 178.011 73.4694 179.257 73.9094 180.108C74.364 180.959 75.0314 181.384 75.9114 181.384ZM86.0245 182.22C85.2472 182.22 84.6458 181.978 84.2205 181.494C83.8098 180.995 83.6045 180.306 83.6045 179.426V167.172C83.6045 166.776 83.7292 166.468 83.9785 166.248C84.2425 166.013 84.5798 165.896 84.9905 165.896C85.5332 165.896 85.9878 166.079 86.3545 166.446C86.2078 166.974 86.1125 167.546 86.0685 168.162C86.0245 168.763 86.0025 169.621 86.0025 170.736V179.228C86.0025 180.005 86.2665 180.394 86.7945 180.394C86.9412 180.394 87.0805 180.365 87.2125 180.306C87.3592 180.247 87.4618 180.159 87.5205 180.042C87.7112 180.277 87.8065 180.548 87.8065 180.856C87.8065 181.252 87.6305 181.582 87.2785 181.846C86.9265 182.095 86.5085 182.22 86.0245 182.22ZM92.2335 182.22C91.4562 182.22 90.8548 181.978 90.4295 181.494C90.0188 180.995 89.8135 180.306 89.8135 179.426V167.172C89.8135 166.776 89.9382 166.468 90.1875 166.248C90.4515 166.013 90.7888 165.896 91.1995 165.896C91.7422 165.896 92.1968 166.079 92.5635 166.446C92.4168 166.974 92.3215 167.546 92.2775 168.162C92.2335 168.763 92.2115 169.621 92.2115 170.736V179.228C92.2115 180.005 92.4755 180.394 93.0035 180.394C93.1502 180.394 93.2895 180.365 93.4215 180.306C93.5682 180.247 93.6708 180.159 93.7295 180.042C93.9202 180.277 94.0155 180.548 94.0155 180.856C94.0155 181.252 93.8395 181.582 93.4875 181.846C93.1355 182.095 92.7175 182.22 92.2335 182.22ZM104.536 178.964C104.771 179.067 104.888 179.25 104.888 179.514C104.888 179.69 104.837 179.903 104.734 180.152C104.456 180.841 103.957 181.369 103.238 181.736C102.534 182.103 101.684 182.286 100.686 182.286C99.0145 182.286 97.6945 181.773 96.7265 180.746C95.7731 179.719 95.2965 178.26 95.2965 176.368C95.2965 174.505 95.7658 173.053 96.7045 172.012C97.6431 170.956 98.9851 170.428 100.73 170.428C102.006 170.428 103.04 170.714 103.832 171.286C104.624 171.843 105.02 172.643 105.02 173.684C105.02 174.769 104.58 175.605 103.7 176.192C102.835 176.764 101.654 177.05 100.158 177.05C99.3078 177.05 98.5525 177.013 97.8925 176.94C97.9951 178.304 98.3398 179.279 98.9265 179.866C99.5131 180.453 100.312 180.746 101.324 180.746C102.116 180.746 102.791 180.585 103.348 180.262C103.92 179.939 104.316 179.507 104.536 178.964ZM100.642 171.33C99.7771 171.33 99.0951 171.741 98.5965 172.562C98.1125 173.369 97.8705 174.52 97.8705 176.016C98.2518 176.06 98.6405 176.082 99.0365 176.082C100.034 176.082 100.848 175.884 101.478 175.488C102.109 175.092 102.424 174.366 102.424 173.31C102.424 172.591 102.256 172.085 101.918 171.792C101.581 171.484 101.156 171.33 100.642 171.33ZM112.051 182.286C110.349 182.286 109.029 181.78 108.091 180.768C107.167 179.741 106.705 178.275 106.705 176.368C106.705 174.52 107.181 173.068 108.135 172.012C109.088 170.956 110.43 170.428 112.161 170.428C113.407 170.428 114.368 170.692 115.043 171.22C115.732 171.733 116.077 172.401 116.077 173.222C116.077 173.779 115.908 174.227 115.571 174.564C115.248 174.901 114.823 175.07 114.295 175.07C114.045 175.07 113.796 175.033 113.547 174.96C113.312 174.872 113.129 174.747 112.997 174.586C113.437 174.293 113.657 173.772 113.657 173.024C113.657 172.437 113.503 172.012 113.195 171.748C112.887 171.469 112.476 171.33 111.963 171.33C111.141 171.33 110.489 171.741 110.005 172.562C109.521 173.369 109.279 174.513 109.279 175.994C109.279 177.637 109.587 178.839 110.203 179.602C110.819 180.365 111.669 180.746 112.755 180.746C113.532 180.746 114.199 180.555 114.757 180.174C115.314 179.793 115.673 179.272 115.835 178.612C116.069 178.7 116.187 178.913 116.187 179.25C116.187 179.441 116.157 179.646 116.099 179.866C115.864 180.643 115.387 181.245 114.669 181.67C113.965 182.081 113.092 182.286 112.051 182.286ZM121.77 170.736C122.049 170.736 122.43 170.729 122.914 170.714C123.398 170.699 123.779 170.685 124.058 170.67L124.036 171.264C124.021 171.455 123.955 171.609 123.838 171.726C123.735 171.829 123.596 171.88 123.42 171.88H121.352V172.606L121.33 179.228C121.33 180.02 121.675 180.416 122.364 180.416C122.569 180.416 122.76 180.387 122.936 180.328C123.127 180.255 123.251 180.159 123.31 180.042C123.501 180.321 123.596 180.592 123.596 180.856C123.596 181.267 123.391 181.604 122.98 181.868C122.584 182.117 122.071 182.242 121.44 182.242C120.648 182.242 120.032 181.993 119.592 181.494C119.152 180.995 118.932 180.306 118.932 179.426V171.88H118.624C118.433 171.88 118.213 171.887 117.964 171.902C117.715 171.917 117.495 171.939 117.304 171.968L117.326 171.33C117.341 171.139 117.407 170.993 117.524 170.89C117.641 170.787 117.788 170.736 117.964 170.736H118.932V169.064C118.932 168.683 119.064 168.382 119.328 168.162C119.592 167.927 119.929 167.81 120.34 167.81C120.853 167.81 121.308 167.986 121.704 168.338C121.528 168.983 121.418 169.783 121.374 170.736H121.77ZM134.145 170.736C134.424 170.736 134.805 170.729 135.289 170.714C135.773 170.699 136.154 170.685 136.433 170.67L136.411 171.264C136.396 171.455 136.33 171.609 136.213 171.726C136.11 171.829 135.971 171.88 135.795 171.88H133.727V172.606L133.705 179.228C133.705 180.02 134.05 180.416 134.739 180.416C134.944 180.416 135.135 180.387 135.311 180.328C135.502 180.255 135.626 180.159 135.685 180.042C135.876 180.321 135.971 180.592 135.971 180.856C135.971 181.267 135.766 181.604 135.355 181.868C134.959 182.117 134.446 182.242 133.815 182.242C133.023 182.242 132.407 181.993 131.967 181.494C131.527 180.995 131.307 180.306 131.307 179.426V171.88H130.999C130.808 171.88 130.588 171.887 130.339 171.902C130.09 171.917 129.87 171.939 129.679 171.968L129.701 171.33C129.716 171.139 129.782 170.993 129.899 170.89C130.016 170.787 130.163 170.736 130.339 170.736H131.307V169.064C131.307 168.683 131.439 168.382 131.703 168.162C131.967 167.927 132.304 167.81 132.715 167.81C133.228 167.81 133.683 167.986 134.079 168.338C133.903 168.983 133.793 169.783 133.749 170.736H134.145ZM148.02 179.118C148.02 180.262 148.137 181.135 148.372 181.736C147.976 182.103 147.521 182.286 147.008 182.286C146.597 182.286 146.26 182.169 145.996 181.934C145.747 181.699 145.622 181.391 145.622 181.01V175.268C145.622 174.021 145.475 173.105 145.182 172.518C144.903 171.917 144.405 171.616 143.686 171.616C143.217 171.616 142.777 171.807 142.366 172.188C141.97 172.555 141.647 173.127 141.398 173.904C141.149 174.667 141.024 175.62 141.024 176.764C141.024 178.495 141.039 179.639 141.068 180.196C141.112 180.753 141.229 181.274 141.42 181.758C141.288 181.89 141.105 182.007 140.87 182.11C140.635 182.227 140.364 182.286 140.056 182.286C139.645 182.286 139.308 182.161 139.044 181.912C138.795 181.663 138.67 181.325 138.67 180.9L138.648 167.172C138.648 166.761 138.765 166.453 139 166.248C139.249 166.028 139.579 165.918 139.99 165.918C140.283 165.918 140.555 165.977 140.804 166.094C141.068 166.197 141.281 166.314 141.442 166.446C141.281 166.974 141.171 167.575 141.112 168.25C141.053 168.925 141.017 169.797 141.002 170.868V172.804C141.31 172.041 141.757 171.455 142.344 171.044C142.945 170.633 143.657 170.428 144.478 170.428C145.681 170.428 146.568 170.802 147.14 171.55C147.712 172.298 147.998 173.42 147.998 174.916L148.02 179.118ZM159.622 178.964C159.857 179.067 159.974 179.25 159.974 179.514C159.974 179.69 159.923 179.903 159.82 180.152C159.542 180.841 159.043 181.369 158.324 181.736C157.62 182.103 156.77 182.286 155.772 182.286C154.1 182.286 152.78 181.773 151.812 180.746C150.859 179.719 150.382 178.26 150.382 176.368C150.382 174.505 150.852 173.053 151.79 172.012C152.729 170.956 154.071 170.428 155.816 170.428C157.092 170.428 158.126 170.714 158.918 171.286C159.71 171.843 160.106 172.643 160.106 173.684C160.106 174.769 159.666 175.605 158.786 176.192C157.921 176.764 156.74 177.05 155.244 177.05C154.394 177.05 153.638 177.013 152.978 176.94C153.081 178.304 153.426 179.279 154.012 179.866C154.599 180.453 155.398 180.746 156.41 180.746C157.202 180.746 157.877 180.585 158.434 180.262C159.006 179.939 159.402 179.507 159.622 178.964ZM155.728 171.33C154.863 171.33 154.181 171.741 153.682 172.562C153.198 173.369 152.956 174.52 152.956 176.016C153.338 176.06 153.726 176.082 154.122 176.082C155.12 176.082 155.934 175.884 156.564 175.488C157.195 175.092 157.51 174.366 157.51 173.31C157.51 172.591 157.342 172.085 157.004 171.792C156.667 171.484 156.242 171.33 155.728 171.33ZM168.321 182.286C167.954 182.286 167.609 182.176 167.287 181.956C167.536 181.281 167.661 180.335 167.661 179.118L167.639 169.636C167.639 168.477 167.595 167.524 167.507 166.776C167.595 166.688 167.741 166.615 167.947 166.556C168.167 166.497 168.387 166.468 168.607 166.468C168.944 166.468 169.157 166.512 169.245 166.6C170.081 167.773 170.953 168.983 171.863 170.23C173.535 172.547 174.811 174.344 175.691 175.62C176.585 176.896 177.245 177.952 177.671 178.788L177.077 168.492C177.047 167.949 177.121 167.502 177.297 167.15C177.473 166.783 177.744 166.571 178.111 166.512C178.477 166.468 178.822 166.534 179.145 166.71C179.071 167.003 179.027 167.37 179.013 167.81C178.998 168.235 178.991 168.617 178.991 168.954V179.184C178.991 179.741 178.998 180.255 179.013 180.724C179.027 181.193 179.057 181.604 179.101 181.956C179.027 182.044 178.881 182.117 178.661 182.176C178.455 182.235 178.243 182.264 178.023 182.264C177.788 182.264 177.597 182.227 177.451 182.154C175.515 179.881 173.843 177.717 172.435 175.664C171.027 173.611 169.897 171.821 169.047 170.296L169.553 180.856C169.582 181.267 169.465 181.611 169.201 181.89C168.951 182.154 168.658 182.286 168.321 182.286ZM191.054 178.964C191.289 179.067 191.406 179.25 191.406 179.514C191.406 179.69 191.355 179.903 191.252 180.152C190.973 180.841 190.475 181.369 189.756 181.736C189.052 182.103 188.201 182.286 187.204 182.286C185.532 182.286 184.212 181.773 183.244 180.746C182.291 179.719 181.814 178.26 181.814 176.368C181.814 174.505 182.283 173.053 183.222 172.012C184.161 170.956 185.503 170.428 187.248 170.428C188.524 170.428 189.558 170.714 190.35 171.286C191.142 171.843 191.538 172.643 191.538 173.684C191.538 174.769 191.098 175.605 190.218 176.192C189.353 176.764 188.172 177.05 186.676 177.05C185.825 177.05 185.07 177.013 184.41 176.94C184.513 178.304 184.857 179.279 185.444 179.866C186.031 180.453 186.83 180.746 187.842 180.746C188.634 180.746 189.309 180.585 189.866 180.262C190.438 179.939 190.834 179.507 191.054 178.964ZM187.16 171.33C186.295 171.33 185.613 171.741 185.114 172.562C184.63 173.369 184.388 174.52 184.388 176.016C184.769 176.06 185.158 176.082 185.554 176.082C186.551 176.082 187.365 175.884 187.996 175.488C188.627 175.092 188.942 174.366 188.942 173.31C188.942 172.591 188.773 172.085 188.436 171.792C188.099 171.484 187.673 171.33 187.16 171.33ZM198.568 182.286C196.867 182.286 195.547 181.78 194.608 180.768C193.684 179.741 193.222 178.275 193.222 176.368C193.222 174.52 193.699 173.068 194.652 172.012C195.606 170.956 196.948 170.428 198.678 170.428C199.925 170.428 200.886 170.692 201.56 171.22C202.25 171.733 202.594 172.401 202.594 173.222C202.594 173.779 202.426 174.227 202.088 174.564C201.766 174.901 201.34 175.07 200.812 175.07C200.563 175.07 200.314 175.033 200.064 174.96C199.83 174.872 199.646 174.747 199.514 174.586C199.954 174.293 200.174 173.772 200.174 173.024C200.174 172.437 200.02 172.012 199.712 171.748C199.404 171.469 198.994 171.33 198.48 171.33C197.659 171.33 197.006 171.741 196.522 172.562C196.038 173.369 195.796 174.513 195.796 175.994C195.796 177.637 196.104 178.839 196.72 179.602C197.336 180.365 198.187 180.746 199.272 180.746C200.05 180.746 200.717 180.555 201.274 180.174C201.832 179.793 202.191 179.272 202.352 178.612C202.587 178.7 202.704 178.913 202.704 179.25C202.704 179.441 202.675 179.646 202.616 179.866C202.382 180.643 201.905 181.245 201.186 181.67C200.482 182.081 199.61 182.286 198.568 182.286ZM208.288 170.736C208.566 170.736 208.948 170.729 209.432 170.714C209.916 170.699 210.297 170.685 210.576 170.67L210.554 171.264C210.539 171.455 210.473 171.609 210.356 171.726C210.253 171.829 210.114 171.88 209.938 171.88H207.87V172.606L207.848 179.228C207.848 180.02 208.192 180.416 208.882 180.416C209.087 180.416 209.278 180.387 209.454 180.328C209.644 180.255 209.769 180.159 209.828 180.042C210.018 180.321 210.114 180.592 210.114 180.856C210.114 181.267 209.908 181.604 209.498 181.868C209.102 182.117 208.588 182.242 207.958 182.242C207.166 182.242 206.55 181.993 206.11 181.494C205.67 180.995 205.45 180.306 205.45 179.426V171.88H205.142C204.951 171.88 204.731 171.887 204.482 171.902C204.232 171.917 204.012 171.939 203.822 171.968L203.844 171.33C203.858 171.139 203.924 170.993 204.042 170.89C204.159 170.787 204.306 170.736 204.482 170.736H205.45V169.064C205.45 168.683 205.582 168.382 205.846 168.162C206.11 167.927 206.447 167.81 206.858 167.81C207.371 167.81 207.826 167.986 208.222 168.338C208.046 168.983 207.936 169.783 207.892 170.736H208.288ZM223.043 180.042C223.219 180.277 223.307 180.548 223.307 180.856C223.307 181.237 223.138 181.56 222.801 181.824C222.463 182.088 222.031 182.22 221.503 182.22C220.784 182.22 220.241 181.978 219.875 181.494C219.508 180.995 219.317 180.196 219.303 179.096C218.863 180.049 218.261 180.812 217.499 181.384C216.736 181.956 215.863 182.242 214.881 182.242C214.03 182.242 213.341 182.015 212.813 181.56C212.299 181.091 212.043 180.46 212.043 179.668C212.043 178.744 212.395 177.981 213.099 177.38C213.803 176.779 214.705 176.324 215.805 176.016C216.905 175.708 218.027 175.569 219.171 175.598V175.048C219.171 173.772 218.995 172.833 218.643 172.232C218.291 171.631 217.704 171.33 216.883 171.33C216.325 171.33 215.871 171.462 215.519 171.726C215.181 171.99 215.013 172.423 215.013 173.024C215.013 173.361 215.079 173.677 215.211 173.97C215.343 174.263 215.563 174.483 215.871 174.63C215.724 174.791 215.526 174.916 215.277 175.004C215.042 175.077 214.793 175.114 214.529 175.114C213.942 175.114 213.465 174.923 213.099 174.542C212.747 174.146 212.571 173.669 212.571 173.112C212.571 172.247 212.967 171.587 213.759 171.132C214.551 170.663 215.643 170.428 217.037 170.428C218.621 170.428 219.779 170.809 220.513 171.572C221.261 172.32 221.635 173.523 221.635 175.18V179.228C221.635 180.005 221.884 180.394 222.383 180.394C222.5 180.394 222.617 180.365 222.735 180.306C222.867 180.247 222.969 180.159 223.043 180.042ZM215.981 180.636C216.465 180.636 216.956 180.445 217.455 180.064C217.968 179.668 218.393 179.147 218.731 178.502C219.068 177.857 219.237 177.167 219.237 176.434C218.723 176.405 218.203 176.434 217.675 176.522C217.147 176.595 216.692 176.72 216.311 176.896C215.797 177.116 215.394 177.417 215.101 177.798C214.822 178.165 214.683 178.597 214.683 179.096C214.683 179.536 214.785 179.903 214.991 180.196C215.211 180.489 215.541 180.636 215.981 180.636ZM230.382 170.428C231.188 170.428 231.841 170.641 232.34 171.066C232.838 171.491 233.088 172.078 233.088 172.826C233.088 173.383 232.926 173.831 232.604 174.168C232.281 174.505 231.878 174.674 231.394 174.674C230.939 174.674 230.609 174.557 230.404 174.322C230.565 174.058 230.675 173.823 230.734 173.618C230.792 173.398 230.822 173.149 230.822 172.87C230.822 172.034 230.455 171.616 229.722 171.616C229.135 171.616 228.658 172.049 228.292 172.914C227.94 173.765 227.764 175.048 227.764 176.764V177.6C227.764 178.905 227.786 179.807 227.83 180.306C227.874 180.79 227.984 181.252 228.16 181.692C228.013 181.824 227.822 181.941 227.588 182.044C227.353 182.147 227.082 182.205 226.774 182.22C226.378 182.22 226.04 182.095 225.762 181.846C225.498 181.597 225.366 181.259 225.366 180.834V173.398C225.366 173.002 225.314 172.716 225.212 172.54C225.124 172.349 224.977 172.254 224.772 172.254C224.493 172.254 224.302 172.357 224.2 172.562C224.009 172.283 223.914 172.005 223.914 171.726C223.914 171.345 224.053 171.037 224.332 170.802C224.61 170.553 224.999 170.428 225.498 170.428C226.099 170.428 226.576 170.633 226.928 171.044C227.28 171.455 227.463 172.063 227.478 172.87C227.991 171.242 228.959 170.428 230.382 170.428ZM15.0201 215.042C15.1961 215.277 15.2841 215.548 15.2841 215.856C15.2841 216.237 15.1154 216.56 14.7781 216.824C14.4408 217.088 14.0081 217.22 13.4801 217.22C12.7614 217.22 12.2188 216.978 11.8521 216.494C11.4854 215.995 11.2948 215.196 11.2801 214.096C10.8401 215.049 10.2388 215.812 9.47611 216.384C8.71344 216.956 7.84078 217.242 6.85811 217.242C6.00744 217.242 5.31811 217.015 4.79011 216.56C4.27678 216.091 4.02011 215.46 4.02011 214.668C4.02011 213.744 4.37211 212.981 5.07611 212.38C5.78011 211.779 6.68211 211.324 7.78211 211.016C8.88211 210.708 10.0041 210.569 11.1481 210.598V210.048C11.1481 208.772 10.9721 207.833 10.6201 207.232C10.2681 206.631 9.68144 206.33 8.86011 206.33C8.30278 206.33 7.84811 206.462 7.49611 206.726C7.15878 206.99 6.99011 207.423 6.99011 208.024C6.99011 208.361 7.05611 208.677 7.18811 208.97C7.32011 209.263 7.54011 209.483 7.84811 209.63C7.70144 209.791 7.50344 209.916 7.25411 210.004C7.01944 210.077 6.77011 210.114 6.50611 210.114C5.91944 210.114 5.44278 209.923 5.07611 209.542C4.72411 209.146 4.54811 208.669 4.54811 208.112C4.54811 207.247 4.94411 206.587 5.73611 206.132C6.52811 205.663 7.62078 205.428 9.01411 205.428C10.5981 205.428 11.7568 205.809 12.4901 206.572C13.2381 207.32 13.6121 208.523 13.6121 210.18V214.228C13.6121 215.005 13.8614 215.394 14.3601 215.394C14.4774 215.394 14.5948 215.365 14.7121 215.306C14.8441 215.247 14.9468 215.159 15.0201 215.042ZM7.95811 215.636C8.44211 215.636 8.93344 215.445 9.43211 215.064C9.94544 214.668 10.3708 214.147 10.7081 213.502C11.0454 212.857 11.2141 212.167 11.2141 211.434C10.7008 211.405 10.1801 211.434 9.65211 211.522C9.12411 211.595 8.66944 211.72 8.28811 211.896C7.77478 212.116 7.37144 212.417 7.07811 212.798C6.79944 213.165 6.66011 213.597 6.66011 214.096C6.66011 214.536 6.76278 214.903 6.96811 215.196C7.18811 215.489 7.51811 215.636 7.95811 215.636ZM26.7152 214.118C26.7445 215.321 26.8765 216.193 27.1112 216.736C26.7152 217.103 26.2532 217.286 25.7252 217.286C25.3145 217.286 24.9772 217.176 24.7132 216.956C24.4492 216.721 24.3172 216.406 24.3172 216.01V210.268C24.3025 209.051 24.1558 208.156 23.8772 207.584C23.6132 206.997 23.1218 206.704 22.4032 206.704C21.9192 206.704 21.4718 206.887 21.0612 207.254C20.6652 207.621 20.3425 208.185 20.0932 208.948C19.8438 209.696 19.7192 210.635 19.7192 211.764C19.7192 213.495 19.7412 214.639 19.7852 215.196C19.8292 215.753 19.9465 216.274 20.1372 216.758C19.9905 216.89 19.7925 217.007 19.5432 217.11C19.3085 217.227 19.0518 217.286 18.7732 217.286C18.3478 217.286 18.0032 217.161 17.7392 216.912C17.4752 216.663 17.3432 216.325 17.3432 215.9V208.398C17.3285 207.987 17.2772 207.694 17.1892 207.518C17.1012 207.342 16.9545 207.254 16.7492 207.254C16.4705 207.254 16.2798 207.357 16.1772 207.562C15.9865 207.283 15.8912 207.005 15.8912 206.726C15.8912 206.345 16.0305 206.037 16.3092 205.802C16.5878 205.553 16.9765 205.428 17.4752 205.428C18.1058 205.428 18.5898 205.648 18.9272 206.088C19.2792 206.513 19.4552 207.151 19.4552 208.002V208.112C19.7485 207.247 20.2105 206.587 20.8412 206.132C21.4865 205.663 22.2638 205.428 23.1732 205.428C24.3758 205.428 25.2632 205.802 25.8352 206.55C26.4218 207.298 26.7152 208.42 26.7152 209.916V214.118ZM40.2464 215.086C40.4224 215.35 40.5104 215.629 40.5104 215.922C40.5104 216.289 40.349 216.589 40.0264 216.824C39.7184 217.059 39.3224 217.176 38.8384 217.176C37.5477 217.176 36.8437 216.23 36.7264 214.338C36.0224 216.303 34.761 217.286 32.9424 217.286C31.5784 217.286 30.5957 216.78 29.9944 215.768C29.393 214.741 29.0924 213.429 29.0924 211.83C29.0924 209.791 29.4957 208.215 30.3024 207.1C31.109 205.985 32.2604 205.428 33.7564 205.428C34.4604 205.428 35.0544 205.56 35.5384 205.824C36.0224 206.088 36.3744 206.462 36.5944 206.946V205.054C36.5944 203.573 36.455 202.37 36.1764 201.446C36.587 201.079 37.049 200.896 37.5624 200.896C37.973 200.896 38.3104 201.013 38.5744 201.248C38.8384 201.483 38.9704 201.791 38.9704 202.172L38.9484 214.228C38.9484 214.991 39.1904 215.372 39.6744 215.372C39.953 215.372 40.1437 215.277 40.2464 215.086ZM33.6244 215.944C34.5484 215.944 35.267 215.372 35.7804 214.228C36.2937 213.084 36.5504 211.705 36.5504 210.092C36.5504 209.08 36.389 208.266 36.0664 207.65C35.7437 207.019 35.1497 206.704 34.2844 206.704C32.539 206.704 31.6664 208.391 31.6664 211.764C31.6664 213.113 31.8057 214.147 32.0844 214.866C32.363 215.585 32.8764 215.944 33.6244 215.944ZM52.9167 217.286C51.01 217.286 49.5287 216.597 48.4727 215.218C47.4167 213.839 46.8887 211.881 46.8887 209.344C46.8887 206.821 47.4313 204.871 48.5167 203.492C49.6167 202.099 51.142 201.402 53.0927 201.402C53.8847 201.402 54.64 201.505 55.3587 201.71C56.0773 201.915 56.6567 202.201 57.0967 202.568C57.5513 202.935 57.7787 203.36 57.7787 203.844C57.7787 204.24 57.6027 204.577 57.2507 204.856C56.8987 205.12 56.422 205.245 55.8207 205.23C55.586 203.294 54.684 202.326 53.1147 202.326C50.7533 202.326 49.5727 204.665 49.5727 209.344C49.5727 214.023 50.7313 216.362 53.0487 216.362C53.8553 216.362 54.53 216.091 55.0727 215.548C55.6153 214.991 55.9747 214.177 56.1507 213.106C56.224 213.091 56.3487 213.084 56.5247 213.084C56.9793 213.084 57.368 213.194 57.6907 213.414C58.0133 213.619 58.1747 213.927 58.1747 214.338C58.1747 214.91 57.9253 215.423 57.4267 215.878C56.928 216.333 56.2753 216.685 55.4687 216.934C54.662 217.169 53.8113 217.286 52.9167 217.286ZM70.9654 215.042C71.1414 215.277 71.2294 215.548 71.2294 215.856C71.2294 216.237 71.0608 216.56 70.7234 216.824C70.3861 217.088 69.9534 217.22 69.4254 217.22C68.7068 217.22 68.1641 216.978 67.7974 216.494C67.4308 215.995 67.2401 215.196 67.2254 214.096C66.7854 215.049 66.1841 215.812 65.4214 216.384C64.6588 216.956 63.7861 217.242 62.8034 217.242C61.9528 217.242 61.2634 217.015 60.7354 216.56C60.2221 216.091 59.9654 215.46 59.9654 214.668C59.9654 213.744 60.3174 212.981 61.0214 212.38C61.7254 211.779 62.6274 211.324 63.7274 211.016C64.8274 210.708 65.9494 210.569 67.0934 210.598V210.048C67.0934 208.772 66.9174 207.833 66.5654 207.232C66.2134 206.631 65.6268 206.33 64.8054 206.33C64.2481 206.33 63.7934 206.462 63.4414 206.726C63.1041 206.99 62.9354 207.423 62.9354 208.024C62.9354 208.361 63.0014 208.677 63.1334 208.97C63.2654 209.263 63.4854 209.483 63.7934 209.63C63.6468 209.791 63.4488 209.916 63.1994 210.004C62.9648 210.077 62.7154 210.114 62.4514 210.114C61.8648 210.114 61.3881 209.923 61.0214 209.542C60.6694 209.146 60.4934 208.669 60.4934 208.112C60.4934 207.247 60.8894 206.587 61.6814 206.132C62.4734 205.663 63.5661 205.428 64.9594 205.428C66.5434 205.428 67.7021 205.809 68.4354 206.572C69.1834 207.32 69.5574 208.523 69.5574 210.18V214.228C69.5574 215.005 69.8068 215.394 70.3054 215.394C70.4228 215.394 70.5401 215.365 70.6574 215.306C70.7894 215.247 70.8921 215.159 70.9654 215.042ZM63.9034 215.636C64.3874 215.636 64.8788 215.445 65.3774 215.064C65.8908 214.668 66.3161 214.147 66.6534 213.502C66.9908 212.857 67.1594 212.167 67.1594 211.434C66.6461 211.405 66.1254 211.434 65.5974 211.522C65.0694 211.595 64.6148 211.72 64.2334 211.896C63.7201 212.116 63.3168 212.417 63.0234 212.798C62.7448 213.165 62.6054 213.597 62.6054 214.096C62.6054 214.536 62.7081 214.903 62.9134 215.196C63.1334 215.489 63.4634 215.636 63.9034 215.636ZM78.3045 205.428C79.1112 205.428 79.7638 205.641 80.2625 206.066C80.7612 206.491 81.0105 207.078 81.0105 207.826C81.0105 208.383 80.8492 208.831 80.5265 209.168C80.2038 209.505 79.8005 209.674 79.3165 209.674C78.8618 209.674 78.5318 209.557 78.3265 209.322C78.4878 209.058 78.5978 208.823 78.6565 208.618C78.7152 208.398 78.7445 208.149 78.7445 207.87C78.7445 207.034 78.3778 206.616 77.6445 206.616C77.0578 206.616 76.5812 207.049 76.2145 207.914C75.8625 208.765 75.6865 210.048 75.6865 211.764V212.6C75.6865 213.905 75.7085 214.807 75.7525 215.306C75.7965 215.79 75.9065 216.252 76.0825 216.692C75.9358 216.824 75.7452 216.941 75.5105 217.044C75.2758 217.147 75.0045 217.205 74.6965 217.22C74.3005 217.22 73.9632 217.095 73.6845 216.846C73.4205 216.597 73.2885 216.259 73.2885 215.834V208.398C73.2885 208.002 73.2372 207.716 73.1345 207.54C73.0465 207.349 72.8998 207.254 72.6945 207.254C72.4158 207.254 72.2252 207.357 72.1225 207.562C71.9318 207.283 71.8365 207.005 71.8365 206.726C71.8365 206.345 71.9758 206.037 72.2545 205.802C72.5332 205.553 72.9218 205.428 73.4205 205.428C74.0218 205.428 74.4985 205.633 74.8505 206.044C75.2025 206.455 75.3858 207.063 75.4005 207.87C75.9138 206.242 76.8818 205.428 78.3045 205.428ZM88.3592 205.428C89.1658 205.428 89.8185 205.641 90.3172 206.066C90.8158 206.491 91.0652 207.078 91.0652 207.826C91.0652 208.383 90.9038 208.831 90.5812 209.168C90.2585 209.505 89.8552 209.674 89.3712 209.674C88.9165 209.674 88.5865 209.557 88.3812 209.322C88.5425 209.058 88.6525 208.823 88.7112 208.618C88.7698 208.398 88.7992 208.149 88.7992 207.87C88.7992 207.034 88.4325 206.616 87.6992 206.616C87.1125 206.616 86.6358 207.049 86.2692 207.914C85.9172 208.765 85.7412 210.048 85.7412 211.764V212.6C85.7412 213.905 85.7632 214.807 85.8072 215.306C85.8512 215.79 85.9612 216.252 86.1372 216.692C85.9905 216.824 85.7998 216.941 85.5652 217.044C85.3305 217.147 85.0592 217.205 84.7512 217.22C84.3552 217.22 84.0178 217.095 83.7392 216.846C83.4752 216.597 83.3432 216.259 83.3432 215.834V208.398C83.3432 208.002 83.2918 207.716 83.1892 207.54C83.1012 207.349 82.9545 207.254 82.7492 207.254C82.4705 207.254 82.2798 207.357 82.1772 207.562C81.9865 207.283 81.8912 207.005 81.8912 206.726C81.8912 206.345 82.0305 206.037 82.3092 205.802C82.5878 205.553 82.9765 205.428 83.4752 205.428C84.0765 205.428 84.5532 205.633 84.9052 206.044C85.2572 206.455 85.4405 207.063 85.4552 207.87C85.9685 206.242 86.9365 205.428 88.3592 205.428ZM102.308 215.878C102.308 219.97 100.482 222.016 96.8299 222.016C95.6712 222.016 94.7179 221.833 93.9699 221.466C93.2219 221.114 92.8479 220.52 92.8479 219.684C92.8479 219.229 93.0019 218.855 93.3099 218.562C93.6325 218.283 94.0432 218.144 94.5419 218.144C95.0699 218.144 95.4439 218.283 95.6639 218.562C95.4585 218.694 95.3045 218.855 95.2019 219.046C95.1139 219.251 95.0699 219.449 95.0699 219.64C95.0699 220.124 95.2385 220.505 95.5759 220.784C95.9132 221.063 96.3459 221.202 96.8739 221.202C97.9299 221.202 98.7219 220.762 99.2499 219.882C99.7779 219.002 100.042 217.748 100.042 216.12C100.042 215.841 100.086 215.277 100.174 214.426C99.8805 215.321 99.4259 216.003 98.8099 216.472C98.1939 216.941 97.4165 217.176 96.4779 217.176C95.3192 217.176 94.4612 216.831 93.9039 216.142C93.3612 215.438 93.0899 214.279 93.0899 212.666L93.0679 208.596C93.0679 207.467 92.9505 206.587 92.7159 205.956C93.1265 205.604 93.5885 205.428 94.1019 205.428C94.5125 205.428 94.8425 205.545 95.0919 205.78C95.3559 206 95.4879 206.308 95.4879 206.704V212.314C95.4879 213.59 95.6125 214.521 95.8619 215.108C96.1259 215.68 96.5805 215.966 97.2259 215.966C98.0179 215.966 98.6632 215.541 99.1619 214.69C99.6752 213.825 99.9319 212.549 99.9319 210.862C99.9319 209.175 99.9099 208.053 99.8659 207.496C99.8219 206.939 99.7045 206.418 99.5139 205.934C99.9392 205.597 100.401 205.428 100.9 205.428C101.296 205.428 101.626 205.553 101.89 205.802C102.154 206.051 102.286 206.389 102.286 206.814L102.308 215.878ZM111.78 217.286C111.369 217.286 111.032 217.176 110.768 216.956C110.519 216.721 110.394 216.406 110.394 216.01L110.372 204.592C110.372 203.477 110.255 202.605 110.02 201.974C110.167 201.842 110.357 201.725 110.592 201.622C110.841 201.505 111.12 201.446 111.428 201.446C111.839 201.446 112.176 201.563 112.44 201.798C112.704 202.018 112.836 202.326 112.836 202.722V214.118C112.836 215.262 112.953 216.135 113.188 216.736C112.777 217.103 112.308 217.286 111.78 217.286ZM119.525 205.736C119.804 205.736 120.185 205.729 120.669 205.714C121.153 205.699 121.534 205.685 121.813 205.67L121.791 206.264C121.776 206.455 121.71 206.609 121.593 206.726C121.49 206.829 121.351 206.88 121.175 206.88H119.107V207.606L119.085 214.228C119.085 215.02 119.43 215.416 120.119 215.416C120.324 215.416 120.515 215.387 120.691 215.328C120.882 215.255 121.006 215.159 121.065 215.042C121.256 215.321 121.351 215.592 121.351 215.856C121.351 216.267 121.146 216.604 120.735 216.868C120.339 217.117 119.826 217.242 119.195 217.242C118.403 217.242 117.787 216.993 117.347 216.494C116.907 215.995 116.687 215.306 116.687 214.426V206.88H116.379C116.188 206.88 115.968 206.887 115.719 206.902C115.47 206.917 115.25 206.939 115.059 206.968L115.081 206.33C115.096 206.139 115.162 205.993 115.279 205.89C115.396 205.787 115.543 205.736 115.719 205.736H116.687V204.064C116.687 203.683 116.819 203.382 117.083 203.162C117.347 202.927 117.684 202.81 118.095 202.81C118.608 202.81 119.063 202.986 119.459 203.338C119.283 203.983 119.173 204.783 119.129 205.736H119.525ZM131.9 205.736C132.179 205.736 132.56 205.729 133.044 205.714C133.528 205.699 133.909 205.685 134.188 205.67L134.166 206.264C134.151 206.455 134.085 206.609 133.968 206.726C133.865 206.829 133.726 206.88 133.55 206.88H131.482V207.606L131.46 214.228C131.46 215.02 131.805 215.416 132.494 215.416C132.699 215.416 132.89 215.387 133.066 215.328C133.257 215.255 133.381 215.159 133.44 215.042C133.631 215.321 133.726 215.592 133.726 215.856C133.726 216.267 133.521 216.604 133.11 216.868C132.714 217.117 132.201 217.242 131.57 217.242C130.778 217.242 130.162 216.993 129.722 216.494C129.282 215.995 129.062 215.306 129.062 214.426V206.88H128.754C128.563 206.88 128.343 206.887 128.094 206.902C127.845 206.917 127.625 206.939 127.434 206.968L127.456 206.33C127.471 206.139 127.537 205.993 127.654 205.89C127.771 205.787 127.918 205.736 128.094 205.736H129.062V204.064C129.062 203.683 129.194 203.382 129.458 203.162C129.722 202.927 130.059 202.81 130.47 202.81C130.983 202.81 131.438 202.986 131.834 203.338C131.658 203.983 131.548 204.783 131.504 205.736H131.9ZM140.891 217.286C139.234 217.286 137.943 216.765 137.019 215.724C136.11 214.683 135.655 213.231 135.655 211.368C135.655 209.491 136.117 208.031 137.041 206.99C137.965 205.949 139.248 205.428 140.891 205.428C142.548 205.428 143.839 205.949 144.763 206.99C145.687 208.031 146.149 209.491 146.149 211.368C146.149 213.231 145.687 214.683 144.763 215.724C143.839 216.765 142.548 217.286 140.891 217.286ZM140.891 216.384C141.771 216.384 142.431 215.959 142.871 215.108C143.326 214.257 143.553 213.011 143.553 211.368C143.553 209.711 143.326 208.457 142.871 207.606C142.431 206.755 141.771 206.33 140.891 206.33C140.011 206.33 139.344 206.755 138.889 207.606C138.449 208.457 138.229 209.711 138.229 211.368C138.229 213.011 138.449 214.257 138.889 215.108C139.344 215.959 140.011 216.384 140.891 216.384ZM162.99 201.71C163.122 201.71 163.225 201.776 163.298 201.908C163.371 202.025 163.408 202.187 163.408 202.392C163.408 202.685 163.342 202.979 163.21 203.272C163.078 203.565 162.917 203.756 162.726 203.844C161.963 203.565 161.289 203.338 160.702 203.162C160.115 202.971 159.529 202.825 158.942 202.722L158.964 214.118C158.964 215.262 159.081 216.135 159.316 216.736C158.905 217.103 158.436 217.286 157.908 217.286C157.497 217.286 157.16 217.169 156.896 216.934C156.647 216.699 156.522 216.391 156.522 216.01L156.5 202.722C155.913 202.825 155.319 202.971 154.718 203.162C154.131 203.338 153.471 203.565 152.738 203.844C152.547 203.756 152.386 203.565 152.254 203.272C152.122 202.979 152.056 202.685 152.056 202.392C152.056 202.187 152.093 202.025 152.166 201.908C152.239 201.776 152.342 201.71 152.474 201.71H162.99ZM174.671 214.118C174.671 215.262 174.789 216.135 175.023 216.736C174.627 217.103 174.173 217.286 173.659 217.286C173.249 217.286 172.911 217.169 172.647 216.934C172.398 216.699 172.273 216.391 172.273 216.01V210.268C172.273 209.021 172.127 208.105 171.833 207.518C171.555 206.917 171.056 206.616 170.337 206.616C169.868 206.616 169.428 206.807 169.017 207.188C168.621 207.555 168.299 208.127 168.049 208.904C167.8 209.667 167.675 210.62 167.675 211.764C167.675 213.495 167.69 214.639 167.719 215.196C167.763 215.753 167.881 216.274 168.071 216.758C167.939 216.89 167.756 217.007 167.521 217.11C167.287 217.227 167.015 217.286 166.707 217.286C166.297 217.286 165.959 217.161 165.695 216.912C165.446 216.663 165.321 216.325 165.321 215.9L165.299 202.172C165.299 201.761 165.417 201.453 165.651 201.248C165.901 201.028 166.231 200.918 166.641 200.918C166.935 200.918 167.206 200.977 167.455 201.094C167.719 201.197 167.932 201.314 168.093 201.446C167.932 201.974 167.822 202.575 167.763 203.25C167.705 203.925 167.668 204.797 167.653 205.868V207.804C167.961 207.041 168.409 206.455 168.995 206.044C169.597 205.633 170.308 205.428 171.129 205.428C172.332 205.428 173.219 205.802 173.791 206.55C174.363 207.298 174.649 208.42 174.649 209.916L174.671 214.118ZM186.274 213.964C186.508 214.067 186.626 214.25 186.626 214.514C186.626 214.69 186.574 214.903 186.472 215.152C186.193 215.841 185.694 216.369 184.976 216.736C184.272 217.103 183.421 217.286 182.424 217.286C180.752 217.286 179.432 216.773 178.464 215.746C177.51 214.719 177.034 213.26 177.034 211.368C177.034 209.505 177.503 208.053 178.442 207.012C179.38 205.956 180.722 205.428 182.468 205.428C183.744 205.428 184.778 205.714 185.57 206.286C186.362 206.843 186.758 207.643 186.758 208.684C186.758 209.769 186.318 210.605 185.438 211.192C184.572 211.764 183.392 212.05 181.896 212.05C181.045 212.05 180.29 212.013 179.63 211.94C179.732 213.304 180.077 214.279 180.664 214.866C181.25 215.453 182.05 215.746 183.062 215.746C183.854 215.746 184.528 215.585 185.086 215.262C185.658 214.939 186.054 214.507 186.274 213.964ZM182.38 206.33C181.514 206.33 180.832 206.741 180.334 207.562C179.85 208.369 179.608 209.52 179.608 211.016C179.989 211.06 180.378 211.082 180.774 211.082C181.771 211.082 182.585 210.884 183.216 210.488C183.846 210.092 184.162 209.366 184.162 208.31C184.162 207.591 183.993 207.085 183.656 206.792C183.318 206.484 182.893 206.33 182.38 206.33ZM205.576 214.118C205.576 215.262 205.693 216.135 205.928 216.736C205.517 217.103 205.048 217.286 204.52 217.286C204.109 217.286 203.772 217.176 203.508 216.956C203.259 216.721 203.134 216.406 203.134 216.01L203.112 209.652H196.754V214.118C196.754 215.262 196.871 216.135 197.106 216.736C196.695 217.103 196.226 217.286 195.698 217.286C195.287 217.286 194.95 217.176 194.686 216.956C194.437 216.721 194.312 216.406 194.312 216.01L194.29 204.592C194.29 203.477 194.173 202.605 193.938 201.974C194.085 201.842 194.275 201.725 194.51 201.622C194.759 201.505 195.038 201.446 195.346 201.446C195.757 201.446 196.094 201.563 196.358 201.798C196.622 202.018 196.754 202.326 196.754 202.722V208.288H203.112V204.592C203.112 203.536 202.995 202.663 202.76 201.974C203.156 201.622 203.618 201.446 204.146 201.446C204.571 201.446 204.916 201.563 205.18 201.798C205.444 202.018 205.576 202.326 205.576 202.722V214.118ZM210.447 204.064C210.036 204.064 209.684 203.925 209.391 203.646C209.112 203.367 208.973 203.03 208.973 202.634C208.973 202.223 209.112 201.879 209.391 201.6C209.684 201.307 210.036 201.16 210.447 201.16C210.843 201.16 211.18 201.307 211.459 201.6C211.752 201.879 211.899 202.223 211.899 202.634C211.899 203.03 211.752 203.367 211.459 203.646C211.18 203.925 210.843 204.064 210.447 204.064ZM211.745 214.118C211.745 215.262 211.862 216.135 212.097 216.736C211.686 217.103 211.224 217.286 210.711 217.286C210.315 217.286 209.992 217.176 209.743 216.956C209.494 216.721 209.369 216.406 209.369 216.01L209.347 208.574C209.347 207.503 209.23 206.623 208.995 205.934C209.435 205.582 209.882 205.406 210.337 205.406C210.733 205.406 211.056 205.523 211.305 205.758C211.569 205.978 211.701 206.286 211.701 206.682L211.745 214.118ZM222.758 205.516C223.228 205.516 223.565 205.597 223.77 205.758C223.99 205.919 224.1 206.183 224.1 206.55C224.1 207.005 224.012 207.437 223.836 207.848L220.36 216.912C219.788 217.161 219.246 217.286 218.732 217.286C218.043 217.286 217.61 217.007 217.434 216.45L214.244 207.298C214.215 207.225 214.142 207.049 214.024 206.77C213.922 206.477 213.79 206.242 213.628 206.066C213.966 205.699 214.428 205.516 215.014 205.516C215.381 205.516 215.689 205.597 215.938 205.758C216.202 205.919 216.371 206.154 216.444 206.462L219.15 215.79L221.548 207.254C221.636 206.873 221.68 206.579 221.68 206.374C221.68 206.11 221.629 205.905 221.526 205.758C221.937 205.597 222.348 205.516 222.758 205.516ZM234.528 213.964C234.762 214.067 234.88 214.25 234.88 214.514C234.88 214.69 234.828 214.903 234.726 215.152C234.447 215.841 233.948 216.369 233.23 216.736C232.526 217.103 231.675 217.286 230.678 217.286C229.006 217.286 227.686 216.773 226.718 215.746C225.764 214.719 225.288 213.26 225.288 211.368C225.288 209.505 225.757 208.053 226.696 207.012C227.634 205.956 228.976 205.428 230.722 205.428C231.998 205.428 233.032 205.714 233.824 206.286C234.616 206.843 235.012 207.643 235.012 208.684C235.012 209.769 234.572 210.605 233.692 211.192C232.826 211.764 231.646 212.05 230.15 212.05C229.299 212.05 228.544 212.013 227.884 211.94C227.986 213.304 228.331 214.279 228.918 214.866C229.504 215.453 230.304 215.746 231.316 215.746C232.108 215.746 232.782 215.585 233.34 215.262C233.912 214.939 234.308 214.507 234.528 213.964ZM230.634 206.33C229.768 206.33 229.086 206.741 228.588 207.562C228.104 208.369 227.862 209.52 227.862 211.016C228.243 211.06 228.632 211.082 229.028 211.082C230.025 211.082 230.839 210.884 231.47 210.488C232.1 210.092 232.416 209.366 232.416 208.31C232.416 207.591 232.247 207.085 231.91 206.792C231.572 206.484 231.147 206.33 230.634 206.33Z" fill="white"/>
<rect x="64.5" y="16.5" width="109" height="109" rx="9.5" fill="#201A18" stroke="#FCC41A"/>
<g clip-path="url(#clip0_1_4264)">
<path d="M125.252 59.8155C127.182 59.8155 128.693 58.6815 128.693 57.2345C128.693 55.7874 127.182 54.6534 125.252 54.6534C123.322 54.6534 121.811 55.7874 121.811 57.2345C121.811 58.6815 123.322 59.8155 125.252 59.8155ZM125.252 56.3741C126.302 56.3741 126.973 56.8834 126.973 57.2345C126.973 57.5855 126.302 58.0948 125.252 58.0948C124.201 58.0948 123.531 57.5855 123.531 57.2345C123.531 56.8834 124.201 56.3741 125.252 56.3741Z" fill="#FCC41A"/>
<path d="M150 68.4189H147.457C143.358 68.4189 139.357 69.7258 136.053 72.1201L134.225 65.7209L133.011 67.2368C131.12 69.6002 129.762 72.3576 129.034 75.287L127.518 73.7711L126.654 75.9314C125.723 78.2578 125.252 80.708 125.252 83.2142C125.252 84.2913 125.341 85.3754 125.518 86.4379L125.905 88.7599C125.045 90.1175 124.255 91.5259 123.539 92.9799C123.579 84.7172 124.401 76.427 125.985 68.3157C127.066 68.0335 127.913 67.1534 128.104 66.0048L128.428 64.0562C129.374 63.4367 130.061 62.5549 130.31 61.5371C133.184 61.55 135.576 59.6349 135.576 57.2345C135.576 54.8342 133.177 52.8649 130.31 52.9337C129.831 50.9721 127.745 49.4915 125.252 49.4915C122.758 49.4915 120.672 50.9721 120.193 52.9337C117.303 52.8718 114.927 54.8342 114.927 57.2345C114.927 59.6349 117.297 61.5431 120.193 61.5354C120.441 62.5532 121.129 63.435 122.074 64.0544L122.399 66.0023C122.575 67.0553 123.298 67.8907 124.248 68.24C123.399 72.6337 122.772 77.0774 122.367 81.5417C120.995 77.3071 118.45 73.5096 114.927 70.5904V65.8379C114.927 63.8514 113.797 62.1264 112.148 61.2635C112.83 59.7304 113.207 58.0639 113.207 56.3742V56.2159C114.206 55.8597 114.927 54.9134 114.927 53.7932V52.9329C115.876 52.9329 116.648 52.1611 116.648 51.2122V49.4915C116.648 48.5236 116.244 47.6512 115.598 47.0258L116.504 45.6673L115.072 44.7132L114.093 46.1801C113.809 46.1043 113.515 46.0501 113.207 46.0501V44.3295H111.486V46.5285C110.904 46.8683 110.434 47.3682 110.133 47.9747C108.315 45.6983 105.575 44.3295 102.573 44.3295C101.346 44.3295 100.282 45.2019 100.042 46.4046L99.764 47.7923C99.5713 47.7863 99.3794 47.7708 99.1858 47.7708C97.429 47.7708 96 49.1998 96 50.9567C96 51.1898 96.0258 51.423 96.0757 51.6475L97.2561 56.9567C97.491 58.0166 98.1706 58.8821 99.0878 59.3742C98.2145 61.0476 97.7207 62.9524 97.7207 64.9776V65.8379C97.7207 67.2609 98.8787 68.4189 100.302 68.4189H101.162C102.386 68.4189 103.583 68.2357 104.735 67.8778C105.254 70.1542 107.29 71.8603 109.722 71.8603H113.763C118.881 76.0682 121.81 82.2609 121.81 88.9002V92.0559C121.253 91.4863 120.679 90.9349 120.089 90.3989V85.9733C120.089 82.2093 118.404 78.7026 115.465 76.3513L114.361 75.4686L113.443 80.0636C109.783 78.4101 105.48 78.3257 101.772 79.8107L99.1833 80.8448L99.5033 81.6441C100.567 84.3034 102.62 86.4121 105.217 87.5494L102.26 89.3733L104.243 89.8672C106.439 90.4144 108.695 90.7206 110.96 90.7783L109.234 94.2291H111.486C114.206 94.2291 116.899 93.3937 119.157 91.8804C120.08 92.733 120.973 93.6174 121.81 94.5577V95.9498H114.927V97.6704H130.414V95.9498H124.026L124.74 94.433C125.479 92.862 126.313 91.3478 127.226 89.8895L130.315 90.4643C131.468 90.6793 132.65 90.7877 133.826 90.7877C136.791 90.7877 139.762 90.0866 142.415 88.7599L145.242 87.3464L140.611 85.0312C143.212 84.1433 145.52 82.5311 147.26 80.3561L148.098 79.31L144.535 77.5282L150 68.4189ZM101.497 58.7857L105.974 63.2629C105.513 63.7585 105.162 64.3289 104.93 64.9483L100.468 60.4858C100.757 59.8835 101.101 59.3157 101.497 58.7857ZM107.564 62.4189L102.642 57.4978C103.111 57.0513 103.622 56.6495 104.17 56.2968L109.002 61.1293L108.12 62.4525C107.938 62.431 107.75 62.4284 107.564 62.4189ZM111.486 56.2873V56.3742C111.486 57.749 111.199 59.1075 110.672 60.3662L105.765 55.4588C106.759 55.0441 107.833 54.7826 108.963 54.6965C109.582 55.4932 110.461 56.0782 111.486 56.2873ZM110.207 62.425C111.688 62.616 112.878 63.7516 113.148 65.2073C112.293 64.1749 111.176 63.367 109.898 62.8878L110.207 62.425ZM113.207 53.7932C113.207 54.2672 112.82 54.6535 112.346 54.6535C110.923 54.6535 109.765 53.4955 109.765 52.0725C109.765 51.7198 109.98 51.4178 110.283 51.2853C110.89 52.2695 111.969 52.9329 113.207 52.9329V53.7932ZM113.207 47.7708C114.156 47.7708 114.927 48.5425 114.927 49.4915L114.928 51.2122H113.207C112.258 51.2122 111.486 50.4405 111.486 49.4915C111.486 48.5425 112.258 47.7708 113.207 47.7708ZM101.729 46.7419C101.809 46.3409 102.164 46.0501 102.573 46.0501C105.374 46.0501 107.901 47.4929 109.352 49.8417C109.077 49.9991 108.836 50.2039 108.637 50.4473C106.448 49.1035 104.024 48.25 101.492 47.9274L101.729 46.7419ZM98.9355 56.5841L97.756 51.2741C97.7327 51.1709 97.7207 51.0642 97.7207 50.9567C97.7207 50.1488 98.378 49.4915 99.1858 49.4915C102.349 49.4915 105.399 50.4026 108.048 52.1104C108.051 52.4304 108.094 52.7393 108.163 53.0387C107.515 53.1238 106.888 53.271 106.278 53.4534C104.3 52.0106 101.894 51.2122 99.4414 51.2122V52.9329C101.154 52.9329 102.841 53.3897 104.323 54.2302C102.601 55.0983 101.125 56.3622 100.007 57.909C99.4715 57.6613 99.0688 57.1829 98.9355 56.5841ZM100.302 66.6983C99.8276 66.6983 99.4414 66.312 99.4414 65.8379V64.9776C99.4414 64.0347 99.5756 63.1261 99.8087 62.2598L103.876 66.3275C102.997 66.5666 102.089 66.6983 101.162 66.6983H100.302ZM109.722 70.1396C107.849 70.1396 106.324 68.6151 106.324 66.7413C106.324 65.8336 106.678 64.9802 107.319 64.3384L107.531 64.1267C110.691 64.3074 113.207 66.9349 113.207 70.1396H109.722ZM112.024 92.4964L113.738 89.0671H111.748C110.067 89.0671 108.388 88.9225 106.734 88.6352L109.204 87.1115L106.691 86.2744C104.412 85.5147 102.544 83.9025 101.458 81.7877L102.411 81.4066C105.847 80.0318 109.866 80.1832 113.195 81.8488L114.69 82.5965L115.472 78.6871C117.328 80.6435 118.369 83.2288 118.369 85.9724V88.9225C114.855 86.0679 110.883 83.7872 106.618 82.236L106.03 83.8534C110.333 85.4184 114.328 87.7568 117.822 90.7C116.079 91.7745 114.071 92.4026 112.024 92.4964ZM120.819 59.7562C120.581 59.7958 120.336 59.8156 120.089 59.8156C118.192 59.8156 116.648 58.6575 116.648 57.2345C116.648 55.8115 118.192 54.6535 120.089 54.6535C120.336 54.6535 120.581 54.6733 120.819 54.7129L121.838 54.8807L121.82 53.8491L121.812 53.733C121.854 52.3375 123.381 51.2122 125.252 51.2122C127.124 51.2122 128.652 52.3401 128.692 53.7373L128.666 54.8807L129.685 54.7129C129.922 54.6733 130.167 54.6535 130.414 54.6535C132.311 54.6535 133.855 55.8115 133.855 57.2345C133.855 58.6575 132.311 59.8156 130.414 59.8156C130.167 59.8156 129.922 59.7958 129.684 59.7562L128.665 59.5884L128.683 60.62L128.691 60.7361C128.649 62.1316 127.122 63.2569 125.252 63.2569C123.379 63.2569 121.851 62.129 121.811 60.7318L121.837 59.5884L120.819 59.7562ZM123.947 64.8219C124.366 64.9139 124.798 64.9776 125.252 64.9776C125.705 64.9776 126.137 64.9139 126.556 64.8219L126.406 65.7201C126.311 66.287 125.826 66.6983 125.252 66.6983C124.677 66.6983 124.192 66.287 124.097 65.7201L123.947 64.8219ZM145.401 79.8855C143.467 82.0183 140.872 83.4405 138.015 83.9171L135.405 84.3516L141.391 87.3447C138.075 88.9346 134.239 89.4439 130.628 88.772L128.249 88.3298C131.642 83.3957 136.027 79.2093 141.188 76.0338L140.286 74.5686C135.158 77.7235 130.76 81.8359 127.301 86.6727L127.214 86.154C127.054 85.1861 126.972 84.1958 126.972 83.2133C126.972 81.022 127.368 78.8772 128.148 76.8339L130.127 78.8127L130.401 77.1634C130.862 74.4017 131.926 71.7648 133.503 69.46L135.111 75.0874L136.126 74.2417C139.173 71.7029 143.001 70.2592 146.957 70.1465L142.103 78.2363L145.401 79.8855Z" fill="#FCC41A"/>
</g>
<circle cx="172" cy="20" r="19.5" fill="#29211E" stroke="#FCC41A"/>
<path d="M167.009 25.234C165.497 25.234 164.345 24.694 163.553 23.614C162.773 22.522 162.383 20.896 162.383 18.736C162.383 16.576 162.773 14.956 163.553 13.876C164.345 12.784 165.497 12.238 167.009 12.238C168.521 12.238 169.667 12.784 170.447 13.876C171.227 14.956 171.617 16.576 171.617 18.736C171.617 20.896 171.227 22.522 170.447 23.614C169.667 24.694 168.521 25.234 167.009 25.234ZM167.009 24.478C167.825 24.478 168.431 24.022 168.827 23.11C169.223 22.186 169.421 20.728 169.421 18.736C169.421 16.756 169.223 15.304 168.827 14.38C168.431 13.456 167.825 12.994 167.009 12.994C166.193 12.994 165.587 13.456 165.191 14.38C164.795 15.304 164.597 16.756 164.597 18.736C164.597 20.728 164.795 22.186 165.191 23.11C165.587 24.022 166.193 24.478 167.009 24.478ZM173.738 25C173.642 24.928 173.564 24.826 173.504 24.694C173.444 24.55 173.414 24.4 173.414 24.244C173.414 24.124 173.432 24.01 173.468 23.902C173.6 23.77 173.972 23.44 174.584 22.912C175.544 22.084 176.354 21.34 177.014 20.68C177.686 20.02 178.274 19.252 178.778 18.376C179.282 17.5 179.534 16.594 179.534 15.658C179.534 14.902 179.354 14.266 178.994 13.75C178.646 13.222 178.124 12.958 177.428 12.958C176.648 12.958 176.096 13.27 175.772 13.894C175.448 14.506 175.28 15.202 175.268 15.982C174.668 15.982 174.248 15.856 174.008 15.604C173.768 15.352 173.648 15.046 173.648 14.686C173.648 14.278 173.81 13.888 174.134 13.516C174.458 13.132 174.914 12.826 175.502 12.598C176.102 12.358 176.792 12.238 177.572 12.238C178.76 12.238 179.732 12.538 180.488 13.138C181.256 13.726 181.64 14.602 181.64 15.766C181.64 17.026 181.244 18.196 180.452 19.276C179.66 20.356 178.808 21.238 177.896 21.922C176.984 22.606 175.97 23.29 174.854 23.974C175.826 23.95 177.05 23.83 178.526 23.614C180.014 23.398 181.112 23.17 181.82 22.93C181.94 23.014 182.03 23.164 182.09 23.38C182.162 23.584 182.198 23.8 182.198 24.028C182.198 24.292 182.156 24.52 182.072 24.712C181.988 24.892 181.868 24.988 181.712 25H173.738Z" fill="white"/>
<defs>
<clipPath id="clip0_1_4264">
<rect width="54" height="54" fill="white" transform="translate(96 44)"/>
</clipPath>
</defs>
</svg>
