<svg width="251" height="229" viewBox="0 0 251 229" fill="none" xmlns="http://www.w3.org/2000/svg">
<path d="M10.8625 173.816C11.9625 173.977 12.8278 174.395 13.4585 175.07C14.0891 175.73 14.4045 176.617 14.4045 177.732C14.4045 179.199 13.8691 180.277 12.7985 180.966C11.7425 181.655 10.1951 182 8.15647 182H5.86847C5.44314 182 5.09847 181.89 4.83447 181.67C4.58514 181.435 4.46047 181.12 4.46047 180.724V169.592C4.46047 169.196 4.43114 168.756 4.37247 168.272C4.3138 167.773 4.21847 167.341 4.08647 166.974C4.89314 166.593 6.11047 166.402 7.73847 166.402C9.67447 166.402 11.1411 166.703 12.1385 167.304C13.1358 167.891 13.6345 168.829 13.6345 170.12C13.6345 171.029 13.3925 171.814 12.9085 172.474C12.4245 173.119 11.7425 173.567 10.8625 173.816ZM7.71647 167.326C7.3058 167.326 7.03447 167.333 6.90247 167.348V173.464H8.31047C9.19047 173.479 9.86514 173.207 10.3345 172.65C10.8185 172.078 11.0605 171.293 11.0605 170.296C11.0605 169.313 10.7965 168.573 10.2685 168.074C9.75514 167.575 8.90447 167.326 7.71647 167.326ZM8.13447 181.054C10.5398 181.054 11.7425 179.961 11.7425 177.776C11.7425 176.5 11.4345 175.62 10.8185 175.136C10.2025 174.637 9.31514 174.388 8.15647 174.388H6.90247V181.054H8.13447ZM25.5765 178.964C25.8112 179.067 25.9285 179.25 25.9285 179.514C25.9285 179.69 25.8772 179.903 25.7745 180.152C25.4958 180.841 24.9972 181.369 24.2785 181.736C23.5745 182.103 22.7238 182.286 21.7265 182.286C20.0545 182.286 18.7345 181.773 17.7665 180.746C16.8132 179.719 16.3365 178.26 16.3365 176.368C16.3365 174.505 16.8058 173.053 17.7445 172.012C18.6832 170.956 20.0252 170.428 21.7705 170.428C23.0465 170.428 24.0805 170.714 24.8725 171.286C25.6645 171.843 26.0605 172.643 26.0605 173.684C26.0605 174.769 25.6205 175.605 24.7405 176.192C23.8752 176.764 22.6945 177.05 21.1985 177.05C20.3478 177.05 19.5925 177.013 18.9325 176.94C19.0352 178.304 19.3798 179.279 19.9665 179.866C20.5532 180.453 21.3525 180.746 22.3645 180.746C23.1565 180.746 23.8312 180.585 24.3885 180.262C24.9605 179.939 25.3565 179.507 25.5765 178.964ZM21.6825 171.33C20.8172 171.33 20.1352 171.741 19.6365 172.562C19.1525 173.369 18.9105 174.52 18.9105 176.016C19.2918 176.06 19.6805 176.082 20.0765 176.082C21.0738 176.082 21.8878 175.884 22.5185 175.488C23.1492 175.092 23.4645 174.366 23.4645 173.31C23.4645 172.591 23.2958 172.085 22.9585 171.792C22.6212 171.484 22.1958 171.33 21.6825 171.33ZM36.9847 178.964C37.2194 179.067 37.3367 179.25 37.3367 179.514C37.3367 179.69 37.2854 179.903 37.1827 180.152C36.9041 180.841 36.4054 181.369 35.6867 181.736C34.9827 182.103 34.1321 182.286 33.1347 182.286C31.4627 182.286 30.1427 181.773 29.1747 180.746C28.2214 179.719 27.7447 178.26 27.7447 176.368C27.7447 174.505 28.2141 173.053 29.1527 172.012C30.0914 170.956 31.4334 170.428 33.1787 170.428C34.4547 170.428 35.4887 170.714 36.2807 171.286C37.0727 171.843 37.4687 172.643 37.4687 173.684C37.4687 174.769 37.0287 175.605 36.1487 176.192C35.2834 176.764 34.1027 177.05 32.6067 177.05C31.7561 177.05 31.0007 177.013 30.3407 176.94C30.4434 178.304 30.7881 179.279 31.3747 179.866C31.9614 180.453 32.7607 180.746 33.7727 180.746C34.5647 180.746 35.2394 180.585 35.7967 180.262C36.3687 179.939 36.7647 179.507 36.9847 178.964ZM33.0907 171.33C32.2254 171.33 31.5434 171.741 31.0447 172.562C30.5607 173.369 30.3187 174.52 30.3187 176.016C30.7001 176.06 31.0887 176.082 31.4847 176.082C32.4821 176.082 33.2961 175.884 33.9267 175.488C34.5574 175.092 34.8727 174.366 34.8727 173.31C34.8727 172.591 34.7041 172.085 34.3667 171.792C34.0294 171.484 33.6041 171.33 33.0907 171.33ZM43.2009 182.286C41.8223 182.286 40.7809 182.051 40.0769 181.582C39.3729 181.113 39.0209 180.482 39.0209 179.69C39.0209 179.294 39.1309 178.957 39.3509 178.678C39.5856 178.399 39.9449 178.26 40.4289 178.26C40.5169 178.26 40.6636 178.275 40.8689 178.304C40.8249 178.48 40.8029 178.641 40.8029 178.788C40.8029 178.964 40.8249 179.155 40.8689 179.36C40.9423 179.947 41.1989 180.423 41.6389 180.79C42.0936 181.157 42.7096 181.34 43.4869 181.34C44.1763 181.34 44.7336 181.215 45.1589 180.966C45.5843 180.702 45.7969 180.321 45.7969 179.822C45.7969 179.485 45.6943 179.191 45.4889 178.942C45.2983 178.678 45.0563 178.458 44.7629 178.282C44.4696 178.106 44.0516 177.886 43.5089 177.622C43.3916 177.578 43.2156 177.497 42.9809 177.38C42.1889 177.013 41.5583 176.691 41.0889 176.412C40.6343 176.119 40.2383 175.73 39.9009 175.246C39.5783 174.762 39.4169 174.168 39.4169 173.464C39.4169 172.437 39.8129 171.675 40.6049 171.176C41.3969 170.663 42.4016 170.406 43.6189 170.406C44.8363 170.406 45.7969 170.597 46.5009 170.978C47.2049 171.345 47.5569 171.88 47.5569 172.584C47.5569 172.907 47.4616 173.185 47.2709 173.42C47.0949 173.64 46.8089 173.757 46.4129 173.772C46.3396 173.787 46.2443 173.794 46.1269 173.794C46.0536 173.794 45.9143 173.779 45.7089 173.75C45.7236 173.662 45.7309 173.53 45.7309 173.354C45.7309 173.031 45.6869 172.789 45.5989 172.628C45.5109 172.217 45.2836 171.902 44.9169 171.682C44.5649 171.447 44.1029 171.33 43.5309 171.33C42.9883 171.33 42.5263 171.44 42.1449 171.66C41.7783 171.88 41.5949 172.217 41.5949 172.672C41.5949 173.083 41.7123 173.435 41.9469 173.728C42.1963 174.021 42.4969 174.271 42.8489 174.476C43.2009 174.681 43.6996 174.938 44.3449 175.246C45.2396 175.671 45.9069 176.016 46.3469 176.28C46.7869 176.529 47.1829 176.874 47.5349 177.314C47.8869 177.754 48.0629 178.289 48.0629 178.92C48.0629 179.859 47.6669 180.658 46.8749 181.318C46.0976 181.963 44.8729 182.286 43.2009 182.286ZM59.4694 182.308C57.7827 182.308 56.5067 182.015 55.6414 181.428C54.7907 180.841 54.3654 180.079 54.3654 179.14C54.3654 178.685 54.4901 178.326 54.7394 178.062C54.9887 177.783 55.3847 177.644 55.9274 177.644C56.0154 177.644 56.1914 177.659 56.4554 177.688C56.4114 177.835 56.3894 178.003 56.3894 178.194C56.3894 178.297 56.4041 178.48 56.4334 178.744C56.5214 179.492 56.8514 180.115 57.4234 180.614C57.9954 181.113 58.7801 181.362 59.7774 181.362C60.5987 181.362 61.2661 181.157 61.7794 180.746C62.2927 180.321 62.5494 179.712 62.5494 178.92C62.5494 178.392 62.4321 177.937 62.1974 177.556C61.9627 177.16 61.6181 176.801 61.1634 176.478C60.7234 176.155 60.1074 175.767 59.3154 175.312C58.2594 174.725 57.4307 174.212 56.8294 173.772C56.2427 173.317 55.7734 172.804 55.4214 172.232C55.0841 171.66 54.9154 170.978 54.9154 170.186C54.9154 168.91 55.3774 167.964 56.3014 167.348C57.2401 166.717 58.4354 166.402 59.8874 166.402C61.2661 166.402 62.3661 166.637 63.1874 167.106C64.0234 167.561 64.4414 168.206 64.4414 169.042C64.4414 169.805 64.0307 170.208 63.2094 170.252C63.1507 170.267 63.0627 170.274 62.9454 170.274C62.8281 170.274 62.6667 170.259 62.4614 170.23C62.4761 170.157 62.4834 170.061 62.4834 169.944C62.4834 169.607 62.4321 169.328 62.3294 169.108C62.2414 168.565 61.9627 168.133 61.4934 167.81C61.0241 167.487 60.4007 167.326 59.6234 167.326C58.9634 167.326 58.3914 167.487 57.9074 167.81C57.4381 168.118 57.2034 168.631 57.2034 169.35C57.2034 170.083 57.4527 170.707 57.9514 171.22C58.4647 171.733 59.3667 172.342 60.6574 173.046C61.5521 173.545 62.2927 174.014 62.8794 174.454C63.4807 174.894 63.9721 175.422 64.3534 176.038C64.7347 176.639 64.9254 177.336 64.9254 178.128C64.9254 178.891 64.7274 179.587 64.3314 180.218C63.9501 180.849 63.3487 181.355 62.5274 181.736C61.7061 182.117 60.6867 182.308 59.4694 182.308ZM75.8714 178.964C76.1061 179.067 76.2234 179.25 76.2234 179.514C76.2234 179.69 76.1721 179.903 76.0694 180.152C75.7908 180.841 75.2921 181.369 74.5734 181.736C73.8694 182.103 73.0188 182.286 72.0214 182.286C70.3494 182.286 69.0294 181.773 68.0614 180.746C67.1081 179.719 66.6314 178.26 66.6314 176.368C66.6314 174.505 67.1008 173.053 68.0394 172.012C68.9781 170.956 70.3201 170.428 72.0654 170.428C73.3414 170.428 74.3754 170.714 75.1674 171.286C75.9594 171.843 76.3554 172.643 76.3554 173.684C76.3554 174.769 75.9154 175.605 75.0354 176.192C74.1701 176.764 72.9894 177.05 71.4934 177.05C70.6428 177.05 69.8874 177.013 69.2274 176.94C69.3301 178.304 69.6748 179.279 70.2614 179.866C70.8481 180.453 71.6474 180.746 72.6594 180.746C73.4514 180.746 74.1261 180.585 74.6834 180.262C75.2554 179.939 75.6514 179.507 75.8714 178.964ZM71.9774 171.33C71.1121 171.33 70.4301 171.741 69.9314 172.562C69.4474 173.369 69.2054 174.52 69.2054 176.016C69.5868 176.06 69.9754 176.082 70.3714 176.082C71.3688 176.082 72.1828 175.884 72.8134 175.488C73.4441 175.092 73.7594 174.366 73.7594 173.31C73.7594 172.591 73.5908 172.085 73.2534 171.792C72.9161 171.484 72.4908 171.33 71.9774 171.33ZM89.0396 180.042C89.2156 180.277 89.3036 180.548 89.3036 180.856C89.3036 181.237 89.135 181.56 88.7976 181.824C88.4603 182.088 88.0276 182.22 87.4996 182.22C86.781 182.22 86.2383 181.978 85.8716 181.494C85.505 180.995 85.3143 180.196 85.2996 179.096C84.8596 180.049 84.2583 180.812 83.4956 181.384C82.733 181.956 81.8603 182.242 80.8776 182.242C80.027 182.242 79.3376 182.015 78.8096 181.56C78.2963 181.091 78.0396 180.46 78.0396 179.668C78.0396 178.744 78.3916 177.981 79.0956 177.38C79.7996 176.779 80.7016 176.324 81.8016 176.016C82.9016 175.708 84.0236 175.569 85.1676 175.598V175.048C85.1676 173.772 84.9916 172.833 84.6396 172.232C84.2876 171.631 83.701 171.33 82.8796 171.33C82.3223 171.33 81.8676 171.462 81.5156 171.726C81.1783 171.99 81.0096 172.423 81.0096 173.024C81.0096 173.361 81.0756 173.677 81.2076 173.97C81.3396 174.263 81.5596 174.483 81.8676 174.63C81.721 174.791 81.523 174.916 81.2736 175.004C81.039 175.077 80.7896 175.114 80.5256 175.114C79.939 175.114 79.4623 174.923 79.0956 174.542C78.7436 174.146 78.5676 173.669 78.5676 173.112C78.5676 172.247 78.9636 171.587 79.7556 171.132C80.5476 170.663 81.6403 170.428 83.0336 170.428C84.6176 170.428 85.7763 170.809 86.5096 171.572C87.2576 172.32 87.6316 173.523 87.6316 175.18V179.228C87.6316 180.005 87.881 180.394 88.3796 180.394C88.497 180.394 88.6143 180.365 88.7316 180.306C88.8636 180.247 88.9663 180.159 89.0396 180.042ZM81.9776 180.636C82.4616 180.636 82.953 180.445 83.4516 180.064C83.965 179.668 84.3903 179.147 84.7276 178.502C85.065 177.857 85.2336 177.167 85.2336 176.434C84.7203 176.405 84.1996 176.434 83.6716 176.522C83.1436 176.595 82.689 176.72 82.3076 176.896C81.7943 177.116 81.391 177.417 81.0976 177.798C80.819 178.165 80.6796 178.597 80.6796 179.096C80.6796 179.536 80.7823 179.903 80.9876 180.196C81.2076 180.489 81.5376 180.636 81.9776 180.636ZM93.4747 182.22C92.6974 182.22 92.096 181.978 91.6707 181.494C91.26 180.995 91.0547 180.306 91.0547 179.426V167.172C91.0547 166.776 91.1794 166.468 91.4287 166.248C91.6927 166.013 92.03 165.896 92.4407 165.896C92.9834 165.896 93.438 166.079 93.8047 166.446C93.658 166.974 93.5627 167.546 93.5187 168.162C93.4747 168.763 93.4527 169.621 93.4527 170.736V179.228C93.4527 180.005 93.7167 180.394 94.2447 180.394C94.3914 180.394 94.5307 180.365 94.6627 180.306C94.8094 180.247 94.912 180.159 94.9707 180.042C95.1614 180.277 95.2567 180.548 95.2567 180.856C95.2567 181.252 95.0807 181.582 94.7287 181.846C94.3767 182.095 93.9587 182.22 93.4747 182.22ZM107.622 182.286C105.715 182.286 104.234 181.597 103.178 180.218C102.122 178.839 101.594 176.881 101.594 174.344C101.594 171.821 102.136 169.871 103.222 168.492C104.322 167.099 105.847 166.402 107.798 166.402C108.59 166.402 109.345 166.505 110.064 166.71C110.782 166.915 111.362 167.201 111.802 167.568C112.256 167.935 112.484 168.36 112.484 168.844C112.484 169.24 112.308 169.577 111.956 169.856C111.604 170.12 111.127 170.245 110.526 170.23C110.291 168.294 109.389 167.326 107.82 167.326C105.458 167.326 104.278 169.665 104.278 174.344C104.278 179.023 105.436 181.362 107.754 181.362C108.56 181.362 109.235 181.091 109.778 180.548C110.32 179.991 110.68 179.177 110.856 178.106C110.929 178.091 111.054 178.084 111.23 178.084C111.684 178.084 112.073 178.194 112.396 178.414C112.718 178.619 112.88 178.927 112.88 179.338C112.88 179.91 112.63 180.423 112.132 180.878C111.633 181.333 110.98 181.685 110.174 181.934C109.367 182.169 108.516 182.286 107.622 182.286ZM123.911 178.964C124.145 179.067 124.263 179.25 124.263 179.514C124.263 179.69 124.211 179.903 124.109 180.152C123.83 180.841 123.331 181.369 122.613 181.736C121.909 182.103 121.058 182.286 120.061 182.286C118.389 182.286 117.069 181.773 116.101 180.746C115.147 179.719 114.671 178.26 114.671 176.368C114.671 174.505 115.14 173.053 116.079 172.012C117.017 170.956 118.359 170.428 120.105 170.428C121.381 170.428 122.415 170.714 123.207 171.286C123.999 171.843 124.395 172.643 124.395 173.684C124.395 174.769 123.955 175.605 123.075 176.192C122.209 176.764 121.029 177.05 119.533 177.05C118.682 177.05 117.927 177.013 117.267 176.94C117.369 178.304 117.714 179.279 118.301 179.866C118.887 180.453 119.687 180.746 120.699 180.746C121.491 180.746 122.165 180.585 122.723 180.262C123.295 179.939 123.691 179.507 123.911 178.964ZM120.017 171.33C119.151 171.33 118.469 171.741 117.971 172.562C117.487 173.369 117.245 174.52 117.245 176.016C117.626 176.06 118.015 176.082 118.411 176.082C119.408 176.082 120.222 175.884 120.853 175.488C121.483 175.092 121.799 174.366 121.799 173.31C121.799 172.591 121.63 172.085 121.293 171.792C120.955 171.484 120.53 171.33 120.017 171.33ZM129.225 182.22C128.447 182.22 127.846 181.978 127.421 181.494C127.01 180.995 126.805 180.306 126.805 179.426V167.172C126.805 166.776 126.929 166.468 127.179 166.248C127.443 166.013 127.78 165.896 128.191 165.896C128.733 165.896 129.188 166.079 129.555 166.446C129.408 166.974 129.313 167.546 129.269 168.162C129.225 168.763 129.203 169.621 129.203 170.736V179.228C129.203 180.005 129.467 180.394 129.995 180.394C130.141 180.394 130.281 180.365 130.413 180.306C130.559 180.247 130.662 180.159 130.721 180.042C130.911 180.277 131.007 180.548 131.007 180.856C131.007 181.252 130.831 181.582 130.479 181.846C130.127 182.095 129.709 182.22 129.225 182.22ZM135.434 182.22C134.656 182.22 134.055 181.978 133.63 181.494C133.219 180.995 133.014 180.306 133.014 179.426V167.172C133.014 166.776 133.138 166.468 133.388 166.248C133.652 166.013 133.989 165.896 134.4 165.896C134.942 165.896 135.397 166.079 135.764 166.446C135.617 166.974 135.522 167.546 135.478 168.162C135.434 168.763 135.412 169.621 135.412 170.736V179.228C135.412 180.005 135.676 180.394 136.204 180.394C136.35 180.394 136.49 180.365 136.622 180.306C136.768 180.247 136.871 180.159 136.93 180.042C137.12 180.277 137.216 180.548 137.216 180.856C137.216 181.252 137.04 181.582 136.688 181.846C136.336 182.095 135.918 182.22 135.434 182.22ZM142.545 182.286C141.166 182.286 140.125 182.051 139.421 181.582C138.717 181.113 138.365 180.482 138.365 179.69C138.365 179.294 138.475 178.957 138.695 178.678C138.929 178.399 139.289 178.26 139.773 178.26C139.861 178.26 140.007 178.275 140.213 178.304C140.169 178.48 140.147 178.641 140.147 178.788C140.147 178.964 140.169 179.155 140.213 179.36C140.286 179.947 140.543 180.423 140.983 180.79C141.437 181.157 142.053 181.34 142.831 181.34C143.52 181.34 144.077 181.215 144.503 180.966C144.928 180.702 145.141 180.321 145.141 179.822C145.141 179.485 145.038 179.191 144.833 178.942C144.642 178.678 144.4 178.458 144.107 178.282C143.813 178.106 143.395 177.886 142.853 177.622C142.735 177.578 142.559 177.497 142.325 177.38C141.533 177.013 140.902 176.691 140.433 176.412C139.978 176.119 139.582 175.73 139.245 175.246C138.922 174.762 138.761 174.168 138.761 173.464C138.761 172.437 139.157 171.675 139.949 171.176C140.741 170.663 141.745 170.406 142.963 170.406C144.18 170.406 145.141 170.597 145.845 170.978C146.549 171.345 146.901 171.88 146.901 172.584C146.901 172.907 146.805 173.185 146.615 173.42C146.439 173.64 146.153 173.757 145.757 173.772C145.683 173.787 145.588 173.794 145.471 173.794C145.397 173.794 145.258 173.779 145.053 173.75C145.067 173.662 145.075 173.53 145.075 173.354C145.075 173.031 145.031 172.789 144.943 172.628C144.855 172.217 144.627 171.902 144.261 171.682C143.909 171.447 143.447 171.33 142.875 171.33C142.332 171.33 141.87 171.44 141.489 171.66C141.122 171.88 140.939 172.217 140.939 172.672C140.939 173.083 141.056 173.435 141.291 173.728C141.54 174.021 141.841 174.271 142.193 174.476C142.545 174.681 143.043 174.938 143.689 175.246C144.583 175.671 145.251 176.016 145.691 176.28C146.131 176.529 146.527 176.874 146.879 177.314C147.231 177.754 147.407 178.289 147.407 178.92C147.407 179.859 147.011 180.658 146.219 181.318C145.441 181.963 144.217 182.286 142.545 182.286ZM171.595 166.446C172.064 166.446 172.409 166.527 172.629 166.688C172.864 166.849 172.981 167.099 172.981 167.436C172.981 167.656 172.893 168.103 172.717 168.778L169.043 181.934C168.5 182.169 167.958 182.286 167.415 182.286C167.034 182.286 166.711 182.227 166.447 182.11C166.198 181.993 166.044 181.817 165.985 181.582L163.235 171.132L160.331 181.934C159.744 182.169 159.216 182.286 158.747 182.286C157.823 182.286 157.31 182.051 157.207 181.582L153.775 168.162C153.716 167.957 153.636 167.744 153.533 167.524C153.43 167.289 153.306 167.099 153.159 166.952C153.467 166.585 153.951 166.402 154.611 166.402C155.52 166.402 156.041 166.717 156.173 167.348L159.077 180.262L161.827 169.79C161.871 169.541 161.893 169.335 161.893 169.174C161.893 168.866 161.842 168.595 161.739 168.36C161.974 168.243 162.252 168.155 162.575 168.096C162.898 168.023 163.191 167.986 163.455 167.986C164.159 167.986 164.57 168.191 164.687 168.602L167.767 180.262L170.341 168.184C170.356 168.111 170.378 167.986 170.407 167.81C170.436 167.634 170.451 167.473 170.451 167.326C170.451 167.047 170.4 166.835 170.297 166.688C170.341 166.673 170.473 166.629 170.693 166.556C170.928 166.483 171.228 166.446 171.595 166.446ZM176.422 169.064C176.011 169.064 175.659 168.925 175.366 168.646C175.087 168.367 174.948 168.03 174.948 167.634C174.948 167.223 175.087 166.879 175.366 166.6C175.659 166.307 176.011 166.16 176.422 166.16C176.818 166.16 177.155 166.307 177.434 166.6C177.727 166.879 177.874 167.223 177.874 167.634C177.874 168.03 177.727 168.367 177.434 168.646C177.155 168.925 176.818 169.064 176.422 169.064ZM177.72 179.118C177.72 180.262 177.837 181.135 178.072 181.736C177.661 182.103 177.199 182.286 176.686 182.286C176.29 182.286 175.967 182.176 175.718 181.956C175.468 181.721 175.344 181.406 175.344 181.01L175.322 173.574C175.322 172.503 175.204 171.623 174.97 170.934C175.41 170.582 175.857 170.406 176.312 170.406C176.708 170.406 177.03 170.523 177.28 170.758C177.544 170.978 177.676 171.286 177.676 171.682L177.72 179.118ZM184.113 170.736C184.391 170.736 184.773 170.729 185.257 170.714C185.741 170.699 186.122 170.685 186.401 170.67L186.379 171.264C186.364 171.455 186.298 171.609 186.181 171.726C186.078 171.829 185.939 171.88 185.763 171.88H183.695V172.606L183.673 179.228C183.673 180.02 184.017 180.416 184.707 180.416C184.912 180.416 185.103 180.387 185.279 180.328C185.469 180.255 185.594 180.159 185.653 180.042C185.843 180.321 185.939 180.592 185.939 180.856C185.939 181.267 185.733 181.604 185.323 181.868C184.927 182.117 184.413 182.242 183.783 182.242C182.991 182.242 182.375 181.993 181.935 181.494C181.495 180.995 181.275 180.306 181.275 179.426V171.88H180.967C180.776 171.88 180.556 171.887 180.307 171.902C180.057 171.917 179.837 171.939 179.647 171.968L179.669 171.33C179.683 171.139 179.749 170.993 179.867 170.89C179.984 170.787 180.131 170.736 180.307 170.736H181.275V169.064C181.275 168.683 181.407 168.382 181.671 168.162C181.935 167.927 182.272 167.81 182.683 167.81C183.196 167.81 183.651 167.986 184.047 168.338C183.871 168.983 183.761 169.783 183.717 170.736H184.113ZM197.988 179.118C197.988 180.262 198.105 181.135 198.34 181.736C197.944 182.103 197.489 182.286 196.976 182.286C196.565 182.286 196.228 182.169 195.964 181.934C195.714 181.699 195.59 181.391 195.59 181.01V175.268C195.59 174.021 195.443 173.105 195.15 172.518C194.871 171.917 194.372 171.616 193.654 171.616C193.184 171.616 192.744 171.807 192.334 172.188C191.938 172.555 191.615 173.127 191.366 173.904C191.116 174.667 190.992 175.62 190.992 176.764C190.992 178.495 191.006 179.639 191.036 180.196C191.08 180.753 191.197 181.274 191.388 181.758C191.256 181.89 191.072 182.007 190.838 182.11C190.603 182.227 190.332 182.286 190.024 182.286C189.613 182.286 189.276 182.161 189.012 181.912C188.762 181.663 188.638 181.325 188.638 180.9L188.616 167.172C188.616 166.761 188.733 166.453 188.968 166.248C189.217 166.028 189.547 165.918 189.958 165.918C190.251 165.918 190.522 165.977 190.772 166.094C191.036 166.197 191.248 166.314 191.41 166.446C191.248 166.974 191.138 167.575 191.08 168.25C191.021 168.925 190.984 169.797 190.97 170.868V172.804C191.278 172.041 191.725 171.455 192.312 171.044C192.913 170.633 193.624 170.428 194.446 170.428C195.648 170.428 196.536 170.802 197.108 171.55C197.68 172.298 197.966 173.42 197.966 174.916L197.988 179.118ZM223.05 166.446C223.52 166.446 223.864 166.527 224.084 166.688C224.319 166.849 224.436 167.099 224.436 167.436C224.436 167.656 224.348 168.103 224.172 168.778L220.498 181.934C219.956 182.169 219.413 182.286 218.87 182.286C218.489 182.286 218.166 182.227 217.902 182.11C217.653 181.993 217.499 181.817 217.44 181.582L214.69 171.132L211.786 181.934C211.2 182.169 210.672 182.286 210.202 182.286C209.278 182.286 208.765 182.051 208.662 181.582L205.23 168.162C205.172 167.957 205.091 167.744 204.988 167.524C204.886 167.289 204.761 167.099 204.614 166.952C204.922 166.585 205.406 166.402 206.066 166.402C206.976 166.402 207.496 166.717 207.628 167.348L210.532 180.262L213.282 169.79C213.326 169.541 213.348 169.335 213.348 169.174C213.348 168.866 213.297 168.595 213.194 168.36C213.429 168.243 213.708 168.155 214.03 168.096C214.353 168.023 214.646 167.986 214.91 167.986C215.614 167.986 216.025 168.191 216.142 168.602L219.222 180.262L221.796 168.184C221.811 168.111 221.833 167.986 221.862 167.81C221.892 167.634 221.906 167.473 221.906 167.326C221.906 167.047 221.855 166.835 221.752 166.688C221.796 166.673 221.928 166.629 222.148 166.556C222.383 166.483 222.684 166.446 223.05 166.446ZM236.831 180.042C237.007 180.277 237.095 180.548 237.095 180.856C237.095 181.237 236.926 181.56 236.589 181.824C236.251 182.088 235.819 182.22 235.291 182.22C234.572 182.22 234.029 181.978 233.663 181.494C233.296 180.995 233.105 180.196 233.091 179.096C232.651 180.049 232.049 180.812 231.287 181.384C230.524 181.956 229.651 182.242 228.669 182.242C227.818 182.242 227.129 182.015 226.601 181.56C226.087 181.091 225.831 180.46 225.831 179.668C225.831 178.744 226.183 177.981 226.887 177.38C227.591 176.779 228.493 176.324 229.593 176.016C230.693 175.708 231.815 175.569 232.959 175.598V175.048C232.959 173.772 232.783 172.833 232.431 172.232C232.079 171.631 231.492 171.33 230.671 171.33C230.113 171.33 229.659 171.462 229.307 171.726C228.969 171.99 228.801 172.423 228.801 173.024C228.801 173.361 228.867 173.677 228.999 173.97C229.131 174.263 229.351 174.483 229.659 174.63C229.512 174.791 229.314 174.916 229.065 175.004C228.83 175.077 228.581 175.114 228.317 175.114C227.73 175.114 227.253 174.923 226.887 174.542C226.535 174.146 226.359 173.669 226.359 173.112C226.359 172.247 226.755 171.587 227.547 171.132C228.339 170.663 229.431 170.428 230.825 170.428C232.409 170.428 233.567 170.809 234.301 171.572C235.049 172.32 235.423 173.523 235.423 175.18V179.228C235.423 180.005 235.672 180.394 236.171 180.394C236.288 180.394 236.405 180.365 236.523 180.306C236.655 180.247 236.757 180.159 236.831 180.042ZM229.769 180.636C230.253 180.636 230.744 180.445 231.243 180.064C231.756 179.668 232.181 179.147 232.519 178.502C232.856 177.857 233.025 177.167 233.025 176.434C232.511 176.405 231.991 176.434 231.463 176.522C230.935 176.595 230.48 176.72 230.099 176.896C229.585 177.116 229.182 177.417 228.889 177.798C228.61 178.165 228.471 178.597 228.471 179.096C228.471 179.536 228.573 179.903 228.779 180.196C228.999 180.489 229.329 180.636 229.769 180.636ZM247.514 179.536C247.748 179.624 247.946 179.778 248.108 179.998C248.269 180.203 248.35 180.445 248.35 180.724C248.35 181.149 248.174 181.523 247.822 181.846C247.47 182.154 247 182.308 246.414 182.308C245.827 182.308 245.358 182.132 245.006 181.78C244.654 181.428 244.258 180.834 243.818 179.998L242.63 177.864L240.364 181.582C240.07 182.051 239.667 182.286 239.154 182.286C238.787 182.286 238.479 182.176 238.23 181.956C237.98 181.721 237.834 181.347 237.79 180.834C238.23 180.717 238.611 180.519 238.934 180.24C239.256 179.961 239.572 179.587 239.88 179.118L241.794 176.368L240.056 173.376C239.894 173.097 239.74 172.899 239.594 172.782C239.447 172.65 239.3 172.584 239.154 172.584C238.978 172.584 238.831 172.643 238.714 172.76C238.596 172.877 238.523 173.024 238.494 173.2C238.244 173.112 238.039 172.965 237.878 172.76C237.731 172.555 237.658 172.313 237.658 172.034C237.658 171.594 237.826 171.22 238.164 170.912C238.516 170.589 239.014 170.428 239.66 170.428C240.056 170.428 240.386 170.509 240.65 170.67C240.928 170.817 241.17 171.044 241.376 171.352C241.596 171.66 241.867 172.122 242.19 172.738L243.224 174.652L245.358 171.176C245.622 170.677 246.04 170.428 246.612 170.428C247.022 170.428 247.338 170.545 247.558 170.78C247.792 171.015 247.939 171.389 247.998 171.902C247.558 172.034 247.176 172.247 246.854 172.54C246.546 172.819 246.23 173.193 245.908 173.662L244.082 176.17L245.952 179.382C246.098 179.631 246.252 179.829 246.414 179.976C246.575 180.108 246.736 180.174 246.898 180.174C247.044 180.174 247.176 180.108 247.294 179.976C247.411 179.844 247.484 179.697 247.514 179.536ZM48.5094 215.042C48.6854 215.277 48.7734 215.548 48.7734 215.856C48.7734 216.237 48.6047 216.56 48.2674 216.824C47.93 217.088 47.4974 217.22 46.9694 217.22C46.2507 217.22 45.708 216.978 45.3414 216.494C44.9747 215.995 44.784 215.196 44.7694 214.096C44.3294 215.049 43.728 215.812 42.9654 216.384C42.2027 216.956 41.33 217.242 40.3474 217.242C39.4967 217.242 38.8074 217.015 38.2794 216.56C37.766 216.091 37.5094 215.46 37.5094 214.668C37.5094 213.744 37.8614 212.981 38.5654 212.38C39.2694 211.779 40.1714 211.324 41.2714 211.016C42.3714 210.708 43.4934 210.569 44.6374 210.598V210.048C44.6374 208.772 44.4614 207.833 44.1094 207.232C43.7574 206.631 43.1707 206.33 42.3494 206.33C41.792 206.33 41.3374 206.462 40.9854 206.726C40.648 206.99 40.4794 207.423 40.4794 208.024C40.4794 208.361 40.5454 208.677 40.6774 208.97C40.8094 209.263 41.0294 209.483 41.3374 209.63C41.1907 209.791 40.9927 209.916 40.7434 210.004C40.5087 210.077 40.2594 210.114 39.9954 210.114C39.4087 210.114 38.932 209.923 38.5654 209.542C38.2134 209.146 38.0374 208.669 38.0374 208.112C38.0374 207.247 38.4334 206.587 39.2254 206.132C40.0174 205.663 41.11 205.428 42.5034 205.428C44.0874 205.428 45.246 205.809 45.9794 206.572C46.7274 207.32 47.1014 208.523 47.1014 210.18V214.228C47.1014 215.005 47.3507 215.394 47.8494 215.394C47.9667 215.394 48.084 215.365 48.2014 215.306C48.3334 215.247 48.436 215.159 48.5094 215.042ZM41.4474 215.636C41.9314 215.636 42.4227 215.445 42.9214 215.064C43.4347 214.668 43.86 214.147 44.1974 213.502C44.5347 212.857 44.7034 212.167 44.7034 211.434C44.19 211.405 43.6694 211.434 43.1414 211.522C42.6134 211.595 42.1587 211.72 41.7774 211.896C41.264 212.116 40.8607 212.417 40.5674 212.798C40.2887 213.165 40.1494 213.597 40.1494 214.096C40.1494 214.536 40.252 214.903 40.4574 215.196C40.6774 215.489 41.0074 215.636 41.4474 215.636ZM60.2044 214.118C60.2338 215.321 60.3658 216.193 60.6004 216.736C60.2044 217.103 59.7424 217.286 59.2144 217.286C58.8038 217.286 58.4664 217.176 58.2024 216.956C57.9384 216.721 57.8064 216.406 57.8064 216.01V210.268C57.7918 209.051 57.6451 208.156 57.3664 207.584C57.1024 206.997 56.6111 206.704 55.8924 206.704C55.4084 206.704 54.9611 206.887 54.5504 207.254C54.1544 207.621 53.8318 208.185 53.5824 208.948C53.3331 209.696 53.2084 210.635 53.2084 211.764C53.2084 213.495 53.2304 214.639 53.2744 215.196C53.3184 215.753 53.4358 216.274 53.6264 216.758C53.4798 216.89 53.2818 217.007 53.0324 217.11C52.7978 217.227 52.5411 217.286 52.2624 217.286C51.8371 217.286 51.4924 217.161 51.2284 216.912C50.9644 216.663 50.8324 216.325 50.8324 215.9V208.398C50.8178 207.987 50.7664 207.694 50.6784 207.518C50.5904 207.342 50.4438 207.254 50.2384 207.254C49.9598 207.254 49.7691 207.357 49.6664 207.562C49.4758 207.283 49.3804 207.005 49.3804 206.726C49.3804 206.345 49.5198 206.037 49.7984 205.802C50.0771 205.553 50.4658 205.428 50.9644 205.428C51.5951 205.428 52.0791 205.648 52.4164 206.088C52.7684 206.513 52.9444 207.151 52.9444 208.002V208.112C53.2378 207.247 53.6998 206.587 54.3304 206.132C54.9758 205.663 55.7531 205.428 56.6624 205.428C57.8651 205.428 58.7524 205.802 59.3244 206.55C59.9111 207.298 60.2044 208.42 60.2044 209.916V214.118ZM73.7356 215.086C73.9116 215.35 73.9996 215.629 73.9996 215.922C73.9996 216.289 73.8383 216.589 73.5156 216.824C73.2076 217.059 72.8116 217.176 72.3276 217.176C71.037 217.176 70.333 216.23 70.2156 214.338C69.5116 216.303 68.2503 217.286 66.4316 217.286C65.0676 217.286 64.085 216.78 63.4836 215.768C62.8823 214.741 62.5816 213.429 62.5816 211.83C62.5816 209.791 62.985 208.215 63.7916 207.1C64.5983 205.985 65.7496 205.428 67.2456 205.428C67.9496 205.428 68.5436 205.56 69.0276 205.824C69.5116 206.088 69.8636 206.462 70.0836 206.946V205.054C70.0836 203.573 69.9443 202.37 69.6656 201.446C70.0763 201.079 70.5383 200.896 71.0516 200.896C71.4623 200.896 71.7996 201.013 72.0636 201.248C72.3276 201.483 72.4596 201.791 72.4596 202.172L72.4376 214.228C72.4376 214.991 72.6796 215.372 73.1636 215.372C73.4423 215.372 73.633 215.277 73.7356 215.086ZM67.1136 215.944C68.0376 215.944 68.7563 215.372 69.2696 214.228C69.783 213.084 70.0396 211.705 70.0396 210.092C70.0396 209.08 69.8783 208.266 69.5556 207.65C69.233 207.019 68.639 206.704 67.7736 206.704C66.0283 206.704 65.1556 208.391 65.1556 211.764C65.1556 213.113 65.295 214.147 65.5736 214.866C65.8523 215.585 66.3656 215.944 67.1136 215.944ZM92.4559 214.118C92.4559 215.262 92.5732 216.135 92.8079 216.736C92.3972 217.103 91.9279 217.286 91.3999 217.286C90.9892 217.286 90.6519 217.176 90.3879 216.956C90.1386 216.721 90.0139 216.406 90.0139 216.01L89.9919 209.652H83.6339V214.118C83.6339 215.262 83.7512 216.135 83.9859 216.736C83.5752 217.103 83.1059 217.286 82.5779 217.286C82.1672 217.286 81.8299 217.176 81.5659 216.956C81.3166 216.721 81.1919 216.406 81.1919 216.01L81.1699 204.592C81.1699 203.477 81.0526 202.605 80.8179 201.974C80.9646 201.842 81.1552 201.725 81.3899 201.622C81.6392 201.505 81.9179 201.446 82.2259 201.446C82.6366 201.446 82.9739 201.563 83.2379 201.798C83.5019 202.018 83.6339 202.326 83.6339 202.722V208.288H89.9919V204.592C89.9919 203.536 89.8746 202.663 89.6399 201.974C90.0359 201.622 90.4979 201.446 91.0259 201.446C91.4512 201.446 91.7959 201.563 92.0599 201.798C92.3239 202.018 92.4559 202.326 92.4559 202.722V214.118ZM100.517 217.286C98.8595 217.286 97.5689 216.765 96.6449 215.724C95.7355 214.683 95.2809 213.231 95.2809 211.368C95.2809 209.491 95.7429 208.031 96.6669 206.99C97.5909 205.949 98.8742 205.428 100.517 205.428C102.174 205.428 103.465 205.949 104.389 206.99C105.313 208.031 105.775 209.491 105.775 211.368C105.775 213.231 105.313 214.683 104.389 215.724C103.465 216.765 102.174 217.286 100.517 217.286ZM100.517 216.384C101.397 216.384 102.057 215.959 102.497 215.108C102.952 214.257 103.179 213.011 103.179 211.368C103.179 209.711 102.952 208.457 102.497 207.606C102.057 206.755 101.397 206.33 100.517 206.33C99.6369 206.33 98.9695 206.755 98.5149 207.606C98.0749 208.457 97.8549 209.711 97.8549 211.368C97.8549 213.011 98.0749 214.257 98.5149 215.108C98.9695 215.959 99.6369 216.384 100.517 216.384ZM117.89 214.118C117.919 215.321 118.051 216.193 118.286 216.736C117.89 217.103 117.428 217.286 116.9 217.286C116.489 217.286 116.152 217.176 115.888 216.956C115.624 216.721 115.492 216.406 115.492 216.01V210.268C115.477 209.051 115.331 208.156 115.052 207.584C114.788 206.997 114.297 206.704 113.578 206.704C113.094 206.704 112.647 206.887 112.236 207.254C111.84 207.621 111.517 208.185 111.268 208.948C111.019 209.696 110.894 210.635 110.894 211.764C110.894 213.495 110.916 214.639 110.96 215.196C111.004 215.753 111.121 216.274 111.312 216.758C111.165 216.89 110.967 217.007 110.718 217.11C110.483 217.227 110.227 217.286 109.948 217.286C109.523 217.286 109.178 217.161 108.914 216.912C108.65 216.663 108.518 216.325 108.518 215.9V208.398C108.503 207.987 108.452 207.694 108.364 207.518C108.276 207.342 108.129 207.254 107.924 207.254C107.645 207.254 107.455 207.357 107.352 207.562C107.161 207.283 107.066 207.005 107.066 206.726C107.066 206.345 107.205 206.037 107.484 205.802C107.763 205.553 108.151 205.428 108.65 205.428C109.281 205.428 109.765 205.648 110.102 206.088C110.454 206.513 110.63 207.151 110.63 208.002V208.112C110.923 207.247 111.385 206.587 112.016 206.132C112.661 205.663 113.439 205.428 114.348 205.428C115.551 205.428 116.438 205.802 117.01 206.55C117.597 207.298 117.89 208.42 117.89 209.916V214.118ZM129.507 213.964C129.742 214.067 129.859 214.25 129.859 214.514C129.859 214.69 129.808 214.903 129.705 215.152C129.427 215.841 128.928 216.369 128.209 216.736C127.505 217.103 126.655 217.286 125.657 217.286C123.985 217.286 122.665 216.773 121.697 215.746C120.744 214.719 120.267 213.26 120.267 211.368C120.267 209.505 120.737 208.053 121.675 207.012C122.614 205.956 123.956 205.428 125.701 205.428C126.977 205.428 128.011 205.714 128.803 206.286C129.595 206.843 129.991 207.643 129.991 208.684C129.991 209.769 129.551 210.605 128.671 211.192C127.806 211.764 126.625 212.05 125.129 212.05C124.279 212.05 123.523 212.013 122.863 211.94C122.966 213.304 123.311 214.279 123.897 214.866C124.484 215.453 125.283 215.746 126.295 215.746C127.087 215.746 127.762 215.585 128.319 215.262C128.891 214.939 129.287 214.507 129.507 213.964ZM125.613 206.33C124.748 206.33 124.066 206.741 123.567 207.562C123.083 208.369 122.841 209.52 122.841 211.016C123.223 211.06 123.611 211.082 124.007 211.082C125.005 211.082 125.819 210.884 126.449 210.488C127.08 210.092 127.395 209.366 127.395 208.31C127.395 207.591 127.227 207.085 126.889 206.792C126.552 206.484 126.127 206.33 125.613 206.33ZM141.619 215.878C141.619 219.97 139.793 222.016 136.141 222.016C134.983 222.016 134.029 221.833 133.281 221.466C132.533 221.114 132.159 220.52 132.159 219.684C132.159 219.229 132.313 218.855 132.621 218.562C132.944 218.283 133.355 218.144 133.853 218.144C134.381 218.144 134.755 218.283 134.975 218.562C134.77 218.694 134.616 218.855 134.513 219.046C134.425 219.251 134.381 219.449 134.381 219.64C134.381 220.124 134.55 220.505 134.887 220.784C135.225 221.063 135.657 221.202 136.185 221.202C137.241 221.202 138.033 220.762 138.561 219.882C139.089 219.002 139.353 217.748 139.353 216.12C139.353 215.841 139.397 215.277 139.485 214.426C139.192 215.321 138.737 216.003 138.121 216.472C137.505 216.941 136.728 217.176 135.789 217.176C134.631 217.176 133.773 216.831 133.215 216.142C132.673 215.438 132.401 214.279 132.401 212.666L132.379 208.596C132.379 207.467 132.262 206.587 132.027 205.956C132.438 205.604 132.9 205.428 133.413 205.428C133.824 205.428 134.154 205.545 134.403 205.78C134.667 206 134.799 206.308 134.799 206.704V212.314C134.799 213.59 134.924 214.521 135.173 215.108C135.437 215.68 135.892 215.966 136.537 215.966C137.329 215.966 137.975 215.541 138.473 214.69C138.987 213.825 139.243 212.549 139.243 210.862C139.243 209.175 139.221 208.053 139.177 207.496C139.133 206.939 139.016 206.418 138.825 205.934C139.251 205.597 139.713 205.428 140.211 205.428C140.607 205.428 140.937 205.553 141.201 205.802C141.465 206.051 141.597 206.389 141.597 206.814L141.619 215.878ZM160.794 215.152C160.911 215.401 160.97 215.636 160.97 215.856C160.97 216.311 160.794 216.663 160.442 216.912C160.104 217.147 159.752 217.264 159.386 217.264C158.887 217.264 158.476 217.161 158.154 216.956C157.846 216.736 157.582 216.443 157.362 216.076C157.142 215.695 156.9 215.167 156.636 214.492L155.822 212.38C155.631 211.896 155.448 211.515 155.272 211.236C155.11 210.957 154.868 210.723 154.546 210.532C154.238 210.341 153.82 210.246 153.292 210.246L152.148 210.224V214.25C152.148 215.321 152.265 216.149 152.5 216.736C152.089 217.103 151.627 217.286 151.114 217.286C150.688 217.286 150.344 217.176 150.08 216.956C149.83 216.721 149.706 216.406 149.706 216.01V204.592C149.706 204.196 149.676 203.756 149.618 203.272C149.559 202.773 149.464 202.341 149.332 201.974C150.138 201.593 151.378 201.402 153.05 201.402C155.176 201.402 156.76 201.725 157.802 202.37C158.858 203.001 159.386 204.035 159.386 205.472C159.386 206.543 159.078 207.445 158.462 208.178C157.846 208.911 157.002 209.417 155.932 209.696C156.445 209.828 156.863 210.063 157.186 210.4C157.508 210.723 157.809 211.155 158.088 211.698L159.078 214.008C159.268 214.492 159.452 214.844 159.628 215.064C159.818 215.269 160.016 215.379 160.222 215.394C160.456 215.394 160.647 215.313 160.794 215.152ZM152.148 209.3C152.397 209.315 152.815 209.322 153.402 209.322C154.428 209.293 155.235 208.941 155.822 208.266C156.423 207.591 156.724 206.719 156.724 205.648C156.724 203.433 155.558 202.326 153.226 202.326C152.683 202.326 152.324 202.333 152.148 202.348V209.3ZM164.165 204.064C163.754 204.064 163.402 203.925 163.109 203.646C162.83 203.367 162.691 203.03 162.691 202.634C162.691 202.223 162.83 201.879 163.109 201.6C163.402 201.307 163.754 201.16 164.165 201.16C164.561 201.16 164.898 201.307 165.177 201.6C165.47 201.879 165.617 202.223 165.617 202.634C165.617 203.03 165.47 203.367 165.177 203.646C164.898 203.925 164.561 204.064 164.165 204.064ZM165.463 214.118C165.463 215.262 165.58 216.135 165.815 216.736C165.404 217.103 164.942 217.286 164.429 217.286C164.033 217.286 163.71 217.176 163.461 216.956C163.211 216.721 163.087 216.406 163.087 216.01L163.065 208.574C163.065 207.503 162.947 206.623 162.713 205.934C163.153 205.582 163.6 205.406 164.055 205.406C164.451 205.406 164.773 205.523 165.023 205.758C165.287 205.978 165.419 206.286 165.419 206.682L165.463 214.118ZM175.024 205.428C176.417 205.428 177.407 205.949 177.994 206.99C178.595 208.031 178.896 209.337 178.896 210.906C178.896 212.945 178.478 214.521 177.642 215.636C176.821 216.736 175.669 217.286 174.188 217.286C173.499 217.286 172.912 217.161 172.428 216.912C171.944 216.648 171.599 216.274 171.394 215.79V217.55C171.394 219.105 171.519 220.351 171.768 221.29C171.372 221.642 170.91 221.818 170.382 221.818C169.986 221.818 169.656 221.701 169.392 221.466C169.128 221.246 168.996 220.945 168.996 220.564L169.018 208.464C169.018 208.068 168.967 207.782 168.864 207.606C168.776 207.43 168.629 207.342 168.424 207.342C168.145 207.342 167.955 207.437 167.852 207.628C167.661 207.349 167.566 207.071 167.566 206.792C167.566 206.425 167.713 206.125 168.006 205.89C168.299 205.641 168.681 205.516 169.15 205.516C170.426 205.516 171.123 206.469 171.24 208.376C171.959 206.411 173.22 205.428 175.024 205.428ZM173.616 215.988C175.42 215.988 176.322 214.294 176.322 210.906C176.322 209.601 176.183 208.589 175.904 207.87C175.625 207.137 175.097 206.77 174.32 206.77C173.704 206.77 173.176 207.034 172.736 207.562C172.296 208.09 171.966 208.787 171.746 209.652C171.526 210.517 171.416 211.434 171.416 212.402C171.416 213.575 171.577 214.47 171.9 215.086C172.237 215.687 172.809 215.988 173.616 215.988ZM189.857 213.964C190.091 214.067 190.209 214.25 190.209 214.514C190.209 214.69 190.157 214.903 190.055 215.152C189.776 215.841 189.277 216.369 188.559 216.736C187.855 217.103 187.004 217.286 186.007 217.286C184.335 217.286 183.015 216.773 182.047 215.746C181.093 214.719 180.617 213.26 180.617 211.368C180.617 209.505 181.086 208.053 182.025 207.012C182.963 205.956 184.305 205.428 186.051 205.428C187.327 205.428 188.361 205.714 189.153 206.286C189.945 206.843 190.341 207.643 190.341 208.684C190.341 209.769 189.901 210.605 189.021 211.192C188.155 211.764 186.975 212.05 185.479 212.05C184.628 212.05 183.873 212.013 183.213 211.94C183.315 213.304 183.66 214.279 184.247 214.866C184.833 215.453 185.633 215.746 186.645 215.746C187.437 215.746 188.111 215.585 188.669 215.262C189.241 214.939 189.637 214.507 189.857 213.964ZM185.963 206.33C185.097 206.33 184.415 206.741 183.917 207.562C183.433 208.369 183.191 209.52 183.191 211.016C183.572 211.06 183.961 211.082 184.357 211.082C185.354 211.082 186.168 210.884 186.799 210.488C187.429 210.092 187.745 209.366 187.745 208.31C187.745 207.591 187.576 207.085 187.239 206.792C186.901 206.484 186.476 206.33 185.963 206.33ZM202.431 214.118C202.46 215.321 202.592 216.193 202.827 216.736C202.431 217.103 201.969 217.286 201.441 217.286C201.03 217.286 200.693 217.176 200.429 216.956C200.165 216.721 200.033 216.406 200.033 216.01V210.268C200.018 209.051 199.872 208.156 199.593 207.584C199.329 206.997 198.838 206.704 198.119 206.704C197.635 206.704 197.188 206.887 196.777 207.254C196.381 207.621 196.058 208.185 195.809 208.948C195.56 209.696 195.435 210.635 195.435 211.764C195.435 213.495 195.457 214.639 195.501 215.196C195.545 215.753 195.662 216.274 195.853 216.758C195.706 216.89 195.508 217.007 195.259 217.11C195.024 217.227 194.768 217.286 194.489 217.286C194.064 217.286 193.719 217.161 193.455 216.912C193.191 216.663 193.059 216.325 193.059 215.9V208.398C193.044 207.987 192.993 207.694 192.905 207.518C192.817 207.342 192.67 207.254 192.465 207.254C192.186 207.254 191.996 207.357 191.893 207.562C191.702 207.283 191.607 207.005 191.607 206.726C191.607 206.345 191.746 206.037 192.025 205.802C192.304 205.553 192.692 205.428 193.191 205.428C193.822 205.428 194.306 205.648 194.643 206.088C194.995 206.513 195.171 207.151 195.171 208.002V208.112C195.464 207.247 195.926 206.587 196.557 206.132C197.202 205.663 197.98 205.428 198.889 205.428C200.092 205.428 200.979 205.802 201.551 206.55C202.138 207.298 202.431 208.42 202.431 209.916V214.118ZM208.856 217.286C207.478 217.286 206.436 217.051 205.732 216.582C205.028 216.113 204.676 215.482 204.676 214.69C204.676 214.294 204.786 213.957 205.006 213.678C205.241 213.399 205.6 213.26 206.084 213.26C206.172 213.26 206.319 213.275 206.524 213.304C206.48 213.48 206.458 213.641 206.458 213.788C206.458 213.964 206.48 214.155 206.524 214.36C206.598 214.947 206.854 215.423 207.294 215.79C207.749 216.157 208.365 216.34 209.142 216.34C209.832 216.34 210.389 216.215 210.814 215.966C211.24 215.702 211.452 215.321 211.452 214.822C211.452 214.485 211.35 214.191 211.144 213.942C210.954 213.678 210.712 213.458 210.418 213.282C210.125 213.106 209.707 212.886 209.164 212.622C209.047 212.578 208.871 212.497 208.636 212.38C207.844 212.013 207.214 211.691 206.744 211.412C206.29 211.119 205.894 210.73 205.556 210.246C205.234 209.762 205.072 209.168 205.072 208.464C205.072 207.437 205.468 206.675 206.26 206.176C207.052 205.663 208.057 205.406 209.274 205.406C210.492 205.406 211.452 205.597 212.156 205.978C212.86 206.345 213.212 206.88 213.212 207.584C213.212 207.907 213.117 208.185 212.926 208.42C212.75 208.64 212.464 208.757 212.068 208.772C211.995 208.787 211.9 208.794 211.782 208.794C211.709 208.794 211.57 208.779 211.364 208.75C211.379 208.662 211.386 208.53 211.386 208.354C211.386 208.031 211.342 207.789 211.254 207.628C211.166 207.217 210.939 206.902 210.572 206.682C210.22 206.447 209.758 206.33 209.186 206.33C208.644 206.33 208.182 206.44 207.8 206.66C207.434 206.88 207.25 207.217 207.25 207.672C207.25 208.083 207.368 208.435 207.602 208.728C207.852 209.021 208.152 209.271 208.504 209.476C208.856 209.681 209.355 209.938 210 210.246C210.895 210.671 211.562 211.016 212.002 211.28C212.442 211.529 212.838 211.874 213.19 212.314C213.542 212.754 213.718 213.289 213.718 213.92C213.718 214.859 213.322 215.658 212.53 216.318C211.753 216.963 210.528 217.286 208.856 217.286Z" fill="white"/>
<rect x="70.5" y="16.5" width="109" height="109" rx="9.5" fill="#201A18" stroke="#FCC41A"/>
<g clip-path="url(#clip0_1_4276)">
<path d="M152 51.8238V45.7386H149.392C147.26 45.7386 145.385 46.8427 144.297 48.5066C143.046 45.849 140.35 44 137.222 44H134.614V50.0852C134.614 51.6927 135.102 53.1876 135.937 54.4318H124.086C125.216 53.326 125.921 51.7873 125.921 50.0852V44H123.313C119.958 44 117.227 46.7298 117.227 50.0852V54.4318C111.081 54.4318 106.046 53.472 99.269 51.0067L98.1025 50.5822V59.6476H111.2C108.555 61.3116 106.633 64.0447 106.083 67.3271L106.125 67.3339C104.959 68.115 104.188 69.4431 104.188 70.9487C104.188 71.5574 104.317 72.1517 104.557 72.6971L103.064 71.2034L101.834 72.4327L103.133 73.7315C102.192 74.5295 101.58 75.7057 101.58 77.0339C101.58 77.545 101.677 78.0467 101.85 78.5221C101.227 78.8447 100.612 79.2802 100.045 79.8469C98.0295 81.8631 97.5053 84.4978 98.8526 85.8463C99.3445 86.3383 100.033 86.5947 100.819 86.5947C101.08 86.5947 101.354 86.559 101.634 86.5017C101.888 88.6601 103.191 90.5473 105.171 91.5384L105.926 91.915L106.682 91.5368C107.171 91.2923 107.612 90.9845 108.013 90.6403C109.006 93.8637 112.012 96.1588 115.489 96.1588H125.921C128.024 96.1588 130.018 95.3018 131.47 93.8429C131.999 95.4618 133.144 96.8307 134.727 97.6228L135.483 98.0001L136.239 97.6219C138.22 96.6317 139.521 94.7445 139.776 92.5852C140.055 92.6425 140.328 92.6782 140.59 92.6782C141.375 92.6782 142.064 92.4218 142.556 91.9294C143.904 90.5813 143.38 87.9466 141.364 85.9304C140.797 85.3637 140.181 84.929 139.559 84.6064C139.732 84.1327 139.83 83.6302 139.83 83.1191C139.83 81.7909 139.217 80.6147 138.276 79.8167L139.575 78.5178L138.346 77.2886L137.186 78.4482C137.208 78.2683 137.222 78.0857 137.222 77.9032C137.222 76.4766 136.521 75.2189 135.456 74.426C136.521 73.6331 137.222 72.3754 137.222 70.9487C137.222 69.4431 136.45 68.115 135.284 67.3348L135.326 67.328C134.775 64.0447 132.854 61.3116 130.209 59.6485H140.699V62.2564C140.699 66.5699 144.208 70.0802 148.523 70.0802H151.131V63.9951C151.131 61.3557 149.814 59.0224 147.806 57.6047C150.238 56.8067 152 54.5188 152 51.8238ZM136.352 45.7386H137.222C140.576 45.7386 143.307 48.4684 143.307 51.8238V56.1704H142.438C139.083 56.1704 136.352 53.4406 136.352 50.0852V45.7386ZM118.966 50.0852C118.966 47.6886 120.916 45.7386 123.313 45.7386H124.182V50.0852C124.182 52.4817 122.232 54.4318 119.835 54.4318H118.966V50.0852ZM103.318 77.0339C103.318 75.5962 104.488 74.426 105.926 74.426C107.364 74.426 108.534 75.5962 108.534 77.0339C108.534 77.3573 108.454 77.6685 108.339 77.9669C107.402 77.8294 106.548 78.017 105.926 78.5658C105.305 78.0161 104.449 77.8277 103.512 77.9656C103.398 77.6676 103.318 77.3573 103.318 77.0339ZM123.313 77.9032C123.313 79.3409 122.142 80.5112 120.705 80.5112C119.267 80.5112 118.097 79.3409 118.097 77.9032C118.097 76.4655 119.267 75.2953 120.705 75.2953C122.142 75.2953 123.313 76.4655 123.313 77.9032ZM130.952 90.8648C130.368 91.0108 129.888 90.9506 129.638 90.7014C129.084 90.1466 129.477 88.515 130.831 87.1605C131.791 86.2007 132.888 85.7253 133.644 85.7253C133.955 85.7253 134.21 85.806 134.372 85.9677C134.926 86.5225 134.533 88.155 133.179 89.5086C132.503 90.1857 131.692 90.6793 130.952 90.8648ZM131.407 84.6073C130.784 84.9299 130.169 85.3654 129.602 85.9321C129.118 86.4164 128.725 86.9372 128.418 87.4665H110.036C110.121 87.1528 110.181 86.8302 110.219 86.5017C110.498 86.559 110.772 86.5947 111.034 86.5947C111.818 86.5947 112.507 86.3383 113 85.8463C113.847 84.9986 113.952 83.6416 113.414 82.2506H131.224C131.167 82.5308 131.136 82.822 131.136 83.1191C131.136 83.6302 131.234 84.1319 131.407 84.6073ZM110.578 81.0753C111.932 82.4298 112.325 84.0614 111.771 84.6162C111.521 84.8654 111.041 84.9256 110.457 84.7796C109.717 84.5954 108.906 84.1005 108.23 83.4243C106.875 82.0698 106.484 80.4373 107.037 79.8834C107.2 79.7216 107.454 79.641 107.765 79.641C108.52 79.6401 109.619 80.1164 110.578 81.0753ZM117.25 80.5112H112.391C112.211 80.2853 112.022 80.0608 111.807 79.846C111.24 79.2794 110.625 78.8447 110.003 78.5221C110.175 78.0475 110.273 77.545 110.273 77.0339C110.273 76.415 110.139 75.8288 109.904 75.2953H117.249C116.698 76.0237 116.358 76.921 116.358 77.9032C116.358 78.8854 116.698 79.7828 117.25 80.5112ZM100.082 84.6162C99.5275 84.0614 99.9201 82.4298 101.275 81.0753C102.234 80.1156 103.332 79.6401 104.088 79.6401C104.399 79.6401 104.653 79.7208 104.815 79.8825C105.369 80.4373 104.977 82.0698 103.623 83.4234C102.946 84.0996 102.134 84.5941 101.396 84.7788C100.81 84.9256 100.331 84.8654 100.082 84.6162ZM105.926 89.9709C104.349 89.1729 103.364 87.5951 103.325 85.8332C103.862 85.5203 104.38 85.1247 104.852 84.6527C105.285 84.2197 105.634 83.7562 105.926 83.2851C106.217 83.7562 106.566 84.2206 106.999 84.6527C107.47 85.1239 107.989 85.5203 108.525 85.8332C108.488 87.5951 107.504 89.1729 105.926 89.9709ZM115.489 94.4202C112.462 94.4202 109.895 92.1845 109.469 89.2043H127.742C127.536 90.2744 127.741 91.2613 128.41 91.9307C128.863 92.3836 129.487 92.6259 130.193 92.6641C129.067 93.7707 127.535 94.4202 125.921 94.4202H115.489ZM135.483 96.0561C133.905 95.2581 132.921 93.6803 132.882 91.9184C133.418 91.6055 133.937 91.2099 134.409 90.7379C134.841 90.3049 135.191 89.8414 135.482 89.3703C135.773 89.8414 136.123 90.3058 136.556 90.7379C137.027 91.2091 137.546 91.6055 138.082 91.9184C138.045 93.6803 137.061 95.2581 135.483 96.0561ZM141.328 90.7014C141.078 90.9506 140.599 91.0108 140.014 90.8648C139.274 90.6806 138.463 90.1857 137.787 89.5095C136.432 88.155 136.04 86.5225 136.594 85.9686C136.756 85.8068 137.01 85.7262 137.321 85.7262C138.078 85.7262 139.177 86.2024 140.135 87.1613C141.488 88.515 141.881 90.1466 141.328 90.7014ZM135.483 84.6502C134.862 84.1005 134.006 83.912 133.07 84.05C132.955 83.7528 132.875 83.4425 132.875 83.1191C132.875 81.6814 134.045 80.5112 135.483 80.5112C136.921 80.5112 138.091 81.6814 138.091 83.1191C138.091 83.4425 138.011 83.7537 137.896 84.0521C136.959 83.9137 136.104 84.1013 135.483 84.6502ZM135.483 77.9032C135.483 78.2101 135.411 78.5055 135.306 78.7899C134.955 78.8048 134.617 78.8655 134.291 78.9593L132.62 77.2886L131.391 78.5178L132.69 79.8167C132.445 80.0243 132.222 80.2548 132.027 80.5112H124.159C124.711 79.7828 125.051 78.8854 125.051 77.9032C125.051 76.921 124.711 76.0237 124.159 75.2953H132.875C134.313 75.2953 135.483 76.4655 135.483 77.9032ZM132.875 73.5567H108.894L110.018 72.4327L108.789 71.2034L107.118 72.8741C106.974 72.8325 106.83 72.7901 106.68 72.7629C106.205 72.2777 105.926 71.6321 105.926 70.9487C105.926 69.511 107.096 68.3408 108.534 68.3408H132.875C134.313 68.3408 135.483 69.511 135.483 70.9487C135.483 72.3864 134.313 73.5567 132.875 73.5567ZM133.396 66.6552C133.223 66.6336 133.053 66.6021 132.875 66.6021H108.534C108.356 66.6021 108.187 66.6336 108.013 66.6552C109.142 62.5417 112.87 59.6476 117.227 59.6476H124.182C128.539 59.6476 132.267 62.5417 133.396 66.6552ZM124.182 57.909H99.8412V53.0556C106.251 55.2888 111.22 56.1704 117.227 56.1704H137.531C138.441 56.906 139.52 57.4387 140.699 57.7074V57.909H124.182ZM149.392 63.9942V68.3408H148.523C145.168 68.3408 142.438 65.611 142.438 62.2556V57.909H143.307C146.661 57.909 149.392 60.6388 149.392 63.9942ZM145.915 56.1704H145.045V51.8238C145.045 49.4273 146.995 47.4773 149.392 47.4773H150.261V51.8238C150.261 54.2204 148.311 56.1704 145.915 56.1704Z" fill="#FCC41A"/>
</g>
<circle cx="178" cy="20" r="19.5" fill="#29211E" stroke="#FCC41A"/>
<path d="M172.974 25.234C171.462 25.234 170.31 24.694 169.518 23.614C168.738 22.522 168.348 20.896 168.348 18.736C168.348 16.576 168.738 14.956 169.518 13.876C170.31 12.784 171.462 12.238 172.974 12.238C174.486 12.238 175.632 12.784 176.412 13.876C177.192 14.956 177.582 16.576 177.582 18.736C177.582 20.896 177.192 22.522 176.412 23.614C175.632 24.694 174.486 25.234 172.974 25.234ZM172.974 24.478C173.79 24.478 174.396 24.022 174.792 23.11C175.188 22.186 175.386 20.728 175.386 18.736C175.386 16.756 175.188 15.304 174.792 14.38C174.396 13.456 173.79 12.994 172.974 12.994C172.158 12.994 171.552 13.456 171.156 14.38C170.76 15.304 170.562 16.756 170.562 18.736C170.562 20.728 170.76 22.186 171.156 23.11C171.552 24.022 172.158 24.478 172.974 24.478ZM183.321 25.216C182.253 25.216 181.407 25.09 180.783 24.838C180.171 24.586 179.751 24.292 179.523 23.956C179.295 23.62 179.181 23.314 179.181 23.038C179.181 22.75 179.289 22.498 179.505 22.282C179.721 22.054 180.087 21.94 180.603 21.94C180.675 22.636 180.879 23.242 181.215 23.758C181.551 24.262 182.211 24.514 183.195 24.514C183.999 24.514 184.635 24.268 185.103 23.776C185.571 23.284 185.805 22.624 185.805 21.796C185.805 20.74 185.403 19.978 184.599 19.51C183.807 19.03 182.793 18.778 181.557 18.754L181.575 17.998C182.823 17.95 183.759 17.65 184.383 17.098C185.019 16.534 185.337 15.862 185.337 15.082C185.337 14.422 185.175 13.906 184.851 13.534C184.527 13.15 184.035 12.958 183.375 12.958C182.595 12.958 182.037 13.21 181.701 13.714C181.377 14.218 181.203 14.806 181.179 15.478C180.615 15.49 180.231 15.4 180.027 15.208C179.823 15.004 179.721 14.782 179.721 14.542C179.721 14.158 179.865 13.792 180.153 13.444C180.441 13.084 180.873 12.796 181.449 12.58C182.025 12.352 182.721 12.238 183.537 12.238C184.593 12.238 185.517 12.466 186.309 12.922C187.113 13.366 187.515 14.122 187.515 15.19C187.515 15.958 187.233 16.624 186.669 17.188C186.117 17.74 185.379 18.136 184.455 18.376C185.559 18.568 186.423 18.922 187.047 19.438C187.683 19.942 188.001 20.662 188.001 21.598C188.001 22.726 187.575 23.614 186.723 24.262C185.871 24.898 184.737 25.216 183.321 25.216Z" fill="white"/>
<defs>
<clipPath id="clip0_1_4276">
<rect width="54" height="54" fill="white" transform="translate(98 44)"/>
</clipPath>
</defs>
</svg>
