<svg width="284" height="229" viewBox="0 0 284 229" fill="none" xmlns="http://www.w3.org/2000/svg">
<path d="M26.9194 166.446C27.3887 166.446 27.7334 166.527 27.9534 166.688C28.188 166.849 28.3054 167.099 28.3054 167.436C28.3054 167.656 28.2174 168.103 28.0414 168.778L24.3674 181.934C23.8247 182.169 23.282 182.286 22.7394 182.286C22.358 182.286 22.0354 182.227 21.7714 182.11C21.522 181.993 21.368 181.817 21.3094 181.582L18.5594 171.132L15.6554 181.934C15.0687 182.169 14.5407 182.286 14.0714 182.286C13.1474 182.286 12.634 182.051 12.5314 181.582L9.09938 168.162C9.04071 167.957 8.96004 167.744 8.85738 167.524C8.75471 167.289 8.63004 167.099 8.48338 166.952C8.79138 166.585 9.27538 166.402 9.93538 166.402C10.8447 166.402 11.3654 166.717 11.4974 167.348L14.4014 180.262L17.1514 169.79C17.1954 169.541 17.2174 169.335 17.2174 169.174C17.2174 168.866 17.166 168.595 17.0634 168.36C17.298 168.243 17.5767 168.155 17.8994 168.096C18.222 168.023 18.5154 167.986 18.7794 167.986C19.4834 167.986 19.894 168.191 20.0114 168.602L23.0914 180.262L25.6654 168.184C25.68 168.111 25.702 167.986 25.7314 167.81C25.7607 167.634 25.7754 167.473 25.7754 167.326C25.7754 167.047 25.724 166.835 25.6214 166.688C25.6654 166.673 25.7974 166.629 26.0174 166.556C26.252 166.483 26.5527 166.446 26.9194 166.446ZM38.9398 178.964C39.1745 179.067 39.2918 179.25 39.2918 179.514C39.2918 179.69 39.2405 179.903 39.1378 180.152C38.8591 180.841 38.3605 181.369 37.6418 181.736C36.9378 182.103 36.0871 182.286 35.0898 182.286C33.4178 182.286 32.0978 181.773 31.1298 180.746C30.1765 179.719 29.6998 178.26 29.6998 176.368C29.6998 174.505 30.1691 173.053 31.1078 172.012C32.0465 170.956 33.3885 170.428 35.1338 170.428C36.4098 170.428 37.4438 170.714 38.2358 171.286C39.0278 171.843 39.4238 172.643 39.4238 173.684C39.4238 174.769 38.9838 175.605 38.1038 176.192C37.2385 176.764 36.0578 177.05 34.5618 177.05C33.7111 177.05 32.9558 177.013 32.2958 176.94C32.3985 178.304 32.7431 179.279 33.3298 179.866C33.9165 180.453 34.7158 180.746 35.7278 180.746C36.5198 180.746 37.1945 180.585 37.7518 180.262C38.3238 179.939 38.7198 179.507 38.9398 178.964ZM35.0458 171.33C34.1805 171.33 33.4985 171.741 32.9998 172.562C32.5158 173.369 32.2738 174.52 32.2738 176.016C32.6551 176.06 33.0438 176.082 33.4398 176.082C34.4371 176.082 35.2511 175.884 35.8818 175.488C36.5125 175.092 36.8278 174.366 36.8278 173.31C36.8278 172.591 36.6591 172.085 36.3218 171.792C35.9845 171.484 35.5591 171.33 35.0458 171.33ZM52.192 182.286C50.2854 182.286 48.804 181.597 47.748 180.218C46.692 178.839 46.164 176.881 46.164 174.344C46.164 171.821 46.7067 169.871 47.792 168.492C48.892 167.099 50.4174 166.402 52.368 166.402C53.16 166.402 53.9154 166.505 54.634 166.71C55.3527 166.915 55.932 167.201 56.372 167.568C56.8267 167.935 57.054 168.36 57.054 168.844C57.054 169.24 56.878 169.577 56.526 169.856C56.174 170.12 55.6974 170.245 55.096 170.23C54.8614 168.294 53.9594 167.326 52.39 167.326C50.0287 167.326 48.848 169.665 48.848 174.344C48.848 179.023 50.0067 181.362 52.324 181.362C53.1307 181.362 53.8054 181.091 54.348 180.548C54.8907 179.991 55.25 179.177 55.426 178.106C55.4994 178.091 55.624 178.084 55.8 178.084C56.2547 178.084 56.6434 178.194 56.966 178.414C57.2887 178.619 57.45 178.927 57.45 179.338C57.45 179.91 57.2007 180.423 56.702 180.878C56.2034 181.333 55.5507 181.685 54.744 181.934C53.9374 182.169 53.0867 182.286 52.192 182.286ZM64.4768 182.286C62.8195 182.286 61.5288 181.765 60.6048 180.724C59.6955 179.683 59.2408 178.231 59.2408 176.368C59.2408 174.491 59.7028 173.031 60.6268 171.99C61.5508 170.949 62.8341 170.428 64.4768 170.428C66.1341 170.428 67.4248 170.949 68.3488 171.99C69.2728 173.031 69.7348 174.491 69.7348 176.368C69.7348 178.231 69.2728 179.683 68.3488 180.724C67.4248 181.765 66.1341 182.286 64.4768 182.286ZM64.4768 181.384C65.3568 181.384 66.0168 180.959 66.4568 180.108C66.9115 179.257 67.1388 178.011 67.1388 176.368C67.1388 174.711 66.9115 173.457 66.4568 172.606C66.0168 171.755 65.3568 171.33 64.4768 171.33C63.5968 171.33 62.9295 171.755 62.4748 172.606C62.0348 173.457 61.8148 174.711 61.8148 176.368C61.8148 178.011 62.0348 179.257 62.4748 180.108C62.9295 180.959 63.5968 181.384 64.4768 181.384ZM74.5899 182.22C73.8126 182.22 73.2113 181.978 72.7859 181.494C72.3753 180.995 72.1699 180.306 72.1699 179.426V167.172C72.1699 166.776 72.2946 166.468 72.5439 166.248C72.8079 166.013 73.1453 165.896 73.5559 165.896C74.0986 165.896 74.5533 166.079 74.9199 166.446C74.7733 166.974 74.6779 167.546 74.6339 168.162C74.5899 168.763 74.5679 169.621 74.5679 170.736V179.228C74.5679 180.005 74.8319 180.394 75.3599 180.394C75.5066 180.394 75.6459 180.365 75.7779 180.306C75.9246 180.247 76.0273 180.159 76.0859 180.042C76.2766 180.277 76.3719 180.548 76.3719 180.856C76.3719 181.252 76.1959 181.582 75.8439 181.846C75.4919 182.095 75.0739 182.22 74.5899 182.22ZM80.7989 182.22C80.0216 182.22 79.4203 181.978 78.9949 181.494C78.5843 180.995 78.3789 180.306 78.3789 179.426V167.172C78.3789 166.776 78.5036 166.468 78.7529 166.248C79.0169 166.013 79.3543 165.896 79.7649 165.896C80.3076 165.896 80.7623 166.079 81.1289 166.446C80.9823 166.974 80.8869 167.546 80.8429 168.162C80.7989 168.763 80.7769 169.621 80.7769 170.736V179.228C80.7769 180.005 81.0409 180.394 81.5689 180.394C81.7156 180.394 81.8549 180.365 81.9869 180.306C82.1336 180.247 82.2363 180.159 82.2949 180.042C82.4856 180.277 82.5809 180.548 82.5809 180.856C82.5809 181.252 82.4049 181.582 82.0529 181.846C81.7009 182.095 81.2829 182.22 80.7989 182.22ZM93.1019 178.964C93.3366 179.067 93.4539 179.25 93.4539 179.514C93.4539 179.69 93.4026 179.903 93.2999 180.152C93.0212 180.841 92.5226 181.369 91.8039 181.736C91.0999 182.103 90.2492 182.286 89.2519 182.286C87.5799 182.286 86.2599 181.773 85.2919 180.746C84.3386 179.719 83.8619 178.26 83.8619 176.368C83.8619 174.505 84.3312 173.053 85.2699 172.012C86.2086 170.956 87.5506 170.428 89.2959 170.428C90.5719 170.428 91.6059 170.714 92.3979 171.286C93.1899 171.843 93.5859 172.643 93.5859 173.684C93.5859 174.769 93.1459 175.605 92.2659 176.192C91.4006 176.764 90.2199 177.05 88.7239 177.05C87.8732 177.05 87.1179 177.013 86.4579 176.94C86.5606 178.304 86.9052 179.279 87.4919 179.866C88.0786 180.453 88.8779 180.746 89.8899 180.746C90.6819 180.746 91.3566 180.585 91.9139 180.262C92.4859 179.939 92.8819 179.507 93.1019 178.964ZM89.2079 171.33C88.3426 171.33 87.6606 171.741 87.1619 172.562C86.6779 173.369 86.4359 174.52 86.4359 176.016C86.8172 176.06 87.2059 176.082 87.6019 176.082C88.5992 176.082 89.4132 175.884 90.0439 175.488C90.6746 175.092 90.9899 174.366 90.9899 173.31C90.9899 172.591 90.8212 172.085 90.4839 171.792C90.1466 171.484 89.7212 171.33 89.2079 171.33ZM100.616 182.286C98.9148 182.286 97.5948 181.78 96.6561 180.768C95.7321 179.741 95.2701 178.275 95.2701 176.368C95.2701 174.52 95.7468 173.068 96.7001 172.012C97.6534 170.956 98.9954 170.428 100.726 170.428C101.973 170.428 102.933 170.692 103.608 171.22C104.297 171.733 104.642 172.401 104.642 173.222C104.642 173.779 104.473 174.227 104.136 174.564C103.813 174.901 103.388 175.07 102.86 175.07C102.611 175.07 102.361 175.033 102.112 174.96C101.877 174.872 101.694 174.747 101.562 174.586C102.002 174.293 102.222 173.772 102.222 173.024C102.222 172.437 102.068 172.012 101.76 171.748C101.452 171.469 101.041 171.33 100.528 171.33C99.7068 171.33 99.0541 171.741 98.5701 172.562C98.0861 173.369 97.8441 174.513 97.8441 175.994C97.8441 177.637 98.1521 178.839 98.7681 179.602C99.3841 180.365 100.235 180.746 101.32 180.746C102.097 180.746 102.765 180.555 103.322 180.174C103.879 179.793 104.239 179.272 104.4 178.612C104.635 178.7 104.752 178.913 104.752 179.25C104.752 179.441 104.723 179.646 104.664 179.866C104.429 180.643 103.953 181.245 103.234 181.67C102.53 182.081 101.657 182.286 100.616 182.286ZM110.335 170.736C110.614 170.736 110.995 170.729 111.479 170.714C111.963 170.699 112.345 170.685 112.623 170.67L112.601 171.264C112.587 171.455 112.521 171.609 112.403 171.726C112.301 171.829 112.161 171.88 111.985 171.88H109.917V172.606L109.895 179.228C109.895 180.02 110.24 180.416 110.929 180.416C111.135 180.416 111.325 180.387 111.501 180.328C111.692 180.255 111.817 180.159 111.875 180.042C112.066 180.321 112.161 180.592 112.161 180.856C112.161 181.267 111.956 181.604 111.545 181.868C111.149 182.117 110.636 182.242 110.005 182.242C109.213 182.242 108.597 181.993 108.157 181.494C107.717 180.995 107.497 180.306 107.497 179.426V171.88H107.189C106.999 171.88 106.779 171.887 106.529 171.902C106.28 171.917 106.06 171.939 105.869 171.968L105.891 171.33C105.906 171.139 105.972 170.993 106.089 170.89C106.207 170.787 106.353 170.736 106.529 170.736H107.497V169.064C107.497 168.683 107.629 168.382 107.893 168.162C108.157 167.927 108.495 167.81 108.905 167.81C109.419 167.81 109.873 167.986 110.269 168.338C110.093 168.983 109.983 169.783 109.939 170.736H110.335ZM122.71 170.736C122.989 170.736 123.37 170.729 123.854 170.714C124.338 170.699 124.72 170.685 124.998 170.67L124.976 171.264C124.962 171.455 124.896 171.609 124.778 171.726C124.676 171.829 124.536 171.88 124.36 171.88H122.292V172.606L122.27 179.228C122.27 180.02 122.615 180.416 123.304 180.416C123.51 180.416 123.7 180.387 123.876 180.328C124.067 180.255 124.192 180.159 124.25 180.042C124.441 180.321 124.536 180.592 124.536 180.856C124.536 181.267 124.331 181.604 123.92 181.868C123.524 182.117 123.011 182.242 122.38 182.242C121.588 182.242 120.972 181.993 120.532 181.494C120.092 180.995 119.872 180.306 119.872 179.426V171.88H119.564C119.374 171.88 119.154 171.887 118.904 171.902C118.655 171.917 118.435 171.939 118.244 171.968L118.266 171.33C118.281 171.139 118.347 170.993 118.464 170.89C118.582 170.787 118.728 170.736 118.904 170.736H119.872V169.064C119.872 168.683 120.004 168.382 120.268 168.162C120.532 167.927 120.87 167.81 121.28 167.81C121.794 167.81 122.248 167.986 122.644 168.338C122.468 168.983 122.358 169.783 122.314 170.736H122.71ZM136.585 179.118C136.585 180.262 136.703 181.135 136.937 181.736C136.541 182.103 136.087 182.286 135.573 182.286C135.163 182.286 134.825 182.169 134.561 181.934C134.312 181.699 134.187 181.391 134.187 181.01V175.268C134.187 174.021 134.041 173.105 133.747 172.518C133.469 171.917 132.97 171.616 132.251 171.616C131.782 171.616 131.342 171.807 130.931 172.188C130.535 172.555 130.213 173.127 129.963 173.904C129.714 174.667 129.589 175.62 129.589 176.764C129.589 178.495 129.604 179.639 129.633 180.196C129.677 180.753 129.795 181.274 129.985 181.758C129.853 181.89 129.67 182.007 129.435 182.11C129.201 182.227 128.929 182.286 128.621 182.286C128.211 182.286 127.873 182.161 127.609 181.912C127.36 181.663 127.235 181.325 127.235 180.9L127.213 167.172C127.213 166.761 127.331 166.453 127.565 166.248C127.815 166.028 128.145 165.918 128.555 165.918C128.849 165.918 129.12 165.977 129.369 166.094C129.633 166.197 129.846 166.314 130.007 166.446C129.846 166.974 129.736 167.575 129.677 168.25C129.619 168.925 129.582 169.797 129.567 170.868V172.804C129.875 172.041 130.323 171.455 130.909 171.044C131.511 170.633 132.222 170.428 133.043 170.428C134.246 170.428 135.133 170.802 135.705 171.55C136.277 172.298 136.563 173.42 136.563 174.916L136.585 179.118ZM148.188 178.964C148.423 179.067 148.54 179.25 148.54 179.514C148.54 179.69 148.489 179.903 148.386 180.152C148.107 180.841 147.609 181.369 146.89 181.736C146.186 182.103 145.335 182.286 144.338 182.286C142.666 182.286 141.346 181.773 140.378 180.746C139.425 179.719 138.948 178.26 138.948 176.368C138.948 174.505 139.417 173.053 140.356 172.012C141.295 170.956 142.637 170.428 144.382 170.428C145.658 170.428 146.692 170.714 147.484 171.286C148.276 171.843 148.672 172.643 148.672 173.684C148.672 174.769 148.232 175.605 147.352 176.192C146.487 176.764 145.306 177.05 143.81 177.05C142.959 177.05 142.204 177.013 141.544 176.94C141.647 178.304 141.991 179.279 142.578 179.866C143.165 180.453 143.964 180.746 144.976 180.746C145.768 180.746 146.443 180.585 147 180.262C147.572 179.939 147.968 179.507 148.188 178.964ZM144.294 171.33C143.429 171.33 142.747 171.741 142.248 172.562C141.764 173.369 141.522 174.52 141.522 176.016C141.903 176.06 142.292 176.082 142.688 176.082C143.685 176.082 144.499 175.884 145.13 175.488C145.761 175.092 146.076 174.366 146.076 173.31C146.076 172.591 145.907 172.085 145.57 171.792C145.233 171.484 144.807 171.33 144.294 171.33ZM159.46 166.402C161.645 166.402 163.273 166.769 164.344 167.502C165.429 168.221 165.972 169.365 165.972 170.934C165.972 172.577 165.393 173.831 164.234 174.696C163.075 175.561 161.403 175.994 159.218 175.994H158.668V179.25C158.668 180.321 158.785 181.149 159.02 181.736C158.609 182.103 158.147 182.286 157.634 182.286C157.209 182.286 156.864 182.176 156.6 181.956C156.351 181.721 156.226 181.406 156.226 181.01V169.592C156.226 169.196 156.197 168.756 156.138 168.272C156.079 167.773 155.984 167.341 155.852 166.974C156.659 166.593 157.861 166.402 159.46 166.402ZM159.174 175.092C161.931 175.092 163.31 173.757 163.31 171.088C163.31 169.871 163.002 168.939 162.386 168.294C161.785 167.649 160.809 167.326 159.46 167.326C159.167 167.326 158.903 167.341 158.668 167.37V175.092H159.174ZM173.765 170.428C174.572 170.428 175.225 170.641 175.723 171.066C176.222 171.491 176.471 172.078 176.471 172.826C176.471 173.383 176.31 173.831 175.987 174.168C175.665 174.505 175.261 174.674 174.777 174.674C174.323 174.674 173.993 174.557 173.787 174.322C173.949 174.058 174.059 173.823 174.117 173.618C174.176 173.398 174.205 173.149 174.205 172.87C174.205 172.034 173.839 171.616 173.105 171.616C172.519 171.616 172.042 172.049 171.675 172.914C171.323 173.765 171.147 175.048 171.147 176.764V177.6C171.147 178.905 171.169 179.807 171.213 180.306C171.257 180.79 171.367 181.252 171.543 181.692C171.397 181.824 171.206 181.941 170.971 182.044C170.737 182.147 170.465 182.205 170.157 182.22C169.761 182.22 169.424 182.095 169.145 181.846C168.881 181.597 168.749 181.259 168.749 180.834V173.398C168.749 173.002 168.698 172.716 168.595 172.54C168.507 172.349 168.361 172.254 168.155 172.254C167.877 172.254 167.686 172.357 167.583 172.562C167.393 172.283 167.297 172.005 167.297 171.726C167.297 171.345 167.437 171.037 167.715 170.802C167.994 170.553 168.383 170.428 168.881 170.428C169.483 170.428 169.959 170.633 170.311 171.044C170.663 171.455 170.847 172.063 170.861 172.87C171.375 171.242 172.343 170.428 173.765 170.428ZM183.006 182.286C181.349 182.286 180.058 181.765 179.134 180.724C178.225 179.683 177.77 178.231 177.77 176.368C177.77 174.491 178.232 173.031 179.156 171.99C180.08 170.949 181.363 170.428 183.006 170.428C184.663 170.428 185.954 170.949 186.878 171.99C187.802 173.031 188.264 174.491 188.264 176.368C188.264 178.231 187.802 179.683 186.878 180.724C185.954 181.765 184.663 182.286 183.006 182.286ZM183.006 181.384C183.886 181.384 184.546 180.959 184.986 180.108C185.441 179.257 185.668 178.011 185.668 176.368C185.668 174.711 185.441 173.457 184.986 172.606C184.546 171.755 183.886 171.33 183.006 171.33C182.126 171.33 181.459 171.755 181.004 172.606C180.564 173.457 180.344 174.711 180.344 176.368C180.344 178.011 180.564 179.257 181.004 180.108C181.459 180.959 182.126 181.384 183.006 181.384ZM201.127 180.086C201.303 180.35 201.391 180.629 201.391 180.922C201.391 181.289 201.23 181.589 200.907 181.824C200.599 182.059 200.203 182.176 199.719 182.176C198.429 182.176 197.725 181.23 197.607 179.338C196.903 181.303 195.642 182.286 193.823 182.286C192.459 182.286 191.477 181.78 190.875 180.768C190.274 179.741 189.973 178.429 189.973 176.83C189.973 174.791 190.377 173.215 191.183 172.1C191.99 170.985 193.141 170.428 194.637 170.428C195.341 170.428 195.935 170.56 196.419 170.824C196.903 171.088 197.255 171.462 197.475 171.946V170.054C197.475 168.573 197.336 167.37 197.057 166.446C197.468 166.079 197.93 165.896 198.443 165.896C198.854 165.896 199.191 166.013 199.455 166.248C199.719 166.483 199.851 166.791 199.851 167.172L199.829 179.228C199.829 179.991 200.071 180.372 200.555 180.372C200.834 180.372 201.025 180.277 201.127 180.086ZM194.505 180.944C195.429 180.944 196.148 180.372 196.661 179.228C197.175 178.084 197.431 176.705 197.431 175.092C197.431 174.08 197.27 173.266 196.947 172.65C196.625 172.019 196.031 171.704 195.165 171.704C193.42 171.704 192.547 173.391 192.547 176.764C192.547 178.113 192.687 179.147 192.965 179.866C193.244 180.585 193.757 180.944 194.505 180.944ZM213.823 180.152C213.999 180.401 214.087 180.673 214.087 180.966C214.087 181.362 213.948 181.677 213.669 181.912C213.405 182.147 213.024 182.264 212.525 182.264C211.88 182.264 211.381 182.051 211.029 181.626C210.692 181.201 210.523 180.563 210.523 179.712V179.668C210.215 180.519 209.753 181.171 209.137 181.626C208.536 182.081 207.788 182.308 206.893 182.308C205.691 182.308 204.811 181.963 204.253 181.274C203.711 180.585 203.439 179.426 203.439 177.798L203.417 173.596C203.417 172.467 203.3 171.587 203.065 170.956C203.476 170.604 203.938 170.428 204.451 170.428C204.862 170.428 205.192 170.545 205.441 170.78C205.705 171 205.837 171.308 205.837 171.704V177.446C205.837 178.766 205.969 179.712 206.233 180.284C206.497 180.841 206.974 181.12 207.663 181.12C208.133 181.12 208.565 180.937 208.961 180.57C209.357 180.189 209.673 179.609 209.907 178.832C210.157 178.055 210.281 177.094 210.281 175.95C210.281 174.219 210.259 173.075 210.215 172.518C210.171 171.946 210.054 171.418 209.863 170.934C210.289 170.597 210.751 170.428 211.249 170.428C211.645 170.428 211.975 170.553 212.239 170.802C212.503 171.051 212.635 171.389 212.635 171.814L212.657 179.316C212.657 179.727 212.701 180.02 212.789 180.196C212.892 180.357 213.046 180.438 213.251 180.438C213.515 180.438 213.706 180.343 213.823 180.152ZM220.714 182.286C219.012 182.286 217.692 181.78 216.754 180.768C215.83 179.741 215.368 178.275 215.368 176.368C215.368 174.52 215.844 173.068 216.798 172.012C217.751 170.956 219.093 170.428 220.824 170.428C222.07 170.428 223.031 170.692 223.706 171.22C224.395 171.733 224.74 172.401 224.74 173.222C224.74 173.779 224.571 174.227 224.234 174.564C223.911 174.901 223.486 175.07 222.958 175.07C222.708 175.07 222.459 175.033 222.21 174.96C221.975 174.872 221.792 174.747 221.66 174.586C222.1 174.293 222.32 173.772 222.32 173.024C222.32 172.437 222.166 172.012 221.858 171.748C221.55 171.469 221.139 171.33 220.626 171.33C219.804 171.33 219.152 171.741 218.668 172.562C218.184 173.369 217.942 174.513 217.942 175.994C217.942 177.637 218.25 178.839 218.866 179.602C219.482 180.365 220.332 180.746 221.418 180.746C222.195 180.746 222.862 180.555 223.42 180.174C223.977 179.793 224.336 179.272 224.498 178.612C224.732 178.7 224.85 178.913 224.85 179.25C224.85 179.441 224.82 179.646 224.762 179.866C224.527 180.643 224.05 181.245 223.332 181.67C222.628 182.081 221.755 182.286 220.714 182.286ZM230.433 170.736C230.712 170.736 231.093 170.729 231.577 170.714C232.061 170.699 232.442 170.685 232.721 170.67L232.699 171.264C232.684 171.455 232.618 171.609 232.501 171.726C232.398 171.829 232.259 171.88 232.083 171.88H230.015V172.606L229.993 179.228C229.993 180.02 230.338 180.416 231.027 180.416C231.232 180.416 231.423 180.387 231.599 180.328C231.79 180.255 231.914 180.159 231.973 180.042C232.164 180.321 232.259 180.592 232.259 180.856C232.259 181.267 232.054 181.604 231.643 181.868C231.247 182.117 230.734 182.242 230.103 182.242C229.311 182.242 228.695 181.993 228.255 181.494C227.815 180.995 227.595 180.306 227.595 179.426V171.88H227.287C227.096 171.88 226.876 171.887 226.627 171.902C226.378 171.917 226.158 171.939 225.967 171.968L225.989 171.33C226.004 171.139 226.07 170.993 226.187 170.89C226.304 170.787 226.451 170.736 226.627 170.736H227.595V169.064C227.595 168.683 227.727 168.382 227.991 168.162C228.255 167.927 228.592 167.81 229.003 167.81C229.516 167.81 229.971 167.986 230.367 168.338C230.191 168.983 230.081 169.783 230.037 170.736H230.433ZM249.936 180.042C250.112 180.277 250.2 180.548 250.2 180.856C250.2 181.237 250.031 181.56 249.694 181.824C249.357 182.088 248.924 182.22 248.396 182.22C247.677 182.22 247.135 181.978 246.768 181.494C246.401 180.995 246.211 180.196 246.196 179.096C245.756 180.049 245.155 180.812 244.392 181.384C243.629 181.956 242.757 182.242 241.774 182.242C240.923 182.242 240.234 182.015 239.706 181.56C239.193 181.091 238.936 180.46 238.936 179.668C238.936 178.744 239.288 177.981 239.992 177.38C240.696 176.779 241.598 176.324 242.698 176.016C243.798 175.708 244.92 175.569 246.064 175.598V175.048C246.064 173.772 245.888 172.833 245.536 172.232C245.184 171.631 244.597 171.33 243.776 171.33C243.219 171.33 242.764 171.462 242.412 171.726C242.075 171.99 241.906 172.423 241.906 173.024C241.906 173.361 241.972 173.677 242.104 173.97C242.236 174.263 242.456 174.483 242.764 174.63C242.617 174.791 242.419 174.916 242.17 175.004C241.935 175.077 241.686 175.114 241.422 175.114C240.835 175.114 240.359 174.923 239.992 174.542C239.64 174.146 239.464 173.669 239.464 173.112C239.464 172.247 239.86 171.587 240.652 171.132C241.444 170.663 242.537 170.428 243.93 170.428C245.514 170.428 246.673 170.809 247.406 171.572C248.154 172.32 248.528 173.523 248.528 175.18V179.228C248.528 180.005 248.777 180.394 249.276 180.394C249.393 180.394 249.511 180.365 249.628 180.306C249.76 180.247 249.863 180.159 249.936 180.042ZM242.874 180.636C243.358 180.636 243.849 180.445 244.348 180.064C244.861 179.668 245.287 179.147 245.624 178.502C245.961 177.857 246.13 177.167 246.13 176.434C245.617 176.405 245.096 176.434 244.568 176.522C244.04 176.595 243.585 176.72 243.204 176.896C242.691 177.116 242.287 177.417 241.994 177.798C241.715 178.165 241.576 178.597 241.576 179.096C241.576 179.536 241.679 179.903 241.884 180.196C242.104 180.489 242.434 180.636 242.874 180.636ZM261.631 179.118C261.661 180.321 261.793 181.193 262.027 181.736C261.631 182.103 261.169 182.286 260.641 182.286C260.231 182.286 259.893 182.176 259.629 181.956C259.365 181.721 259.233 181.406 259.233 181.01V175.268C259.219 174.051 259.072 173.156 258.793 172.584C258.529 171.997 258.038 171.704 257.319 171.704C256.835 171.704 256.388 171.887 255.977 172.254C255.581 172.621 255.259 173.185 255.009 173.948C254.76 174.696 254.635 175.635 254.635 176.764C254.635 178.495 254.657 179.639 254.701 180.196C254.745 180.753 254.863 181.274 255.053 181.758C254.907 181.89 254.709 182.007 254.459 182.11C254.225 182.227 253.968 182.286 253.689 182.286C253.264 182.286 252.919 182.161 252.655 181.912C252.391 181.663 252.259 181.325 252.259 180.9V173.398C252.245 172.987 252.193 172.694 252.105 172.518C252.017 172.342 251.871 172.254 251.665 172.254C251.387 172.254 251.196 172.357 251.093 172.562C250.903 172.283 250.807 172.005 250.807 171.726C250.807 171.345 250.947 171.037 251.225 170.802C251.504 170.553 251.893 170.428 252.391 170.428C253.022 170.428 253.506 170.648 253.843 171.088C254.195 171.513 254.371 172.151 254.371 173.002V173.112C254.665 172.247 255.127 171.587 255.757 171.132C256.403 170.663 257.18 170.428 258.089 170.428C259.292 170.428 260.179 170.802 260.751 171.55C261.338 172.298 261.631 173.42 261.631 174.916V179.118ZM275.162 180.086C275.338 180.35 275.426 180.629 275.426 180.922C275.426 181.289 275.265 181.589 274.942 181.824C274.634 182.059 274.238 182.176 273.754 182.176C272.464 182.176 271.76 181.23 271.642 179.338C270.938 181.303 269.677 182.286 267.858 182.286C266.494 182.286 265.512 181.78 264.91 180.768C264.309 179.741 264.008 178.429 264.008 176.83C264.008 174.791 264.412 173.215 265.218 172.1C266.025 170.985 267.176 170.428 268.672 170.428C269.376 170.428 269.97 170.56 270.454 170.824C270.938 171.088 271.29 171.462 271.51 171.946V170.054C271.51 168.573 271.371 167.37 271.092 166.446C271.503 166.079 271.965 165.896 272.478 165.896C272.889 165.896 273.226 166.013 273.49 166.248C273.754 166.483 273.886 166.791 273.886 167.172L273.864 179.228C273.864 179.991 274.106 180.372 274.59 180.372C274.869 180.372 275.06 180.277 275.162 180.086ZM268.54 180.944C269.464 180.944 270.183 180.372 270.696 179.228C271.21 178.084 271.466 176.705 271.466 175.092C271.466 174.08 271.305 173.266 270.982 172.65C270.66 172.019 270.066 171.704 269.2 171.704C267.455 171.704 266.582 173.391 266.582 176.764C266.582 178.113 266.722 179.147 267 179.866C267.279 180.585 267.792 180.944 268.54 180.944ZM13.8514 201.71C13.9834 201.71 14.086 201.776 14.1594 201.908C14.2327 202.025 14.2694 202.187 14.2694 202.392C14.2694 202.685 14.2034 202.979 14.0714 203.272C13.9394 203.565 13.778 203.756 13.5874 203.844C12.8247 203.565 12.15 203.338 11.5634 203.162C10.9767 202.971 10.39 202.825 9.80338 202.722L9.82538 214.118C9.82538 215.262 9.94271 216.135 10.1774 216.736C9.76671 217.103 9.29738 217.286 8.76938 217.286C8.35871 217.286 8.02138 217.169 7.75738 216.934C7.50804 216.699 7.38338 216.391 7.38338 216.01L7.36138 202.722C6.77471 202.825 6.18071 202.971 5.57938 203.162C4.99271 203.338 4.33271 203.565 3.59938 203.844C3.40871 203.756 3.24738 203.565 3.11538 203.272C2.98338 202.979 2.91738 202.685 2.91738 202.392C2.91738 202.187 2.95404 202.025 3.02738 201.908C3.10071 201.776 3.20338 201.71 3.33537 201.71H13.8514ZM21.4627 205.428C22.2694 205.428 22.922 205.641 23.4207 206.066C23.9194 206.491 24.1687 207.078 24.1687 207.826C24.1687 208.383 24.0074 208.831 23.6847 209.168C23.362 209.505 22.9587 209.674 22.4747 209.674C22.02 209.674 21.69 209.557 21.4847 209.322C21.646 209.058 21.756 208.823 21.8147 208.618C21.8734 208.398 21.9027 208.149 21.9027 207.87C21.9027 207.034 21.536 206.616 20.8027 206.616C20.216 206.616 19.7394 207.049 19.3727 207.914C19.0207 208.765 18.8447 210.048 18.8447 211.764V212.6C18.8447 213.905 18.8667 214.807 18.9107 215.306C18.9547 215.79 19.0647 216.252 19.2407 216.692C19.094 216.824 18.9034 216.941 18.6687 217.044C18.434 217.147 18.1627 217.205 17.8547 217.22C17.4587 217.22 17.1214 217.095 16.8427 216.846C16.5787 216.597 16.4467 216.259 16.4467 215.834V208.398C16.4467 208.002 16.3954 207.716 16.2927 207.54C16.2047 207.349 16.058 207.254 15.8527 207.254C15.574 207.254 15.3834 207.357 15.2807 207.562C15.09 207.283 14.9947 207.005 14.9947 206.726C14.9947 206.345 15.134 206.037 15.4127 205.802C15.6914 205.553 16.08 205.428 16.5787 205.428C17.18 205.428 17.6567 205.633 18.0087 206.044C18.3607 206.455 18.544 207.063 18.5587 207.87C19.072 206.242 20.04 205.428 21.4627 205.428ZM36.4674 215.042C36.6434 215.277 36.7314 215.548 36.7314 215.856C36.7314 216.237 36.5627 216.56 36.2254 216.824C35.888 217.088 35.4554 217.22 34.9274 217.22C34.2087 217.22 33.666 216.978 33.2994 216.494C32.9327 215.995 32.742 215.196 32.7274 214.096C32.2874 215.049 31.686 215.812 30.9234 216.384C30.1607 216.956 29.288 217.242 28.3054 217.242C27.4547 217.242 26.7654 217.015 26.2374 216.56C25.724 216.091 25.4674 215.46 25.4674 214.668C25.4674 213.744 25.8194 212.981 26.5234 212.38C27.2274 211.779 28.1294 211.324 29.2294 211.016C30.3294 210.708 31.4514 210.569 32.5954 210.598V210.048C32.5954 208.772 32.4194 207.833 32.0674 207.232C31.7154 206.631 31.1287 206.33 30.3074 206.33C29.75 206.33 29.2954 206.462 28.9434 206.726C28.606 206.99 28.4374 207.423 28.4374 208.024C28.4374 208.361 28.5034 208.677 28.6354 208.97C28.7674 209.263 28.9874 209.483 29.2954 209.63C29.1487 209.791 28.9507 209.916 28.7014 210.004C28.4667 210.077 28.2174 210.114 27.9534 210.114C27.3667 210.114 26.89 209.923 26.5234 209.542C26.1714 209.146 25.9954 208.669 25.9954 208.112C25.9954 207.247 26.3914 206.587 27.1834 206.132C27.9754 205.663 29.068 205.428 30.4614 205.428C32.0454 205.428 33.204 205.809 33.9374 206.572C34.6854 207.32 35.0594 208.523 35.0594 210.18V214.228C35.0594 215.005 35.3087 215.394 35.8074 215.394C35.9247 215.394 36.042 215.365 36.1594 215.306C36.2914 215.247 36.394 215.159 36.4674 215.042ZM29.4054 215.636C29.8894 215.636 30.3807 215.445 30.8794 215.064C31.3927 214.668 31.818 214.147 32.1554 213.502C32.4927 212.857 32.6614 212.167 32.6614 211.434C32.148 211.405 31.6274 211.434 31.0994 211.522C30.5714 211.595 30.1167 211.72 29.7354 211.896C29.222 212.116 28.8187 212.417 28.5254 212.798C28.2467 213.165 28.1074 213.597 28.1074 214.096C28.1074 214.536 28.21 214.903 28.4154 215.196C28.6354 215.489 28.9654 215.636 29.4054 215.636ZM48.1624 214.118C48.1918 215.321 48.3238 216.193 48.5584 216.736C48.1624 217.103 47.7004 217.286 47.1724 217.286C46.7618 217.286 46.4244 217.176 46.1604 216.956C45.8964 216.721 45.7644 216.406 45.7644 216.01V210.268C45.7498 209.051 45.6031 208.156 45.3244 207.584C45.0604 206.997 44.5691 206.704 43.8504 206.704C43.3664 206.704 42.9191 206.887 42.5084 207.254C42.1124 207.621 41.7898 208.185 41.5404 208.948C41.2911 209.696 41.1664 210.635 41.1664 211.764C41.1664 213.495 41.1884 214.639 41.2324 215.196C41.2764 215.753 41.3938 216.274 41.5844 216.758C41.4378 216.89 41.2398 217.007 40.9904 217.11C40.7558 217.227 40.4991 217.286 40.2204 217.286C39.7951 217.286 39.4504 217.161 39.1864 216.912C38.9224 216.663 38.7904 216.325 38.7904 215.9V208.398C38.7758 207.987 38.7244 207.694 38.6364 207.518C38.5484 207.342 38.4018 207.254 38.1964 207.254C37.9178 207.254 37.7271 207.357 37.6244 207.562C37.4338 207.283 37.3384 207.005 37.3384 206.726C37.3384 206.345 37.4778 206.037 37.7564 205.802C38.0351 205.553 38.4238 205.428 38.9224 205.428C39.5531 205.428 40.0371 205.648 40.3744 206.088C40.7264 206.513 40.9024 207.151 40.9024 208.002V208.112C41.1958 207.247 41.6578 206.587 42.2884 206.132C42.9338 205.663 43.7111 205.428 44.6204 205.428C45.8231 205.428 46.7104 205.802 47.2824 206.55C47.8691 207.298 48.1624 208.42 48.1624 209.916V214.118ZM54.5876 217.286C53.209 217.286 52.1676 217.051 51.4636 216.582C50.7596 216.113 50.4076 215.482 50.4076 214.69C50.4076 214.294 50.5176 213.957 50.7376 213.678C50.9723 213.399 51.3316 213.26 51.8156 213.26C51.9036 213.26 52.0503 213.275 52.2556 213.304C52.2116 213.48 52.1896 213.641 52.1896 213.788C52.1896 213.964 52.2116 214.155 52.2556 214.36C52.329 214.947 52.5856 215.423 53.0256 215.79C53.4803 216.157 54.0963 216.34 54.8736 216.34C55.563 216.34 56.1203 216.215 56.5456 215.966C56.971 215.702 57.1836 215.321 57.1836 214.822C57.1836 214.485 57.081 214.191 56.8756 213.942C56.685 213.678 56.443 213.458 56.1496 213.282C55.8563 213.106 55.4383 212.886 54.8956 212.622C54.7783 212.578 54.6023 212.497 54.3676 212.38C53.5756 212.013 52.945 211.691 52.4756 211.412C52.021 211.119 51.625 210.73 51.2876 210.246C50.965 209.762 50.8036 209.168 50.8036 208.464C50.8036 207.437 51.1996 206.675 51.9916 206.176C52.7836 205.663 53.7883 205.406 55.0056 205.406C56.223 205.406 57.1836 205.597 57.8876 205.978C58.5916 206.345 58.9436 206.88 58.9436 207.584C58.9436 207.907 58.8483 208.185 58.6576 208.42C58.4816 208.64 58.1956 208.757 57.7996 208.772C57.7263 208.787 57.631 208.794 57.5136 208.794C57.4403 208.794 57.301 208.779 57.0956 208.75C57.1103 208.662 57.1176 208.53 57.1176 208.354C57.1176 208.031 57.0736 207.789 56.9856 207.628C56.8976 207.217 56.6703 206.902 56.3036 206.682C55.9516 206.447 55.4896 206.33 54.9176 206.33C54.375 206.33 53.913 206.44 53.5316 206.66C53.165 206.88 52.9816 207.217 52.9816 207.672C52.9816 208.083 53.099 208.435 53.3336 208.728C53.583 209.021 53.8836 209.271 54.2356 209.476C54.5876 209.681 55.0863 209.938 55.7316 210.246C56.6263 210.671 57.2936 211.016 57.7336 211.28C58.1736 211.529 58.5696 211.874 58.9216 212.314C59.2736 212.754 59.4496 213.289 59.4496 213.92C59.4496 214.859 59.0536 215.658 58.2616 216.318C57.4843 216.963 56.2596 217.286 54.5876 217.286ZM66.0421 200.676C67.0247 200.676 67.7947 200.845 68.3521 201.182C68.9241 201.505 69.2101 201.974 69.2101 202.59C69.2101 203.015 69.0634 203.36 68.7701 203.624C68.4767 203.888 68.1247 204.02 67.7141 204.02C67.2154 204.02 66.8707 203.903 66.6801 203.668C66.9587 203.287 67.0981 202.905 67.0981 202.524C67.0981 201.849 66.7314 201.512 65.9981 201.512C65.5287 201.512 65.1767 201.688 64.9421 202.04C64.7221 202.392 64.5827 202.832 64.5241 203.36C64.4654 203.888 64.4361 204.585 64.4361 205.45V205.736H65.2501C65.5141 205.736 65.8734 205.729 66.3281 205.714C66.7827 205.699 67.1421 205.685 67.4061 205.67L67.3841 206.264C67.3694 206.455 67.3034 206.609 67.1861 206.726C67.0687 206.829 66.9221 206.88 66.7461 206.88H64.4361V214.118C64.4361 215.218 64.5534 216.091 64.7881 216.736C64.3921 217.103 63.9374 217.286 63.4241 217.286C63.0134 217.286 62.6761 217.169 62.4121 216.934C62.1627 216.699 62.0381 216.391 62.0381 216.01V206.88H61.7961C61.6054 206.88 61.3854 206.887 61.1361 206.902C60.8867 206.917 60.6667 206.939 60.4761 206.968L60.4981 206.33C60.5127 206.139 60.5787 205.993 60.6961 205.89C60.8134 205.787 60.9601 205.736 61.1361 205.736H62.0381V205.032C62.0381 202.128 63.3727 200.676 66.0421 200.676ZM78.9222 213.964C79.1569 214.067 79.2742 214.25 79.2742 214.514C79.2742 214.69 79.2229 214.903 79.1202 215.152C78.8416 215.841 78.3429 216.369 77.6242 216.736C76.9202 217.103 76.0696 217.286 75.0722 217.286C73.4002 217.286 72.0802 216.773 71.1122 215.746C70.1589 214.719 69.6822 213.26 69.6822 211.368C69.6822 209.505 70.1516 208.053 71.0902 207.012C72.0289 205.956 73.3709 205.428 75.1162 205.428C76.3922 205.428 77.4262 205.714 78.2182 206.286C79.0102 206.843 79.4062 207.643 79.4062 208.684C79.4062 209.769 78.9662 210.605 78.0862 211.192C77.2209 211.764 76.0402 212.05 74.5442 212.05C73.6936 212.05 72.9382 212.013 72.2782 211.94C72.3809 213.304 72.7256 214.279 73.3122 214.866C73.8989 215.453 74.6982 215.746 75.7102 215.746C76.5022 215.746 77.1769 215.585 77.7342 215.262C78.3062 214.939 78.7022 214.507 78.9222 213.964ZM75.0282 206.33C74.1629 206.33 73.4809 206.741 72.9822 207.562C72.4982 208.369 72.2562 209.52 72.2562 211.016C72.6376 211.06 73.0262 211.082 73.4222 211.082C74.4196 211.082 75.2336 210.884 75.8642 210.488C76.4949 210.092 76.8102 209.366 76.8102 208.31C76.8102 207.591 76.6416 207.085 76.3042 206.792C75.9669 206.484 75.5416 206.33 75.0282 206.33ZM87.1404 205.428C87.9471 205.428 88.5998 205.641 89.0984 206.066C89.5971 206.491 89.8464 207.078 89.8464 207.826C89.8464 208.383 89.6851 208.831 89.3624 209.168C89.0398 209.505 88.6364 209.674 88.1524 209.674C87.6978 209.674 87.3678 209.557 87.1624 209.322C87.3238 209.058 87.4338 208.823 87.4924 208.618C87.5511 208.398 87.5804 208.149 87.5804 207.87C87.5804 207.034 87.2138 206.616 86.4804 206.616C85.8938 206.616 85.4171 207.049 85.0504 207.914C84.6984 208.765 84.5224 210.048 84.5224 211.764V212.6C84.5224 213.905 84.5444 214.807 84.5884 215.306C84.6324 215.79 84.7424 216.252 84.9184 216.692C84.7718 216.824 84.5811 216.941 84.3464 217.044C84.1118 217.147 83.8404 217.205 83.5324 217.22C83.1364 217.22 82.7991 217.095 82.5204 216.846C82.2564 216.597 82.1244 216.259 82.1244 215.834V208.398C82.1244 208.002 82.0731 207.716 81.9704 207.54C81.8824 207.349 81.7358 207.254 81.5304 207.254C81.2518 207.254 81.0611 207.357 80.9584 207.562C80.7678 207.283 80.6724 207.005 80.6724 206.726C80.6724 206.345 80.8118 206.037 81.0904 205.802C81.3691 205.553 81.7578 205.428 82.2564 205.428C82.8578 205.428 83.3344 205.633 83.6864 206.044C84.0384 206.455 84.2218 207.063 84.2364 207.87C84.7498 206.242 85.7178 205.428 87.1404 205.428ZM97.9392 204.064C97.5285 204.064 97.1765 203.925 96.8832 203.646C96.6045 203.367 96.4652 203.03 96.4652 202.634C96.4652 202.223 96.6045 201.879 96.8832 201.6C97.1765 201.307 97.5285 201.16 97.9392 201.16C98.3352 201.16 98.6725 201.307 98.9512 201.6C99.2445 201.879 99.3912 202.223 99.3912 202.634C99.3912 203.03 99.2445 203.367 98.9512 203.646C98.6725 203.925 98.3352 204.064 97.9392 204.064ZM99.2372 214.118C99.2372 215.262 99.3545 216.135 99.5892 216.736C99.1785 217.103 98.7165 217.286 98.2032 217.286C97.8072 217.286 97.4845 217.176 97.2352 216.956C96.9858 216.721 96.8612 216.406 96.8612 216.01L96.8392 208.574C96.8392 207.503 96.7218 206.623 96.4872 205.934C96.9272 205.582 97.3745 205.406 97.8292 205.406C98.2252 205.406 98.5478 205.523 98.7972 205.758C99.0612 205.978 99.1932 206.286 99.1932 206.682L99.2372 214.118ZM105.63 205.736C105.909 205.736 106.29 205.729 106.774 205.714C107.258 205.699 107.64 205.685 107.918 205.67L107.896 206.264C107.882 206.455 107.816 206.609 107.698 206.726C107.596 206.829 107.456 206.88 107.28 206.88H105.212V207.606L105.19 214.228C105.19 215.02 105.535 215.416 106.224 215.416C106.43 215.416 106.62 215.387 106.796 215.328C106.987 215.255 107.112 215.159 107.17 215.042C107.361 215.321 107.456 215.592 107.456 215.856C107.456 216.267 107.251 216.604 106.84 216.868C106.444 217.117 105.931 217.242 105.3 217.242C104.508 217.242 103.892 216.993 103.452 216.494C103.012 215.995 102.792 215.306 102.792 214.426V206.88H102.484C102.294 206.88 102.074 206.887 101.824 206.902C101.575 206.917 101.355 206.939 101.164 206.968L101.186 206.33C101.201 206.139 101.267 205.993 101.384 205.89C101.502 205.787 101.648 205.736 101.824 205.736H102.792V204.064C102.792 203.683 102.924 203.382 103.188 203.162C103.452 202.927 103.79 202.81 104.2 202.81C104.714 202.81 105.168 202.986 105.564 203.338C105.388 203.983 105.278 204.783 105.234 205.736H105.63ZM118.005 205.736C118.284 205.736 118.665 205.729 119.149 205.714C119.633 205.699 120.015 205.685 120.293 205.67L120.271 206.264C120.257 206.455 120.191 206.609 120.073 206.726C119.971 206.829 119.831 206.88 119.655 206.88H117.587V207.606L117.565 214.228C117.565 215.02 117.91 215.416 118.599 215.416C118.805 215.416 118.995 215.387 119.171 215.328C119.362 215.255 119.487 215.159 119.545 215.042C119.736 215.321 119.831 215.592 119.831 215.856C119.831 216.267 119.626 216.604 119.215 216.868C118.819 217.117 118.306 217.242 117.675 217.242C116.883 217.242 116.267 216.993 115.827 216.494C115.387 215.995 115.167 215.306 115.167 214.426V206.88H114.859C114.669 206.88 114.449 206.887 114.199 206.902C113.95 206.917 113.73 206.939 113.539 206.968L113.561 206.33C113.576 206.139 113.642 205.993 113.759 205.89C113.877 205.787 114.023 205.736 114.199 205.736H115.167V204.064C115.167 203.683 115.299 203.382 115.563 203.162C115.827 202.927 116.165 202.81 116.575 202.81C117.089 202.81 117.543 202.986 117.939 203.338C117.763 203.983 117.653 204.783 117.609 205.736H118.005ZM126.996 217.286C125.339 217.286 124.048 216.765 123.124 215.724C122.215 214.683 121.76 213.231 121.76 211.368C121.76 209.491 122.222 208.031 123.146 206.99C124.07 205.949 125.354 205.428 126.996 205.428C128.654 205.428 129.944 205.949 130.868 206.99C131.792 208.031 132.254 209.491 132.254 211.368C132.254 213.231 131.792 214.683 130.868 215.724C129.944 216.765 128.654 217.286 126.996 217.286ZM126.996 216.384C127.876 216.384 128.536 215.959 128.976 215.108C129.431 214.257 129.658 213.011 129.658 211.368C129.658 209.711 129.431 208.457 128.976 207.606C128.536 206.755 127.876 206.33 126.996 206.33C126.116 206.33 125.449 206.755 124.994 207.606C124.554 208.457 124.334 209.711 124.334 211.368C124.334 213.011 124.554 214.257 124.994 215.108C125.449 215.959 126.116 216.384 126.996 216.384ZM149.096 201.71C149.228 201.71 149.33 201.776 149.404 201.908C149.477 202.025 149.514 202.187 149.514 202.392C149.514 202.685 149.448 202.979 149.316 203.272C149.184 203.565 149.022 203.756 148.832 203.844C148.069 203.565 147.394 203.338 146.808 203.162C146.221 202.971 145.634 202.825 145.048 202.722L145.07 214.118C145.07 215.262 145.187 216.135 145.422 216.736C145.011 217.103 144.542 217.286 144.014 217.286C143.603 217.286 143.266 217.169 143.002 216.934C142.752 216.699 142.628 216.391 142.628 216.01L142.606 202.722C142.019 202.825 141.425 202.971 140.824 203.162C140.237 203.338 139.577 203.565 138.844 203.844C138.653 203.756 138.492 203.565 138.36 203.272C138.228 202.979 138.162 202.685 138.162 202.392C138.162 202.187 138.198 202.025 138.272 201.908C138.345 201.776 138.448 201.71 138.58 201.71H149.096ZM160.777 214.118C160.777 215.262 160.894 216.135 161.129 216.736C160.733 217.103 160.278 217.286 159.765 217.286C159.354 217.286 159.017 217.169 158.753 216.934C158.503 216.699 158.379 216.391 158.379 216.01V210.268C158.379 209.021 158.232 208.105 157.939 207.518C157.66 206.917 157.161 206.616 156.443 206.616C155.973 206.616 155.533 206.807 155.123 207.188C154.727 207.555 154.404 208.127 154.155 208.904C153.905 209.667 153.781 210.62 153.781 211.764C153.781 213.495 153.795 214.639 153.825 215.196C153.869 215.753 153.986 216.274 154.177 216.758C154.045 216.89 153.861 217.007 153.627 217.11C153.392 217.227 153.121 217.286 152.813 217.286C152.402 217.286 152.065 217.161 151.801 216.912C151.551 216.663 151.427 216.325 151.427 215.9L151.405 202.172C151.405 201.761 151.522 201.453 151.757 201.248C152.006 201.028 152.336 200.918 152.747 200.918C153.04 200.918 153.311 200.977 153.561 201.094C153.825 201.197 154.037 201.314 154.199 201.446C154.037 201.974 153.927 202.575 153.869 203.25C153.81 203.925 153.773 204.797 153.759 205.868V207.804C154.067 207.041 154.514 206.455 155.101 206.044C155.702 205.633 156.413 205.428 157.235 205.428C158.437 205.428 159.325 205.802 159.897 206.55C160.469 207.298 160.755 208.42 160.755 209.916L160.777 214.118ZM172.379 213.964C172.614 214.067 172.731 214.25 172.731 214.514C172.731 214.69 172.68 214.903 172.577 215.152C172.299 215.841 171.8 216.369 171.081 216.736C170.377 217.103 169.527 217.286 168.529 217.286C166.857 217.286 165.537 216.773 164.569 215.746C163.616 214.719 163.139 213.26 163.139 211.368C163.139 209.505 163.609 208.053 164.547 207.012C165.486 205.956 166.828 205.428 168.573 205.428C169.849 205.428 170.883 205.714 171.675 206.286C172.467 206.843 172.863 207.643 172.863 208.684C172.863 209.769 172.423 210.605 171.543 211.192C170.678 211.764 169.497 212.05 168.001 212.05C167.151 212.05 166.395 212.013 165.735 211.94C165.838 213.304 166.183 214.279 166.769 214.866C167.356 215.453 168.155 215.746 169.167 215.746C169.959 215.746 170.634 215.585 171.191 215.262C171.763 214.939 172.159 214.507 172.379 213.964ZM168.485 206.33C167.62 206.33 166.938 206.741 166.439 207.562C165.955 208.369 165.713 209.52 165.713 211.016C166.095 211.06 166.483 211.082 166.879 211.082C167.877 211.082 168.691 210.884 169.321 210.488C169.952 210.092 170.267 209.366 170.267 208.31C170.267 207.591 170.099 207.085 169.761 206.792C169.424 206.484 168.999 206.33 168.485 206.33ZM183.652 201.402C185.837 201.402 187.465 201.769 188.536 202.502C189.621 203.221 190.164 204.365 190.164 205.934C190.164 207.577 189.584 208.831 188.426 209.696C187.267 210.561 185.595 210.994 183.41 210.994H182.86V214.25C182.86 215.321 182.977 216.149 183.212 216.736C182.801 217.103 182.339 217.286 181.826 217.286C181.4 217.286 181.056 217.176 180.792 216.956C180.542 216.721 180.418 216.406 180.418 216.01V204.592C180.418 204.196 180.388 203.756 180.33 203.272C180.271 202.773 180.176 202.341 180.044 201.974C180.85 201.593 182.053 201.402 183.652 201.402ZM183.366 210.092C186.123 210.092 187.502 208.757 187.502 206.088C187.502 204.871 187.194 203.939 186.578 203.294C185.976 202.649 185.001 202.326 183.652 202.326C183.358 202.326 183.094 202.341 182.86 202.37V210.092H183.366ZM202.907 215.042C203.083 215.277 203.171 215.548 203.171 215.856C203.171 216.237 203.002 216.56 202.665 216.824C202.327 217.088 201.895 217.22 201.367 217.22C200.648 217.22 200.105 216.978 199.739 216.494C199.372 215.995 199.181 215.196 199.167 214.096C198.727 215.049 198.125 215.812 197.363 216.384C196.6 216.956 195.727 217.242 194.745 217.242C193.894 217.242 193.205 217.015 192.677 216.56C192.163 216.091 191.907 215.46 191.907 214.668C191.907 213.744 192.259 212.981 192.963 212.38C193.667 211.779 194.569 211.324 195.669 211.016C196.769 210.708 197.891 210.569 199.035 210.598V210.048C199.035 208.772 198.859 207.833 198.507 207.232C198.155 206.631 197.568 206.33 196.747 206.33C196.189 206.33 195.735 206.462 195.383 206.726C195.045 206.99 194.877 207.423 194.877 208.024C194.877 208.361 194.943 208.677 195.075 208.97C195.207 209.263 195.427 209.483 195.735 209.63C195.588 209.791 195.39 209.916 195.141 210.004C194.906 210.077 194.657 210.114 194.393 210.114C193.806 210.114 193.329 209.923 192.963 209.542C192.611 209.146 192.435 208.669 192.435 208.112C192.435 207.247 192.831 206.587 193.623 206.132C194.415 205.663 195.507 205.428 196.901 205.428C198.485 205.428 199.643 205.809 200.377 206.572C201.125 207.32 201.499 208.523 201.499 210.18V214.228C201.499 215.005 201.748 215.394 202.247 215.394C202.364 215.394 202.481 215.365 202.599 215.306C202.731 215.247 202.833 215.159 202.907 215.042ZM195.845 215.636C196.329 215.636 196.82 215.445 197.319 215.064C197.832 214.668 198.257 214.147 198.595 213.502C198.932 212.857 199.101 212.167 199.101 211.434C198.587 211.405 198.067 211.434 197.539 211.522C197.011 211.595 196.556 211.72 196.175 211.896C195.661 212.116 195.258 212.417 194.965 212.798C194.686 213.165 194.547 213.597 194.547 214.096C194.547 214.536 194.649 214.903 194.855 215.196C195.075 215.489 195.405 215.636 195.845 215.636ZM209.542 217.286C207.841 217.286 206.521 216.78 205.582 215.768C204.658 214.741 204.196 213.275 204.196 211.368C204.196 209.52 204.673 208.068 205.626 207.012C206.579 205.956 207.921 205.428 209.652 205.428C210.899 205.428 211.859 205.692 212.534 206.22C213.223 206.733 213.568 207.401 213.568 208.222C213.568 208.779 213.399 209.227 213.062 209.564C212.739 209.901 212.314 210.07 211.786 210.07C211.537 210.07 211.287 210.033 211.038 209.96C210.803 209.872 210.62 209.747 210.488 209.586C210.928 209.293 211.148 208.772 211.148 208.024C211.148 207.437 210.994 207.012 210.686 206.748C210.378 206.469 209.967 206.33 209.454 206.33C208.633 206.33 207.98 206.741 207.496 207.562C207.012 208.369 206.77 209.513 206.77 210.994C206.77 212.637 207.078 213.839 207.694 214.602C208.31 215.365 209.161 215.746 210.246 215.746C211.023 215.746 211.691 215.555 212.248 215.174C212.805 214.793 213.165 214.272 213.326 213.612C213.561 213.7 213.678 213.913 213.678 214.25C213.678 214.441 213.649 214.646 213.59 214.866C213.355 215.643 212.879 216.245 212.16 216.67C211.456 217.081 210.583 217.286 209.542 217.286ZM225.817 215.02C226.037 215.24 226.147 215.511 226.147 215.834C226.147 216.245 225.964 216.589 225.597 216.868C225.245 217.147 224.813 217.286 224.299 217.286C223.859 217.286 223.456 217.154 223.089 216.89C222.737 216.626 222.459 216.245 222.253 215.746L220.625 212.226C219.819 212.505 219.122 212.695 218.535 212.798C218.535 214.103 218.557 214.976 218.601 215.416C218.645 215.856 218.755 216.303 218.931 216.758C218.741 216.919 218.535 217.044 218.315 217.132C218.095 217.235 217.817 217.286 217.479 217.286C216.981 217.286 216.636 217.169 216.445 216.934C216.255 216.685 216.159 216.34 216.159 215.9L216.137 202.172C216.137 201.776 216.262 201.468 216.511 201.248C216.775 201.013 217.113 200.896 217.523 200.896C218.066 200.896 218.521 201.079 218.887 201.446C218.755 202.135 218.667 202.722 218.623 203.206C218.579 203.675 218.55 204.24 218.535 204.9C218.535 205.325 218.528 205.663 218.513 205.912L218.491 208.398C218.829 207.474 219.349 206.748 220.053 206.22C220.757 205.692 221.608 205.428 222.605 205.428C223.529 205.428 224.219 205.655 224.673 206.11C225.143 206.565 225.377 207.166 225.377 207.914C225.377 208.75 225.084 209.483 224.497 210.114C223.911 210.745 223.163 211.273 222.253 211.698C222.62 211.815 222.987 212.175 223.353 212.776L224.277 214.404C224.483 214.756 224.637 214.991 224.739 215.108C224.857 215.211 225.011 215.262 225.201 215.262C225.451 215.262 225.656 215.181 225.817 215.02ZM218.535 211.874C219.782 211.507 220.823 211.009 221.659 210.378C222.51 209.747 222.935 208.97 222.935 208.046C222.935 207.151 222.525 206.704 221.703 206.704C221.102 206.704 220.559 206.931 220.075 207.386C219.591 207.841 219.21 208.464 218.931 209.256C218.667 210.048 218.535 210.921 218.535 211.874ZM238.463 215.042C238.639 215.277 238.727 215.548 238.727 215.856C238.727 216.237 238.559 216.56 238.221 216.824C237.884 217.088 237.451 217.22 236.923 217.22C236.205 217.22 235.662 216.978 235.295 216.494C234.929 215.995 234.738 215.196 234.723 214.096C234.283 215.049 233.682 215.812 232.919 216.384C232.157 216.956 231.284 217.242 230.301 217.242C229.451 217.242 228.761 217.015 228.233 216.56C227.72 216.091 227.463 215.46 227.463 214.668C227.463 213.744 227.815 212.981 228.519 212.38C229.223 211.779 230.125 211.324 231.225 211.016C232.325 210.708 233.447 210.569 234.591 210.598V210.048C234.591 208.772 234.415 207.833 234.063 207.232C233.711 206.631 233.125 206.33 232.303 206.33C231.746 206.33 231.291 206.462 230.939 206.726C230.602 206.99 230.433 207.423 230.433 208.024C230.433 208.361 230.499 208.677 230.631 208.97C230.763 209.263 230.983 209.483 231.291 209.63C231.145 209.791 230.947 209.916 230.697 210.004C230.463 210.077 230.213 210.114 229.949 210.114C229.363 210.114 228.886 209.923 228.519 209.542C228.167 209.146 227.991 208.669 227.991 208.112C227.991 207.247 228.387 206.587 229.179 206.132C229.971 205.663 231.064 205.428 232.457 205.428C234.041 205.428 235.2 205.809 235.933 206.572C236.681 207.32 237.055 208.523 237.055 210.18V214.228C237.055 215.005 237.305 215.394 237.803 215.394C237.921 215.394 238.038 215.365 238.155 215.306C238.287 215.247 238.39 215.159 238.463 215.042ZM231.401 215.636C231.885 215.636 232.377 215.445 232.875 215.064C233.389 214.668 233.814 214.147 234.151 213.502C234.489 212.857 234.657 212.167 234.657 211.434C234.144 211.405 233.623 211.434 233.095 211.522C232.567 211.595 232.113 211.72 231.731 211.896C231.218 212.116 230.815 212.417 230.521 212.798C230.243 213.165 230.103 213.597 230.103 214.096C230.103 214.536 230.206 214.903 230.411 215.196C230.631 215.489 230.961 215.636 231.401 215.636ZM243.823 222.016C242.664 222.016 241.711 221.803 240.963 221.378C240.215 220.953 239.841 220.307 239.841 219.442C239.841 218.914 240.002 218.489 240.325 218.166C240.647 217.858 241.065 217.704 241.579 217.704C242.107 217.704 242.481 217.843 242.701 218.122C242.275 218.459 242.063 218.936 242.063 219.552C242.063 220.065 242.224 220.469 242.547 220.762C242.869 221.055 243.317 221.202 243.889 221.202C244.959 221.202 245.759 220.769 246.287 219.904C246.829 219.039 247.101 217.814 247.101 216.23V214.646C246.851 215.409 246.426 215.995 245.825 216.406C245.238 216.817 244.512 217.022 243.647 217.022C242.415 217.022 241.454 216.582 240.765 215.702C240.09 214.822 239.753 213.436 239.753 211.544C239.753 209.74 240.156 208.273 240.963 207.144C241.769 206 243.104 205.428 244.967 205.428C245.861 205.428 246.705 205.553 247.497 205.802C248.303 206.051 248.963 206.411 249.477 206.88V216.01C249.477 220.014 247.592 222.016 243.823 222.016ZM244.351 215.834C245.26 215.834 245.935 215.438 246.375 214.646C246.829 213.839 247.064 212.805 247.079 211.544L247.101 206.968C246.881 206.763 246.587 206.609 246.221 206.506C245.854 206.389 245.465 206.33 245.055 206.33C243.999 206.33 243.273 206.807 242.877 207.76C242.495 208.699 242.305 210.033 242.305 211.764C242.305 213.245 242.459 214.294 242.767 214.91C243.089 215.526 243.617 215.834 244.351 215.834ZM253.722 204.064C253.312 204.064 252.96 203.925 252.666 203.646C252.388 203.367 252.248 203.03 252.248 202.634C252.248 202.223 252.388 201.879 252.666 201.6C252.96 201.307 253.312 201.16 253.722 201.16C254.118 201.16 254.456 201.307 254.734 201.6C255.028 201.879 255.174 202.223 255.174 202.634C255.174 203.03 255.028 203.367 254.734 203.646C254.456 203.925 254.118 204.064 253.722 204.064ZM255.02 214.118C255.02 215.262 255.138 216.135 255.372 216.736C254.962 217.103 254.5 217.286 253.986 217.286C253.59 217.286 253.268 217.176 253.018 216.956C252.769 216.721 252.644 216.406 252.644 216.01L252.622 208.574C252.622 207.503 252.505 206.623 252.27 205.934C252.71 205.582 253.158 205.406 253.612 205.406C254.008 205.406 254.331 205.523 254.58 205.758C254.844 205.978 254.976 206.286 254.976 206.682L255.02 214.118ZM267.948 214.118C267.977 215.321 268.109 216.193 268.344 216.736C267.948 217.103 267.486 217.286 266.958 217.286C266.547 217.286 266.21 217.176 265.946 216.956C265.682 216.721 265.55 216.406 265.55 216.01V210.268C265.535 209.051 265.388 208.156 265.11 207.584C264.846 206.997 264.354 206.704 263.636 206.704C263.152 206.704 262.704 206.887 262.294 207.254C261.898 207.621 261.575 208.185 261.326 208.948C261.076 209.696 260.952 210.635 260.952 211.764C260.952 213.495 260.974 214.639 261.018 215.196C261.062 215.753 261.179 216.274 261.37 216.758C261.223 216.89 261.025 217.007 260.776 217.11C260.541 217.227 260.284 217.286 260.006 217.286C259.58 217.286 259.236 217.161 258.972 216.912C258.708 216.663 258.576 216.325 258.576 215.9V208.398C258.561 207.987 258.51 207.694 258.422 207.518C258.334 207.342 258.187 207.254 257.982 207.254C257.703 207.254 257.512 207.357 257.41 207.562C257.219 207.283 257.124 207.005 257.124 206.726C257.124 206.345 257.263 206.037 257.542 205.802C257.82 205.553 258.209 205.428 258.708 205.428C259.338 205.428 259.822 205.648 260.16 206.088C260.512 206.513 260.688 207.151 260.688 208.002V208.112C260.981 207.247 261.443 206.587 262.074 206.132C262.719 205.663 263.496 205.428 264.406 205.428C265.608 205.428 266.496 205.802 267.068 206.55C267.654 207.298 267.948 208.42 267.948 209.916V214.118ZM274.395 222.016C273.236 222.016 272.283 221.803 271.535 221.378C270.787 220.953 270.413 220.307 270.413 219.442C270.413 218.914 270.574 218.489 270.897 218.166C271.219 217.858 271.637 217.704 272.151 217.704C272.679 217.704 273.053 217.843 273.273 218.122C272.847 218.459 272.635 218.936 272.635 219.552C272.635 220.065 272.796 220.469 273.119 220.762C273.441 221.055 273.889 221.202 274.461 221.202C275.531 221.202 276.331 220.769 276.859 219.904C277.401 219.039 277.673 217.814 277.673 216.23V214.646C277.423 215.409 276.998 215.995 276.397 216.406C275.81 216.817 275.084 217.022 274.219 217.022C272.987 217.022 272.026 216.582 271.337 215.702C270.662 214.822 270.325 213.436 270.325 211.544C270.325 209.74 270.728 208.273 271.535 207.144C272.341 206 273.676 205.428 275.539 205.428C276.433 205.428 277.277 205.553 278.069 205.802C278.875 206.051 279.535 206.411 280.049 206.88V216.01C280.049 220.014 278.164 222.016 274.395 222.016ZM274.923 215.834C275.832 215.834 276.507 215.438 276.947 214.646C277.401 213.839 277.636 212.805 277.651 211.544L277.673 206.968C277.453 206.763 277.159 206.609 276.793 206.506C276.426 206.389 276.037 206.33 275.627 206.33C274.571 206.33 273.845 206.807 273.449 207.76C273.067 208.699 272.877 210.033 272.877 211.764C272.877 213.245 273.031 214.294 273.339 214.91C273.661 215.526 274.189 215.834 274.923 215.834Z" fill="white"/>
<rect x="86.5" y="16.5" width="109" height="109" rx="9.5" fill="#201A18" stroke="#FCC41A"/>
<path d="M156.609 68.3633H125.391C124.808 68.3633 124.336 68.8355 124.336 69.418V90.0898C124.336 92.1253 125.992 93.7812 128.027 93.7812H153.973C156.008 93.7812 157.664 92.1253 157.664 90.0898V69.418C157.664 68.8355 157.192 68.3633 156.609 68.3633ZM155.555 73.3203H134.203C133.621 73.3203 133.149 73.7925 133.149 74.375C133.149 74.9575 133.621 75.4297 134.203 75.4297H155.555V90.0898C155.555 90.9622 154.845 91.6719 153.973 91.6719H128.027C127.155 91.6719 126.445 90.9622 126.445 90.0898V70.4727H155.555V73.3203Z" fill="#FCC41A"/>
<path d="M150.463 81.9596C150.724 81.4534 150.872 80.8801 150.872 80.2725C150.872 78.2339 149.213 76.5754 147.175 76.5754C145.136 76.5754 143.478 78.2339 143.478 80.2725C143.478 80.615 143.526 80.9462 143.613 81.2611C142.076 81.6291 140.929 83.0141 140.929 84.6628C140.929 86.5917 142.498 88.161 144.427 88.161C145.058 88.161 145.649 87.9923 146.161 87.6991C146.822 88.998 148.172 89.8903 149.727 89.8903C151.932 89.8903 153.727 88.096 153.727 85.8904C153.727 83.9364 152.318 82.3063 150.463 81.9596ZM144.427 86.0515C143.661 86.0515 143.038 85.4285 143.038 84.6627C143.038 83.8969 143.661 83.2738 144.427 83.2738C145.193 83.2738 145.816 83.8968 145.816 84.6627C145.816 85.4285 145.193 86.0515 144.427 86.0515ZM145.587 80.2725C145.587 79.397 146.299 78.6848 147.175 78.6848C148.05 78.6848 148.763 79.397 148.763 80.2725C148.763 81.148 148.05 81.8603 147.175 81.8603C146.299 81.8603 145.587 81.148 145.587 80.2725ZM149.727 87.7809C148.684 87.7809 147.836 86.9328 147.836 85.8903C147.836 84.848 148.684 83.9999 149.727 83.9999C150.769 83.9999 151.617 84.848 151.617 85.8903C151.617 86.9328 150.769 87.7809 149.727 87.7809Z" fill="#FCC41A"/>
<path d="M162.944 57.8396L158.514 53.143C159.099 52.4636 159.435 51.5873 159.435 50.6658V47.7375C159.435 45.6766 157.731 44 155.637 44H126.362C124.268 44 122.564 45.6766 122.564 47.7375V50.6658C122.564 51.5872 122.901 52.4633 123.485 53.1429L119.056 57.8395C118.829 58.0799 118.728 58.4126 118.783 58.7385C118.838 59.0643 119.043 59.3456 119.336 59.4983L120.289 59.9956C120.772 60.247 121.173 60.5578 121.6 60.8886C121.829 61.0665 122.061 61.2456 122.307 61.4159L120.725 65.2119C120.327 65.9435 120.117 66.7682 120.117 67.6015V92.998C120.117 95.7562 122.361 98 125.119 98H156.881C159.639 98 161.883 95.7562 161.883 92.998V68.1861C161.883 67.3917 161.691 66.6009 161.327 65.8948L159.577 61.4932C159.867 61.2992 160.136 61.0915 160.402 60.8853C160.827 60.5568 161.229 60.2464 161.71 59.9957L162.664 59.4985C162.957 59.3458 163.161 59.0645 163.216 58.7387C163.271 58.4127 163.17 58.08 162.944 57.8396ZM159.773 68.1861V92.998C159.773 94.593 158.476 95.8906 156.881 95.8906H125.119C123.524 95.8906 122.226 94.593 122.226 92.998V67.6015C122.226 67.107 122.354 66.6179 122.596 66.1868C122.616 66.1512 122.634 66.1144 122.65 66.0767L124.227 62.2912C124.234 62.2928 124.242 62.2939 124.249 62.2953C124.311 62.3093 124.376 62.321 124.441 62.333C124.485 62.3413 124.529 62.3508 124.575 62.3581C124.616 62.3647 124.66 62.3694 124.702 62.3752C124.993 62.4154 125.296 62.4372 125.62 62.4372C126.217 62.4372 126.725 62.3672 127.172 62.2506C127.197 62.2439 127.225 62.2383 127.25 62.2313C127.491 62.1644 127.713 62.0823 127.921 61.9908C128.597 61.6943 129.125 61.2881 129.642 60.888C130.59 60.1538 131.486 59.4602 133.309 59.4602C135.131 59.4602 136.029 60.1543 136.978 60.8886C137.96 61.65 138.976 62.4373 140.998 62.4373C141.377 62.4373 141.721 62.4097 142.035 62.3596C142.907 62.2211 143.556 61.9111 144.12 61.5443C144.439 61.3368 144.732 61.1116 145.02 60.8881C145.494 60.5209 145.955 60.164 146.526 59.8989C147.096 59.6337 147.776 59.4603 148.687 59.4603C149.996 59.4603 150.826 59.8182 151.542 60.2914C151.824 60.4779 152.089 60.6818 152.357 60.8894C152.589 61.0686 152.822 61.2491 153.07 61.4205C153.086 61.431 153.1 61.4418 153.116 61.4522C153.138 61.4676 153.162 61.4824 153.185 61.4976C153.698 61.84 154.279 62.1383 155.035 62.3024C155.063 62.3085 155.094 62.3131 155.123 62.3189C155.194 62.3332 155.265 62.3478 155.34 62.3596C155.522 62.3884 155.715 62.4082 155.917 62.4211C156.065 62.4306 156.217 62.4372 156.377 62.4372C156.495 62.4372 156.609 62.4341 156.723 62.4287C156.783 62.4258 156.841 62.4206 156.899 62.4163C156.948 62.4126 156.997 62.4099 157.045 62.4052C157.127 62.3973 157.207 62.387 157.285 62.3762C157.306 62.3734 157.327 62.3712 157.347 62.3682C157.446 62.3537 157.542 62.3368 157.635 62.3181L159.387 66.7246C159.401 66.7605 159.417 66.7955 159.435 66.8297C159.656 67.2458 159.773 67.715 159.773 68.1861ZM159.11 59.2181C158.643 59.5805 158.261 59.8753 157.802 60.0701C157.769 60.084 157.736 60.0973 157.703 60.11C157.682 60.118 157.661 60.1259 157.639 60.1336C157.606 60.1455 157.572 60.157 157.538 60.1678C157.516 60.1746 157.494 60.1811 157.472 60.1876C157.437 60.1978 157.402 60.2075 157.366 60.2166C157.343 60.2224 157.32 60.2277 157.297 60.233C157.261 60.2412 157.225 60.249 157.189 60.2561C157.163 60.2612 157.136 60.2657 157.109 60.2702C157.074 60.2761 157.039 60.2821 157.003 60.287C156.972 60.2914 156.939 60.295 156.906 60.2987C156.874 60.3024 156.841 60.3063 156.808 60.3093C156.767 60.3129 156.724 60.3154 156.681 60.318C156.654 60.3197 156.627 60.3218 156.6 60.323C156.528 60.326 156.454 60.3278 156.377 60.3278C155.322 60.3278 154.749 60.0375 154.109 59.5714C154.109 59.5712 154.109 59.571 154.108 59.5708C154.102 59.5659 154.095 59.5608 154.088 59.5559C153.947 59.4522 153.802 59.3405 153.648 59.2211C153.359 58.997 153.05 58.7583 152.704 58.529C151.764 57.9053 150.548 57.351 148.687 57.351H148.687C147.018 57.351 145.867 57.7973 144.97 58.3395C144.5 58.6236 144.099 58.9338 143.729 59.2202C142.921 59.8455 142.37 60.2719 141.234 60.3228C141.158 60.3261 141.079 60.3278 140.998 60.3278C139.698 60.3278 139.13 59.8876 138.269 59.2206C137.192 58.3876 135.852 57.3509 133.309 57.3509C130.765 57.3509 129.427 58.3873 128.351 59.2201C127.597 59.8038 127.067 60.2141 126.075 60.3076C125.934 60.321 125.783 60.3278 125.62 60.3278C125.542 60.3278 125.466 60.326 125.393 60.3229C125.352 60.3211 125.314 60.3178 125.274 60.3151C125.243 60.313 125.211 60.3114 125.18 60.3086C125.13 60.3041 125.082 60.298 125.033 60.2917C125.015 60.2893 124.996 60.2876 124.979 60.2851C124.926 60.2776 124.876 60.2686 124.825 60.259C124.812 60.2565 124.798 60.2545 124.785 60.252C124.737 60.2423 124.69 60.2309 124.643 60.2192C124.628 60.2155 124.613 60.2124 124.599 60.2086C124.559 60.1983 124.521 60.1864 124.483 60.1747C124.461 60.1679 124.439 60.1619 124.418 60.1549C124.396 60.1476 124.375 60.1391 124.353 60.1314C123.823 59.9408 123.409 59.6218 122.889 59.2191C122.499 58.9169 122.065 58.5802 121.542 58.2775L125.558 54.0195H149.284C149.866 54.0195 150.339 53.5473 150.339 52.9648C150.339 52.3823 149.866 51.9102 149.284 51.9102H125.242C125.236 51.9102 125.23 51.911 125.224 51.9111C124.879 51.5945 124.674 51.1441 124.674 50.6658V47.7375C124.674 46.8246 125.416 46.1094 126.362 46.1094H155.637C156.584 46.1094 157.326 46.8246 157.326 47.7375V50.6658C157.326 51.274 156.996 51.8379 156.464 52.1375C156.182 52.2969 155.989 52.5774 155.94 52.898C155.891 53.2186 155.993 53.5439 156.215 53.7797L160.457 58.2776C159.936 58.5795 159.502 58.9155 159.11 59.2181Z" fill="#FCC41A"/>
<path d="M154.089 52.2191C154.041 52.1706 153.987 52.1263 153.929 52.0884C153.872 52.0504 153.811 52.0177 153.748 51.9913C153.683 51.965 153.618 51.9439 153.55 51.9312C153.414 51.9038 153.274 51.9038 153.138 51.9312C153.071 51.9439 153.004 51.965 152.941 51.9913C152.877 52.0177 152.815 52.0504 152.759 52.0884C152.7 52.1263 152.647 52.1706 152.598 52.2191C152.402 52.4153 152.289 52.6874 152.289 52.9648C152.289 53.0334 152.296 53.103 152.31 53.1705C152.324 53.238 152.344 53.3044 152.37 53.3677C152.397 53.432 152.429 53.4932 152.467 53.5502C152.505 53.6082 152.549 53.662 152.598 53.7105C152.646 53.759 152.7 53.8033 152.758 53.8412C152.815 53.8792 152.876 53.9119 152.941 53.9383C153.004 53.9646 153.07 53.9847 153.138 53.9984C153.205 54.0121 153.275 54.0195 153.344 54.0195C153.413 54.0195 153.482 54.0121 153.55 53.9984C153.618 53.9847 153.683 53.9646 153.748 53.9383C153.811 53.9119 153.872 53.8792 153.929 53.8412C153.987 53.8033 154.041 53.759 154.089 53.7105C154.138 53.662 154.182 53.6082 154.221 53.5502C154.259 53.4932 154.292 53.432 154.318 53.3677C154.343 53.3044 154.365 53.238 154.378 53.1705C154.392 53.103 154.398 53.0334 154.398 52.9648C154.398 52.6874 154.285 52.4153 154.089 52.2191Z" fill="#FCC41A"/>
<path d="M131.177 74.1693C131.164 74.1018 131.143 74.0354 131.117 73.971C131.091 73.9077 131.058 73.8466 131.02 73.7896C130.982 73.7316 130.938 73.6778 130.889 73.6293C130.841 73.5808 130.787 73.5365 130.729 73.4985C130.672 73.4605 130.611 73.4278 130.547 73.4015C130.483 73.3751 130.417 73.354 130.35 73.3414C130.213 73.3139 130.074 73.3139 129.938 73.3414C129.87 73.354 129.804 73.3751 129.741 73.4015C129.676 73.4278 129.615 73.4605 129.558 73.4985C129.5 73.5365 129.446 73.5808 129.398 73.6293C129.349 73.6778 129.305 73.7316 129.267 73.7896C129.229 73.8466 129.196 73.9077 129.17 73.971C129.144 74.0354 129.123 74.1018 129.11 74.1693C129.096 74.2368 129.089 74.3064 129.089 74.375C129.089 74.4435 129.096 74.5131 129.11 74.5806C129.123 74.6481 129.144 74.7146 129.17 74.7789C129.196 74.8422 129.229 74.9034 129.267 74.9603C129.305 75.0183 129.349 75.0721 129.398 75.1206C129.446 75.1691 129.5 75.2134 129.558 75.2514C129.615 75.2894 129.676 75.3221 129.741 75.3484C129.804 75.3748 129.87 75.3959 129.938 75.4086C130.005 75.4223 130.075 75.4296 130.143 75.4296C130.212 75.4296 130.282 75.4223 130.35 75.4086C130.417 75.3959 130.483 75.3748 130.547 75.3484C130.611 75.3221 130.672 75.2894 130.729 75.2514C130.787 75.2134 130.841 75.1691 130.889 75.1206C130.938 75.0721 130.982 75.0183 131.02 74.9603C131.058 74.9034 131.091 74.8422 131.117 74.7789C131.143 74.7146 131.164 74.6481 131.177 74.5806C131.191 74.5131 131.198 74.4435 131.198 74.375C131.198 74.3064 131.191 74.2368 131.177 74.1693Z" fill="#FCC41A"/>
<circle cx="194" cy="20" r="19.5" fill="#29211E" stroke="#FCC41A"/>
<path d="M189 25.234C187.488 25.234 186.336 24.694 185.544 23.614C184.764 22.522 184.374 20.896 184.374 18.736C184.374 16.576 184.764 14.956 185.544 13.876C186.336 12.784 187.488 12.238 189 12.238C190.512 12.238 191.658 12.784 192.438 13.876C193.218 14.956 193.608 16.576 193.608 18.736C193.608 20.896 193.218 22.522 192.438 23.614C191.658 24.694 190.512 25.234 189 25.234ZM189 24.478C189.816 24.478 190.422 24.022 190.818 23.11C191.214 22.186 191.412 20.728 191.412 18.736C191.412 16.756 191.214 15.304 190.818 14.38C190.422 13.456 189.816 12.994 189 12.994C188.184 12.994 187.578 13.456 187.182 14.38C186.786 15.304 186.588 16.756 186.588 18.736C186.588 20.728 186.786 22.186 187.182 23.11C187.578 24.022 188.184 24.478 189 24.478ZM205.017 20.446C205.113 20.662 205.161 20.866 205.161 21.058C205.161 21.346 205.077 21.61 204.909 21.85H203.325V22.642C203.325 23.578 203.421 24.292 203.613 24.784C203.277 25.084 202.905 25.234 202.497 25.234C202.173 25.234 201.903 25.144 201.687 24.964C201.483 24.772 201.381 24.514 201.381 24.19V21.85H195.837C195.657 21.814 195.513 21.724 195.405 21.58C195.297 21.436 195.243 21.28 195.243 21.112C195.243 20.956 195.285 20.818 195.369 20.698L201.075 12.814C201.159 12.694 201.309 12.586 201.525 12.49C201.741 12.382 201.957 12.328 202.173 12.328C202.497 12.328 202.761 12.424 202.965 12.616C203.181 12.796 203.289 13.048 203.289 13.372L203.325 20.698C203.961 20.662 204.525 20.578 205.017 20.446ZM201.381 20.734L201.363 14.146L196.629 20.734H201.381Z" fill="white"/>
</svg>
