<svg width="58" height="18" viewBox="0 0 58 18" fill="none" xmlns="http://www.w3.org/2000/svg">
<g id="right-up 1" clip-path="url(#clip0_1_4310)">
<g id="ICON">
<path id="Vector" fill-rule="evenodd" clip-rule="evenodd" d="M51.4349 5.76418C47.0171 11.8341 38.3112 15.1661 31.1224 13.0293C26.9376 11.7846 22.199 9.31477 17.5594 8.13193C12.3248 6.79646 7.22319 7.0223 2.93834 11.4495C1.82975 12.5941 1.00784 13.9131 0.306592 15.3362C-0.123439 16.2097 0.236467 17.2678 1.10994 17.6978C1.98237 18.1289 3.04147 17.769 3.4715 16.8955C4.00981 15.8044 4.6234 14.7804 5.47315 13.9028C8.74737 10.5193 12.6867 10.5296 16.688 11.5505C21.2832 12.722 25.9723 15.1785 30.1169 16.4108C38.303 18.8435 48.1545 15.3527 53.5975 8.7249C53.5531 11.1494 53.6965 13.479 54.4214 15.89C54.7019 16.8223 55.6868 17.3513 56.619 17.0708C57.5513 16.7903 58.0803 15.8055 57.7998 14.8732C56.9624 12.0888 57.0656 9.42409 57.2068 6.53452C57.278 5.09283 57.6791 3.1479 57.3626 1.73508C57.2285 1.1318 56.9078 0.792523 56.5891 0.572866C56.2921 0.367648 55.9487 0.249054 55.5548 0.242867C55.2722 0.238742 54.9071 0.300615 54.5184 0.514084C54.3214 0.623396 53.8697 0.970928 53.746 1.06787C53.0787 1.35455 52.395 1.61237 51.7196 1.8774C49.5137 2.74262 47.2872 3.50265 45.1598 4.55865C44.2873 4.99177 43.9305 6.05087 44.3636 6.9233C44.7968 7.79574 45.8559 8.15152 46.7283 7.7184C48.2587 6.9594 49.8447 6.36437 51.4349 5.76418Z" fill="#FFFCF4"/>
</g>
</g>
<defs>
<clipPath id="clip0_1_4310">
<rect width="58" height="18" fill="white"/>
</clipPath>
</defs>
</svg>
