<svg width="135" height="28" viewBox="0 0 135 28" fill="none" xmlns="http://www.w3.org/2000/svg">
<rect width="135" height="28" rx="13" fill="#FCC41A"/>
<path d="M29.5264 14.1006V15.7002H24.3311V14.1006H29.5264ZM24.9395 10.0469V20H22.8887V10.0469H24.9395ZM30.9893 10.0469V20H28.9453V10.0469H30.9893ZM44.6592 14.791V15.2627C44.6592 16.0192 44.5567 16.6982 44.3516 17.2998C44.1465 17.9014 43.8571 18.4141 43.4834 18.8379C43.1097 19.2572 42.6631 19.5785 42.1436 19.8018C41.6286 20.0251 41.0567 20.1367 40.4278 20.1367C39.8034 20.1367 39.2315 20.0251 38.712 19.8018C38.197 19.5785 37.7504 19.2572 37.3721 18.8379C36.9939 18.4141 36.6999 17.9014 36.4903 17.2998C36.2852 16.6982 36.1827 16.0192 36.1827 15.2627V14.791C36.1827 14.0299 36.2852 13.3509 36.4903 12.7539C36.6954 12.1523 36.9847 11.6396 37.3584 11.2158C37.7367 10.792 38.1833 10.4684 38.6983 10.2451C39.2178 10.0218 39.7898 9.91016 40.4141 9.91016C41.043 9.91016 41.6149 10.0218 42.1299 10.2451C42.6495 10.4684 43.0961 10.792 43.4698 11.2158C43.848 11.6396 44.1397 12.1523 44.3448 12.7539C44.5544 13.3509 44.6592 14.0299 44.6592 14.791ZM42.5879 15.2627V14.7773C42.5879 14.2487 42.5401 13.7839 42.4444 13.3828C42.3487 12.9818 42.2074 12.6445 42.0205 12.3711C41.8337 12.0977 41.6058 11.8926 41.337 11.7559C41.0681 11.6146 40.7605 11.5439 40.4141 11.5439C40.0677 11.5439 39.7601 11.6146 39.4913 11.7559C39.2269 11.8926 39.0013 12.0977 38.8145 12.3711C38.6322 12.6445 38.4932 12.9818 38.3975 13.3828C38.3018 13.7839 38.2539 14.2487 38.2539 14.7773V15.2627C38.2539 15.7868 38.3018 16.2516 38.3975 16.6572C38.4932 17.0583 38.6345 17.3978 38.8213 17.6758C39.0082 17.9492 39.236 18.1566 39.5049 18.2979C39.7738 18.4391 40.0814 18.5098 40.4278 18.5098C40.7741 18.5098 41.0817 18.4391 41.3506 18.2979C41.6195 18.1566 41.8451 17.9492 42.0274 17.6758C42.2097 17.3978 42.3487 17.0583 42.4444 16.6572C42.5401 16.2516 42.5879 15.7868 42.5879 15.2627ZM57.9464 10.0469V20H55.8956L51.8966 13.3281V20H49.8458V10.0469H51.8966L55.9024 16.7256V10.0469H57.9464ZM70.1193 18.4004V20H64.8214V18.4004H70.1193ZM65.4913 10.0469V20H63.4405V10.0469H65.4913ZM69.4288 14.1006V15.6592H64.8214V14.1006H69.4288ZM70.1124 10.0469V11.6533H64.8214V10.0469H70.1124ZM76.3927 10.0469L78.4709 14.5859L80.549 10.0469H82.7843L79.5099 16.377V20H77.4318V16.377L74.1505 10.0469H76.3927ZM98.4963 15.6318H95.9397L95.926 14.2236H98.0725C98.4508 14.2236 98.7607 14.1758 99.0022 14.0801C99.2437 13.9798 99.4237 13.8363 99.5422 13.6494C99.6653 13.458 99.7268 13.2256 99.7268 12.9521C99.7268 12.6423 99.6676 12.3916 99.5491 12.2002C99.4351 12.0088 99.2551 11.8698 99.009 11.7832C98.7675 11.6966 98.4553 11.6533 98.0725 11.6533H96.6506V20H94.5998V10.0469H98.0725C98.6513 10.0469 99.1685 10.1016 99.6243 10.2109C100.085 10.3203 100.474 10.4867 100.793 10.71C101.112 10.9333 101.356 11.2158 101.525 11.5576C101.693 11.8949 101.778 12.2959 101.778 12.7607C101.778 13.1709 101.684 13.5492 101.497 13.8955C101.315 14.2419 101.026 14.5244 100.629 14.7432C100.237 14.9619 99.7245 15.0827 99.0911 15.1055L98.4963 15.6318ZM98.4075 20H95.3791L96.1789 18.4004H98.4075C98.7675 18.4004 99.0614 18.3434 99.2893 18.2295C99.5172 18.111 99.6858 17.9515 99.7952 17.751C99.9045 17.5505 99.9592 17.3203 99.9592 17.0605C99.9592 16.7689 99.9091 16.516 99.8088 16.3018C99.7131 16.0876 99.5582 15.9235 99.344 15.8096C99.1298 15.6911 98.8472 15.6318 98.4963 15.6318H96.5207L96.5344 14.2236H98.9954L99.467 14.7773C100.073 14.7682 100.561 14.8753 100.93 15.0986C101.304 15.3174 101.575 15.6022 101.743 15.9531C101.917 16.304 102.003 16.68 102.003 17.0811C102.003 17.7191 101.864 18.2568 101.586 18.6943C101.308 19.1273 100.9 19.4531 100.363 19.6719C99.8293 19.8906 99.1776 20 98.4075 20ZM113.93 18.4004V20H108.632V18.4004H113.93ZM109.302 10.0469V20H107.251V10.0469H109.302ZM113.24 14.1006V15.6592H108.632V14.1006H113.24ZM113.923 10.0469V11.6533H108.632V10.0469H113.923Z" fill="black"/>
</svg>
