<svg width="144" height="144" viewBox="0 0 144 144" fill="none" xmlns="http://www.w3.org/2000/svg">
<g filter="url(#filter0_d_1_5037)">
<circle cx="71" cy="71" r="40" fill="white"/>
</g>
<path d="M81.3636 69.2495H60.6368C60.2501 69.2495 59.9365 69.563 59.9365 69.9497V83.6743C59.9365 85.0257 61.036 86.1251 62.3873 86.1251H79.613C80.9644 86.1251 82.0638 85.0257 82.0638 83.6743V69.9497C82.0638 69.563 81.7503 69.2495 81.3636 69.2495ZM80.6634 72.5406H66.4877C66.101 72.5406 65.7874 72.8541 65.7874 73.2408C65.7874 73.6276 66.101 73.9411 66.4877 73.9411H80.6634V83.6743C80.6634 84.2534 80.1923 84.7246 79.613 84.7246H62.3873C61.8082 84.7246 61.337 84.2534 61.337 83.6743V70.65H80.6634V72.5406Z" fill="#FCC41A"/>
<path d="M77.2831 78.2763C77.4563 77.9402 77.5548 77.5597 77.5548 77.1563C77.5548 75.8028 76.4536 74.7017 75.1001 74.7017C73.7466 74.7017 72.6455 75.8028 72.6455 77.1563C72.6455 77.3836 72.6772 77.6035 72.7354 77.8126C71.7146 78.0569 70.9531 78.9764 70.9531 80.071C70.9531 81.3517 71.9951 82.3936 73.2757 82.3936C73.6945 82.3936 74.0873 82.2816 74.4269 82.0869C74.8661 82.9493 75.762 83.5417 76.7943 83.5417C78.2586 83.5417 79.4499 82.3504 79.4499 80.8861C79.4499 79.5888 78.5146 78.5065 77.2831 78.2763ZM73.2757 80.993C72.7672 80.993 72.3536 80.5794 72.3536 80.071C72.3536 79.5625 72.7672 79.1488 73.2757 79.1488C73.7842 79.1488 74.1978 79.5625 74.1978 80.071C74.1978 80.5794 73.7842 80.993 73.2757 80.993ZM74.046 77.1563C74.046 76.575 74.5188 76.1021 75.1001 76.1021C75.6814 76.1021 76.1543 76.575 76.1543 77.1563C76.1543 77.7375 75.6814 78.2104 75.1001 78.2104C74.5188 78.2104 74.046 77.7375 74.046 77.1563ZM76.7943 82.1412C76.1022 82.1412 75.5391 81.5781 75.5391 80.886C75.5391 80.194 76.1022 79.6309 76.7943 79.6309C77.4864 79.6309 78.0495 80.194 78.0495 80.886C78.0495 81.5781 77.4864 82.1412 76.7943 82.1412Z" fill="#FCC41A"/>
<path d="M85.569 62.2624L82.6284 59.1442C83.0163 58.6931 83.2396 58.1114 83.2396 57.4996V55.5554C83.2396 54.1871 82.1085 53.074 80.718 53.074H61.282C59.8915 53.074 58.7604 54.1871 58.7604 55.5554V57.4996C58.7604 58.1113 58.9836 58.693 59.3716 59.1441L56.431 62.2623C56.2805 62.4219 56.2135 62.6428 56.25 62.8592C56.2865 63.0755 56.4222 63.2623 56.6167 63.3637L57.25 63.6938C57.5702 63.8608 57.8364 64.067 58.12 64.2867C58.2724 64.4048 58.4264 64.5237 58.5895 64.6368L57.539 67.157C57.2748 67.6428 57.1354 68.1903 57.1354 68.7435V85.6049C57.1354 87.4361 58.6252 88.9258 60.4564 88.9258H81.5437C83.3748 88.9258 84.8646 87.4361 84.8646 85.6049V69.1317C84.8646 68.6043 84.7372 68.0792 84.4956 67.6104L83.3338 64.6881C83.5265 64.5593 83.7053 64.4214 83.882 64.2845C84.164 64.0664 84.4304 63.8603 84.7499 63.6939L85.3833 63.3638C85.5778 63.2624 85.7136 63.0757 85.75 62.8594C85.7866 62.6429 85.7196 62.422 85.569 62.2624ZM83.4641 69.1317V85.6049C83.4641 86.6639 82.6026 87.5254 81.5437 87.5254H60.4564C59.3974 87.5254 58.5359 86.6639 58.5359 85.6049V68.7435C58.5359 68.4153 58.6208 68.0905 58.7813 67.8043C58.7945 67.7807 58.8064 67.7562 58.8169 67.7312L59.8645 65.2179C59.8691 65.219 59.874 65.2197 59.8786 65.2207C59.92 65.2299 59.9632 65.2377 60.0062 65.2457C60.0358 65.2512 60.065 65.2575 60.095 65.2623C60.1225 65.2668 60.1517 65.2698 60.1798 65.2737C60.373 65.3004 60.5743 65.3149 60.7891 65.3149C61.1855 65.3149 61.5226 65.2684 61.8193 65.191C61.8364 65.1865 61.8545 65.1828 61.8713 65.1782C62.0315 65.1337 62.1785 65.0792 62.3171 65.0185C62.7659 64.8216 63.1163 64.552 63.4594 64.2863C64.089 63.7989 64.6837 63.3384 65.8939 63.3384C67.1038 63.3384 67.6996 63.7992 68.3298 64.2867C68.982 64.7922 69.6564 65.3149 70.9989 65.3149C71.2505 65.3149 71.4786 65.2966 71.6876 65.2633C72.2661 65.1714 72.6971 64.9656 73.0717 64.722C73.2835 64.5843 73.4776 64.4347 73.6694 64.2864C73.9842 64.0426 74.2903 63.8057 74.6689 63.6296C75.0476 63.4536 75.4988 63.3385 76.1039 63.3385C76.9726 63.3385 77.5239 63.576 77.9992 63.8902C78.1864 64.014 78.3622 64.1494 78.5404 64.2873C78.6941 64.4062 78.8494 64.5261 79.014 64.6398C79.0241 64.6468 79.0339 64.654 79.0441 64.6609C79.0591 64.6711 79.0747 64.6809 79.0898 64.691C79.4307 64.9184 79.8163 65.1164 80.3183 65.2254C80.3371 65.2294 80.3574 65.2324 80.3766 65.2363C80.4241 65.2458 80.4713 65.2555 80.521 65.2633C80.6415 65.2824 80.7699 65.2956 80.904 65.3041C81.0023 65.3104 81.1032 65.3149 81.2096 65.3149C81.2874 65.3149 81.3637 65.3128 81.4389 65.3092C81.479 65.3073 81.5171 65.3039 81.5561 65.301C81.5883 65.2985 81.6209 65.2967 81.6526 65.2936C81.7074 65.2884 81.7601 65.2815 81.8125 65.2744C81.826 65.2725 81.8399 65.271 81.8533 65.2691C81.9189 65.2594 81.9826 65.2482 82.0446 65.2358L83.2076 68.1614C83.2171 68.1852 83.2278 68.2084 83.2399 68.2311C83.3866 68.5074 83.4641 68.8189 83.4641 69.1317ZM83.0241 63.1776C82.7137 63.4182 82.46 63.6139 82.1554 63.7433C82.1337 63.7525 82.1117 63.7613 82.0897 63.7698C82.0757 63.7751 82.0616 63.7803 82.0474 63.7854C82.0251 63.7933 82.0026 63.801 81.9799 63.8082C81.9656 63.8127 81.9512 63.817 81.9367 63.8213C81.9134 63.8281 81.8899 63.8345 81.8661 63.8405C81.8509 63.8444 81.8355 63.8479 81.8201 63.8514C81.7963 63.8569 81.7724 63.8621 81.7482 63.8668C81.7309 63.8701 81.7132 63.8732 81.6955 63.8762C81.6723 63.8801 81.649 63.884 81.6253 63.8873C81.6042 63.8902 81.5824 63.8926 81.5607 63.8951C81.539 63.8975 81.5175 63.9001 81.4953 63.9021C81.4681 63.9045 81.4397 63.9061 81.4113 63.9079C81.3933 63.909 81.3756 63.9104 81.3571 63.9112C81.3095 63.9132 81.2604 63.9144 81.2095 63.9144C80.5088 63.9144 80.1282 63.7216 79.7036 63.4122C79.7034 63.4121 79.7033 63.4119 79.7031 63.4118C79.6986 63.4086 79.6942 63.4051 79.6898 63.4019C79.5959 63.3331 79.4998 63.2589 79.3975 63.1796C79.2053 63.0308 79.0002 62.8724 78.7706 62.7201C78.1464 62.306 77.3392 61.938 76.1039 61.938H76.1039C74.9955 61.938 74.2318 62.2343 73.6358 62.5943C73.3237 62.7829 73.0575 62.9889 72.812 63.179C72.2756 63.5942 71.91 63.8773 71.1553 63.911C71.1049 63.9133 71.0529 63.9144 70.999 63.9144C70.1357 63.9144 69.7586 63.6221 69.1873 63.1793C68.4722 62.6263 67.5823 61.9379 65.894 61.9379C64.2051 61.9379 63.3164 62.626 62.6021 63.1789C62.1015 63.5665 61.7496 63.8389 61.0914 63.901C60.9974 63.9098 60.8971 63.9144 60.7892 63.9144C60.7371 63.9144 60.687 63.9132 60.6383 63.9111C60.6115 63.9099 60.5857 63.9077 60.5595 63.9059C60.5387 63.9045 60.5173 63.9035 60.4971 63.9017C60.4638 63.8986 60.4316 63.8946 60.3995 63.8904C60.3875 63.8888 60.375 63.8877 60.3632 63.886C60.3286 63.8811 60.2948 63.875 60.2613 63.8687C60.2526 63.8671 60.2436 63.8657 60.235 63.8641C60.2029 63.8576 60.1715 63.85 60.1403 63.8423C60.1306 63.8398 60.1205 63.8378 60.1109 63.8353C60.0849 63.8284 60.0597 63.8205 60.0344 63.8127C60.0199 63.8082 60.005 63.8043 59.9908 63.7996C59.9763 63.7947 59.9623 63.7891 59.948 63.784C59.5958 63.6574 59.3211 63.4457 58.9762 63.1783C58.7173 62.9776 58.4288 62.7541 58.0817 62.5531L60.7476 59.7262H76.5001C76.8868 59.7262 77.2004 59.4127 77.2004 59.0259C77.2004 58.6392 76.8868 58.3257 76.5001 58.3257H60.5382C60.5342 58.3257 60.5303 58.3263 60.5263 58.3263C60.2968 58.1161 60.1609 57.8171 60.1609 57.4996V55.5554C60.1609 54.9493 60.6533 54.4744 61.282 54.4744H80.718C81.3467 54.4744 81.8392 54.9493 81.8392 55.5554V57.4996C81.8392 57.9033 81.6201 58.2777 81.2674 58.4767C81.0799 58.5825 80.9515 58.7687 80.9192 58.9815C80.8869 59.1944 80.9544 59.4104 81.102 59.5669L83.9184 62.5532C83.5722 62.7536 83.2838 62.9767 83.0241 63.1776Z" fill="#FCC41A"/>
<path d="M79.6903 58.531C79.6581 58.4988 79.6225 58.4694 79.584 58.4442C79.5462 58.419 79.5056 58.3972 79.4635 58.3797C79.4208 58.3622 79.3774 58.3482 79.3326 58.3398C79.2423 58.3216 79.1491 58.3216 79.0588 58.3398C79.014 58.3482 78.9698 58.3622 78.9279 58.3797C78.8851 58.3972 78.8446 58.419 78.8068 58.4442C78.7682 58.4694 78.7325 58.4988 78.7003 58.531C78.57 58.6612 78.4951 58.8419 78.4951 59.0261C78.4951 59.0716 78.4999 59.1178 78.5091 59.1626C78.5182 59.2074 78.5315 59.2515 78.549 59.2935C78.5665 59.3363 78.5882 59.3769 78.6134 59.4147C78.6386 59.4532 78.668 59.4889 78.7002 59.5211C78.7324 59.5533 78.7681 59.5827 78.8067 59.6079C78.8445 59.6332 78.8851 59.6549 78.9278 59.6724C78.9698 59.6899 79.0139 59.7032 79.0587 59.7123C79.1035 59.7214 79.1498 59.7263 79.1953 59.7263C79.2415 59.7263 79.287 59.7214 79.3325 59.7123C79.3773 59.7032 79.4208 59.6899 79.4635 59.6724C79.5055 59.6549 79.5461 59.6332 79.5839 59.6079C79.6224 59.5827 79.6581 59.5533 79.6903 59.5211C79.7226 59.4889 79.752 59.4532 79.7779 59.4147C79.8031 59.3769 79.8249 59.3363 79.8424 59.2935C79.8591 59.2515 79.8731 59.2074 79.8822 59.1626C79.8913 59.1178 79.8955 59.0716 79.8955 59.0261C79.8955 58.8419 79.8206 58.6612 79.6903 58.531Z" fill="#FCC41A"/>
<path d="M64.4781 73.1041C64.4698 73.0593 64.4558 73.0152 64.4383 72.9725C64.4208 72.9305 64.3991 72.8898 64.3739 72.852C64.3486 72.8135 64.3192 72.7778 64.287 72.7456C64.2548 72.7134 64.2191 72.684 64.1806 72.6588C64.1428 72.6336 64.1022 72.6118 64.0601 72.5943C64.0175 72.5768 63.9733 72.5628 63.9292 72.5544C63.8382 72.5362 63.7457 72.5362 63.6554 72.5544C63.6106 72.5628 63.5665 72.5768 63.5245 72.5943C63.4818 72.6118 63.4412 72.6336 63.4034 72.6588C63.3649 72.684 63.3292 72.7134 63.297 72.7456C63.2648 72.7778 63.2353 72.8135 63.2101 72.852C63.1849 72.8898 63.1632 72.9305 63.1457 72.9725C63.1282 73.0152 63.1142 73.0593 63.1058 73.1041C63.0967 73.1489 63.0918 73.1951 63.0918 73.2407C63.0918 73.2862 63.0967 73.3324 63.1058 73.3772C63.1142 73.422 63.1282 73.4661 63.1457 73.5088C63.1632 73.5509 63.1849 73.5915 63.2101 73.6293C63.2353 73.6678 63.2648 73.7035 63.297 73.7357C63.3292 73.7679 63.3649 73.7973 63.4034 73.8225C63.4412 73.8478 63.4818 73.8695 63.5245 73.887C63.5666 73.9045 63.6106 73.9185 63.6554 73.9269C63.7003 73.936 63.7465 73.9409 63.792 73.9409C63.8375 73.9409 63.8838 73.936 63.9292 73.9269C63.9733 73.9185 64.0175 73.9045 64.0601 73.887C64.1022 73.8695 64.1428 73.8478 64.1806 73.8225C64.2192 73.7973 64.2549 73.7679 64.287 73.7357C64.3192 73.7035 64.3486 73.6678 64.3739 73.6293C64.399 73.5915 64.4208 73.5509 64.4383 73.5088C64.4558 73.4661 64.4698 73.422 64.4781 73.3772C64.4873 73.3324 64.4921 73.2862 64.4921 73.2407C64.4921 73.1951 64.4873 73.1489 64.4781 73.1041Z" fill="#FCC41A"/>
<defs>
<filter id="filter0_d_1_5037" x="0" y="0" width="144" height="144" filterUnits="userSpaceOnUse" color-interpolation-filters="sRGB">
<feFlood flood-opacity="0" result="BackgroundImageFix"/>
<feColorMatrix in="SourceAlpha" type="matrix" values="0 0 0 0 0 0 0 0 0 0 0 0 0 0 0 0 0 0 127 0" result="hardAlpha"/>
<feOffset dx="1" dy="1"/>
<feGaussianBlur stdDeviation="16"/>
<feComposite in2="hardAlpha" operator="out"/>
<feColorMatrix type="matrix" values="0 0 0 0 0 0 0 0 0 0 0 0 0 0 0 0 0 0 0.1 0"/>
<feBlend mode="normal" in2="BackgroundImageFix" result="effect1_dropShadow_1_5037"/>
<feBlend mode="normal" in="SourceGraphic" in2="effect1_dropShadow_1_5037" result="shape"/>
</filter>
</defs>
</svg>
