<svg width="144" height="144" viewBox="0 0 144 144" fill="none" xmlns="http://www.w3.org/2000/svg">
<g filter="url(#filter0_d_1_5059)">
<circle cx="71" cy="71" r="40" fill="white"/>
</g>
<g clip-path="url(#clip0_1_5059)">
<path d="M61.6295 62.3003V61.1421H58.1335L55.8809 64.8975L56.8734 65.494L58.7897 62.3003H61.6295Z" fill="#FCC41A"/>
<path d="M72.4821 71.2849L73.4752 70.6885L71.2226 66.933H67.7266V68.0912H70.5664L72.4821 71.2849Z" fill="#FCC41A"/>
<path d="M76.0086 70.4076L72.534 64.6166H66.7431L63.2685 58.8257H56.822L53 65.1957L56.4746 70.9867L53 76.7776L56.822 83.1477H62.613L66.0875 88.9386H72.5346L76.0092 83.1477H81.8001L85.6221 76.7776L81.8001 70.4076H76.0086ZM66.7437 65.7748H71.8785L75.0056 70.9867L73.442 73.5926L71.8785 76.1985H66.7437L65.1801 73.5926L63.6165 70.9867L65.1801 68.3807L66.7437 65.7748ZM54.3504 65.1957L57.4776 59.9839H62.6124L65.7395 65.1957L64.1759 67.8017L62.6124 70.4076H57.4776L54.3504 65.1957ZM62.6124 81.9895H57.4776L54.3504 76.7776L57.4776 71.5658H62.6124L64.1759 74.1717L65.7395 76.7776L64.1759 79.3835L62.6124 81.9895ZM71.8785 87.7804H66.7437L63.6165 82.5686L65.1801 79.9626L66.7437 77.3567H71.8785L73.442 79.9626L75.0056 82.5686L71.8785 87.7804ZM81.144 81.9895H76.0092L74.4456 79.3835L72.8821 76.7776L74.4456 74.1717L76.0092 71.5658H81.144L84.2711 76.7776L81.144 81.9895Z" fill="#FCC41A"/>
<path d="M75.5829 76.7776L77.4887 73.6013L76.4955 73.0048L74.2324 76.7776L76.664 80.8313H80.3135V79.6731H77.3202L75.5829 76.7776Z" fill="#FCC41A"/>
<path d="M56.8734 76.4794L55.8809 77.0759L58.1335 80.8313H61.6295V79.6731H58.7897L56.8734 76.4794Z" fill="#FCC41A"/>
<path d="M71.0478 78.515H69.8896V79.6731H71.0478V78.515Z" fill="#FCC41A"/>
<path d="M64.9668 82.5686L67.2299 86.3414L68.223 85.7449L66.3172 82.5686L68.0545 79.6731H68.7315V78.515H67.3984L64.9668 82.5686Z" fill="#FCC41A"/>
<path d="M87.0755 60.4159C85.9075 59.3023 84.5472 58.6711 83.3942 58.6051C83.5268 58.3178 83.6038 58.0017 83.6038 57.6669C83.6038 57.1707 83.4382 56.7132 83.162 56.3362L83.2859 56.0993C83.7689 55.1792 84.601 54.4923 85.6295 54.1652L85.2791 53.0614C83.9582 53.4818 82.8857 54.3696 82.2603 55.5614L82.2453 55.5897C81.9291 55.4421 81.5781 55.3511 81.2029 55.3511C80.8276 55.3511 80.4767 55.4421 80.1605 55.5903L80.1455 55.5619C79.5206 54.3696 78.4487 53.4818 77.1272 53.062L76.7769 54.1657C77.8053 54.4929 78.6375 55.1797 79.1199 56.0999L79.2444 56.3368C78.9676 56.7138 78.8025 57.1718 78.8025 57.6675C78.8025 58.0277 78.8952 58.3642 79.0475 58.6682C78.0144 58.861 76.8707 59.4598 75.8677 60.4159C74.6626 61.5642 73.9434 62.9616 73.9434 64.1516C73.9434 64.806 74.1634 65.3614 74.5798 65.7581C74.9996 66.1576 75.5729 66.3493 76.2244 66.3493C76.7172 66.3493 77.2552 66.2335 77.8036 66.0215C78.308 68.2962 79.6417 69.8285 81.2029 69.8285C82.8145 69.8285 84.1835 68.1804 84.6479 65.805C85.3637 66.1588 86.0789 66.3493 86.7188 66.3493C87.3703 66.3493 87.9436 66.1582 88.3634 65.7581C88.7798 65.3614 88.9998 64.806 88.9998 64.1516C88.9998 62.9616 88.2806 61.5642 87.0755 60.4159ZM81.2035 56.5093C81.8885 56.5093 82.4462 57.0294 82.4462 57.6675C82.4462 58.3057 81.8885 58.8257 81.2035 58.8257C80.5184 58.8257 79.9607 58.3057 79.9607 57.6675C79.9607 57.0294 80.5184 56.5093 81.2035 56.5093ZM81.9372 63.4938C81.6332 63.4729 81.3286 63.466 81.0216 63.4712C81.1913 63.2355 81.343 62.9969 81.4716 62.756C81.6042 63.0045 81.7611 63.2512 81.9372 63.4938ZM75.3789 64.9201C75.1948 64.7446 75.1015 64.4858 75.1015 64.1516C75.1015 63.2847 75.7015 62.1746 76.6674 61.2539C78.2038 59.7893 79.9688 59.4314 80.5919 60.0256C80.7755 60.2011 80.8693 60.4593 80.8693 60.7935C80.8693 61.6598 80.2694 62.7705 79.3035 63.6918C77.7665 65.1575 76.002 65.5154 75.3789 64.9201ZM81.2029 68.6703C80.5149 68.6703 79.8542 68.0669 79.3921 67.1154C80.5311 66.885 81.8712 66.8832 83.0108 67.1143C82.5499 68.0623 81.8932 68.6703 81.2029 68.6703ZM83.4127 66.0192C82.0281 65.7088 80.3777 65.7071 78.9931 66.0157C78.9473 65.8426 78.9056 65.6654 78.8726 65.4812C79.2224 65.2635 79.5658 65.0064 79.8976 64.711C80.9741 64.5587 82.1804 64.6051 83.1909 64.839C83.3206 64.9491 83.4521 65.0521 83.5853 65.1506C83.543 65.4517 83.4857 65.743 83.4127 66.0192ZM87.5637 64.9201C86.9429 65.5148 85.1766 65.157 83.6397 63.6918C82.6738 62.7705 82.0739 61.6598 82.0739 60.7935C82.0739 60.4593 82.1671 60.2011 82.3512 60.0256C82.5406 59.8449 82.8365 59.7517 83.1996 59.7517C84.0283 59.7517 85.2073 60.2352 86.2758 61.2539C87.2417 62.1746 87.8416 63.2847 87.8416 64.1516C87.8416 64.4858 87.7484 64.7446 87.5637 64.9201Z" fill="#FCC41A"/>
</g>
<defs>
<filter id="filter0_d_1_5059" x="0" y="0" width="144" height="144" filterUnits="userSpaceOnUse" color-interpolation-filters="sRGB">
<feFlood flood-opacity="0" result="BackgroundImageFix"/>
<feColorMatrix in="SourceAlpha" type="matrix" values="0 0 0 0 0 0 0 0 0 0 0 0 0 0 0 0 0 0 127 0" result="hardAlpha"/>
<feOffset dx="1" dy="1"/>
<feGaussianBlur stdDeviation="16"/>
<feComposite in2="hardAlpha" operator="out"/>
<feColorMatrix type="matrix" values="0 0 0 0 0 0 0 0 0 0 0 0 0 0 0 0 0 0 0.1 0"/>
<feBlend mode="normal" in2="BackgroundImageFix" result="effect1_dropShadow_1_5059"/>
<feBlend mode="normal" in="SourceGraphic" in2="effect1_dropShadow_1_5059" result="shape"/>
</filter>
<clipPath id="clip0_1_5059">
<rect width="36" height="36" fill="white" transform="translate(53 53)"/>
</clipPath>
</defs>
</svg>
