<svg width="144" height="144" viewBox="0 0 144 144" fill="none" xmlns="http://www.w3.org/2000/svg">
<g filter="url(#filter0_d_1_5077)">
<circle cx="71" cy="71" r="40" fill="white"/>
</g>
<g clip-path="url(#clip0_1_5077)">
<path d="M84.1092 70.4923C86.8216 70.1863 88.8726 67.894 88.8763 65.1645V61.5891H88.2805C87.8587 61.5902 87.4386 61.6416 87.0291 61.7423C86.6313 61.0443 86.143 60.4019 85.5769 59.8319L83.5134 57.7671L81.4492 59.8319C80.8832 60.4018 80.3951 61.0443 79.9976 61.7423C79.5881 61.6416 79.168 61.5902 78.7462 61.5891H78.1504V65.1645C78.1541 67.894 80.2051 70.1863 82.9175 70.4923V73.573C82.1348 72.7687 81.0602 72.3151 79.938 72.3151H76.9586V72.911C76.9612 75.2136 78.8272 77.0796 81.1298 77.0822H82.9175V80.0617H71.5956V72.3151H73.3832C75.6858 72.3125 77.5519 70.4465 77.5545 68.1439V67.548H74.575C73.4528 67.5479 72.3782 68.0016 71.5956 68.8059V65.73C74.6384 65.4203 76.9545 62.86 76.9586 59.8015V56.822H76.3627C75.7583 56.822 75.1574 56.9145 74.581 57.0961C74.1728 56.3515 73.6623 55.6677 73.0644 55.0648L70.9997 53L68.9355 55.0648C68.3374 55.6677 67.8267 56.3514 67.4184 57.0961C66.842 56.9145 66.2411 56.822 65.6367 56.822H65.0408V59.8015C65.0449 62.86 67.361 65.4203 70.4038 65.73V72.3813C69.6212 71.577 68.5466 71.1233 67.4244 71.1233H65.0408V71.7192C65.0434 74.0218 66.9094 75.8878 69.212 75.8905H70.4038V80.0617H59.0819V77.6781H60.8696C62.5142 77.6762 63.8471 76.3433 63.849 74.6987V74.1028H60.8696C60.2228 74.1051 59.5947 74.3199 59.0819 74.7142V72.8759C61.7943 72.5699 63.8453 70.2776 63.849 67.548V63.9727H63.2531C62.8314 63.9737 62.4113 64.0252 62.0018 64.1258C61.604 63.4278 61.1157 62.7855 60.5496 62.2154L58.486 60.1507L56.4219 62.2154C55.8559 62.7854 55.3678 63.4278 54.9703 64.1258C54.5608 64.0252 54.1407 63.9737 53.7189 63.9727H53.123V67.548C53.1268 70.2776 55.1778 72.5699 57.8902 72.8759V80.0617H53.123V83.637H54.3774L54.9733 89H86.3736L87.5654 83.637H88.8763V80.0617H84.1092V76.4863V70.4923ZM81.1298 75.8905C79.7145 75.8887 78.495 74.8932 78.2099 73.5069H79.938C81.3533 73.5087 82.5728 74.5042 82.8579 75.8905H81.1298ZM74.575 68.7398H76.3031C76.018 70.1261 74.7986 71.1216 73.3832 71.1233H71.6552C71.9402 69.7371 73.1597 68.7416 74.575 68.7398ZM69.212 74.6987C67.7967 74.6969 66.5772 73.7014 66.2922 72.3151H67.4244C68.8397 72.3169 70.0592 73.3124 70.3442 74.6987H69.212ZM60.8696 75.2946H62.5554C62.302 76.0084 61.627 76.4856 60.8696 76.4863H59.1838C59.4372 75.7725 60.1121 75.2953 60.8696 75.2946ZM87.6846 62.825V65.1645C87.682 67.2371 86.1602 68.9945 84.1092 69.2934V66.9521C84.1162 64.8815 85.6361 63.1271 87.6846 62.825ZM79.3421 65.1645V62.825C79.5978 62.8632 79.8495 62.9247 80.0941 63.0085C81.7734 63.5952 82.9033 65.1734 82.9175 66.9521V69.2934C80.8665 68.9945 79.3447 67.2371 79.3421 65.1645ZM75.7668 58.0507V59.8015C75.7638 62.2028 73.9777 64.2283 71.5956 64.5316V62.7809C71.5961 62.425 71.6361 62.0703 71.7148 61.7232C72.0578 60.2216 73.1042 58.9777 74.525 58.3827C74.922 58.2163 75.3398 58.1047 75.7668 58.0507ZM69.7781 55.9073L70.9997 54.6852L72.2213 55.9073C72.7135 56.4012 73.138 56.958 73.484 57.5633C73.4756 57.5681 73.4685 57.5746 73.4595 57.5794C73.2175 57.7157 72.9853 57.8689 72.7647 58.0376C72.7051 58.0823 72.6521 58.1324 72.5949 58.1795C72.435 58.3105 72.282 58.4497 72.1367 58.5966C72.0741 58.6603 72.0127 58.7241 71.9531 58.7902C71.8136 58.9453 71.6824 59.1076 71.5598 59.2765C71.5181 59.3361 71.4728 59.3879 71.4329 59.4463C71.2775 59.6747 71.1381 59.9136 71.0158 60.1614C71.0104 60.1721 71.0033 60.1811 70.9985 60.1912C70.9937 60.1805 70.986 60.1715 70.9812 60.1614C70.8589 59.9136 70.7196 59.6747 70.5641 59.4463C70.5242 59.3867 70.4789 59.3337 70.4372 59.2765C70.3146 59.1076 70.1834 58.9453 70.0439 58.7902C69.9843 58.7241 69.9247 58.6597 69.8604 58.5966C69.715 58.4497 69.562 58.3105 69.4021 58.1795C69.3425 58.1324 69.2913 58.0823 69.2323 58.0376C69.0117 57.8689 68.7795 57.7157 68.5375 57.5794C68.5291 57.5746 68.522 57.5681 68.5131 57.5633C68.8597 56.9578 69.2851 56.401 69.7781 55.9073ZM66.2326 59.8015V58.0507C66.6575 58.1043 67.0732 58.2149 67.4685 58.3797C68.8892 58.9747 69.9356 60.2186 70.2787 61.7202C70.3596 62.0681 70.4015 62.4238 70.4038 62.7809V64.5316C68.0217 64.2283 66.2356 62.2028 66.2326 59.8015ZM62.6573 65.2086V67.548C62.6547 69.6207 61.1329 71.378 59.0819 71.6769V69.3357C59.0889 67.265 60.6087 65.5107 62.6573 65.2086ZM57.2645 63.058L58.486 61.8358L59.7082 63.058C60.1529 63.503 60.5428 63.9995 60.8696 64.537C60.863 64.54 60.8571 64.5447 60.8511 64.5483C60.6105 64.6697 60.3794 64.8091 60.1599 64.9654C60.1039 65.0054 60.055 65.0524 60.0014 65.0942C59.8429 65.2142 59.6911 65.3429 59.5467 65.4797C59.4758 65.5482 59.4126 65.6227 59.3459 65.6948C59.2309 65.8188 59.1189 65.9439 59.0158 66.078C58.9508 66.1626 58.8918 66.2502 58.8323 66.3378C58.7411 66.4718 58.6535 66.6089 58.5766 66.7507C58.5492 66.7996 58.517 66.8431 58.4884 66.8931C58.4628 66.8437 58.4288 66.7996 58.4002 66.7507C58.321 66.6083 58.2358 66.4718 58.1446 66.3378C58.085 66.2496 58.0254 66.162 57.9611 66.078C57.858 65.9439 57.7459 65.8188 57.6309 65.6948C57.5642 65.6227 57.501 65.5482 57.4301 65.4797C57.2856 65.3429 57.1336 65.2141 56.9749 65.0942C56.9212 65.0524 56.8724 65.0054 56.817 64.966C56.5974 64.8097 56.3664 64.6703 56.1257 64.5489C56.1192 64.5453 56.1138 64.5406 56.1073 64.5376C56.4326 64 56.8211 63.5033 57.2645 63.058ZM54.3148 67.548V65.2086C54.5705 65.2468 54.8222 65.3082 55.0668 65.3921C56.5699 65.9111 57.6493 67.2367 57.8532 68.8137C57.8763 68.9867 57.8887 69.1611 57.8902 69.3357V71.6769C55.8392 71.378 54.3174 69.6207 54.3148 67.548ZM85.4202 87.8082H56.0429L55.5793 83.637H86.3456L85.4202 87.8082ZM87.6846 81.2535V82.4452H54.3148V81.2535H87.6846ZM84.0431 63.6944C83.9781 63.779 83.9191 63.8666 83.8596 63.9542C83.7684 64.0883 83.6808 64.2253 83.6039 64.3672C83.5765 64.416 83.5443 64.4595 83.5157 64.5096C83.4901 64.4601 83.4561 64.416 83.4275 64.3672C83.3483 64.2247 83.2631 64.0883 83.1719 63.9542C83.1123 63.866 83.0527 63.7784 82.9884 63.6944C82.8853 63.5603 82.7733 63.4352 82.6583 63.3113C82.5915 63.2392 82.5283 63.1647 82.4574 63.0961C82.3129 62.9593 82.1609 62.8306 82.0022 62.7106C81.9485 62.6689 81.8997 62.6218 81.8443 62.5825C81.6248 62.4261 81.3937 62.2867 81.153 62.1654C81.1465 62.1618 81.1411 62.157 81.1346 62.154C81.4599 61.6165 81.8484 61.1197 82.2918 60.6744L83.5134 59.4523L84.7355 60.6744C85.1802 61.1194 85.5701 61.6159 85.8969 62.1534C85.8904 62.1564 85.8844 62.1612 85.8784 62.1648C85.6378 62.2861 85.4067 62.4255 85.1872 62.5819C85.1312 62.6218 85.0823 62.6689 85.0287 62.7106C84.8702 62.8307 84.7184 62.9594 84.574 63.0961C84.5031 63.1647 84.44 63.2392 84.3732 63.3113C84.2582 63.4352 84.1462 63.5603 84.0431 63.6944Z" fill="#FCC41A"/>
</g>
<defs>
<filter id="filter0_d_1_5077" x="0" y="0" width="144" height="144" filterUnits="userSpaceOnUse" color-interpolation-filters="sRGB">
<feFlood flood-opacity="0" result="BackgroundImageFix"/>
<feColorMatrix in="SourceAlpha" type="matrix" values="0 0 0 0 0 0 0 0 0 0 0 0 0 0 0 0 0 0 127 0" result="hardAlpha"/>
<feOffset dx="1" dy="1"/>
<feGaussianBlur stdDeviation="16"/>
<feComposite in2="hardAlpha" operator="out"/>
<feColorMatrix type="matrix" values="0 0 0 0 0 0 0 0 0 0 0 0 0 0 0 0 0 0 0.1 0"/>
<feBlend mode="normal" in2="BackgroundImageFix" result="effect1_dropShadow_1_5077"/>
<feBlend mode="normal" in="SourceGraphic" in2="effect1_dropShadow_1_5077" result="shape"/>
</filter>
<clipPath id="clip0_1_5077">
<rect width="36" height="36" fill="white" transform="translate(53 53)"/>
</clipPath>
</defs>
</svg>
