<svg width="144" height="144" viewBox="0 0 144 144" fill="none" xmlns="http://www.w3.org/2000/svg">
<g filter="url(#filter0_d_1_5024)">
<circle cx="71" cy="71" r="40" fill="white"/>
</g>
<g clip-path="url(#clip0_1_5024)">
<path d="M88.055 60.0491C87.136 59.1251 85.8855 58.6071 84.5823 58.6107C84.1109 58.6107 83.642 58.6783 83.1898 58.8115C83.3229 58.3593 83.3906 57.8904 83.3906 57.419C83.3942 56.1157 82.8762 54.8652 81.9522 53.9463L81.0071 53.0012L80.0621 53.9463C78.6738 55.3209 78.245 57.3939 78.974 59.2066H75.2952L76.4869 58.0148L73.8567 55.3847L70.0349 59.2066H53.0015V62.7817H64.3229V65.1652H61.9394C60.9522 65.1652 60.1518 65.9655 60.1518 66.9528C60.1538 67.1563 60.1909 67.3578 60.2615 67.5487H58.9601C57.6438 67.5487 56.5767 68.6158 56.5767 69.9321C56.579 70.3518 56.6934 70.7632 56.908 71.1239H56.5767C55.2603 71.1244 54.1936 72.1919 54.1942 73.5083C54.1944 73.9834 54.3366 74.4477 54.6026 74.8415C53.3649 75.2649 52.7047 76.6115 53.1282 77.8492C53.3652 78.5422 53.9096 79.0865 54.6026 79.3236C53.8657 80.4144 54.1527 81.896 55.2435 82.6328C55.6372 82.8987 56.1015 83.0409 56.5767 83.0412H56.908C56.6934 83.4018 56.579 83.8132 56.5767 84.2329C56.5767 85.5492 57.6438 86.6163 58.9601 86.6163H60.2615C60.1909 86.8072 60.1538 87.0087 60.1518 87.2122C60.1518 88.1995 60.9522 88.9998 61.9394 88.9998H70.8774C71.8647 88.9998 72.665 88.1995 72.665 87.2122C72.6631 87.0087 72.626 86.8072 72.5554 86.6163H73.8567C75.1731 86.6163 76.2402 85.5492 76.2402 84.2329C76.2379 83.8132 76.1235 83.4018 75.9089 83.0412H76.2402C77.5565 83.0406 78.6232 81.9731 78.6227 80.6567C78.6225 80.1816 78.4803 79.7174 78.2143 79.3236C79.452 78.9001 80.1121 77.5535 79.6887 76.3159C79.4516 75.6229 78.9073 75.0785 78.2143 74.8415C78.9512 73.7507 78.6642 72.269 77.5734 71.5322C77.1797 71.2663 76.7154 71.1241 76.2402 71.1239H75.9089C76.1235 70.7632 76.2379 70.3518 76.2402 69.9321C76.2402 68.6158 75.1731 67.5487 73.8567 67.5487H72.5554C72.626 67.3578 72.6631 67.1563 72.665 66.9528C72.665 65.9655 71.8647 65.1652 70.8774 65.1652H67.8981V62.7817H81.603V62.3646C83.5556 63.8625 86.3163 63.6802 88.055 61.9386L89 60.9942L88.055 60.0491ZM56.5767 81.8494C55.9184 81.8494 55.3849 81.3159 55.3849 80.6577C55.3849 79.9995 55.9184 79.466 56.5767 79.466H63.1908C63.186 79.4874 63.1908 79.5095 63.1842 79.5309C63.15 79.7059 63.1323 79.8836 63.1312 80.0618V81.8494H56.5767ZM70.8774 87.8081H61.9394C61.6104 87.8081 61.3436 87.5413 61.3436 87.2122C61.3436 86.8831 61.6104 86.6163 61.9394 86.6163H70.8774C71.2065 86.6163 71.4733 86.8831 71.4733 87.2122C71.4733 87.5413 71.2066 87.8081 70.8774 87.8081ZM73.8567 85.4246H58.9601C58.3019 85.4246 57.7684 84.8911 57.7684 84.2329C57.7684 83.5747 58.3019 83.0412 58.9601 83.0412H73.8567C74.5149 83.0412 75.0485 83.5747 75.0485 84.2329C75.0485 84.8911 74.5149 85.4246 73.8567 85.4246ZM64.3229 81.8494V80.0618C64.3178 79.0785 65.1109 78.2773 66.0942 78.2723C66.7359 78.269 67.3296 78.6112 67.6484 79.168C67.8103 79.4382 67.8965 79.7469 67.8981 80.0618V81.8494H64.3229ZM76.2402 81.8494H69.0898V80.0618C69.0879 79.8835 69.0693 79.7058 69.0344 79.5309C69.0302 79.5095 69.0344 79.4874 69.0278 79.466H76.2402C76.8984 79.466 77.4319 79.9995 77.4319 80.6577C77.4319 81.3159 76.8984 81.8494 76.2402 81.8494ZM78.6237 77.0825C78.6237 77.7407 78.0901 78.2742 77.4319 78.2742H68.4814C68.4767 78.2683 68.4713 78.2629 68.4665 78.2564C68.4457 78.229 68.4219 78.2045 68.3998 78.1777C68.3402 78.1086 68.2848 78.0407 68.221 77.9769C68.1901 77.9453 68.1573 77.9173 68.1251 77.8869C68.0655 77.8333 68.0059 77.7803 67.9464 77.7314C67.9094 77.7016 67.8707 77.6718 67.8325 77.6468C67.773 77.6027 67.7092 77.561 67.6454 77.5217C67.6037 77.496 67.562 77.4722 67.5197 77.449C67.4542 77.4132 67.388 77.3804 67.3201 77.3501C67.276 77.3298 67.2325 77.3101 67.1872 77.2905C67.1169 77.2625 67.0448 77.2386 66.9721 77.2166C66.9274 77.2029 66.8839 77.188 66.8386 77.1761C66.7588 77.1552 66.6772 77.1403 66.5955 77.1266C66.5562 77.12 66.5175 77.1105 66.4764 77.1052C66.2312 77.0719 65.9827 77.0719 65.7375 77.1052C65.6976 77.1105 65.6588 77.1195 65.6183 77.1266C65.5367 77.1403 65.455 77.1552 65.3752 77.1761C65.3299 77.188 65.2864 77.2029 65.2417 77.2166C65.169 77.2392 65.0975 77.2625 65.0266 77.2905C64.9813 77.3083 64.9378 77.328 64.8937 77.3501C64.8258 77.381 64.7597 77.4132 64.6941 77.449C64.6518 77.4722 64.6095 77.4966 64.5684 77.5217C64.504 77.561 64.4421 77.6027 64.3813 77.6468C64.3426 77.6742 64.3044 77.7016 64.2675 77.7314C64.2079 77.7803 64.1483 77.8333 64.0887 77.8869C64.0565 77.9167 64.0238 77.9465 63.9928 77.9769C63.9332 78.0407 63.8736 78.1086 63.814 78.1777C63.792 78.2045 63.7681 78.229 63.7473 78.2564C63.7425 78.2623 63.7372 78.2677 63.7324 78.2742H55.3849C54.7267 78.2742 54.1932 77.7407 54.1932 77.0825C54.1932 76.4243 54.7267 75.8908 55.3849 75.8908H77.4319C78.0901 75.8908 78.6237 76.4243 78.6237 77.0825ZM76.2402 72.3156C76.8984 72.3156 77.4319 72.8491 77.4319 73.5073C77.4319 74.1655 76.8984 74.699 76.2402 74.699H56.5767C55.9184 74.699 55.3849 74.1655 55.3849 73.5073C55.3849 72.8491 55.9184 72.3156 56.5767 72.3156H76.2402ZM73.8567 68.7404C74.5149 68.7404 75.0485 69.2739 75.0485 69.9321C75.0485 70.5903 74.5149 71.1239 73.8567 71.1239H58.9601C58.3019 71.1239 57.7684 70.5903 57.7684 69.9321C57.7684 69.2739 58.3019 68.7404 58.9601 68.7404H73.8567ZM70.8774 66.3569C71.2065 66.3569 71.4733 66.6237 71.4733 66.9528C71.4733 67.2819 71.2065 67.5487 70.8774 67.5487H61.9394C61.6104 67.5487 61.3436 67.2819 61.3436 66.9528C61.3436 66.6237 61.6104 66.3569 61.9394 66.3569H70.8774ZM65.5146 65.1652V62.7817H66.7064V65.1652H65.5146ZM54.1932 61.59V60.3983H70.5282L73.8567 57.0698L74.8018 58.0148L72.4183 60.3983H79.6313C79.6444 60.4156 79.6599 60.4293 79.673 60.446C79.7933 60.6022 79.9231 60.7511 80.0615 60.8917L80.164 60.9942L80.4107 61.2408L80.4113 61.59H54.1932ZM81.1096 60.0491L81.0071 60.1516L80.9046 60.0491C80.7293 59.8733 80.5718 59.6804 80.4345 59.4735C79.4566 57.9993 79.6529 56.0402 80.904 54.7894L80.9046 54.7888L81.0071 54.6863L81.1096 54.7888C82.562 56.2415 82.562 58.5964 81.1096 60.0491ZM87.2125 61.0966C85.7598 62.549 83.4049 62.549 81.9522 61.0966L81.8497 60.9942L81.9522 60.8917C83.4048 59.4393 85.7597 59.4393 87.2125 60.8917L87.3149 60.9942L87.2125 61.0966Z" fill="#FCC41A"/>
<path d="M87.1491 71.6555C87.6614 70.7657 87.515 69.6431 86.7915 68.9145L86.4739 68.5969C87.3822 68.21 87.8049 67.16 87.4179 66.2518C87.1373 65.593 86.4906 65.1652 85.7744 65.1648H85.6719C85.1976 65.1636 84.7426 65.3522 84.4081 65.6885L83.9868 66.1098L83.8122 65.9352C83.233 65.36 82.39 65.1394 81.6033 65.3572V63.973H80.4116V65.7606H78.624V66.9523H80.0082C79.7904 67.739 80.0109 68.5821 80.5862 69.1612L80.7608 69.3358L80.3395 69.7571C80.0032 70.0915 79.8146 70.5466 79.8158 71.0209V71.1234C79.8163 72.1107 80.6171 72.9106 81.6044 72.91C82.3205 72.9095 82.9673 72.4818 83.2479 71.8229L83.5655 72.1405C84.2911 72.8703 85.4181 73.0173 86.3065 72.4981L87.1407 73.3323L87.9833 72.4897L87.1491 71.6555ZM82.1992 71.1234C82.1992 71.4525 81.9324 71.7193 81.6033 71.7193C81.2743 71.7193 81.0075 71.4525 81.0075 71.1234V71.0209C81.008 70.863 81.0707 70.7116 81.1821 70.5996L82.0246 69.7571L82.1992 69.5825V71.1234ZM82.3744 67.7222L81.6033 68.4933L81.4288 68.3187C81.0044 67.8929 81.0044 67.2041 81.4288 66.7784C81.8547 66.3544 82.5432 66.3544 82.9691 66.7784L82.9697 66.7778L83.1443 66.9523L82.3744 67.7222ZM83.3909 70.2808V68.7399H84.9318L85.2298 69.0379L83.6889 70.5788L83.3909 70.2808ZM85.8214 71.4088C85.4407 71.686 84.9247 71.686 84.5439 71.4088L86.0598 69.8929C86.4126 70.3774 86.3058 71.0561 85.8214 71.4088ZM85.7744 67.5482H84.2335L84.4081 67.3736L85.2506 66.5311C85.3626 66.4197 85.514 66.357 85.6719 66.3565H85.7744C86.1035 66.3565 86.3703 66.6233 86.3703 66.9523C86.3703 67.2814 86.1035 67.5482 85.7744 67.5482Z" fill="#FCC41A"/>
</g>
<defs>
<filter id="filter0_d_1_5024" x="0" y="0" width="144" height="144" filterUnits="userSpaceOnUse" color-interpolation-filters="sRGB">
<feFlood flood-opacity="0" result="BackgroundImageFix"/>
<feColorMatrix in="SourceAlpha" type="matrix" values="0 0 0 0 0 0 0 0 0 0 0 0 0 0 0 0 0 0 127 0" result="hardAlpha"/>
<feOffset dx="1" dy="1"/>
<feGaussianBlur stdDeviation="16"/>
<feComposite in2="hardAlpha" operator="out"/>
<feColorMatrix type="matrix" values="0 0 0 0 0 0 0 0 0 0 0 0 0 0 0 0 0 0 0.1 0"/>
<feBlend mode="normal" in2="BackgroundImageFix" result="effect1_dropShadow_1_5024"/>
<feBlend mode="normal" in="SourceGraphic" in2="effect1_dropShadow_1_5024" result="shape"/>
</filter>
<clipPath id="clip0_1_5024">
<rect width="36" height="36" fill="white" transform="translate(53 53)"/>
</clipPath>
</defs>
</svg>
